**ABCDEFGHIJKLMNOPQRSTUVWXYZabcdefghijklmnopqrstuvwxyz**************************
**PARASOLID !"#$%&'()*+,-./:;<=>?@[\]^_`{|}~0123456789**************************
**PART1;
MC=x86;
MC_MODEL=Intel64 Family 6 Model 60 Stepping 3, GenuineIntel;
MC_ID=unknown;
OS=Windows_NT;
OS_RELEASE=unknown;
FRU=CAD Exchanger 3.4.0 (cadexchanger.com);
APPL=unknown;
SITE=unknown;
USER=unknown;
FORMAT=text;
GUISE=transmit;
KEY=TC3216-1206_i6124B5A087028000006;
FILE=TC3216-1206_i6124B5A087028000006.x_t;
DATE=Thu Dec 27 16:55:52 2018;
**PART2;
SCH=SCH_1200000_12006;
USFLD_SIZE=0;
**PART3;
**END_OF_HEADER*****************************************************************
T51 : TRANSMIT FILE created by modeller version 120000017 SCH_1200000_120060 12
 1 320 0 2 0 0 0 0 1000 1e-008 0 0 0 1 0 1 1 86 6 12 10 83 11 9 70 2 0 1 0 0 4 1
 20 0 3 3 1 T74 20 3 1 0 4 0 0 0 0 0 0 0 0 0 0 0 0 0 0 0 0 0 0 0 81 1 4 7 80 5 0
 0 89 0 82 14 5 5 4 1e-008 87 0 7 86 6 -0 0 87 0 84 50 6 6 0 5 88 0 0 +0.0015998
78153796198 0.0008999090058554583 0.001800000039340248 -0.9999999999999848 -1.74
8455531469491e-007 0 1.748455531469489e-007 -0.9999999999999838 -4.3711388286738
56e-008 15 7 8 0 8 5 0 17 8 0 7 16 76 9 13 11 0 233 -18 9 9 0 8 0 14 10 ?1 29 10
 10 0 9 15 0 0.001599878188765295 0.0006999090845359605 3.059797180071699e-011 1
6 11 11 0 ?13 0 19 12 0 0 1 30 12 12 0 11 20 0 0 +0.001599878188765295 0.0006999
090845359605 3.059797180071699e-011 7.642741863815873e-015 -4.371138828673789e-0
08 0.9999999999999991 17 13 0 278 279 233 14 8 11 0 76 +18 14 13 0 13 9 17 15 ?1
 29 15 14 0 14 18 10 0.001599878188765301 0.000699909045195711 0.000900000030597
9711 17 16 0 7 22 8 17 21 19 0 27 +18 17 15 0 16 14 23 18 ?1 29 18 16 0 17 24 15
 0.001599878153796184 0.0008999090845359572 3.93402494580647e-011 16 19 17 0 ?16
 11 25 20 0 0 1 30 20 18 0 19 26 12 0 +0.001599878153796184 0.000899909084535957
2 3.93402494580647e-011 -1.748455531469489e-007 0.9999999999999838 4.37113882867
3856e-008 17 21 0 227 228 197 9 16 19 0 0 -17 22 0 7 28 16 23 27 25 0 33 -18 23
 19 0 22 17 29 24 ?1 29 24 20 0 23 30 18 0.001599878153796198 0.0008999090054183
444 0.001810000039340248 16 25 21 0 ?27 19 31 26 0 0 1 30 26 22 0 25 32 20 0 +0.
001599878153796198 0.0008999090058554583 0.001800000039340248 -7.642741863815873
e-015 4.371138828673789e-008 -0.9999999999999991 17 27 0 193 194 210 17 22 25 0
 197 +17 28 0 7 34 22 29 33 31 0 178 -18 29 23 0 39 23 35 30 ?1 29 30 24 0 29 36
 24 0.001599878468518194 -0.0009000909945816266 0.001809999960659749 16 31 25 0
 ?33 25 37 32 0 0 1 30 32 26 0 31 38 26 0 +0.001599878468518194 -0.0009000909945
816266 0.001809999960659749 -1.748455531469489e-007 0.9999999999999838 4.3711388
28673856e-008 17 33 0 273 213 178 23 28 31 0 210 +17 34 0 7 40 28 35 39 37 0 45
 +18 35 27 0 34 29 41 36 ?1 29 36 28 0 35 42 30 0.00159987846851818 -0.000900090
9154640137 -3.93402494580647e-011 16 37 29 0 ?34 31 43 38 0 0 1 30 38 30 0 37 44
 32 0 +0.001599878468518194 -0.0009000909941445127 0.001799999960659749 -7.64274
1863815873e-015 4.371138828673789e-008 -0.9999999999999991 17 39 0 168 173 169 2
9 34 37 0 28 -17 40 0 7 46 34 41 45 43 0 240 +18 41 31 0 40 35 47 42 ?1 29 42 32
 0 41 48 36 0.001599878433549069 -0.000700090915464017 -3.059797180071699e-011 1
6 43 33 0 ?40 37 49 44 0 0 1 30 44 34 0 43 50 38 0 +0.001599878153796184 0.00089
99090845359572 3.93402494580647e-011 -1.748455531469489e-007 0.9999999999999838
 4.371138828673856e-008 17 45 0 227 172 240 35 40 43 0 169 -17 46 0 7 52 40 47 5
1 49 0 57 -18 47 35 0 359 41 53 48 ?1 29 48 36 0 47 54 42 0.001599878433549076 -
0.0007000909548042667 0.0008999999694020275 16 49 37 0 ?51 43 55 50 0 0 1 30 50
 38 0 49 56 44 0 +0.001599878433549076 -0.0007000909548042667 0.0008999999694020
275 -7.642741905942079e-015 4.371138852767171e-008 -0.9999999999999991 17 51 0 3
68 243 359 41 46 49 0 0 +17 52 0 7 58 46 53 57 55 0 344 -18 53 39 0 63 47 59 54
 ?1 29 54 40 0 53 60 48 0.00159987838109541 -0.0004000909548042713 0.00089999998
25154439 16 55 41 0 ?57 49 61 56 0 0 1 30 56 42 0 55 62 50 0 +0.0015998783810954
1 -0.0004000909548042713 0.0008999999825154439 1.748455531469489e-007 -0.9999999
999999838 -4.371138828673856e-008 17 57 0 353 354 344 47 52 55 0 0 +17 58 0 7 64
 52 59 63 61 0 69 -18 59 43 0 58 53 65 60 ?1 29 60 44 0 59 66 54 0.0015998783810
9541 -0.0004000909504331324 0.000799999982515444 16 61 45 0 ?63 55 67 62 0 0 1 3
0 62 46 0 61 68 56 0 +0.00159987838109541 -0.0004000909504331324 0.0007999999825
15444 7.642741863815873e-015 -4.371138828673789e-008 0.9999999999999991 17 63 0
 338 339 329 53 58 61 0 52 +17 64 0 7 70 58 65 69 67 0 75 -18 65 47 0 64 59 71 6
6 ?1 29 66 48 0 65 72 60 0.001599878241218967 0.0003999090495668545 0.0008000000
174845549 16 67 49 0 ?69 61 73 68 0 0 1 30 68 50 0 67 74 62 0 +0.001599878241218
967 0.0003999090495668545 0.0008000000174845549 1.748455531469489e-007 -0.999999
9999999838 -4.371138842226383e-008 17 69 0 323 324 314 59 64 67 0 329 +17 70 0 7
 76 64 71 75 73 0 79 -18 71 51 0 299 65 93 72 ?1 29 72 52 0 71 94 66 0.001599878
241218967 0.0003999090451957157 0.0009000000174845546 16 73 53 0 ?75 67 77 74 0
 0 1 30 74 54 0 73 78 68 0 +0.001599878241218967 0.0003999090451957157 0.0009000
000174845546 -7.642741863815873e-015 4.371138828673789e-008 -0.9999999999999991
 17 75 0 308 309 299 65 70 73 0 314 +17 76 0 7 8 70 14 79 77 0 284 -16 77 55 0 ?
79 73 95 78 0 0 1 30 78 56 0 77 96 74 0 +0.001599878188765301 0.0006999090451957
11 0.0009000000305979711 1.748455531469489e-007 -0.9999999999999838 -4.371138828
673856e-008 17 79 0 293 294 284 71 76 77 0 0 +80 1 80 0 81 8001 0 0 0 0 3 5 0 0
 FFFFTFTFFFFFFF2 79 15 81 SDL/TYSA_COLOUR83 3 82 1 1 0.501960813999176 19 83 1 0
 1 85 0 84 V13 84 2 0 1 0 0 0 0 83 5 19 85 3 0 1 0 83 86 S13 86 4 0 1 0 5 0 0 85
 0 14 87 57 89 1e-008 164 5 91 86 88 -0 0 164 5 84 50 88 58 0 87 165 6 0 +-0.001
600121846203755 0.0008999084463496883 0.001800000039340248 0.9999999999999848 1.
748455534029413e-007 1.118977356150374e-023 -1.748455534029411e-007 0.9999999999
999838 4.371138828673856e-008 81 1 89 59 80 87 0 0 166 4 90 83 3 90 1 1 0.501960
813999176 15 91 60 0 92 87 0 17 92 0 91 100 160 93 97 95 0 256 +18 93 61 0 92 71
 98 94 ?1 29 94 62 0 93 99 72 -0.001600121811234657 0.0006999085250301904 3.0597
97180071699e-011 16 95 63 0 ?92 77 103 96 0 0 1 30 96 64 0 95 104 78 0 +-0.00160
0121846203768 0.0008999085250301871 3.93402494580647e-011 1.748455534029411e-007
 -0.9999999999999838 -4.371138828673856e-008 17 97 0 227 197 256 98 92 95 0 194
 -18 98 65 0 97 93 101 99 ?1 29 99 66 0 98 102 94 -0.001600121846203768 0.000899
9085250301871 3.93402494580647e-011 17 100 0 91 106 92 101 105 103 0 0 +18 101 6
7 0 389 98 107 102 ?1 29 102 68 0 101 108 99 -0.00160012181123465 0.000699908485
6899409 0.0009000000305979711 16 103 69 0 ?100 95 109 104 0 0 1 30 104 70 0 103
 110 96 0 +-0.001600121811234657 0.0006999085250301904 3.059797180071699e-011 7.
642741863815873e-015 -4.371138828673789e-008 0.9999999999999991 17 105 0 382 259
 389 93 100 103 0 0 -17 106 0 91 112 100 107 111 109 0 117 +18 107 71 0 106 101
 113 108 ?1 29 108 72 0 107 114 102 -0.001600121758780984 0.0003999084856899456
 0.0009000000174845546 16 109 73 0 ?106 103 115 110 0 0 1 30 110 74 0 109 116 10
4 0 +-0.00160012181123465 0.0006999084856899409 0.0009000000305979711 1.74845553
1469489e-007 -0.9999999999999838 -4.371138828673856e-008 17 111 0 397 392 404 10
1 106 109 0 100 -17 112 0 91 118 106 113 117 115 0 0 +18 113 75 0 123 107 119 11
4 ?1 29 114 76 0 113 120 108 -0.001600121758780985 0.0003999084900610844 0.00080
00000174845549 16 115 77 0 ?112 109 121 116 0 0 1 30 116 78 0 115 122 110 0 +-0.
001600121758780984 0.0003999084856899456 0.0009000000174845546 -7.64274186381587
3e-015 4.371138828673789e-008 -0.9999999999999991 17 117 0 412 407 419 107 112 1
15 0 404 -17 118 0 91 124 112 119 123 121 0 129 +18 119 79 0 118 113 125 120 ?1
 29 120 80 0 119 126 114 -0.001600121618904542 -0.0004000915099389025 0.00079999
9982515444 16 121 81 0 ?118 115 127 122 0 0 1 30 122 82 0 121 128 116 0 +-0.0016
00121758780985 0.0003999084900610844 0.0008000000174845549 1.748455531469489e-00
7 -0.9999999999999838 -4.371138842226383e-008 17 123 0 427 422 434 113 118 121 0
 419 -17 124 0 91 130 118 125 129 127 0 135 +18 125 83 0 124 119 131 126 ?1 29 1
26 84 0 125 132 120 -0.001600121618904541 -0.0004000915143100414 0.0008999999825
154439 16 127 85 0 ?124 121 133 128 0 0 1 30 128 86 0 127 134 122 0 +-0.00160012
1618904542 -0.0004000915099389025 0.000799999982515444 7.642741863815873e-015 -4
.371138828673789e-008 0.9999999999999991 17 129 0 442 437 449 119 124 127 0 434
 -17 130 0 91 136 124 131 135 133 0 141 +18 131 87 0 130 125 137 132 ?1 29 132 8
8 0 131 138 126 -0.001600121566450876 -0.0007000915143100367 0.00089999996940202
75 16 133 89 0 ?130 127 139 134 0 0 1 30 134 90 0 133 140 128 0 +-0.001600121618
904541 -0.0004000915143100414 0.0008999999825154439 1.748455531469489e-007 -0.99
99999999999838 -4.371138828673856e-008 17 135 0 457 452 464 125 130 133 0 449 -1
7 136 0 91 142 130 137 141 139 0 147 +18 137 91 0 249 131 143 138 ?1 29 138 92 0
 137 144 132 -0.001600121566450883 -0.000700091474969787 -3.059797180071699e-011
 16 139 93 0 ?136 133 145 140 0 0 1 30 140 94 0 139 146 134 0 +-0.00160012156645
0876 -0.0007000915143100367 0.0008999999694020275 -7.642741905942079e-015 4.3711
38852767171e-008 -0.9999999999999991 17 141 0 472 467 249 131 136 139 0 464 -17
 142 0 91 148 136 143 147 145 0 172 +18 143 95 0 142 137 149 144 ?1 29 144 96 0
 143 150 138 -0.001600121531481772 -0.0009000914749697838 -3.93402494580647e-011
 16 145 97 0 ?142 139 151 146 0 0 1 30 146 98 0 145 152 140 0 +-0.00160012184620
3768 0.0008999085250301871 3.93402494580647e-011 1.748455534029411e-007 -0.99999
99999999838 -4.371138828673856e-008 17 147 0 227 244 172 137 142 145 0 0 -17 148
 0 91 154 142 149 153 151 0 159 -18 149 99 0 148 143 155 150 ?1 29 150 100 0 149
 156 144 -0.001600121531481758 -0.0009000915536502827 0.001799999960659749 16 15
1 101 0 ?153 145 157 152 0 0 1 30 152 102 0 151 158 146 0 +-0.001600121531481758
 -0.0009000915536502827 0.001799999960659749 -7.642741863815873e-015 4.371138828
673789e-008 -0.9999999999999991 17 153 0 168 169 185 143 148 151 0 0 +17 154 0 9
1 160 148 155 159 157 0 163 -18 155 103 0 154 149 174 156 ?1 29 156 104 0 155 17
5 150 -0.001600121846203755 0.0008999084463496883 0.001800000039340248 16 157 10
5 0 ?159 151 161 158 0 0 1 30 158 106 0 157 162 152 0 +-0.001600121846203755 0.0
008999084463496883 0.001800000039340248 1.748455534029411e-007 -0.99999999999998
38 -4.371138828673856e-008 17 159 0 218 188 203 149 154 157 0 185 +17 160 0 91 9
2 154 98 163 161 0 0 +16 161 107 0 ?160 157 170 162 0 0 1 30 162 108 0 161 171 1
58 0 +-0.001600121846203755 0.0008999084463496883 0.001800000039340248 -7.642741
863815873e-015 4.371138828673789e-008 -0.9999999999999991 17 163 0 193 198 194 1
55 160 161 0 203 -14 164 109 166 1e-008 189 87 168 86 165 -0 0 189 87 84 50 165
 110 0 164 190 88 0 +-0.001600121531481758 -0.0009000915536502827 0.001799999960
659749 -1.748455531469489e-007 0.9999999999999838 4.371138828673856e-008 -0.9999
999999999848 -1.748455531469491e-007 0 81 1 166 111 80 164 0 0 191 89 167 83 3 1
67 1 1 0.501960813999176 15 168 112 0 169 164 0 17 169 0 168 39 153 35 172 170 0
 0 +16 170 113 0 ?169 161 176 171 0 0 1 30 171 114 0 170 177 162 0 +-0.001600121
531481772 -0.0009000914749697838 -3.93402494580647e-011 0.9999999999999848 1.748
455531469491e-007 0 17 172 0 227 147 45 143 169 170 0 153 -17 173 0 168 179 39 1
74 178 176 0 184 -18 174 115 0 268 155 180 175 ?1 29 175 116 0 174 181 156 0.000
7820441039299145 -0.0009000911375763284 0.001809999960659749 16 176 117 0 ?178 1
70 182 177 0 0 1 30 177 118 0 176 183 171 0 +0.0007820441039299145 -0.0009000911
375763284 0.001809999960659749 0.9999999999999848 1.748455531469491e-007 0 17 17
8 0 273 33 268 29 173 176 0 0 +17 179 0 168 185 173 180 184 182 0 188 +18 180 11
9 0 179 174 199 181 ?1 29 181 120 0 180 200 175 0.0007820441039299145 -0.0009000
911371392145 0.001799999960659749 16 182 121 0 ?179 176 186 183 0 0 1 30 183 122
 0 182 187 177 0 +0.0007820441039299145 -0.0009000911375763284 0.001809999960659
749 -7.642741863815873e-015 4.371138828673789e-008 -0.9999999999999991 17 184 0
 264 265 222 174 179 182 0 0 -17 185 0 168 153 179 149 188 186 0 0 -16 186 123 0
 ?188 182 195 187 0 0 1 30 187 124 0 186 196 183 0 +-0.001600121531481758 -0.000
9000915536502827 0.001799999960659749 0.9999999999999848 1.748455531469491e-007
 0 17 188 0 218 219 159 180 185 186 0 222 +14 189 125 191 1e-008 214 164 193 86
 190 -0 0 214 164 84 50 190 126 0 189 215 165 0 +-0.001600121846203755 0.0008999
084463496883 0.001800000039340248 1.748455531469489e-007 -0.9999999999999838 -4.
371138828673856e-008 0.9999999999999848 1.748455531469491e-007 0 81 1 191 127 80
 189 0 0 216 166 192 83 3 192 1 1 0.501960813999176 15 193 128 0 194 189 0 17 19
4 0 193 163 27 98 197 195 0 160 +16 195 129 0 ?194 186 201 196 0 0 1 30 196 130
 0 195 202 187 0 +-0.001600121846203768 0.0008999085250301871 3.93402494580647e-
011 -0.9999999999999848 -1.748455531469491e-007 0 17 197 0 227 21 97 17 194 195
 0 0 -17 198 0 193 204 163 199 203 201 0 219 -18 199 131 0 209 180 205 200 ?1 29
 200 132 0 199 206 181 0.0007820437892079184 0.0008999088628607564 0.00180000003
9340248 16 201 133 0 ?203 195 207 202 0 0 1 30 202 134 0 201 208 196 0 +-0.00160
0121846203755 0.0008999084463496883 0.001800000039340248 -0.9999999999999848 -1.
748455531469491e-007 0 17 203 0 218 159 219 155 198 201 0 0 +17 204 0 193 210 19
8 205 209 207 0 213 -18 205 135 0 265 199 229 206 ?1 29 206 136 0 205 230 200 0.
0007820437892079184 0.0008999088624236425 0.001810000039340248 16 207 137 0 ?209
 201 211 208 0 0 1 30 208 138 0 207 212 202 0 +0.0007820437892079184 0.000899908
8624236425 0.001810000039340248 -7.642741863815873e-015 4.371138828673789e-008 -
0.9999999999999991 17 209 0 264 222 265 199 204 207 0 198 +17 210 0 193 27 204 2
3 213 211 0 0 -16 211 139 0 ?213 207 220 212 0 0 1 30 212 140 0 211 221 208 0 +0
.0007820437892079184 0.0008999088624236425 0.001810000039340248 -0.9999999999999
848 -1.748455531469491e-007 0 17 213 0 273 268 33 205 210 211 0 0 +14 214 141 21
6 1e-008 223 189 218 86 215 +0 0 223 189 84 50 215 142 0 214 224 190 0 +-0.00160
0121531481758 -0.0009000915536502827 0.001799999960659749 7.642741863815873e-015
 -4.371138828673789e-008 0.9999999999999991 1.748455531469489e-007 -0.9999999999
999838 -4.371138828673856e-008 81 1 216 143 80 214 0 0 225 191 217 83 3 217 1 1
 0.501960813999176 15 218 144 0 219 214 0 17 219 0 218 203 188 199 222 220 0 0 -
16 220 145 0 ?222 211 231 221 0 0 1 30 221 146 0 220 232 212 0 +0.00078204410392
99145 -0.0009000911371392145 0.001799999960659749 1.748455531469489e-007 -0.9999
999999999838 -4.371138828673856e-008 17 222 0 264 184 209 180 219 220 0 0 +14 22
3 147 225 1e-008 260 214 227 86 224 -0 0 260 214 84 50 224 148 0 223 261 215 0 +
-0.001600121531481772 -0.0009000914749697839 -3.93402494580647e-011 7.6427418638
15873e-015 -4.371138828673789e-008 0.9999999999999991 1.748455531469489e-007 -0.
9999999999999838 -4.371138828673856e-008 81 1 225 149 80 223 0 0 262 216 226 83
 3 226 1 1 0.501960813999176 15 227 150 0 97 223 0 17 228 0 227 234 21 229 233 2
31 0 285 -18 229 151 0 228 205 235 230 ?1 29 230 152 0 229 236 206 0.00169987818
8765293 0.0006999091020205158 3.059797180071699e-011 16 231 153 0 ?233 220 237 2
32 0 0 1 30 232 154 0 231 238 221 0 +0.001699878188765293 0.0006999091020205158
 3.059797180071699e-011 -0.9999999999999848 -1.748455531469491e-007 0 17 233 0 2
78 13 285 9 228 231 0 21 +17 234 0 227 240 228 235 239 237 0 243 -18 235 155 0 2
34 229 245 236 ?1 29 236 156 0 235 246 230 0.001699878433549068 -0.0007000908979
794615 -3.059797180071699e-011 16 237 157 0 ?239 231 241 238 0 0 1 30 238 158 0
 237 242 232 0 +0.001699878433549068 -0.0007000908979794615 -3.059797180071699e-
011 -1.748455531469489e-007 0.9999999999999838 4.371138828673856e-008 17 239 0 3
77 288 372 229 234 237 0 0 +17 240 0 227 45 234 41 243 241 0 51 +16 241 159 0 ?2
40 237 247 242 0 0 1 30 242 160 0 241 248 238 0 +0.001699878433549068 -0.0007000
908979794615 -3.059797180071699e-011 -0.9999999999999848 -1.748455531469491e-007
 0 17 243 0 368 369 51 235 240 241 0 372 -17 244 0 227 250 147 245 249 247 0 255
 +18 245 161 0 244 235 251 246 ?1 29 246 162 0 245 252 236 -0.001700121566450881
 -0.0007000914924543423 -3.059797180071699e-011 16 247 163 0 ?244 241 253 248 0
 0 1 30 248 164 0 247 254 242 0 +-0.001600121566450882 -0.0007000914749697869 -3
.059797180071699e-011 -0.9999999999999848 -1.748455531469491e-007 0 17 249 0 472
 141 473 137 244 247 0 136 -17 250 0 227 256 244 251 255 253 0 259 +18 251 165 0
 388 245 280 252 ?1 29 252 166 0 251 281 246 -0.001700121811234655 0.00069990850
7545635 3.059797180071699e-011 16 253 167 0 ?250 247 257 254 0 0 1 30 254 168 0
 253 258 248 0 +-0.001700121566450881 -0.0007000914924543423 -3.059797180071699e
-011 -1.748455531469489e-007 0.9999999999999838 4.371138828673856e-008 17 255 0
 481 476 388 245 250 253 0 473 -17 256 0 227 97 250 93 259 257 0 105 -16 257 169
 0 ?259 253 266 258 0 0 1 30 258 170 0 257 267 254 0 +-0.001600121811234657 0.00
06999085250301904 3.059797180071699e-011 -0.9999999999999848 -1.748455531469491e
-007 0 17 259 0 382 383 105 251 256 257 0 0 +14 260 171 262 1e-008 269 223 264 8
6 261 -0 0 269 223 84 50 261 172 0 260 270 224 0 +0.0007820441039299145 -0.00090
00911375763285 0.001809999960659749 0.9999999999999848 1.748455531469491e-007 0
 -1.748455531469489e-007 0.9999999999999838 4.371138828673856e-008 81 1 262 173
 80 260 0 0 271 225 263 83 3 263 0.9882352948188782 0.7372549176216126 0.5176470
875740051 15 264 174 0 222 260 0 17 265 0 264 209 184 205 268 266 0 204 -16 266
 175 0 ?268 257 282 267 0 0 1 30 267 176 0 266 283 258 0 +0.0007820441039299145
 -0.0009000911375763284 0.001809999960659749 1.748455531469489e-007 -0.999999999
9999838 -4.371138828673856e-008 17 268 0 273 178 213 174 265 266 0 173 +14 269 1
77 271 1e-008 274 260 273 86 270 -0 0 274 260 84 50 270 178 0 269 275 261 0 +0.0
007820437892079184 0.0008999088624236425 0.001810000039340248 -7.642741863815873
e-015 4.371138828673789e-008 -0.9999999999999991 -1.748455531469489e-007 0.99999
99999999838 4.371138828673856e-008 81 1 271 179 80 269 0 0 276 262 272 83 3 272
 0.9882352948188782 0.7372549176216126 0.5176470875740051 15 273 180 0 268 269 0
 14 274 181 276 1e-008 289 269 278 86 275 -0 0 289 269 84 50 275 182 0 274 290 2
70 0 +0.001699878188765293 0.0006999091020205158 3.059797180071699e-011 1.748455
531469489e-007 -0.9999999999999838 -4.371138828673856e-008 0.9999999999999848 1.
748455531469491e-007 0 81 1 276 183 80 274 0 0 291 271 277 83 3 277 1 1 1 15 278
 184 0 13 274 0 17 279 0 278 285 13 280 284 282 0 0 -18 280 185 0 288 251 295 28
1 ?1 29 281 186 0 280 296 252 0.0016998781887653 0.0006999090626802663 0.0009000
000305979711 16 282 187 0 ?284 266 286 283 0 0 1 30 283 188 0 282 287 267 0 +0.0
016998781887653 0.0006999090626802663 0.0009000000305979711 -0.9999999999999848
 -1.748455531469491e-007 0 17 284 0 293 79 300 14 279 282 0 0 +17 285 0 278 233
 279 229 288 286 0 239 -16 286 189 0 ?288 282 297 287 0 0 1 30 287 190 0 286 298
 283 0 +0.001699878188765293 0.0006999091020205158 3.059797180071699e-011 7.6427
41863815873e-015 -4.371138828673789e-008 0.9999999999999991 17 288 0 377 303 239
 280 285 286 0 300 +14 289 191 291 1e-008 304 274 293 86 290 -0 0 304 274 84 50
 290 192 0 289 305 275 0 +0.0016998781887653 0.0006999090626802663 0.00090000003
05979711 -7.642741863815873e-015 4.371138828673789e-008 -0.9999999999999991 -1.7
48455531469489e-007 0.9999999999999838 4.371138828673856e-008 81 1 291 193 80 28
9 0 0 306 276 292 83 3 292 1 1 1 15 293 194 0 79 289 0 17 294 0 293 300 79 295 2
99 297 0 303 -18 295 195 0 294 280 310 296 ?1 29 296 196 0 295 311 281 0.0016998
78241218966 0.000399909062680271 0.0009000000174845546 16 297 197 0 ?299 286 301
 298 0 0 1 30 298 198 0 297 302 287 0 +0.001699878241218966 0.000399909062680271
 0.0009000000174845546 -0.9999999999999848 -1.748455531469491e-007 0 17 299 0 30
8 75 315 71 294 297 0 70 +17 300 0 293 284 294 280 303 301 0 279 -16 301 199 0 ?
303 297 312 302 0 0 1 30 302 200 0 301 313 298 0 +0.0016998781887653 0.000699909
0626802663 0.0009000000305979711 1.748455531469489e-007 -0.9999999999999838 -4.3
71138828673856e-008 17 303 0 377 318 288 295 300 301 0 315 +14 304 201 306 1e-00
8 319 289 308 86 305 -0 0 319 289 84 50 305 202 0 304 320 290 0 +0.0016998782412
18966 0.000399909062680271 0.0009000000174845546 -1.748455531469489e-007 0.99999
99999999838 4.371138828673856e-008 -0.9999999999999848 -1.748455531469491e-007 0
 81 1 306 203 80 304 0 0 321 291 307 83 3 307 1 1 1 15 308 204 0 75 304 0 17 309
 0 308 315 75 310 314 312 0 318 -18 310 205 0 309 295 325 311 ?1 29 311 206 0 31
0 326 296 0.001699878241218965 0.0003999090670514098 0.0008000000174845549 16 31
2 207 0 ?314 301 316 313 0 0 1 30 313 208 0 312 317 302 0 +0.001699878241218965
 0.0003999090670514098 0.0008000000174845549 -0.9999999999999848 -1.748455531469
491e-007 0 17 314 0 323 69 330 65 309 312 0 0 +17 315 0 308 299 309 295 318 316
 0 0 -16 316 209 0 ?318 312 327 317 0 0 1 30 317 210 0 316 328 313 0 +0.00169987
8241218966 0.000399909062680271 0.0009000000174845546 -7.642741863815873e-015 4.
371138828673789e-008 -0.9999999999999991 17 318 0 377 333 303 310 315 316 0 330
 +14 319 211 321 1e-008 334 304 323 86 320 -0 0 334 304 84 50 320 212 0 319 335
 305 0 +0.001699878241218965 0.0003999090670514098 0.0008000000174845549 -7.6427
41887511865e-015 4.371138842226316e-008 -0.9999999999999991 -1.748455531469489e-
007 0.9999999999999838 4.371138842226383e-008 81 1 321 213 80 319 0 0 336 306 32
2 83 3 322 1 1 1 15 323 214 0 69 319 0 17 324 0 323 330 69 325 329 327 0 333 -18
 325 215 0 345 310 340 326 ?1 29 326 216 0 325 341 311 0.001699878381095408 -0.0
004000909329485771 0.000799999982515444 16 327 217 0 ?329 316 331 328 0 0 1 30 3
28 218 0 327 332 317 0 +0.001699878381095408 -0.0004000909329485771 0.0007999999
82515444 -0.9999999999999848 -1.748455531469491e-007 0 17 329 0 338 63 345 59 32
4 327 0 0 +17 330 0 323 314 324 310 333 331 0 0 -16 331 219 0 ?333 327 342 332 0
 0 1 30 332 220 0 331 343 328 0 +0.001699878241218965 0.0003999090670514098 0.00
08000000174845549 1.748455531469489e-007 -0.9999999999999838 -4.371138842226383e
-008 17 333 0 377 348 318 325 330 331 0 0 +14 334 221 336 1e-008 349 319 338 86
 335 -0 0 349 319 84 50 335 222 0 334 350 320 0 +0.001699878381095408 -0.0004000
909329485771 0.000799999982515444 1.748455531469489e-007 -0.9999999999999838 -4.
371138828673856e-008 0.9999999999999848 1.748455531469491e-007 0 81 1 336 223 80
 334 0 0 351 321 337 83 3 337 1 1 1 15 338 224 0 63 334 0 17 339 0 338 345 63 34
0 344 342 0 0 -18 340 225 0 348 325 355 341 ?1 29 341 226 0 340 356 326 0.001699
878381095409 -0.000400090937319716 0.0008999999825154439 16 342 227 0 ?344 331 3
46 343 0 0 1 30 343 228 0 342 347 332 0 +0.001699878381095409 -0.000400090937319
716 0.0008999999825154439 -0.9999999999999848 -1.748455531469491e-007 0 17 344 0
 353 57 360 53 339 342 0 0 +17 345 0 338 329 339 325 348 346 0 324 -16 346 229 0
 ?348 342 357 347 0 0 1 30 347 230 0 346 358 343 0 +0.001699878381095408 -0.0004
000909329485771 0.000799999982515444 7.642741863815873e-015 -4.371138828673789e-
008 0.9999999999999991 17 348 0 377 363 333 340 345 346 0 360 +14 349 231 351 1e
-008 364 334 353 86 350 -0 0 364 334 84 50 350 232 0 349 365 335 0 +0.0016998783
81095409 -0.000400090937319716 0.0008999999825154439 -7.642741863815873e-015 4.3
71138828673789e-008 -0.9999999999999991 -1.748455531469489e-007 0.99999999999998
38 4.371138828673856e-008 81 1 351 233 80 349 0 0 366 336 352 83 3 352 1 1 1 15
 353 234 0 57 349 0 17 354 0 353 360 57 355 359 357 0 363 -18 355 235 0 354 340
 384 356 ?1 29 356 236 0 355 385 341 0.001699878433549074 -0.0007000909373197113
 0.0008999999694020275 16 357 237 0 ?359 346 361 358 0 0 1 30 358 238 0 357 362
 347 0 +0.001699878433549074 -0.0007000909373197113 0.0008999999694020275 -0.999
9999999999848 -1.748455531469491e-007 0 17 359 0 368 51 369 47 354 357 0 46 +17
 360 0 353 344 354 340 363 361 0 339 -16 361 239 0 ?363 357 370 362 0 0 1 30 362
 240 0 361 371 358 0 +0.001699878381095409 -0.000400090937319716 0.0008999999825
154439 1.748455531469489e-007 -0.9999999999999838 -4.371138828673856e-008 17 363
 0 377 372 348 355 360 361 0 369 +14 364 241 366 1e-008 373 349 368 86 365 -0 0
 373 349 84 50 365 242 0 364 374 350 0 +0.001699878433549074 -0.0007000909373197
113 0.0008999999694020275 -1.748455531469489e-007 0.9999999999999838 4.371138852
767237e-008 7.642741905942079e-015 -4.371138852767171e-008 0.9999999999999991 81
 1 366 243 80 364 0 0 375 351 367 83 3 367 1 1 1 15 368 244 0 51 364 0 17 369 0
 368 359 243 355 372 370 0 0 -16 370 245 0 ?372 361 386 371 0 0 1 30 371 246 0 3
70 387 362 0 +0.001699878433549074 -0.0007000909373197113 0.0008999999694020275
 -7.642741905942079e-015 4.371138852767171e-008 -0.9999999999999991 17 372 0 377
 239 363 235 369 370 0 0 +14 373 247 375 1e-008 378 364 377 86 374 +0 0 378 364
 84 50 374 248 0 373 379 365 0 +0.0016998781887653 0.0006999090626802663 0.00090
00000305979711 0.9999999999999848 1.748455531469491e-007 0 -1.748455531469489e-0
07 0.9999999999999838 4.371138828673856e-008 81 1 375 249 80 373 0 0 380 366 376
 83 3 376 1 1 1 15 377 250 0 288 373 0 14 378 251 380 1e-008 393 373 382 86 379
 -0 0 393 373 84 50 379 252 0 378 394 374 0 +-0.001600121811234657 0.00069990852
50301904 3.059797180071699e-011 1.748455531469489e-007 -0.9999999999999838 -4.37
1138828673856e-008 0.9999999999999848 1.748455531469491e-007 0 81 1 380 253 80 3
78 0 0 395 375 381 83 3 381 1 1 1 15 382 254 0 383 378 0 17 383 0 382 389 259 38
4 388 386 0 392 +18 384 255 0 383 355 399 385 ?1 29 385 256 0 384 400 356 -0.001
700121811234648 0.0006999084682053857 0.0009000000305979711 16 386 257 0 ?383 37
0 390 387 0 0 1 30 387 258 0 386 391 371 0 +-0.001700121811234655 0.000699908507
545635 3.059797180071699e-011 7.642741863815873e-015 -4.371138828673789e-008 0.9
999999999999991 17 388 0 481 255 403 251 383 386 0 250 -17 389 0 382 105 383 101
 392 390 0 111 -16 390 259 0 ?392 386 401 391 0 0 1 30 391 260 0 390 402 387 0 +
-0.00160012181123465 0.0006999084856899409 0.0009000000305979711 -0.999999999999
9848 -1.748455531469491e-007 0 17 392 0 397 398 111 384 389 390 0 403 +14 393 26
1 395 1e-008 408 378 397 86 394 -0 0 408 378 84 50 394 262 0 393 409 379 0 +-0.0
0160012181123465 0.0006999084856899409 0.0009000000305979711 -7.642741863815873e
-015 4.371138828673789e-008 -0.9999999999999991 -1.748455531469489e-007 0.999999
9999999838 4.371138828673856e-008 81 1 395 263 80 393 0 0 410 380 396 83 3 396 1
 1 1 15 397 264 0 398 393 0 17 398 0 397 404 392 399 403 401 0 407 +18 399 265 0
 418 384 414 400 ?1 29 400 266 0 399 415 385 -0.001700121758780982 0.00039990846
82053903 0.0009000000174845546 16 401 267 0 ?398 390 405 402 0 0 1 30 402 268 0
 401 406 391 0 +-0.001700121811234648 0.0006999084682053857 0.000900000030597971
1 1.748455531469489e-007 -0.9999999999999838 -4.371138828673856e-008 17 403 0 48
1 388 418 384 398 401 0 0 -17 404 0 397 111 398 107 407 405 0 0 -16 405 269 0 ?4
07 401 416 406 0 0 1 30 406 270 0 405 417 402 0 +-0.001600121758780984 0.0003999
084856899456 0.0009000000174845546 -0.9999999999999848 -1.748455531469491e-007 0
 17 407 0 412 413 117 399 404 405 0 0 +14 408 271 410 1e-008 423 393 412 86 409
 -0 0 423 393 84 50 409 272 0 408 424 394 0 +-0.001600121758780984 0.00039990848
56899456 0.0009000000174845546 -1.748455531469489e-007 0.9999999999999838 4.3711
38828673856e-008 -0.9999999999999848 -1.748455531469491e-007 0 81 1 410 273 80 4
08 0 0 425 395 411 83 3 411 1 1 1 15 412 274 0 413 408 0 17 413 0 412 419 407 41
4 418 416 0 422 +18 414 275 0 413 399 429 415 ?1 29 415 276 0 414 430 400 -0.001
700121758780983 0.0003999084725765291 0.0008000000174845549 16 416 277 0 ?413 40
5 420 417 0 0 1 30 417 278 0 416 421 406 0 +-0.001700121758780982 0.000399908468
2053903 0.0009000000174845546 -7.642741863815873e-015 4.371138828673789e-008 -0.
9999999999999991 17 418 0 481 403 433 399 413 416 0 398 -17 419 0 412 117 413 11
3 422 420 0 112 -16 420 279 0 ?422 416 431 421 0 0 1 30 421 280 0 420 432 417 0
 +-0.001600121758780985 0.0003999084900610844 0.0008000000174845549 -0.999999999
9999848 -1.748455531469491e-007 0 17 422 0 427 428 123 414 419 420 0 433 +14 423
 281 425 1e-008 438 408 427 86 424 -0 0 438 408 84 50 424 282 0 423 439 409 0 +-
0.001600121758780985 0.0003999084900610844 0.0008000000174845549 -7.642741887511
865e-015 4.371138842226316e-008 -0.9999999999999991 -1.748455531469489e-007 0.99
99999999999838 4.371138842226383e-008 81 1 425 283 80 423 0 0 440 410 426 83 3 4
26 1 1 1 15 427 284 0 428 423 0 17 428 0 427 434 422 429 433 431 0 437 +18 429 2
85 0 428 414 444 430 ?1 29 430 286 0 429 445 415 -0.00170012161890454 -0.0004000
915274234578 0.000799999982515444 16 431 287 0 ?428 420 435 432 0 0 1 30 432 288
 0 431 436 421 0 +-0.001700121758780983 0.0003999084725765291 0.0008000000174845
549 1.748455531469489e-007 -0.9999999999999838 -4.371138842226383e-008 17 433 0
 481 418 448 414 428 431 0 0 -17 434 0 427 123 428 119 437 435 0 0 -16 435 289 0
 ?437 431 446 436 0 0 1 30 436 290 0 435 447 432 0 +-0.001600121618904542 -0.000
4000915099389025 0.000799999982515444 -0.9999999999999848 -1.748455531469491e-00
7 0 17 437 0 442 443 129 429 434 435 0 448 +14 438 291 440 1e-008 453 423 442 86
 439 -0 0 453 423 84 50 439 292 0 438 454 424 0 +-0.001600121618904542 -0.000400
0915099389025 0.000799999982515444 1.748455531469489e-007 -0.9999999999999838 -4
.371138828673856e-008 0.9999999999999848 1.748455531469491e-007 0 81 1 440 293 8
0 438 0 0 455 425 441 83 3 441 1 1 1 15 442 294 0 443 438 0 17 443 0 442 449 437
 444 448 446 0 452 +18 444 295 0 443 429 459 445 ?1 29 445 296 0 444 460 430 -0.
00170012161890454 -0.0004000915317945967 0.0008999999825154439 16 446 297 0 ?443
 435 450 447 0 0 1 30 447 298 0 446 451 436 0 +-0.00170012161890454 -0.000400091
5274234578 0.000799999982515444 7.642741863815873e-015 -4.371138828673789e-008 0
.9999999999999991 17 448 0 481 433 463 429 443 446 0 0 -17 449 0 442 129 443 125
 452 450 0 0 -16 450 299 0 ?452 446 461 451 0 0 1 30 451 300 0 450 462 447 0 +-0
.001600121618904541 -0.0004000915143100414 0.0008999999825154439 -0.999999999999
9848 -1.748455531469491e-007 0 17 452 0 457 458 135 444 449 450 0 463 +14 453 30
1 455 1e-008 468 438 457 86 454 -0 0 468 438 84 50 454 302 0 453 469 439 0 +-0.0
01600121618904541 -0.0004000915143100414 0.0008999999825154439 -7.64274186381587
3e-015 4.371138828673789e-008 -0.9999999999999991 -1.748455531469489e-007 0.9999
999999999838 4.371138828673856e-008 81 1 455 303 80 453 0 0 470 440 456 83 3 456
 1 1 1 15 457 304 0 458 453 0 17 458 0 457 464 452 459 463 461 0 467 +18 459 305
 0 458 444 0 460 ?1 29 460 306 0 459 0 445 -0.001700121566450874 -0.000700091531
7945919 0.0008999999694020275 16 461 307 0 ?458 450 465 462 0 0 1 30 462 308 0 4
61 466 451 0 +-0.00170012161890454 -0.0004000915317945967 0.0008999999825154439
 1.748455531469489e-007 -0.9999999999999838 -4.371138828673856e-008 17 463 0 481
 448 476 444 458 461 0 0 -17 464 0 457 135 458 131 467 465 0 0 -16 465 309 0 ?46
7 461 474 466 0 0 1 30 466 310 0 465 475 462 0 +-0.001600121566450876 -0.0007000
915143100367 0.0008999999694020275 -0.9999999999999848 -1.748455531469491e-007 0
 17 467 0 472 473 141 459 464 465 0 476 +14 468 311 470 1e-008 477 453 472 86 46
9 -0 0 477 453 84 50 469 312 0 468 478 454 0 +-0.001600121566450876 -0.000700091
5143100367 0.0008999999694020275 -1.748455531469489e-007 0.9999999999999838 4.37
1138852767237e-008 7.642741905942079e-015 -4.371138852767171e-008 0.999999999999
9991 81 1 470 313 80 468 0 0 479 455 471 83 3 471 1 1 1 15 472 314 0 473 468 0 1
7 473 0 472 249 467 245 476 474 0 0 +16 474 315 0 ?473 465 0 475 0 0 1 30 475 31
6 0 474 0 466 0 +-0.001700121566450874 -0.0007000915317945919 0.0008999999694020
275 -7.642741905942079e-015 4.371138852767171e-008 -0.9999999999999991 17 476 0
 481 463 255 459 473 474 0 0 -14 477 317 479 1e-008 0 468 481 86 478 -0 0 0 468
 84 50 478 318 0 477 0 469 0 +-0.001700121811234648 0.0006999084682053857 0.0009
000000305979711 0.9999999999999848 1.748455531469491e-007 0 -1.748455531469489e-
007 0.9999999999999838 4.371138828673856e-008 81 1 479 319 80 477 0 0 0 470 480
 83 3 480 1 1 1 15 481 320 0 388 477 0 1 0 
