**ABCDEFGHIJKLMNOPQRSTUVWXYZabcdefghijklmnopqrstuvwxyz**************************
**PARASOLID !"#$%&'()*+,-./:;<=>?@[\]^_`{|}~0123456789**************************
**PART1;
MC=AMD64;
MC_MODEL=Intel64 Family 6 Model 60 Stepping 3, GenuineIntel;
MC_ID=unknown;
OS=Windows_NT;
OS_RELEASE=unknown;
FRU=Parasolid Version 30.0, build 298, 12-15-2017;
APPL=SOLIDWORKS 2018-2018134;
SITE=;
USER=unknown;
FORMAT=text;
GUISE=transmit;
KEY=Radiator;
FILE=Radiator.x_t;
DATE=Fri Dec  7 20:29:51 2018;
**PART2;
SCH=SCH_3000298_30000;
USFLD_SIZE=0;
**PART3;
**END_OF_HEADER*****************************************************************
T51 : TRANSMIT FILE created by modeller version 300029823 SCH_3000298_30000_1300
6205 0 12 33 CCCCCCI4 mesh1006 0 I8 polyline1008 0 CCCCCCCDI5 owner1040 0 CCCCCC
I13 boundary_mesh1006 0 I17 boundary_polyline1008 0 CCCA16 index_map_offset0 0 1
 dA9 index_map82 0 A17 node_id_index_map82 0 A20 schema_embedding_map82 0 A5 chi
ld12 0 A14 lowest_node_id0 0 1 dZ1 1928 2 3 0 0 0 0 0 0 1e3 1e-8 0 4 0 1 0 1 1 5
 6 7 8 0 0 9 10 11 0 0 0 0 0 0 81 255 2 2 1387 12 1 0 0 0 0 13 0 70 11 CI9 list_
type0 0 1 uI10 notransmit0 0 1 lCCCDCCDI12 finger_index0 0 1 dI12 finger_block10
12 0 CZ3 0 4 T1 0 0 3 20 1 14 14 13 255 5 1054 0 1 0 15 0 0 16 0 50 255 6 1001 0
 15 17 0 0 +-.03 .16 0 1 0 0 0 0 -1 30 255 7 1053 0 10 18 0 0 +-.03 .16 0 0 -1 0
 29 255 8 742 0 19 20 0 -.03 0 -.00981929979038021 19 8 CCCCCCCA5 owner12 0 Z9 3
16 0 1 16 0 21 V0 16 255 10 845 0 ?22 0 23 7 0 0 1 18 255 11 313 0 24 0 25 26 ?1
 17 255 24 0 27 28 29 11 30 31 0 32 +18 25 310 0 29 11 33 34 ?1 29 26 315 0 11 3
4 35 -.03 .16 -.00981929979038021 29 34 312 0 25 36 26 -.027 .16 -.0098192997903
8021 29 35 793 0 37 26 38 -.03 0 0 18 37 688 0 39 40 0 35 ?1 29 38 792 0 40 35 4
1 .03 0 0 18 40 687 0 42 43 37 38 ?1 29 41 791 0 43 38 44 .03 0 -.00981929979038
021 18 43 686 0 45 46 40 41 ?1 29 44 790 0 46 41 47 .02864460391757825 0 -.00981
929979038021 18 46 685 0 48 49 43 44 ?1 29 47 789 0 49 44 50 .02864460391757825
 0 -.004 18 49 684 0 51 52 46 47 ?1 29 50 788 0 52 47 53 .0267473594923803 0 -.0
04 18 52 683 0 54 55 49 50 ?1 29 53 787 0 55 50 56 .0267473594923803 0 -.0098192
9979038021 18 55 682 0 57 58 52 53 ?1 29 56 786 0 58 53 59 .025 0 -.009819299790
38021 18 58 681 0 60 61 55 56 ?1 29 59 785 0 61 56 62 .025 0 -.004 18 61 680 0 6
3 64 58 59 ?1 29 62 784 0 64 59 65 .023 0 -.004 18 64 679 0 66 67 61 62 ?1 29 65
 783 0 67 62 68 .023 0 -.00981929979038021 18 67 678 0 69 70 64 65 ?1 29 68 782
 0 70 65 71 .02 0 -.00981929979038021 18 70 677 0 72 73 67 68 ?1 29 71 781 0 73
 68 74 .02 0 -.004 18 73 676 0 75 76 70 71 ?1 29 74 780 0 76 71 77 .018 0 -.004
 18 76 675 0 78 79 73 74 ?1 29 77 779 0 79 74 80 .018 0 -.00981929979038021 18 7
9 674 0 81 82 76 77 ?1 29 80 778 0 82 77 83 .015 0 -.00981929979038021 18 82 673
 0 84 85 79 80 ?1 29 83 777 0 85 80 86 .015 0 -.004 18 85 672 0 87 88 82 83 ?1 2
9 86 776 0 88 83 89 .013 0 -.004 18 88 671 0 90 91 85 86 ?1 29 89 775 0 91 86 92
 .013 0 -.00981929979038021 18 91 670 0 93 94 88 89 ?1 29 92 774 0 94 89 95 .01
 0 -.00981929979038021 18 94 669 0 96 97 91 92 ?1 29 95 773 0 97 92 98 .01 0 -.0
04 18 97 668 0 99 100 94 95 ?1 29 98 772 0 100 95 101 .008 0 -.004 18 100 667 0
 102 103 97 98 ?1 29 101 771 0 103 98 104 .008 0 -.00981929979038021 18 103 666
 0 105 106 100 101 ?1 29 104 770 0 106 101 107 .005 0 -.00981929979038021 18 106
 665 0 108 109 103 104 ?1 29 107 769 0 109 104 110 .005 0 -.004 18 109 664 0 111
 112 106 107 ?1 29 110 768 0 112 107 113 .003 0 -.004 18 112 663 0 114 115 109 1
10 ?1 29 113 767 0 115 110 116 .003 0 -.00981929979038021 18 115 662 0 117 118 1
12 113 ?1 29 116 766 0 118 113 119 0 0 -.00981929979038021 18 118 661 0 120 121
 115 116 ?1 29 119 765 0 121 116 122 0 0 -.004 18 121 660 0 123 124 118 119 ?1 2
9 122 764 0 124 119 125 -.002 0 -.004 18 124 659 0 126 127 121 122 ?1 29 125 763
 0 127 122 128 -.002 0 -.00981929979038021 18 127 658 0 129 130 124 125 ?1 29 12
8 762 0 130 125 131 -.005 0 -.00981929979038021 18 130 657 0 132 133 127 128 ?1
 29 131 761 0 133 128 134 -.005 0 -.004 18 133 656 0 135 136 130 131 ?1 29 134 7
60 0 136 131 137 -.007 0 -.004 18 136 655 0 138 139 133 134 ?1 29 137 759 0 139
 134 140 -.007 0 -.00981929979038021 18 139 654 0 141 142 136 137 ?1 29 140 758
 0 142 137 143 -.01 0 -.00981929979038021 18 142 653 0 144 145 139 140 ?1 29 143
 757 0 145 140 146 -.01 0 -.004 18 145 652 0 147 148 142 143 ?1 29 146 756 0 148
 143 149 -.012 0 -.004 18 148 651 0 150 151 145 146 ?1 29 149 755 0 151 146 152
 -.012 0 -.00981929979038021 18 151 650 0 153 154 148 149 ?1 29 152 754 0 154 14
9 155 -.015 0 -.00981929979038021 18 154 649 0 156 157 151 152 ?1 29 155 753 0 1
57 152 158 -.015 0 -.004 18 157 648 0 159 160 154 155 ?1 29 158 752 0 160 155 16
1 -.017 0 -.004 18 160 647 0 162 163 157 158 ?1 29 161 751 0 163 158 164 -.017 0
 -.00981929979038021 18 163 646 0 165 166 160 161 ?1 29 164 750 0 166 161 167 -.
02 0 -.00981929979038021 18 166 645 0 168 169 163 164 ?1 29 167 749 0 169 164 17
0 -.02 0 -.004 18 169 644 0 171 172 166 167 ?1 29 170 748 0 172 167 173 -.022 0
 -.004 18 172 643 0 174 175 169 170 ?1 29 173 747 0 175 170 176 -.022 0 -.009819
29979038021 18 175 642 0 177 178 172 173 ?1 29 176 746 0 178 173 179 -.025 0 -.0
0981929979038021 18 178 641 0 180 181 175 176 ?1 29 179 745 0 181 176 182 -.025
 0 -.004 18 181 640 0 183 184 178 179 ?1 29 182 744 0 184 179 20 -.027 0 -.004 1
8 184 639 0 185 186 181 182 ?1 29 20 743 0 186 182 8 -.027 0 -.00981929979038021
 18 186 638 0 187 19 184 20 ?1 17 187 0 188 189 190 186 191 192 0 193 +18 19 637
 0 194 195 186 8 ?1 17 194 0 196 32 193 19 197 198 0 199 +18 195 160 0 200 201 1
9 202 ?1 17 200 0 203 22 204 195 205 206 0 28 -18 201 163 0 205 207 195 208 ?1 2
9 202 162 0 195 0 208 -.03 .16 0 29 208 165 0 201 202 209 .03 .16 0 29 209 168 0
 207 208 210 .03 .16 -.00981929979038021 18 207 166 0 211 212 201 209 ?1 29 210
 171 0 212 209 213 .02864460391757825 .16 -.00981929979038021 18 212 169 0 214 2
15 207 210 ?1 29 213 174 0 215 210 216 .02864460391757825 .16 -.004 18 215 172 0
 217 218 212 213 ?1 29 216 177 0 218 213 219 .0267473594923803 .16 -.004 18 218
 175 0 220 221 215 216 ?1 29 219 180 0 221 216 222 .0267473594923803 .16 -.00981
929979038021 18 221 178 0 223 224 218 219 ?1 29 222 183 0 224 219 225 .025 .16 -
.00981929979038021 18 224 181 0 226 227 221 222 ?1 29 225 186 0 227 222 228 .025
 .16 -.004 18 227 184 0 229 230 224 225 ?1 29 228 189 0 230 225 231 .023 .16 -.0
04 18 230 187 0 232 233 227 228 ?1 29 231 192 0 233 228 234 .023 .16 -.009819299
79038021 18 233 190 0 235 236 230 231 ?1 29 234 195 0 236 231 237 .02 .16 -.0098
1929979038021 18 236 193 0 238 239 233 234 ?1 29 237 198 0 239 234 240 .02 .16 -
.004 18 239 196 0 241 242 236 237 ?1 29 240 201 0 242 237 243 .018 .16 -.004 18
 242 199 0 244 245 239 240 ?1 29 243 204 0 245 240 246 .018 .16 -.00981929979038
021 18 245 202 0 247 248 242 243 ?1 29 246 207 0 248 243 249 .015 .16 -.00981929
979038021 18 248 205 0 250 251 245 246 ?1 29 249 210 0 251 246 252 .015 .16 -.00
4 18 251 208 0 253 254 248 249 ?1 29 252 213 0 254 249 255 .013 .16 -.004 18 254
 211 0 256 257 251 252 ?1 29 255 216 0 257 252 258 .013 .16 -.00981929979038021
 18 257 214 0 259 260 254 255 ?1 29 258 219 0 260 255 261 .01 .16 -.009819299790
38021 18 260 217 0 262 263 257 258 ?1 29 261 222 0 263 258 264 .01 .16 -.004 18
 263 220 0 265 266 260 261 ?1 29 264 225 0 266 261 267 .008 .16 -.004 18 266 223
 0 268 269 263 264 ?1 29 267 228 0 269 264 270 .008 .16 -.00981929979038021 18 2
69 226 0 271 272 266 267 ?1 29 270 231 0 272 267 273 .005 .16 -.0098192997903802
1 18 272 229 0 274 275 269 270 ?1 29 273 234 0 275 270 276 .005 .16 -.004 18 275
 232 0 277 278 272 273 ?1 29 276 237 0 278 273 279 .003 .16 -.004 18 278 235 0 2
80 281 275 276 ?1 29 279 240 0 281 276 282 .003 .16 -.00981929979038021 18 281 2
38 0 283 284 278 279 ?1 29 282 243 0 284 279 285 0 .16 -.00981929979038021 18 28
4 241 0 286 287 281 282 ?1 29 285 246 0 287 282 288 0 .16 -.004 18 287 244 0 289
 290 284 285 ?1 29 288 249 0 290 285 291 -.002 .16 -.004 18 290 247 0 292 293 28
7 288 ?1 29 291 252 0 293 288 294 -.002 .16 -.00981929979038021 18 293 250 0 295
 296 290 291 ?1 29 294 255 0 296 291 297 -.005 .16 -.00981929979038021 18 296 25
3 0 298 299 293 294 ?1 29 297 258 0 299 294 300 -.005 .16 -.004 18 299 256 0 301
 302 296 297 ?1 29 300 261 0 302 297 303 -.007 .16 -.004 18 302 259 0 304 305 29
9 300 ?1 29 303 264 0 305 300 306 -.007 .16 -.00981929979038021 18 305 262 0 307
 308 302 303 ?1 29 306 267 0 308 303 309 -.01 .16 -.00981929979038021 18 308 265
 0 310 311 305 306 ?1 29 309 270 0 311 306 312 -.01 .16 -.004 18 311 268 0 313 3
14 308 309 ?1 29 312 273 0 314 309 315 -.012 .16 -.004 18 314 271 0 316 317 311
 312 ?1 29 315 276 0 317 312 318 -.012 .16 -.00981929979038021 18 317 274 0 319
 320 314 315 ?1 29 318 279 0 320 315 321 -.015 .16 -.00981929979038021 18 320 27
7 0 322 323 317 318 ?1 29 321 282 0 323 318 324 -.015 .16 -.004 18 323 280 0 325
 326 320 321 ?1 29 324 285 0 326 321 327 -.017 .16 -.004 18 326 283 0 328 329 32
3 324 ?1 29 327 288 0 329 324 330 -.017 .16 -.00981929979038021 18 329 286 0 331
 332 326 327 ?1 29 330 291 0 332 327 333 -.02 .16 -.00981929979038021 18 332 289
 0 334 335 329 330 ?1 29 333 294 0 335 330 336 -.02 .16 -.004 18 335 292 0 337 3
38 332 333 ?1 29 336 297 0 338 333 339 -.022 .16 -.004 18 338 295 0 340 341 335
 336 ?1 29 339 300 0 341 336 342 -.022 .16 -.00981929979038021 18 341 298 0 343
 344 338 339 ?1 29 342 303 0 344 339 345 -.025 .16 -.00981929979038021 18 344 30
1 0 346 347 341 342 ?1 29 345 306 0 347 342 36 -.025 .16 -.004 18 347 304 0 348
 33 344 345 ?1 29 36 309 0 33 345 34 -.027 .16 -.004 18 33 307 0 349 25 347 36 ?
1 17 349 0 27 29 348 33 350 351 0 352 +15 255 27 3 0 28 353 0 17 29 0 27 24 349
 25 354 355 0 189 +17 348 0 27 349 346 347 356 357 0 358 +17 350 0 359 360 352 3
47 349 351 0 0 -16 351 151 0 ?349 355 357 361 0 0 1 17 352 0 359 350 185 33 190
 362 0 354 -15 359 850 0 185 363 0 17 185 0 359 352 360 184 364 365 0 190 +17 19
0 0 188 187 354 184 352 362 0 191 +16 362 796 0 ?190 366 367 368 0 0 1 17 354 0
 188 190 189 33 29 355 0 0 -15 188 848 0 187 369 0 17 189 0 188 354 187 25 193 3
67 0 30 -16 355 154 0 ?29 31 351 370 0 0 1 16 31 157 0 ?24 371 355 372 0 0 1 30
 370 155 0 355 361 372 0 +-.027 .16 -.00981929979038021 0 0 -1 30 361 152 0 351
 373 370 0 +-.027 .16 -.004 -1 0 0 30 372 158 0 31 370 374 0 +-.03 .16 -.0098192
9979038021 -1 0 0 30 374 741 0 375 372 376 0 +-.03 0 0 0 0 1 16 375 633 0 ?377 3
78 0 374 0 0 1 30 376 740 0 378 374 379 0 +-.03 0 0 1 0 0 16 378 629 0 ?42 380 3
75 376 0 0 1 30 379 739 0 380 376 381 0 +.03 0 0 0 0 -1 16 380 625 0 ?45 382 378
 379 0 0 1 30 381 738 0 382 379 383 0 +.02864460391757825 0 -.00981929979038021
 -1 0 0 16 382 621 0 ?48 384 380 381 0 0 1 30 383 737 0 384 381 385 0 +.02864460
391757825 0 -.004 0 0 1 16 384 617 0 ?51 386 382 383 0 0 1 30 385 736 0 386 383
 387 0 +.0267473594923803 0 -.004 -1 0 0 16 386 613 0 ?54 388 384 385 0 0 1 30 3
87 735 0 388 385 389 0 +.0267473594923803 0 -.00981929979038021 0 0 -1 16 388 60
9 0 ?57 390 386 387 0 0 1 30 389 734 0 390 387 391 0 +.025 0 -.00981929979038021
 -1 0 0 16 390 605 0 ?60 392 388 389 0 0 1 30 391 733 0 392 389 393 0 +.025 0 -.
004 0 0 1 16 392 601 0 ?63 394 390 391 0 0 1 30 393 732 0 394 391 395 0 +.023 0
 -.004 -1 0 0 16 394 597 0 ?66 396 392 393 0 0 1 30 395 731 0 396 393 397 0 +.02
3 0 -.00981929979038021 0 0 -1 16 396 593 0 ?69 398 394 395 0 0 1 30 397 730 0 3
98 395 399 0 +.02 0 -.00981929979038021 -1 0 0 16 398 589 0 ?72 400 396 397 0 0
 1 30 399 729 0 400 397 401 0 +.02 0 -.004 0 0 1 16 400 585 0 ?75 402 398 399 0
 0 1 30 401 728 0 402 399 403 0 +.018 0 -.004 -1 0 0 16 402 581 0 ?78 404 400 40
1 0 0 1 30 403 727 0 404 401 405 0 +.018 0 -.00981929979038021 0 0 -1 16 404 577
 0 ?81 406 402 403 0 0 1 30 405 726 0 406 403 407 0 +.015 0 -.00981929979038021
 -1 0 0 16 406 573 0 ?84 408 404 405 0 0 1 30 407 725 0 408 405 409 0 +.015 0 -.
004 0 0 1 16 408 569 0 ?87 410 406 407 0 0 1 30 409 724 0 410 407 411 0 +.013 0
 -.004 -1 0 0 16 410 565 0 ?90 412 408 409 0 0 1 30 411 723 0 412 409 413 0 +.01
3 0 -.00981929979038021 0 0 -1 16 412 561 0 ?93 414 410 411 0 0 1 30 413 722 0 4
14 411 415 0 +.01 0 -.00981929979038021 -1 0 0 16 414 557 0 ?96 416 412 413 0 0
 1 30 415 721 0 416 413 417 0 +.01 0 -.004 0 0 1 16 416 553 0 ?99 418 414 415 0
 0 1 30 417 720 0 418 415 419 0 +.008 0 -.004 -1 0 0 16 418 549 0 ?102 420 416 4
17 0 0 1 30 419 719 0 420 417 421 0 +.008 0 -.00981929979038021 0 0 -1 16 420 54
5 0 ?105 422 418 419 0 0 1 30 421 718 0 422 419 423 0 +.005 0 -.0098192997903802
1 -1 0 0 16 422 541 0 ?108 424 420 421 0 0 1 30 423 717 0 424 421 425 0 +.005 0
 -.004 0 0 1 16 424 537 0 ?111 426 422 423 0 0 1 30 425 716 0 426 423 427 0 +.00
3 0 -.004 -1 0 0 16 426 533 0 ?114 428 424 425 0 0 1 30 427 715 0 428 425 429 0
 +.003 0 -.00981929979038021 0 0 -1 16 428 529 0 ?117 430 426 427 0 0 1 30 429 7
14 0 430 427 431 0 +0 0 -.00981929979038021 -1 0 0 16 430 525 0 ?120 432 428 429
 0 0 1 30 431 713 0 432 429 433 0 +0 0 -.004 0 0 1 16 432 521 0 ?123 434 430 431
 0 0 1 30 433 712 0 434 431 435 0 +-.002 0 -.004 -1 0 0 16 434 517 0 ?126 436 43
2 433 0 0 1 30 435 711 0 436 433 437 0 +-.002 0 -.00981929979038021 0 0 -1 16 43
6 513 0 ?129 438 434 435 0 0 1 30 437 710 0 438 435 439 0 +-.005 0 -.00981929979
038021 -1 0 0 16 438 509 0 ?132 440 436 437 0 0 1 30 439 709 0 440 437 441 0 +-.
005 0 -.004 0 0 1 16 440 505 0 ?135 442 438 439 0 0 1 30 441 708 0 442 439 443 0
 +-.007 0 -.004 -1 0 0 16 442 501 0 ?138 444 440 441 0 0 1 30 443 707 0 444 441
 445 0 +-.007 0 -.00981929979038021 0 0 -1 16 444 497 0 ?141 446 442 443 0 0 1 3
0 445 706 0 446 443 447 0 +-.01 0 -.00981929979038021 -1 0 0 16 446 493 0 ?144 4
48 444 445 0 0 1 30 447 705 0 448 445 449 0 +-.01 0 -.004 0 0 1 16 448 489 0 ?14
7 450 446 447 0 0 1 30 449 704 0 450 447 451 0 +-.012 0 -.004 -1 0 0 16 450 485
 0 ?150 452 448 449 0 0 1 30 451 703 0 452 449 453 0 +-.012 0 -.0098192997903802
1 0 0 -1 16 452 481 0 ?153 454 450 451 0 0 1 30 453 702 0 454 451 455 0 +-.015 0
 -.00981929979038021 -1 0 0 16 454 477 0 ?156 456 452 453 0 0 1 30 455 701 0 456
 453 457 0 +-.015 0 -.004 0 0 1 16 456 473 0 ?159 458 454 455 0 0 1 30 457 700 0
 458 455 459 0 +-.017 0 -.004 -1 0 0 16 458 469 0 ?162 460 456 457 0 0 1 30 459
 699 0 460 457 461 0 +-.017 0 -.00981929979038021 0 0 -1 16 460 465 0 ?165 462 4
58 459 0 0 1 30 461 698 0 462 459 463 0 +-.02 0 -.00981929979038021 -1 0 0 16 46
2 461 0 ?168 464 460 461 0 0 1 30 463 697 0 464 461 465 0 +-.02 0 -.004 0 0 1 16
 464 457 0 ?171 466 462 463 0 0 1 30 465 696 0 466 463 467 0 +-.022 0 -.004 -1 0
 0 16 466 453 0 ?174 468 464 465 0 0 1 30 467 695 0 468 465 469 0 +-.022 0 -.009
81929979038021 0 0 -1 16 468 449 0 ?177 470 466 467 0 0 1 30 469 694 0 470 467 4
71 0 +-.025 0 -.00981929979038021 -1 0 0 16 470 445 0 ?180 472 468 469 0 0 1 30
 471 693 0 472 469 473 0 +-.025 0 -.004 0 0 1 16 472 441 0 ?183 365 470 471 0 0
 1 30 473 692 0 365 471 474 0 +-.027 0 -.004 -1 0 0 16 365 437 0 ?185 192 472 47
3 0 0 1 30 474 691 0 192 473 475 0 +-.027 0 -.00981929979038021 0 0 -1 16 192 43
3 0 ?187 198 365 474 0 0 1 30 475 690 0 198 474 476 0 +-.03 0 -.0098192997903802
1 -1 0 0 16 198 429 0 ?194 477 192 475 0 0 1 30 476 1002 0 371 475 478 0 +-.03 .
16 -.00981929979038021 0 -1 0 16 371 794 0 ?199 367 31 476 0 0 1 30 478 1003 0 3
67 476 368 0 +-.027 .16 -.00981929979038021 0 -1 0 16 367 795 0 ?193 362 371 478
 0 0 1 30 368 1004 0 362 478 479 0 +-.027 .16 -.004 0 -1 0 30 479 1005 0 366 368
 480 0 +-.025 .16 -.004 0 -1 0 16 366 797 0 ?360 481 362 479 0 0 1 30 480 1006 0
 481 479 482 0 +-.025 .16 -.00981929979038021 0 -1 0 16 481 798 0 ?483 484 366 4
80 0 0 1 30 482 1007 0 484 480 485 0 +-.022 .16 -.00981929979038021 0 -1 0 16 48
4 799 0 ?486 487 481 482 0 0 1 30 485 1008 0 487 482 488 0 +-.022 .16 -.004 0 -1
 0 16 487 800 0 ?489 490 484 485 0 0 1 30 488 1009 0 490 485 491 0 +-.02 .16 -.0
04 0 -1 0 16 490 801 0 ?492 493 487 488 0 0 1 30 491 1010 0 493 488 494 0 +-.02
 .16 -.00981929979038021 0 -1 0 16 493 802 0 ?495 496 490 491 0 0 1 30 494 1011
 0 496 491 497 0 +-.017 .16 -.00981929979038021 0 -1 0 16 496 803 0 ?498 499 493
 494 0 0 1 30 497 1012 0 499 494 500 0 +-.017 .16 -.004 0 -1 0 16 499 804 0 ?501
 502 496 497 0 0 1 30 500 1013 0 502 497 503 0 +-.015 .16 -.004 0 -1 0 16 502 80
5 0 ?504 505 499 500 0 0 1 30 503 1014 0 505 500 506 0 +-.015 .16 -.009819299790
38021 0 -1 0 16 505 806 0 ?507 508 502 503 0 0 1 30 506 1015 0 508 503 509 0 +-.
012 .16 -.00981929979038021 0 -1 0 16 508 807 0 ?510 511 505 506 0 0 1 30 509 10
16 0 511 506 512 0 +-.012 .16 -.004 0 -1 0 16 511 808 0 ?513 514 508 509 0 0 1 3
0 512 1017 0 514 509 515 0 +-.01 .16 -.004 0 -1 0 16 514 809 0 ?516 517 511 512
 0 0 1 30 515 1018 0 517 512 518 0 +-.01 .16 -.00981929979038021 0 -1 0 16 517 8
10 0 ?519 520 514 515 0 0 1 30 518 1019 0 520 515 521 0 +-.007 .16 -.00981929979
038021 0 -1 0 16 520 811 0 ?522 523 517 518 0 0 1 30 521 1020 0 523 518 524 0 +-
.007 .16 -.004 0 -1 0 16 523 812 0 ?525 526 520 521 0 0 1 30 524 1021 0 526 521
 527 0 +-.005 .16 -.004 0 -1 0 16 526 813 0 ?528 529 523 524 0 0 1 30 527 1022 0
 529 524 530 0 +-.005 .16 -.00981929979038021 0 -1 0 16 529 814 0 ?531 532 526 5
27 0 0 1 30 530 1023 0 532 527 533 0 +-.002 .16 -.00981929979038021 0 -1 0 16 53
2 815 0 ?534 535 529 530 0 0 1 30 533 1024 0 535 530 536 0 +-.002 .16 -.004 0 -1
 0 16 535 816 0 ?537 538 532 533 0 0 1 30 536 1025 0 538 533 539 0 +0 .16 -.004
 0 -1 0 16 538 817 0 ?540 541 535 536 0 0 1 30 539 1026 0 541 536 542 0 +0 .16 -
.00981929979038021 0 -1 0 16 541 818 0 ?543 544 538 539 0 0 1 30 542 1027 0 544
 539 545 0 +.003 .16 -.00981929979038021 0 -1 0 16 544 819 0 ?546 547 541 542 0
 0 1 30 545 1028 0 547 542 548 0 +.003 .16 -.004 0 -1 0 16 547 820 0 ?549 550 54
4 545 0 0 1 30 548 1029 0 550 545 551 0 +.005 .16 -.004 0 -1 0 16 550 821 0 ?552
 553 547 548 0 0 1 30 551 1030 0 553 548 554 0 +.005 .16 -.00981929979038021 0 -
1 0 16 553 822 0 ?555 556 550 551 0 0 1 30 554 1031 0 556 551 557 0 +.008 .16 -.
00981929979038021 0 -1 0 16 556 823 0 ?558 559 553 554 0 0 1 30 557 1032 0 559 5
54 560 0 +.008 .16 -.004 0 -1 0 16 559 824 0 ?561 562 556 557 0 0 1 30 560 1033
 0 562 557 563 0 +.01 .16 -.004 0 -1 0 16 562 825 0 ?564 565 559 560 0 0 1 30 56
3 1034 0 565 560 566 0 +.01 .16 -.00981929979038021 0 -1 0 16 565 826 0 ?567 568
 562 563 0 0 1 30 566 1035 0 568 563 569 0 +.013 .16 -.00981929979038021 0 -1 0
 16 568 827 0 ?570 571 565 566 0 0 1 30 569 1036 0 571 566 572 0 +.013 .16 -.004
 0 -1 0 16 571 828 0 ?573 574 568 569 0 0 1 30 572 1037 0 574 569 575 0 +.015 .1
6 -.004 0 -1 0 16 574 829 0 ?576 577 571 572 0 0 1 30 575 1038 0 577 572 578 0 +
.015 .16 -.00981929979038021 0 -1 0 16 577 830 0 ?579 580 574 575 0 0 1 30 578 1
039 0 580 575 581 0 +.018 .16 -.00981929979038021 0 -1 0 16 580 831 0 ?582 583 5
77 578 0 0 1 30 581 1040 0 583 578 584 0 +.018 .16 -.004 0 -1 0 16 583 832 0 ?58
5 586 580 581 0 0 1 30 584 1041 0 586 581 587 0 +.02 .16 -.004 0 -1 0 16 586 833
 0 ?588 589 583 584 0 0 1 30 587 1042 0 589 584 590 0 +.02 .16 -.009819299790380
21 0 -1 0 16 589 834 0 ?591 592 586 587 0 0 1 30 590 1043 0 592 587 593 0 +.023
 .16 -.00981929979038021 0 -1 0 16 592 835 0 ?594 595 589 590 0 0 1 30 593 1044
 0 595 590 596 0 +.023 .16 -.004 0 -1 0 16 595 836 0 ?597 598 592 593 0 0 1 30 5
96 1045 0 598 593 599 0 +.025 .16 -.004 0 -1 0 16 598 837 0 ?600 601 595 596 0 0
 1 30 599 1046 0 601 596 602 0 +.025 .16 -.00981929979038021 0 -1 0 16 601 838 0
 ?603 604 598 599 0 0 1 30 602 1047 0 604 599 605 0 +.0267473594923803 .16 -.009
81929979038021 0 -1 0 16 604 839 0 ?606 607 601 602 0 0 1 30 605 1048 0 607 602
 608 0 +.0267473594923803 .16 -.004 0 -1 0 16 607 840 0 ?609 610 604 605 0 0 1 3
0 608 1049 0 610 605 611 0 +.02864460391757825 .16 -.004 0 -1 0 16 610 841 0 ?61
2 613 607 608 0 0 1 30 611 1050 0 613 608 614 0 +.02864460391757825 .16 -.009819
29979038021 0 -1 0 16 613 842 0 ?615 616 610 611 0 0 1 30 614 1051 0 616 611 18
 0 +.03 .16 -.00981929979038021 0 -1 0 16 616 843 0 ?617 23 613 614 0 0 1 30 18
 1052 0 23 614 7 0 +.03 .16 0 0 -1 0 16 23 844 0 ?618 10 616 18 0 0 1 17 618 0 6
19 45 620 40 204 23 0 621 +15 619 944 0 45 622 0 17 45 0 619 623 618 43 621 380
 0 617 +17 620 0 619 618 623 201 211 624 0 0 -17 204 0 203 200 42 201 618 23 0 6
20 -17 621 0 625 39 626 40 45 380 0 0 -15 625 428 0 627 628 0 17 39 0 625 627 62
1 37 42 378 0 22 -17 626 0 625 621 629 43 48 382 0 0 -17 629 0 625 626 630 46 51
 384 0 0 -17 48 0 631 632 617 46 626 382 0 615 +15 631 942 0 48 633 0 17 632 0 6
31 634 48 212 615 613 0 635 -17 617 0 631 48 634 43 623 616 0 626 +17 615 0 636
 51 635 46 632 613 0 629 +15 636 940 0 51 637 0 17 51 0 636 638 615 49 629 384 0
 612 +17 635 0 636 615 638 212 217 639 0 0 -17 638 0 636 635 51 215 612 610 0 64
0 -17 217 0 27 220 214 215 635 639 0 638 +16 639 16 0 ?217 641 642 643 0 0 1 16
 641 19 0 ?220 644 639 645 0 0 1 16 642 13 0 ?214 639 624 646 0 0 1 30 643 17 0
 639 646 645 0 +.02864460391757825 .16 -.004 0 0 1 30 646 14 0 642 647 643 0 +.0
2864460391757825 .16 -.00981929979038021 -1 0 0 30 645 20 0 641 643 648 0 +.0267
473594923803 .16 -.004 -1 0 0 30 648 23 0 644 645 649 0 +.0267473594923803 .16 -
.00981929979038021 0 0 -1 16 644 22 0 ?223 650 641 648 0 0 1 30 649 26 0 650 648
 651 0 +.025 .16 -.00981929979038021 -1 0 0 16 650 25 0 ?226 652 644 649 0 0 1 3
0 651 29 0 652 649 653 0 +.025 .16 -.004 0 0 1 16 652 28 0 ?229 654 650 651 0 0
 1 30 653 32 0 654 651 655 0 +.023 .16 -.004 -1 0 0 16 654 31 0 ?232 656 652 653
 0 0 1 30 655 35 0 656 653 657 0 +.023 .16 -.00981929979038021 0 0 -1 16 656 34
 0 ?235 658 654 655 0 0 1 30 657 38 0 658 655 659 0 +.02 .16 -.00981929979038021
 -1 0 0 16 658 37 0 ?238 660 656 657 0 0 1 30 659 41 0 660 657 661 0 +.02 .16 -.
004 0 0 1 16 660 40 0 ?241 662 658 659 0 0 1 30 661 44 0 662 659 663 0 +.018 .16
 -.004 -1 0 0 16 662 43 0 ?244 664 660 661 0 0 1 30 663 47 0 664 661 665 0 +.018
 .16 -.00981929979038021 0 0 -1 16 664 46 0 ?247 666 662 663 0 0 1 30 665 50 0 6
66 663 667 0 +.015 .16 -.00981929979038021 -1 0 0 16 666 49 0 ?250 668 664 665 0
 0 1 30 667 53 0 668 665 669 0 +.015 .16 -.004 0 0 1 16 668 52 0 ?253 670 666 66
7 0 0 1 30 669 56 0 670 667 671 0 +.013 .16 -.004 -1 0 0 16 670 55 0 ?256 672 66
8 669 0 0 1 30 671 59 0 672 669 673 0 +.013 .16 -.00981929979038021 0 0 -1 16 67
2 58 0 ?259 674 670 671 0 0 1 30 673 62 0 674 671 675 0 +.01 .16 -.0098192997903
8021 -1 0 0 16 674 61 0 ?262 676 672 673 0 0 1 30 675 65 0 676 673 677 0 +.01 .1
6 -.004 0 0 1 16 676 64 0 ?265 678 674 675 0 0 1 30 677 68 0 678 675 679 0 +.008
 .16 -.004 -1 0 0 16 678 67 0 ?268 680 676 677 0 0 1 30 679 71 0 680 677 681 0 +
.008 .16 -.00981929979038021 0 0 -1 16 680 70 0 ?271 682 678 679 0 0 1 30 681 74
 0 682 679 683 0 +.005 .16 -.00981929979038021 -1 0 0 16 682 73 0 ?274 684 680 6
81 0 0 1 30 683 77 0 684 681 685 0 +.005 .16 -.004 0 0 1 16 684 76 0 ?277 686 68
2 683 0 0 1 30 685 80 0 686 683 687 0 +.003 .16 -.004 -1 0 0 16 686 79 0 ?280 68
8 684 685 0 0 1 30 687 83 0 688 685 689 0 +.003 .16 -.00981929979038021 0 0 -1 1
6 688 82 0 ?283 690 686 687 0 0 1 30 689 86 0 690 687 691 0 +0 .16 -.00981929979
038021 -1 0 0 16 690 85 0 ?286 692 688 689 0 0 1 30 691 89 0 692 689 693 0 +0 .1
6 -.004 0 0 1 16 692 88 0 ?289 694 690 691 0 0 1 30 693 92 0 694 691 695 0 +-.00
2 .16 -.004 -1 0 0 16 694 91 0 ?292 696 692 693 0 0 1 30 695 95 0 696 693 697 0
 +-.002 .16 -.00981929979038021 0 0 -1 16 696 94 0 ?295 698 694 695 0 0 1 30 697
 98 0 698 695 699 0 +-.005 .16 -.00981929979038021 -1 0 0 16 698 97 0 ?298 700 6
96 697 0 0 1 30 699 101 0 700 697 701 0 +-.005 .16 -.004 0 0 1 16 700 100 0 ?301
 702 698 699 0 0 1 30 701 104 0 702 699 703 0 +-.007 .16 -.004 -1 0 0 16 702 103
 0 ?304 704 700 701 0 0 1 30 703 107 0 704 701 705 0 +-.007 .16 -.00981929979038
021 0 0 -1 16 704 106 0 ?307 706 702 703 0 0 1 30 705 110 0 706 703 707 0 +-.01
 .16 -.00981929979038021 -1 0 0 16 706 109 0 ?310 708 704 705 0 0 1 30 707 113 0
 708 705 709 0 +-.01 .16 -.004 0 0 1 16 708 112 0 ?313 710 706 707 0 0 1 30 709
 116 0 710 707 711 0 +-.012 .16 -.004 -1 0 0 16 710 115 0 ?316 712 708 709 0 0 1
 30 711 119 0 712 709 713 0 +-.012 .16 -.00981929979038021 0 0 -1 16 712 118 0 ?
319 714 710 711 0 0 1 30 713 122 0 714 711 715 0 +-.015 .16 -.00981929979038021
 -1 0 0 16 714 121 0 ?322 716 712 713 0 0 1 30 715 125 0 716 713 717 0 +-.015 .1
6 -.004 0 0 1 16 716 124 0 ?325 718 714 715 0 0 1 30 717 128 0 718 715 719 0 +-.
017 .16 -.004 -1 0 0 16 718 127 0 ?328 720 716 717 0 0 1 30 719 131 0 720 717 72
1 0 +-.017 .16 -.00981929979038021 0 0 -1 16 720 130 0 ?331 722 718 719 0 0 1 30
 721 134 0 722 719 723 0 +-.02 .16 -.00981929979038021 -1 0 0 16 722 133 0 ?334
 724 720 721 0 0 1 30 723 137 0 724 721 725 0 +-.02 .16 -.004 0 0 1 16 724 136 0
 ?337 726 722 723 0 0 1 30 725 140 0 726 723 727 0 +-.022 .16 -.004 -1 0 0 16 72
6 139 0 ?340 728 724 725 0 0 1 30 727 143 0 728 725 729 0 +-.022 .16 -.009819299
79038021 0 0 -1 16 728 142 0 ?343 730 726 727 0 0 1 30 729 146 0 730 727 373 0 +
-.025 .16 -.00981929979038021 -1 0 0 16 730 145 0 ?346 357 728 729 0 0 1 30 373
 149 0 357 729 361 0 +-.025 .16 -.004 0 0 1 16 357 148 0 ?348 351 730 373 0 0 1
 17 346 0 27 348 343 344 731 730 0 732 +17 343 0 27 346 340 341 733 728 0 734 +1
7 731 0 735 486 732 341 346 730 0 0 -17 732 0 735 731 180 344 483 481 0 356 -15
 735 854 0 180 736 0 17 180 0 735 732 486 178 737 470 0 483 +17 483 0 738 183 35
6 178 732 481 0 739 +17 356 0 738 483 358 344 348 357 0 0 -15 738 852 0 183 740
 0 17 358 0 738 356 183 347 360 366 0 350 -17 183 0 738 358 483 181 739 472 0 36
0 +17 360 0 359 185 350 181 358 366 0 364 +17 364 0 625 739 191 181 185 365 0 0
 -17 739 0 625 737 364 178 183 472 0 0 -17 191 0 625 364 197 184 187 192 0 0 -17
 197 0 625 191 627 186 194 198 0 0 -17 627 0 625 197 39 19 377 375 0 0 -17 377 0
 741 742 199 37 627 375 0 0 +15 741 948 0 377 15 0 17 742 0 741 743 377 195 22 1
0 0 0 -17 199 0 741 377 743 19 32 371 0 627 +17 743 0 741 199 742 11 28 477 0 0
 -17 32 0 196 30 194 11 199 371 0 743 -15 196 846 0 194 744 0 17 30 0 196 193 32
 25 24 31 0 0 -17 193 0 196 194 30 186 189 367 0 197 +14 255 744 847 745 ?353 36
9 196 5 746 -0 0 353 369 21 81 1 745 1875 747 744 748 0 0 749 750 14 353 1 749 ?
628 744 27 5 751 -0 0 628 744 21 14 369 849 752 ?744 363 188 5 753 -0 0 744 363
 21 50 746 950 0 744 754 753 0 +-.03 .16 -.00981929979038021 0 0 1 1 0 0 13 21 3
17 0 0 0 0 0 0 9 15 14 15 949 755 ?756 0 741 5 6 -0 0 756 0 21 81 1 755 1878 747
 15 757 0 752 758 759 14 756 947 758 ?622 15 203 5 17 -0 0 622 15 21 81 1 758 18
79 747 756 760 0 755 761 762 14 622 945 761 ?633 756 619 5 763 -0 0 633 756 21 1
5 203 946 0 42 756 0 50 17 1000 0 756 763 6 0 +-.03 .16 0 0 0 -1 -1 0 0 50 763 9
99 0 622 764 17 0 +.03 .16 0 -1 0 0 0 0 1 50 764 998 0 633 765 763 0 +.028644603
91757825 .16 -.00981929979038021 0 0 1 1 0 0 14 633 943 766 ?637 622 631 5 764 -
0 0 637 622 21 50 765 997 0 637 767 764 0 +.02864460391757825 .16 -.004 1 0 0 0
 0 -1 14 637 941 768 ?769 633 636 5 765 -0 0 769 633 21 50 767 996 0 769 770 765
 0 +.0267473594923803 .16 -.004 0 0 1 1 0 0 14 769 939 771 ?772 637 773 5 767 -0
 0 772 637 21 50 770 995 0 772 774 767 0 +.0267473594923803 .16 -.00981929979038
021 -1 0 0 0 0 1 14 772 937 775 ?776 769 777 5 770 -0 0 776 769 21 50 774 994 0
 776 778 770 0 +.025 .16 -.00981929979038021 0 0 1 1 0 0 14 776 935 779 ?780 772
 781 5 774 -0 0 780 772 21 50 778 993 0 780 782 774 0 +.025 .16 -.004 1 0 0 0 0
 -1 14 780 933 783 ?784 776 785 5 778 -0 0 784 776 21 50 782 992 0 784 786 778 0
 +.023 .16 -.004 0 0 1 1 0 0 14 784 931 787 ?788 780 789 5 782 -0 0 788 780 21 5
0 786 991 0 788 790 782 0 +.023 .16 -.00981929979038021 -1 0 0 0 0 1 14 788 929
 791 ?792 784 793 5 786 -0 0 792 784 21 50 790 990 0 792 794 786 0 +.02 .16 -.00
981929979038021 0 0 1 1 0 0 14 792 927 795 ?796 788 797 5 790 -0 0 796 788 21 50
 794 989 0 796 798 790 0 +.02 .16 -.004 1 0 0 0 0 -1 14 796 925 799 ?800 792 801
 5 794 -0 0 800 792 21 50 798 988 0 800 802 794 0 +.018 .16 -.004 0 0 1 1 0 0 14
 800 923 803 ?804 796 805 5 798 -0 0 804 796 21 50 802 987 0 804 806 798 0 +.018
 .16 -.00981929979038021 -1 0 0 0 0 1 14 804 921 807 ?808 800 809 5 802 -0 0 808
 800 21 50 806 986 0 808 810 802 0 +.015 .16 -.00981929979038021 0 0 1 1 0 0 14
 808 919 811 ?812 804 813 5 806 -0 0 812 804 21 50 810 985 0 812 814 806 0 +.015
 .16 -.004 1 0 0 0 0 -1 14 812 917 815 ?816 808 817 5 810 -0 0 816 808 21 50 814
 984 0 816 818 810 0 +.013 .16 -.004 0 0 1 1 0 0 14 816 915 819 ?820 812 821 5 8
14 -0 0 820 812 21 50 818 983 0 820 822 814 0 +.013 .16 -.00981929979038021 -1 0
 0 0 0 1 14 820 913 823 ?824 816 825 5 818 -0 0 824 816 21 50 822 982 0 824 826
 818 0 +.01 .16 -.00981929979038021 0 0 1 1 0 0 14 824 911 827 ?828 820 829 5 82
2 -0 0 828 820 21 50 826 981 0 828 830 822 0 +.01 .16 -.004 1 0 0 0 0 -1 14 828
 909 831 ?832 824 833 5 826 -0 0 832 824 21 50 830 980 0 832 834 826 0 +.008 .16
 -.004 0 0 1 1 0 0 14 832 907 835 ?836 828 837 5 830 -0 0 836 828 21 50 834 979
 0 836 838 830 0 +.008 .16 -.00981929979038021 -1 0 0 0 0 1 14 836 905 839 ?840
 832 841 5 834 -0 0 840 832 21 50 838 978 0 840 842 834 0 +.005 .16 -.0098192997
9038021 0 0 1 1 0 0 14 840 903 843 ?844 836 845 5 838 -0 0 844 836 21 50 842 977
 0 844 846 838 0 +.005 .16 -.004 1 0 0 0 0 -1 14 844 901 847 ?848 840 849 5 842
 -0 0 848 840 21 50 846 976 0 848 850 842 0 +.003 .16 -.004 0 0 1 1 0 0 14 848 8
99 851 ?852 844 853 5 846 -0 0 852 844 21 50 850 975 0 852 854 846 0 +.003 .16 -
.00981929979038021 -1 0 0 0 0 1 14 852 897 855 ?856 848 857 5 850 -0 0 856 848 2
1 50 854 974 0 856 858 850 0 +0 .16 -.00981929979038021 0 0 1 1 0 0 14 856 895 8
59 ?860 852 861 5 854 -0 0 860 852 21 50 858 973 0 860 862 854 0 +0 .16 -.004 1
 0 0 0 0 -1 14 860 893 863 ?864 856 865 5 858 -0 0 864 856 21 50 862 972 0 864 8
66 858 0 +-.002 .16 -.004 0 0 1 1 0 0 14 864 891 867 ?868 860 869 5 862 -0 0 868
 860 21 50 866 971 0 868 870 862 0 +-.002 .16 -.00981929979038021 -1 0 0 0 0 1 1
4 868 889 871 ?872 864 873 5 866 -0 0 872 864 21 50 870 970 0 872 874 866 0 +-.0
05 .16 -.00981929979038021 0 0 1 1 0 0 14 872 887 875 ?876 868 877 5 870 -0 0 87
6 868 21 50 874 969 0 876 878 870 0 +-.005 .16 -.004 1 0 0 0 0 -1 14 876 885 879
 ?880 872 881 5 874 -0 0 880 872 21 50 878 968 0 880 882 874 0 +-.007 .16 -.004
 0 0 1 1 0 0 14 880 883 883 ?884 876 885 5 878 -0 0 884 876 21 50 882 967 0 884
 886 878 0 +-.007 .16 -.00981929979038021 -1 0 0 0 0 1 14 884 881 887 ?888 880 8
89 5 882 -0 0 888 880 21 50 886 966 0 888 890 882 0 +-.01 .16 -.0098192997903802
1 0 0 1 1 0 0 14 888 879 891 ?892 884 893 5 886 -0 0 892 884 21 50 890 965 0 892
 894 886 0 +-.01 .16 -.004 1 0 0 0 0 -1 14 892 877 895 ?896 888 897 5 890 -0 0 8
96 888 21 50 894 964 0 896 898 890 0 +-.012 .16 -.004 0 0 1 1 0 0 14 896 875 899
 ?900 892 901 5 894 -0 0 900 892 21 50 898 963 0 900 902 894 0 +-.012 .16 -.0098
1929979038021 -1 0 0 0 0 1 14 900 873 903 ?904 896 905 5 898 -0 0 904 896 21 50
 902 962 0 904 906 898 0 +-.015 .16 -.00981929979038021 0 0 1 1 0 0 14 904 871 9
07 ?908 900 909 5 902 -0 0 908 900 21 50 906 961 0 908 910 902 0 +-.015 .16 -.00
4 1 0 0 0 0 -1 14 908 869 911 ?912 904 913 5 906 -0 0 912 904 21 50 910 960 0 91
2 914 906 0 +-.017 .16 -.004 0 0 1 1 0 0 14 912 867 915 ?916 908 917 5 910 -0 0
 916 908 21 50 914 959 0 916 918 910 0 +-.017 .16 -.00981929979038021 -1 0 0 0 0
 1 14 916 865 919 ?920 912 921 5 914 -0 0 920 912 21 50 918 958 0 920 922 914 0
 +-.02 .16 -.00981929979038021 0 0 1 1 0 0 14 920 863 923 ?924 916 925 5 918 -0
 0 924 916 21 50 922 957 0 924 926 918 0 +-.02 .16 -.004 1 0 0 0 0 -1 14 924 861
 927 ?928 920 929 5 922 -0 0 928 920 21 50 926 956 0 928 930 922 0 +-.022 .16 -.
004 0 0 1 1 0 0 14 928 859 931 ?932 924 933 5 926 -0 0 932 924 21 50 930 955 0 9
32 934 926 0 +-.022 .16 -.00981929979038021 -1 0 0 0 0 1 14 932 857 935 ?736 928
 936 5 930 -0 0 736 928 21 50 934 954 0 736 937 930 0 +-.025 .16 -.0098192997903
8021 0 0 1 1 0 0 14 736 855 938 ?740 932 735 5 934 -0 0 740 932 21 50 937 953 0
 740 939 934 0 +-.025 .16 -.004 1 0 0 0 0 -1 14 740 853 940 ?363 736 738 5 937 -
0 0 363 736 21 50 939 952 0 363 753 937 0 +-.027 .16 -.004 0 0 1 1 0 0 14 363 85
1 941 ?369 740 359 5 939 -0 0 369 740 21 50 753 951 0 369 746 939 0 +-.027 .16 -
.00981929979038021 -1 0 0 0 0 1 81 1 941 1927 747 363 942 0 940 943 944 80 255 1
 747 945 946 9000 1 1 1 1 1 1 1 1 0 FFFFTFTFFFFFFF1 81 1 942 1760 947 363 0 941
 948 949 950 81 1 940 1926 747 740 948 0 938 941 951 81 1 943 1928 747 628 952 0
 941 0 953 82 255 1 944 -258604952 14 628 427 943 ?0 353 625 5 754 +0 0 0 353 21
 81 1 952 1764 947 628 0 943 954 0 955 82 1 953 -269483928 80 1 947 0 956 8001 0
 0 0 0 3 5 0 0 0 FFFFTFTFFFFFFF2 81 1 954 1763 947 353 0 749 748 952 957 83 255
 3 955 .792156862745098 .819607843137255 .933333333333333 81 1 749 1876 747 353
 954 0 745 752 958 81 1 748 1762 947 744 0 745 949 954 959 83 3 957 .79215686274
5098 .819607843137255 .933333333333333 81 1 949 1761 947 369 0 752 942 748 960 8
3 3 959 .792156862745098 .819607843137255 .933333333333333 81 1 752 1877 747 369
 949 0 749 755 961 83 3 960 .792156862745098 .819607843137255 .933333333333333 8
2 1 961 -258867096 82 1 958 -331743128 79 255 15 956 SDL/TYSA_COLOUR50 754 689 0
 628 751 746 0 +0 0 0 0 -1 0 0 0 -1 50 751 2 0 353 0 754 0 +0 .16 0 0 -1 0 0 0 -
1 81 1 948 1759 947 740 0 940 962 942 963 81 1 938 1925 747 736 962 0 935 940 96
4 82 1 951 -258342808 81 1 962 1758 947 736 0 938 965 948 966 81 1 935 1924 747
 932 965 0 931 938 967 82 1 964 -258080664 81 1 965 1757 947 932 0 935 968 962 9
69 81 1 931 1923 747 928 968 0 927 935 970 82 1 967 -257818520 81 1 968 1756 947
 928 0 931 971 965 972 81 1 927 1922 747 924 971 0 923 931 973 82 1 970 -2575563
76 81 1 971 1755 947 924 0 927 974 968 975 81 1 923 1921 747 920 974 0 919 927 9
76 82 1 973 -257294232 81 1 974 1754 947 920 0 923 977 971 978 81 1 919 1920 747
 916 977 0 915 923 979 82 1 976 -257032088 81 1 977 1753 947 916 0 919 980 974 9
81 81 1 915 1919 747 912 980 0 911 919 982 82 1 979 -256769944 81 1 980 1752 947
 912 0 915 983 977 984 81 1 911 1918 747 908 983 0 907 915 985 82 1 982 -2565078
00 81 1 983 1751 947 908 0 911 986 980 987 81 1 907 1917 747 904 986 0 903 911 9
88 82 1 985 -256245656 81 1 986 1750 947 904 0 907 989 983 990 81 1 903 1916 747
 900 989 0 899 907 991 82 1 988 -255983512 81 1 989 1749 947 900 0 903 992 986 9
93 81 1 899 1915 747 896 992 0 895 903 994 82 1 991 -255721368 81 1 992 1748 947
 896 0 899 995 989 996 81 1 895 1914 747 892 995 0 891 899 997 82 1 994 -2554592
24 81 1 995 1747 947 892 0 895 998 992 999 81 1 891 1913 747 888 998 0 887 895 1
000 82 1 997 -255197080 81 1 998 1746 947 888 0 891 1001 995 1002 81 1 887 1912
 747 884 1001 0 883 891 1003 82 1 1000 -254934936 81 1 1001 1745 947 884 0 887 1
004 998 1005 81 1 883 1911 747 880 1004 0 879 887 1006 82 1 1003 -254672792 81 1
 1004 1744 947 880 0 883 1007 1001 1008 81 1 879 1910 747 876 1007 0 875 883 100
9 82 1 1006 -254410648 81 1 1007 1743 947 876 0 879 1010 1004 1011 81 1 875 1909
 747 872 1010 0 871 879 1012 82 1 1009 -254148504 81 1 1010 1742 947 872 0 875 1
013 1007 1014 81 1 871 1908 747 868 1013 0 867 875 1015 82 1 1012 -253886360 81
 1 1013 1741 947 868 0 871 1016 1010 1017 81 1 867 1907 747 864 1016 0 863 871 1
018 82 1 1015 -253624216 81 1 1016 1740 947 864 0 867 1019 1013 1020 81 1 863 19
06 747 860 1019 0 859 867 1021 82 1 1018 -253362072 81 1 1019 1739 947 860 0 863
 1022 1016 1023 81 1 859 1905 747 856 1022 0 855 863 1024 82 1 1021 -253099928 8
1 1 1022 1738 947 856 0 859 1025 1019 1026 81 1 855 1904 747 852 1025 0 851 859
 1027 82 1 1024 -252837784 81 1 1025 1737 947 852 0 855 1028 1022 1029 81 1 851
 1903 747 848 1028 0 847 855 1030 82 1 1027 -252575640 81 1 1028 1736 947 848 0
 851 1031 1025 1032 81 1 847 1902 747 844 1031 0 843 851 1033 82 1 1030 -2523134
96 81 1 1031 1735 947 844 0 847 1034 1028 1035 81 1 843 1901 747 840 1034 0 839
 847 1036 82 1 1033 -252051352 81 1 1034 1734 947 840 0 843 1037 1031 1038 81 1
 839 1900 747 836 1037 0 835 843 1039 82 1 1036 -251789208 81 1 1037 1733 947 83
6 0 839 1040 1034 1041 81 1 835 1899 747 832 1040 0 831 839 1042 82 1 1039 -2515
27064 81 1 1040 1732 947 832 0 835 1043 1037 1044 81 1 831 1898 747 828 1043 0 8
27 835 1045 82 1 1042 -251264920 81 1 1043 1731 947 828 0 831 1046 1040 1047 81
 1 827 1897 747 824 1046 0 823 831 1048 82 1 1045 -251002776 81 1 1046 1730 947
 824 0 827 1049 1043 1050 81 1 823 1896 747 820 1049 0 819 827 1051 82 1 1048 -2
50740632 81 1 1049 1729 947 820 0 823 1052 1046 1053 81 1 819 1895 747 816 1052
 0 815 823 1054 82 1 1051 -250478488 81 1 1052 1728 947 816 0 819 1055 1049 1056
 81 1 815 1894 747 812 1055 0 811 819 1057 82 1 1054 -250216344 81 1 1055 1727 9
47 812 0 815 1058 1052 1059 81 1 811 1893 747 808 1058 0 807 815 1060 82 1 1057
 -249954200 81 1 1058 1726 947 808 0 811 1061 1055 1062 81 1 807 1892 747 804 10
61 0 803 811 1063 82 1 1060 -249692056 81 1 1061 1725 947 804 0 807 1064 1058 10
65 81 1 803 1891 747 800 1064 0 799 807 1066 82 1 1063 -249429912 81 1 1064 1724
 947 800 0 803 1067 1061 1068 81 1 799 1890 747 796 1067 0 795 803 1069 82 1 106
6 -249167768 81 1 1067 1723 947 796 0 799 1070 1064 1071 81 1 795 1889 747 792 1
070 0 791 799 1072 82 1 1069 -248905624 81 1 1070 1722 947 792 0 795 1073 1067 1
074 81 1 791 1888 747 788 1073 0 787 795 1075 82 1 1072 -248643480 81 1 1073 172
1 947 788 0 791 1076 1070 1077 81 1 787 1887 747 784 1076 0 783 791 1078 82 1 10
75 -248381336 81 1 1076 1720 947 784 0 787 1079 1073 1080 81 1 783 1886 747 780
 1079 0 779 787 1081 82 1 1078 -248119192 81 1 1079 1719 947 780 0 783 1082 1076
 1083 81 1 779 1885 747 776 1082 0 775 783 1084 82 1 1081 -247857048 81 1 1082 1
718 947 776 0 779 1085 1079 1086 81 1 775 1884 747 772 1085 0 771 779 1087 82 1
 1084 -247594904 81 1 1085 1717 947 772 0 775 1088 1082 1089 81 1 771 1883 747 7
69 1088 0 768 775 1090 82 1 1087 -247332760 81 1 1088 1716 947 769 0 771 1091 10
85 1092 81 1 768 1882 747 637 1091 0 766 771 1093 82 1 1090 -247070616 81 1 1091
 1715 947 637 0 768 1094 1088 1095 81 1 766 1881 747 633 1094 0 761 768 1096 82
 1 1093 -246808472 81 1 1094 1714 947 633 0 766 1097 1091 1098 81 1 761 1880 747
 622 1097 0 758 766 1099 82 1 1096 -246546328 81 1 1097 1713 947 622 0 761 760 1
094 1100 82 1 1099 -246284184 81 1 760 1712 947 756 0 758 757 1097 1101 83 3 110
0 .792156862745098 .819607843137255 .933333333333333 81 1 757 1711 947 15 0 755
 0 760 1102 83 3 1101 .792156862745098 .819607843137255 .933333333333333 83 3 11
02 .792156862745098 .819607843137255 .933333333333333 83 3 1098 .792156862745098
 .819607843137255 .933333333333333 83 3 1095 .792156862745098 .819607843137255 .
933333333333333 83 3 1092 .792156862745098 .819607843137255 .933333333333333 83
 3 1089 .792156862745098 .819607843137255 .933333333333333 83 3 1086 .7921568627
45098 .819607843137255 .933333333333333 83 3 1083 .792156862745098 .819607843137
255 .933333333333333 83 3 1080 .792156862745098 .819607843137255 .93333333333333
3 83 3 1077 .792156862745098 .819607843137255 .933333333333333 83 3 1074 .792156
862745098 .819607843137255 .933333333333333 83 3 1071 .792156862745098 .81960784
3137255 .933333333333333 83 3 1068 .792156862745098 .819607843137255 .9333333333
33333 83 3 1065 .792156862745098 .819607843137255 .933333333333333 83 3 1062 .79
2156862745098 .819607843137255 .933333333333333 83 3 1059 .792156862745098 .8196
07843137255 .933333333333333 83 3 1056 .792156862745098 .819607843137255 .933333
333333333 83 3 1053 .792156862745098 .819607843137255 .933333333333333 83 3 1050
 .792156862745098 .819607843137255 .933333333333333 83 3 1047 .792156862745098 .
819607843137255 .933333333333333 83 3 1044 .792156862745098 .819607843137255 .93
3333333333333 83 3 1041 .792156862745098 .819607843137255 .933333333333333 83 3
 1038 .792156862745098 .819607843137255 .933333333333333 83 3 1035 .792156862745
098 .819607843137255 .933333333333333 83 3 1032 .792156862745098 .81960784313725
5 .933333333333333 83 3 1029 .792156862745098 .819607843137255 .933333333333333
 83 3 1026 .792156862745098 .819607843137255 .933333333333333 83 3 1023 .7921568
62745098 .819607843137255 .933333333333333 83 3 1020 .792156862745098 .819607843
137255 .933333333333333 83 3 1017 .792156862745098 .819607843137255 .93333333333
3333 83 3 1014 .792156862745098 .819607843137255 .933333333333333 83 3 1011 .792
156862745098 .819607843137255 .933333333333333 83 3 1008 .792156862745098 .81960
7843137255 .933333333333333 83 3 1005 .792156862745098 .819607843137255 .9333333
33333333 83 3 1002 .792156862745098 .819607843137255 .933333333333333 83 3 999 .
792156862745098 .819607843137255 .933333333333333 83 3 996 .792156862745098 .819
607843137255 .933333333333333 83 3 993 .792156862745098 .819607843137255 .933333
333333333 83 3 990 .792156862745098 .819607843137255 .933333333333333 83 3 987 .
792156862745098 .819607843137255 .933333333333333 83 3 984 .792156862745098 .819
607843137255 .933333333333333 83 3 981 .792156862745098 .819607843137255 .933333
333333333 83 3 978 .792156862745098 .819607843137255 .933333333333333 83 3 975 .
792156862745098 .819607843137255 .933333333333333 83 3 972 .792156862745098 .819
607843137255 .933333333333333 83 3 969 .792156862745098 .819607843137255 .933333
333333333 83 3 966 .792156862745098 .819607843137255 .933333333333333 83 3 963 .
792156862745098 .819607843137255 .933333333333333 83 3 950 .792156862745098 .819
607843137255 .933333333333333 79 14 946 SWEntUnchanged15 936 856 0 177 932 0 17
 177 0 936 734 489 175 1103 468 0 486 +17 734 0 936 733 177 341 486 484 0 731 -1
7 489 0 936 177 733 172 1104 487 0 1103 +17 1103 0 625 1105 737 172 177 468 0 0
 -17 486 0 735 180 731 175 734 484 0 737 +17 737 0 625 1103 739 175 180 470 0 0
 -17 1105 0 625 1106 1103 169 174 466 0 0 -17 1106 0 625 1107 1105 166 171 464 0
 0 -17 174 0 933 1104 492 172 1105 466 0 489 +15 933 858 0 174 928 0 17 1104 0 9
33 1108 174 338 489 487 0 733 -17 492 0 933 174 1108 169 1109 490 0 1105 +17 110
8 0 933 492 1104 335 340 726 0 0 -17 1109 0 929 1110 171 335 492 490 0 1108 -15
 929 860 0 171 924 0 17 1110 0 929 495 1109 332 337 724 0 0 -17 171 0 929 1109 4
95 169 1106 464 0 492 +17 495 0 929 171 1110 166 1111 493 0 1106 +17 1111 0 925
 1112 168 332 495 493 0 1110 -15 925 862 0 168 920 0 17 1112 0 925 498 1111 329
 334 722 0 0 -17 168 0 925 1111 498 166 1107 462 0 495 +17 498 0 925 168 1112 16
3 1113 496 0 1107 +17 1107 0 625 1114 1106 163 168 462 0 0 -17 1114 0 625 1115 1
107 160 165 460 0 0 -17 1115 0 625 1116 1114 157 162 458 0 0 -17 165 0 921 1113
 501 163 1114 460 0 498 +15 921 864 0 165 916 0 17 1113 0 921 1117 165 329 498 4
96 0 1112 -17 501 0 921 165 1117 160 1118 499 0 1114 +17 1117 0 921 501 1113 326
 331 720 0 0 -17 1118 0 917 1119 162 326 501 499 0 1117 -15 917 866 0 162 912 0
 17 1119 0 917 504 1118 323 328 718 0 0 -17 162 0 917 1118 504 160 1115 458 0 50
1 +17 504 0 917 162 1119 157 1120 502 0 1115 +17 1120 0 913 1121 159 323 504 502
 0 1119 -15 913 868 0 159 908 0 17 1121 0 913 507 1120 320 325 716 0 0 -17 159 0
 913 1120 507 157 1116 456 0 504 +17 507 0 913 159 1121 154 1122 505 0 1116 +17
 1116 0 625 1123 1115 154 159 456 0 0 -17 1123 0 625 1124 1116 151 156 454 0 0 -
17 1124 0 625 1125 1123 148 153 452 0 0 -17 156 0 909 1122 510 154 1123 454 0 50
7 +15 909 870 0 156 904 0 17 1122 0 909 1126 156 320 507 505 0 1121 -17 510 0 90
9 156 1126 151 1127 508 0 1123 +17 1126 0 909 510 1122 317 322 714 0 0 -17 1127
 0 905 1128 153 317 510 508 0 1126 -15 905 872 0 153 900 0 17 1128 0 905 513 112
7 314 319 712 0 0 -17 153 0 905 1127 513 151 1124 452 0 510 +17 513 0 905 153 11
28 148 1129 511 0 1124 +17 1129 0 901 1130 150 314 513 511 0 1128 -15 901 874 0
 150 896 0 17 1130 0 901 516 1129 311 316 710 0 0 -17 150 0 901 1129 516 148 112
5 450 0 513 +17 516 0 901 150 1130 145 1131 514 0 1125 +17 1125 0 625 1132 1124
 145 150 450 0 0 -17 1132 0 625 1133 1125 142 147 448 0 0 -17 1133 0 625 1134 11
32 139 144 446 0 0 -17 147 0 897 1131 519 145 1132 448 0 516 +15 897 876 0 147 8
92 0 17 1131 0 897 1135 147 311 516 514 0 1130 -17 519 0 897 147 1135 142 1136 5
17 0 1132 +17 1135 0 897 519 1131 308 313 708 0 0 -17 1136 0 893 1137 144 308 51
9 517 0 1135 -15 893 878 0 144 888 0 17 1137 0 893 522 1136 305 310 706 0 0 -17
 144 0 893 1136 522 142 1133 446 0 519 +17 522 0 893 144 1137 139 1138 520 0 113
3 +17 1138 0 889 1139 141 305 522 520 0 1137 -15 889 880 0 141 884 0 17 1139 0 8
89 525 1138 302 307 704 0 0 -17 141 0 889 1138 525 139 1134 444 0 522 +17 525 0
 889 141 1139 136 1140 523 0 1134 +17 1134 0 625 1141 1133 136 141 444 0 0 -17 1
141 0 625 1142 1134 133 138 442 0 0 -17 1142 0 625 1143 1141 130 135 440 0 0 -17
 138 0 885 1140 528 136 1141 442 0 525 +15 885 882 0 138 880 0 17 1140 0 885 114
4 138 302 525 523 0 1139 -17 528 0 885 138 1144 133 1145 526 0 1141 +17 1144 0 8
85 528 1140 299 304 702 0 0 -17 1145 0 881 1146 135 299 528 526 0 1144 -15 881 8
84 0 135 876 0 17 1146 0 881 531 1145 296 301 700 0 0 -17 135 0 881 1145 531 133
 1142 440 0 528 +17 531 0 881 135 1146 130 1147 529 0 1142 +17 1147 0 877 1148 1
32 296 531 529 0 1146 -15 877 886 0 132 872 0 17 1148 0 877 534 1147 293 298 698
 0 0 -17 132 0 877 1147 534 130 1143 438 0 531 +17 534 0 877 132 1148 127 1149 5
32 0 1143 +17 1143 0 625 1150 1142 127 132 438 0 0 -17 1150 0 625 1151 1143 124
 129 436 0 0 -17 1151 0 625 1152 1150 121 126 434 0 0 -17 129 0 873 1149 537 127
 1150 436 0 534 +15 873 888 0 129 868 0 17 1149 0 873 1153 129 293 534 532 0 114
8 -17 537 0 873 129 1153 124 1154 535 0 1150 +17 1153 0 873 537 1149 290 295 696
 0 0 -17 1154 0 869 1155 126 290 537 535 0 1153 -15 869 890 0 126 864 0 17 1155
 0 869 540 1154 287 292 694 0 0 -17 126 0 869 1154 540 124 1151 434 0 537 +17 54
0 0 869 126 1155 121 1156 538 0 1151 +17 1156 0 865 1157 123 287 540 538 0 1155
 -15 865 892 0 123 860 0 17 1157 0 865 543 1156 284 289 692 0 0 -17 123 0 865 11
56 543 121 1152 432 0 540 +17 543 0 865 123 1157 118 1158 541 0 1152 +17 1152 0
 625 1159 1151 118 123 432 0 0 -17 1159 0 625 1160 1152 115 120 430 0 0 -17 1160
 0 625 1161 1159 112 117 428 0 0 -17 120 0 861 1158 546 118 1159 430 0 543 +15 8
61 894 0 120 856 0 17 1158 0 861 1162 120 284 543 541 0 1157 -17 546 0 861 120 1
162 115 1163 544 0 1159 +17 1162 0 861 546 1158 281 286 690 0 0 -17 1163 0 857 1
164 117 281 546 544 0 1162 -15 857 896 0 117 852 0 17 1164 0 857 549 1163 278 28
3 688 0 0 -17 117 0 857 1163 549 115 1160 428 0 546 +17 549 0 857 117 1164 112 1
165 547 0 1160 +17 1165 0 853 1166 114 278 549 547 0 1164 -15 853 898 0 114 848
 0 17 1166 0 853 552 1165 275 280 686 0 0 -17 114 0 853 1165 552 112 1161 426 0
 549 +17 552 0 853 114 1166 109 1167 550 0 1161 +17 1161 0 625 1168 1160 109 114
 426 0 0 -17 1168 0 625 1169 1161 106 111 424 0 0 -17 1169 0 625 1170 1168 103 1
08 422 0 0 -17 111 0 849 1167 555 109 1168 424 0 552 +15 849 900 0 111 844 0 17
 1167 0 849 1171 111 275 552 550 0 1166 -17 555 0 849 111 1171 106 1172 553 0 11
68 +17 1171 0 849 555 1167 272 277 684 0 0 -17 1172 0 845 1173 108 272 555 553 0
 1171 -15 845 902 0 108 840 0 17 1173 0 845 558 1172 269 274 682 0 0 -17 108 0 8
45 1172 558 106 1169 422 0 555 +17 558 0 845 108 1173 103 1174 556 0 1169 +17 11
74 0 841 1175 105 269 558 556 0 1173 -15 841 904 0 105 836 0 17 1175 0 841 561 1
174 266 271 680 0 0 -17 105 0 841 1174 561 103 1170 420 0 558 +17 561 0 841 105
 1175 100 1176 559 0 1170 +17 1170 0 625 1177 1169 100 105 420 0 0 -17 1177 0 62
5 1178 1170 97 102 418 0 0 -17 1178 0 625 1179 1177 94 99 416 0 0 -17 102 0 837
 1176 564 100 1177 418 0 561 +15 837 906 0 102 832 0 17 1176 0 837 1180 102 266
 561 559 0 1175 -17 564 0 837 102 1180 97 1181 562 0 1177 +17 1180 0 837 564 117
6 263 268 678 0 0 -17 1181 0 833 1182 99 263 564 562 0 1180 -15 833 908 0 99 828
 0 17 1182 0 833 567 1181 260 265 676 0 0 -17 99 0 833 1181 567 97 1178 416 0 56
4 +17 567 0 833 99 1182 94 1183 565 0 1178 +17 1183 0 829 1184 96 260 567 565 0
 1182 -15 829 910 0 96 824 0 17 1184 0 829 570 1183 257 262 674 0 0 -17 96 0 829
 1183 570 94 1179 414 0 567 +17 570 0 829 96 1184 91 1185 568 0 1179 +17 1179 0
 625 1186 1178 91 96 414 0 0 -17 1186 0 625 1187 1179 88 93 412 0 0 -17 1187 0 6
25 1188 1186 85 90 410 0 0 -17 93 0 825 1185 573 91 1186 412 0 570 +15 825 912 0
 93 820 0 17 1185 0 825 1189 93 257 570 568 0 1184 -17 573 0 825 93 1189 88 1190
 571 0 1186 +17 1189 0 825 573 1185 254 259 672 0 0 -17 1190 0 821 1191 90 254 5
73 571 0 1189 -15 821 914 0 90 816 0 17 1191 0 821 576 1190 251 256 670 0 0 -17
 90 0 821 1190 576 88 1187 410 0 573 +17 576 0 821 90 1191 85 1192 574 0 1187 +1
7 1192 0 817 1193 87 251 576 574 0 1191 -15 817 916 0 87 812 0 17 1193 0 817 579
 1192 248 253 668 0 0 -17 87 0 817 1192 579 85 1188 408 0 576 +17 579 0 817 87 1
193 82 1194 577 0 1188 +17 1188 0 625 1195 1187 82 87 408 0 0 -17 1195 0 625 119
6 1188 79 84 406 0 0 -17 1196 0 625 1197 1195 76 81 404 0 0 -17 84 0 813 1194 58
2 82 1195 406 0 579 +15 813 918 0 84 808 0 17 1194 0 813 1198 84 248 579 577 0 1
193 -17 582 0 813 84 1198 79 1199 580 0 1195 +17 1198 0 813 582 1194 245 250 666
 0 0 -17 1199 0 809 1200 81 245 582 580 0 1198 -15 809 920 0 81 804 0 17 1200 0
 809 585 1199 242 247 664 0 0 -17 81 0 809 1199 585 79 1196 404 0 582 +17 585 0
 809 81 1200 76 1201 583 0 1196 +17 1201 0 805 1202 78 242 585 583 0 1200 -15 80
5 922 0 78 800 0 17 1202 0 805 588 1201 239 244 662 0 0 -17 78 0 805 1201 588 76
 1197 402 0 585 +17 588 0 805 78 1202 73 1203 586 0 1197 +17 1197 0 625 1204 119
6 73 78 402 0 0 -17 1204 0 625 1205 1197 70 75 400 0 0 -17 1205 0 625 1206 1204
 67 72 398 0 0 -17 75 0 801 1203 591 73 1204 400 0 588 +15 801 924 0 75 796 0 17
 1203 0 801 1207 75 239 588 586 0 1202 -17 591 0 801 75 1207 70 1208 589 0 1204
 +17 1207 0 801 591 1203 236 241 660 0 0 -17 1208 0 797 1209 72 236 591 589 0 12
07 -15 797 926 0 72 792 0 17 1209 0 797 594 1208 233 238 658 0 0 -17 72 0 797 12
08 594 70 1205 398 0 591 +17 594 0 797 72 1209 67 1210 592 0 1205 +17 1210 0 793
 1211 69 233 594 592 0 1209 -15 793 928 0 69 788 0 17 1211 0 793 597 1210 230 23
5 656 0 0 -17 69 0 793 1210 597 67 1206 396 0 594 +17 597 0 793 69 1211 64 1212
 595 0 1206 +17 1206 0 625 1213 1205 64 69 396 0 0 -17 1213 0 625 1214 1206 61 6
6 394 0 0 -17 1214 0 625 1215 1213 58 63 392 0 0 -17 66 0 789 1212 600 64 1213 3
94 0 597 +15 789 930 0 66 784 0 17 1212 0 789 1216 66 230 597 595 0 1211 -17 600
 0 789 66 1216 61 1217 598 0 1213 +17 1216 0 789 600 1212 227 232 654 0 0 -17 12
17 0 785 1218 63 227 600 598 0 1216 -15 785 932 0 63 780 0 17 1218 0 785 603 121
7 224 229 652 0 0 -17 63 0 785 1217 603 61 1214 392 0 600 +17 603 0 785 63 1218
 58 1219 601 0 1214 +17 1219 0 781 1220 60 224 603 601 0 1218 -15 781 934 0 60 7
76 0 17 1220 0 781 606 1219 221 226 650 0 0 -17 60 0 781 1219 606 58 1215 390 0
 603 +17 606 0 781 60 1220 55 1221 604 0 1215 +17 1215 0 625 1222 1214 55 60 390
 0 0 -17 1222 0 625 630 1215 52 57 388 0 0 -17 630 0 625 629 1222 49 54 386 0 0
 -17 57 0 777 1221 609 55 1222 388 0 606 +15 777 936 0 57 772 0 17 1221 0 777 12
23 57 221 606 604 0 1220 -17 609 0 777 57 1223 52 1224 607 0 1222 +17 1223 0 777
 609 1221 218 223 644 0 0 -17 1224 0 773 640 54 218 609 607 0 1223 -15 773 938 0
 54 769 0 17 640 0 773 612 1224 215 220 641 0 0 -17 54 0 773 1224 612 52 630 386
 0 609 +17 612 0 773 54 640 49 638 610 0 630 +17 220 0 27 223 217 218 640 641 0
 1224 +17 223 0 27 226 220 221 1223 644 0 1221 +17 226 0 27 229 223 224 1220 650
 0 1219 +17 229 0 27 232 226 227 1218 652 0 1217 +17 232 0 27 235 229 230 1216 6
54 0 1212 +17 235 0 27 238 232 233 1211 656 0 1210 +17 238 0 27 241 235 236 1209
 658 0 1208 +17 241 0 27 244 238 239 1207 660 0 1203 +17 244 0 27 247 241 242 12
02 662 0 1201 +17 247 0 27 250 244 245 1200 664 0 1199 +17 250 0 27 253 247 248
 1198 666 0 1194 +17 253 0 27 256 250 251 1193 668 0 1192 +17 256 0 27 259 253 2
54 1191 670 0 1190 +17 259 0 27 262 256 257 1189 672 0 1185 +17 262 0 27 265 259
 260 1184 674 0 1183 +17 265 0 27 268 262 263 1182 676 0 1181 +17 268 0 27 271 2
65 266 1180 678 0 1176 +17 271 0 27 274 268 269 1175 680 0 1174 +17 274 0 27 277
 271 272 1173 682 0 1172 +17 277 0 27 280 274 275 1171 684 0 1167 +17 280 0 27 2
83 277 278 1166 686 0 1165 +17 283 0 27 286 280 281 1164 688 0 1163 +17 286 0 27
 289 283 284 1162 690 0 1158 +17 289 0 27 292 286 287 1157 692 0 1156 +17 292 0
 27 295 289 290 1155 694 0 1154 +17 295 0 27 298 292 293 1153 696 0 1149 +17 298
 0 27 301 295 296 1148 698 0 1147 +17 301 0 27 304 298 299 1146 700 0 1145 +17 3
04 0 27 307 301 302 1144 702 0 1140 +17 307 0 27 310 304 305 1139 704 0 1138 +17
 310 0 27 313 307 308 1137 706 0 1136 +17 313 0 27 316 310 311 1135 708 0 1131 +
17 316 0 27 319 313 314 1130 710 0 1129 +17 319 0 27 322 316 317 1128 712 0 1127
 +17 322 0 27 325 319 320 1126 714 0 1122 +17 325 0 27 328 322 323 1121 716 0 11
20 +17 328 0 27 331 325 326 1119 718 0 1118 +17 331 0 27 334 328 329 1117 720 0
 1113 +17 334 0 27 337 331 332 1112 722 0 1111 +17 337 0 27 340 334 335 1110 724
 0 1109 +17 340 0 27 343 337 338 1108 726 0 1104 +17 733 0 936 489 734 338 343 7
28 0 0 -17 42 0 203 204 22 40 39 378 0 618 +17 22 0 203 42 200 37 742 10 0 377 +
82 1 762 -246022040 82 1 759 -245759896 82 1 750 -259129240 17 28 0 27 205 24 19
5 743 477 0 742 +16 477 4 0 ?28 206 198 1225 0 0 1 16 206 7 0 ?205 624 477 1226
 0 0 1 30 1225 5 0 477 0 1226 0 +-.03 .16 0 0 0 1 30 1226 8 0 206 1225 647 0 +-.
03 .16 0 1 0 0 30 647 11 0 624 1226 646 0 +.03 .16 0 0 0 -1 16 624 10 0 ?211 642
 206 647 0 0 1 17 211 0 27 214 205 207 620 624 0 623 +17 214 0 27 217 211 212 63
4 642 0 632 +17 205 0 27 211 28 201 200 206 0 204 +17 623 0 619 620 45 207 617 6
16 0 634 -17 634 0 631 617 632 207 214 642 0 0 -19 16 1055 0 1 0 9 5 S0 74 4 CI1
6 index_map_offset0 0 1 dCCZ20 14 3 0 0 943 2 952 0 0 0 0 0 0 0 0 0 0 0 0 0 0 0
 0 0 80 2 12 1227 1228 8004 0 0 0 0 3 5 0 0 0 FFTFFFFFFFFFFF2 3 83 1 13 1 79 16
 1228 SDL/TYSA_DENSITY1 0 
