**ABCDEFGHIJKLMNOPQRSTUVWXYZabcdefghijklmnopqrstuvwxyz**************************
**PARASOLID !"#$%&'()*+,-./:;<=>?@[\]^_`{|}~0123456789**************************
**PART1;
MC=AMD64;
MC_MODEL=Intel64 Family 6 Model 60 Stepping 3, GenuineIntel;
MC_ID=unknown;
OS=Windows_NT;
OS_RELEASE=unknown;
FRU=Parasolid Version 30.0, build 298, 12-15-2017;
APPL=SOLIDWORKS 2018-2018134;
SITE=;
USER=unknown;
FORMAT=text;
GUISE=transmit;
KEY=КорпусА;
FILE=КорпусА.x_t;
DATE=Thu Aug 16 19:43:05 2018;
**PART2;
SCH=SCH_3000298_30000;
USFLD_SIZE=0;
**PART3;
**END_OF_HEADER*****************************************************************
T51 : TRANSMIT FILE created by modeller version 300029823 SCH_3000298_30000_1300
6205 0 12 33 CCCCCCI4 mesh1006 0 I8 polyline1008 0 CCCCCCCDI5 owner1040 0 CCCCCC
I13 boundary_mesh1006 0 I17 boundary_polyline1008 0 CCCA16 index_map_offset0 0 1
 dA9 index_map82 0 A17 node_id_index_map82 0 A20 schema_embedding_map82 0 A5 chi
ld12 0 A14 lowest_node_id0 0 1 dZ1 373 2 3 0 0 0 0 0 0 1e3 1e-8 0 4 0 1 0 1 1 5
 6 7 8 0 0 9 10 11 0 0 0 0 0 0 81 255 2 2 258 12 1 0 0 0 0 13 0 70 11 CI9 list_t
ype0 0 1 uI10 notransmit0 0 1 lCCCDCCDI12 finger_index0 0 1 dI12 finger_block101
2 0 CZ3 0 4 T1 0 0 3 20 1 14 14 13 255 5 94 0 1 0 15 0 0 16 0 50 255 6 89 0 15 1
7 0 0 +.075 .015 -.05 -1 0 -1387778780781446e-31 -1387778780781446e-31 0 1 30 25
5 7 93 0 10 18 0 0 +.075 .015 -.05 0 -1 0 29 255 8 134 0 11 19 0 -.06 .015 .0425
 19 8 CCCCCCCA5 owner12 0 Z9 28 0 1 16 0 20 V0 16 255 10 77 0 ?21 0 22 7 0 0 1 1
8 255 11 132 0 23 0 24 8 ?1 17 255 23 0 25 26 27 11 28 29 0 30 +18 24 25 0 31 11
 32 33 ?1 17 31 0 34 35 36 24 37 38 0 39 +18 32 22 0 36 24 40 41 ?1 29 33 27 0 2
4 41 42 .075 .015 .05 29 41 24 0 32 43 33 -.075 .015 .05 29 42 73 0 44 33 45 .07
5 0 -.05 18 44 64 0 46 47 48 42 ?1 29 45 72 0 47 42 49 -.075 0 -.05 18 47 63 0 5
0 51 44 45 ?1 29 49 71 0 51 45 19 -.075 0 .05 18 51 62 0 52 53 47 49 ?1 29 19 70
 0 53 49 8 .075 0 .05 18 53 61 0 54 55 51 19 ?1 17 54 0 56 39 57 53 58 59 0 60 +
18 55 16 0 61 40 53 62 ?1 17 61 0 63 21 64 55 65 66 0 35 -18 40 19 0 65 32 55 43
 ?1 29 62 18 0 55 67 43 .075 .015 -.05 29 67 231 0 68 69 62 -.06 .015 -.0425 29
 43 21 0 40 62 41 -.075 .015 -.05 18 68 184 0 27 70 71 67 ?1 29 69 232 0 71 72 6
7 .06 .015 -.0425 18 71 186 0 73 68 74 69 ?1 29 72 233 0 74 75 69 .06 .015 .0425
 18 74 188 0 76 71 0 72 ?1 29 75 235 0 48 77 72 -.06 .003 -.0425 18 48 181 0 78
 44 79 75 ?1 29 77 236 0 79 80 75 .06 .003 -.0425 18 79 183 0 81 48 82 77 ?1 29
 80 237 0 82 83 77 .06 .003 .0425 18 82 185 0 84 79 70 80 ?1 29 83 238 0 70 0 80
 -.06 .003 .0425 18 70 187 0 26 82 68 83 ?1 17 26 0 25 85 23 70 30 86 0 87 -15 2
55 25 192 0 23 88 0 17 85 0 25 27 26 48 89 90 0 91 -17 30 0 92 93 87 11 26 86 0
 94 +16 86 156 0 ?30 95 96 97 0 0 1 17 87 0 92 30 84 70 98 99 0 89 -15 92 204 0
 93 100 0 17 84 0 92 87 93 82 76 95 0 101 -17 98 0 102 103 89 82 87 99 0 0 +16 9
9 165 0 ?98 104 90 105 0 0 1 17 89 0 102 98 91 70 85 90 0 0 +15 102 207 0 89 106
 0 17 91 0 102 89 103 48 107 96 0 0 +16 90 153 0 ?89 99 108 109 0 0 1 16 108 178
 0 ?110 90 111 112 0 0 1 30 109 230 0 90 0 105 0 +-.06 .003 .0425 0 0 1 30 105 2
29 0 99 109 113 0 +.06 .003 .0425 1 0 -1156482317317872e-31 30 113 228 0 104 105
 114 0 +.06 .003 .0425 0 0 -1 16 104 161 0 ?103 96 99 113 0 0 1 30 114 227 0 96
 113 115 0 +.06 .003 -.0425 -1 0 1156482317317872e-31 16 96 157 0 ?91 86 104 114
 0 0 1 30 115 226 0 29 114 116 0 +-.06 .015 .0425 0 0 1 16 29 169 0 ?23 117 0 11
5 0 0 1 30 116 225 0 117 115 118 0 +.06 .015 .0425 1 0 -1156482317317872e-31 16
 117 172 0 ?93 111 29 116 0 0 1 30 118 224 0 111 116 112 0 +.06 .015 .0425 0 0 -
1 16 111 175 0 ?119 108 117 118 0 0 1 30 112 223 0 108 118 120 0 +.06 .015 -.042
5 -1 0 1156482317317872e-31 30 120 222 0 121 112 122 0 +-.06 .003 -.0425 0 1 0 1
6 121 160 0 ?27 123 124 120 0 0 1 30 122 221 0 124 120 125 0 +.06 .003 -.0425 0
 1 0 16 124 164 0 ?73 121 95 122 0 0 1 30 125 220 0 95 122 97 0 +.06 .003 .0425
 0 1 0 16 95 168 0 ?76 124 86 125 0 0 1 30 97 219 0 86 125 126 0 +-.06 .003 .042
5 0 1 0 30 126 5 0 127 97 128 0 +.075 .015 -.05 1387778780781446e-31 0 -1 16 127
 4 0 ?35 66 59 126 0 0 1 30 128 8 0 66 126 129 0 +-.075 .015 -.05 -1 0 0 16 66 7
 0 ?65 130 127 128 0 0 1 30 129 11 0 130 128 131 0 +-.075 .015 -.05 138777878078
1446e-31 0 1 16 130 10 0 ?36 38 66 129 0 0 1 30 131 14 0 38 129 132 0 +-.075 .01
5 .05 1 0 0 16 38 13 0 ?31 133 130 131 0 0 1 30 132 69 0 123 131 134 0 +.075 0 -
.05 1387778780781446e-31 0 -1 16 123 57 0 ?135 136 121 132 0 0 1 30 134 68 0 136
 132 137 0 +-.075 0 -.05 -1 0 0 16 136 53 0 ?50 138 123 134 0 0 1 30 137 67 0 13
8 134 139 0 +-.075 0 -.05 1387778780781446e-31 0 1 16 138 49 0 ?52 59 136 137 0
 0 1 30 139 66 0 59 137 140 0 +-.075 0 .05 1 0 0 16 59 45 0 ?54 127 138 139 0 0
 1 30 140 90 0 133 139 141 0 +.075 .015 .05 0 -1 0 16 133 74 0 ?60 142 38 140 0
 0 1 30 141 91 0 142 140 18 0 +-.075 .015 .05 0 -1 0 16 142 75 0 ?57 22 133 141
 0 0 1 30 18 92 0 22 141 7 0 +-.075 .015 -.05 0 -1 0 16 22 76 0 ?143 10 142 18 0
 0 1 17 143 0 144 52 145 47 64 22 0 146 +15 144 80 0 52 147 0 17 52 0 144 148 14
3 51 146 138 0 57 +17 145 0 144 143 148 40 36 130 0 0 -17 64 0 63 61 50 40 143 2
2 0 145 -17 146 0 149 46 58 47 52 138 0 0 -15 149 44 0 150 151 0 17 46 0 149 150
 146 44 50 136 0 21 -17 58 0 149 146 150 51 54 59 0 0 -17 150 0 149 58 46 53 135
 123 0 0 -17 135 0 152 153 60 44 150 123 0 0 +15 152 84 0 135 15 0 17 153 0 152
 154 135 55 21 10 0 0 -17 60 0 152 135 154 53 39 133 0 150 +17 154 0 152 60 153
 24 35 127 0 0 -17 39 0 56 37 54 24 60 133 0 154 -15 56 78 0 54 155 0 17 37 0 56
 57 39 32 31 38 0 0 -17 57 0 56 54 37 51 148 142 0 58 +17 148 0 144 145 52 32 57
 142 0 37 -14 255 155 79 156 ?157 147 56 5 158 -0 0 157 147 20 81 1 156 363 159
 155 160 0 0 161 162 14 157 1 161 ?151 155 163 5 164 +0 0 151 155 20 14 147 81 1
65 ?155 166 144 5 167 -0 0 155 166 20 50 158 86 0 155 168 167 0 +-.075 .015 .05
 0 0 -1 -1 0 0 13 20 29 0 0 0 0 0 0 9 15 14 15 85 169 ?166 0 152 5 6 -0 0 166 0
 20 81 1 169 366 159 15 170 0 165 171 172 14 166 83 171 ?147 15 63 5 17 -0 0 147
 15 20 81 1 171 367 159 166 173 0 169 174 175 15 63 82 0 50 166 0 50 17 88 0 166
 167 6 0 +-.075 .015 -.05 0 0 1 1 0 0 50 167 87 0 147 158 17 0 +-.075 .015 -.05
 1 0 -1387778780781446e-31 -1387778780781446e-31 0 -1 17 50 0 63 64 21 47 46 136
 0 143 +17 21 0 63 50 61 44 153 10 0 135 +80 255 1 159 176 177 9000 1 1 1 1 1 1
 1 1 0 FFFFTFTFFFFFFF1 81 1 173 329 178 166 0 171 170 179 180 81 1 174 368 159 1
51 181 0 171 182 183 82 255 1 175 1489502353 14 151 43 174 ?88 157 149 5 168 -0
 0 88 157 20 81 1 181 333 178 151 0 174 184 185 186 81 1 182 369 159 88 185 0 17
4 187 188 82 1 183 1488060561 14 88 189 182 ?189 151 25 5 190 -0 0 189 151 20 81
 1 185 334 178 88 0 182 181 191 192 81 1 187 370 159 189 191 0 182 193 194 82 1
 188 515834005 14 189 193 187 ?195 88 196 5 197 -0 0 195 88 20 81 1 191 335 178
 189 0 187 185 198 199 81 1 193 371 159 195 198 0 187 200 201 82 1 194 515440789
 14 195 197 193 ?100 189 202 5 203 -0 0 100 189 20 81 1 198 336 178 195 0 193 19
1 204 205 81 1 200 372 159 100 204 0 193 206 207 82 1 201 515571861 14 100 201 2
00 ?106 195 92 5 208 -0 0 106 195 20 81 1 204 337 178 100 0 200 198 209 210 81 1
 206 373 159 106 209 0 200 0 211 82 1 207 515702933 14 106 205 206 ?0 100 102 5
 212 +0 0 0 100 20 81 1 209 338 178 106 0 206 204 0 213 82 1 211 508887189 80 1
 178 0 214 8001 0 0 0 0 3 5 0 0 0 FFFFTFTFFFFFFF2 83 255 3 213 1 .85098039215686
3 0 79 255 15 214 SDL/TYSA_COLOUR50 212 218 0 106 0 197 0 +0 .003 0 0 1 0 0 0 1
 50 197 216 0 189 212 203 0 +.06 .003 -.0425 -1156482317317872e-31 0 -1 -1 0 115
6482317317872e-31 50 203 215 0 195 197 208 0 +.06 .003 .0425 1 0 0 0 0 -1 50 208
 214 0 100 203 190 0 +.06 .003 .0425 1156482317317872e-31 0 1 1 0 -1156482317317
872e-31 50 190 213 0 88 208 164 0 +-.06 .003 .0425 -1 0 0 0 0 1 50 164 2 0 157 1
90 168 0 +0 .015 0 0 1 0 0 0 1 50 168 65 0 151 164 158 0 +0 0 0 0 1 0 0 0 1 83 3
 210 1 .850980392156863 0 83 3 205 1 .850980392156863 0 15 202 200 0 119 195 0 1
7 119 0 202 81 76 71 215 111 0 216 +17 81 0 202 101 119 79 73 124 0 103 -17 76 0
 202 119 101 74 84 95 0 93 +17 215 0 163 94 216 74 119 111 0 0 -17 216 0 163 215
 28 71 110 108 0 0 -15 163 148 0 28 157 34 17 28 0 163 216 94 68 23 29 0 0 -17 1
10 0 196 78 73 68 216 108 0 28 +15 196 196 0 110 189 0 17 78 0 196 107 110 48 27
 121 0 85 -17 73 0 196 110 107 71 81 124 0 119 +17 107 0 196 73 78 79 91 96 0 0
 -17 27 0 25 23 85 68 78 121 0 110 +17 94 0 163 28 215 11 93 117 0 0 -17 93 0 92
 84 30 74 94 117 0 215 +15 34 3 0 35 157 0 17 35 0 34 65 31 55 154 127 0 153 +17
 65 0 34 36 35 40 61 66 0 64 +17 36 0 34 31 65 32 145 130 0 148 +17 101 0 202 76
 81 82 103 104 0 98 -17 103 0 102 91 98 79 101 104 0 107 +83 3 199 1 .8509803921
56863 0 83 3 192 1 .850980392156863 0 81 1 184 332 178 157 0 161 160 181 217 83
 3 186 1 .850980392156863 0 81 1 161 364 159 157 184 0 156 165 218 81 1 160 331
 178 155 0 156 179 184 219 83 3 217 1 .850980392156863 0 81 1 179 330 178 147 0
 165 173 160 220 83 3 219 1 .850980392156863 0 81 1 165 365 159 147 179 0 161 16
9 221 83 3 220 1 .850980392156863 0 82 1 221 1489240209 82 1 218 1482424469 81 1
 170 328 178 15 0 169 0 173 222 83 3 180 1 .850980392156863 0 83 3 222 1 .850980
392156863 0 79 14 177 SWEntUnchanged82 1 172 1489764497 82 1 162 1488978065 19 1
6 95 0 1 0 9 5 S0 74 4 CI16 index_map_offset0 0 1 dCCZ20 14 3 0 0 206 2 209 0 0
 0 0 0 0 0 0 0 0 0 0 0 0 0 0 0 80 2 12 223 224 8004 0 0 0 0 3 5 0 0 0 FFTFFFFFFF
FFFF2 3 83 1 13 78e2 79 16 224 SDL/TYSA_DENSITY1 0 
