**ABCDEFGHIJKLMNOPQRSTUVWXYZabcdefghijklmnopqrstuvwxyz**************************
**PARASOLID !"#$%&'()*+,-./:;<=>?@[\]^_`{|}~0123456789**************************
**PART1;
MC=AMD64;
MC_MODEL=Intel64 Family 6 Model 60 Stepping 3, GenuineIntel;
MC_ID=unknown;
OS=Windows_NT;
OS_RELEASE=unknown;
FRU=Parasolid Version 30.0, build 298, 12-15-2017;
APPL=SOLIDWORKS 2018-2018134;
SITE=;
USER=unknown;
FORMAT=text;
GUISE=transmit;
KEY=МакетБ;
FILE=МакетБ.x_t;
DATE=Fri Aug 17 17:40:53 2018;
**PART2;
SCH=SCH_3000298_30000;
USFLD_SIZE=0;
**PART3;
**END_OF_HEADER*****************************************************************
T51 : TRANSMIT FILE created by modeller version 300029823 SCH_3000298_30000_1300
6205 0 10 19 CCCCCCCI4 mesh1006 0 I8 polyline1008 0 CCCCCCCCCCZ1 9 2 3 0 0 0 0 0
 0 0 1e3 1e-8 0 0 0 1 0 1 4 81 255 1 2 9 5 1 0 0 0 0 0 70 11 CI9 list_type0 0 1
 uI10 notransmit0 0 1 lCCCDCCDI12 finger_index0 0 1 dI12 finger_block1012 0 CZ3
 0 4 T1 0 0 1 20 1 6 6 11 255 4 7 0 1 7 8 1 9 0 9 0 12 33 CCCCCCI4 mesh1006 0 I8
 polyline1008 0 CCCCCCCDI5 owner1040 0 CCCCCCI13 boundary_mesh1006 0 I17 boundar
y_polyline1008 0 CCCA16 index_map_offset0 0 1 dA9 index_map82 0 A17 node_id_inde
x_map82 0 A20 schema_embedding_map82 0 A5 child12 0 A14 lowest_node_id0 0 1 dZ7
 1130 10 11 0 0 0 0 0 0 1e3 1e-8 4 12 0 1 0 1 1 13 14 15 16 0 0 17 18 19 0 0 0 0
 0 0 100 255 8 8 4 0 0 -129996572618154e-30 -501391228597585e-46 -1 -44408920985
00625e-31 1 759095235745387e-47 1 4440892098500625e-31 -129996572618154e-30 .110
09940700245 -173472347597637e-32 -.005 1 3 ?11 9 5 0 1 7 20 1 21 4 0 4 100 20 6
 9 0 0 -1208170360577758e-32 0 1 0 1 0 -1 0 -1208170360577758e-32 .005 0 .070099
4070024501 1 3 ?11 21 3 0 1 12 22 1 23 9 23 0 12 12 2012 24 25 0 0 0 0 0 0 1e3 1
e-8 21 26 7 1 0 1 1 27 28 29 30 0 0 31 32 33 0 0 0 0 0 0 100 22 4 21 0 0 -1 5551
11512312578e-31 955050504439671e-32 1665334536937735e-31 1 47964030150652e-30 -9
55050504439671e-32 47964030150652e-30 -1 .11509940700245 -3865180744910825e-32 .
0650994070024501 1 3 ?11 23 1 0 1 12 34 1 0 21 0 21 100 34 2 23 0 0 1 0 0 0 1 0
 0 0 1 0 0 0 1 0 ?81 1 24 2012 5 12 0 0 0 0 35 70 25 0 4 T12 0 0 3 20 1 36 36 13
 255 27 534 0 12 0 37 0 0 38 0 50 255 28 507 0 37 39 0 0 +-1208170360577758e-34
 .02 -.01 1 0 -1208170360577758e-32 -1208170360577758e-32 0 -1 30 255 29 533 0 3
2 40 0 0 +0 .02 0 0 -1 0 29 255 30 378 0 41 42 0 -1208170360577758e-34 0 -.01 19
 8 CCCCCCCA5 owner12 0 Z31 160 0 12 38 0 43 V0 16 255 32 882 0 ?44 0 45 29 0 0 1
2 18 255 33 157 0 46 0 47 48 ?12 17 255 46 0 49 50 51 33 52 53 0 54 +18 47 154 0
 51 33 55 56 ?12 29 48 159 0 33 56 57 -1208170360577758e-34 .02 -.01 29 56 156 0
 47 58 48 .12009940700245 .02 -.01 29 57 403 0 59 48 60 0 0 0 18 59 350 0 44 61
 62 57 ?12 29 60 402 0 61 57 63 .0100994070024501 0 0 18 61 349 0 64 65 59 60 ?1
2 29 63 401 0 65 60 66 .01009940700245012 0 -.005 18 65 348 0 67 68 61 63 ?12 29
 66 400 0 68 63 69 .0200994070024501 0 -.005 18 68 347 0 70 71 65 66 ?12 29 69 3
99 0 71 66 72 .0200994070024501 0 0 18 71 346 0 73 74 68 69 ?12 29 72 398 0 74 6
9 75 .0300994070024501 0 0 18 74 345 0 76 77 71 72 ?12 29 75 397 0 77 72 78 .030
0994070024501 0 -.005 18 77 344 0 79 80 74 75 ?12 29 78 396 0 80 75 81 .04009940
70024501 0 -.005 18 80 343 0 82 83 77 78 ?12 29 81 395 0 83 78 84 .0400994070024
501 0 0 18 83 342 0 85 86 80 81 ?12 29 84 394 0 86 81 87 .0500994070024501 0 0 1
8 86 341 0 88 89 83 84 ?12 29 87 393 0 89 84 90 .0500994070024501 0 -.005 18 89
 340 0 91 92 86 87 ?12 29 90 392 0 92 87 93 .0600994070024501 0 -.005 18 92 339
 0 94 95 89 90 ?12 29 93 391 0 95 90 96 .0600994070024501 0 0 18 95 338 0 97 98
 92 93 ?12 29 96 390 0 98 93 99 .0700994070024501 0 0 18 98 337 0 100 101 95 96
 ?12 29 99 389 0 101 96 102 .0700994070024501 0 -.005 18 101 336 0 103 104 98 99
 ?12 29 102 388 0 104 99 105 .0800994070024501 0 -.005 18 104 335 0 106 107 101
 102 ?12 29 105 387 0 107 102 108 .0800994070024501 0 0 18 107 334 0 109 110 104
 105 ?12 29 108 386 0 110 105 111 .0900994070024501 0 0 18 110 333 0 112 113 107
 108 ?12 29 111 385 0 113 108 114 .0900994070024501 0 -.005 18 113 332 0 115 116
 110 111 ?12 29 114 384 0 116 111 117 .10009940700245 0 -.005 18 116 331 0 118 1
19 113 114 ?12 29 117 383 0 119 114 120 .10009940700245 0 0 18 119 330 0 121 122
 116 117 ?12 29 120 382 0 122 117 123 .11009940700245 0 0 18 122 329 0 124 125 1
19 120 ?12 29 123 381 0 125 120 126 .11009940700245 0 -.005 18 125 328 0 127 128
 122 123 ?12 29 126 380 0 128 123 42 .12009940700245 0 -.005 18 128 327 0 129 13
0 125 126 ?12 29 42 379 0 130 126 30 .12009940700245 0 -.01 18 130 326 0 131 41
 128 42 ?12 17 131 0 132 133 129 130 134 135 0 136 +18 41 325 0 137 55 130 30 ?1
2 17 137 0 138 54 136 41 139 140 0 141 +18 55 151 0 142 47 41 58 ?12 17 142 0 49
 51 50 55 143 144 0 145 +29 58 153 0 55 146 56 .12009940700245 .02 -.005 29 146
 1329 0 62 147 58 .0100994070024501 .01 -.005 18 62 1041 0 148 59 149 146 ?12 29
 147 1330 0 149 150 146 .0200994070024501 .01 -.005 18 149 1039 0 151 62 152 147
 ?12 29 150 1331 0 152 153 147 .0300994070024501 .01 -.005 18 152 1045 0 154 149
 155 150 ?12 29 153 1332 0 155 156 150 .0400994070024501 .01 -.005 18 155 1043 0
 157 152 158 153 ?12 29 156 1333 0 158 159 153 .0500994070024501 .01 -.005 18 15
8 1049 0 160 155 161 156 ?12 29 159 1334 0 161 162 156 .0600994070024501 .01 -.0
05 18 161 1047 0 163 158 164 159 ?12 29 162 1335 0 164 165 159 .0700994070024501
 .01 -.005 18 164 1053 0 166 161 167 162 ?12 29 165 1336 0 167 168 162 .08009940
70024501 .01 -.005 18 167 1051 0 169 164 170 165 ?12 29 168 1337 0 170 171 165 .
0900994070024501 .01 -.005 18 170 1057 0 172 167 173 168 ?12 29 171 1338 0 173 1
74 168 .10009940700245 .01 -.005 18 173 1055 0 175 170 176 171 ?12 29 174 1339 0
 176 177 171 .11009940700245 .01 -.005 18 176 1065 0 178 173 179 174 ?12 29 177
 1362 0 179 180 174 .0100994070024501 .01 0 18 179 1037 0 181 176 182 177 ?12 29
 180 1363 0 182 183 177 .0200994070024501 .01 0 18 182 1042 0 184 179 185 180 ?1
2 29 183 1364 0 185 186 180 .0300994070024501 .01 0 18 185 1040 0 187 182 188 18
3 ?12 29 186 1365 0 188 189 183 .0400994070024501 .01 0 18 188 1046 0 190 185 19
1 186 ?12 29 189 1366 0 191 192 186 .0500994070024501 .01 0 18 191 1044 0 193 18
8 194 189 ?12 29 192 1367 0 194 195 189 .0600994070024501 .01 0 18 194 1050 0 19
6 191 197 192 ?12 29 195 1368 0 197 198 192 .0700994070024501 .01 0 18 197 1048
 0 199 194 200 195 ?12 29 198 1369 0 200 201 195 .0800994070024501 .01 0 18 200
 1054 0 202 197 203 198 ?12 29 201 1370 0 203 204 198 .0900994070024501 .01 0 18
 203 1052 0 205 200 206 201 ?12 29 204 1371 0 206 207 201 .10009940700245 .01 0
 18 206 1058 0 208 203 209 204 ?12 29 207 1372 0 209 210 204 .11009940700245 .01
 0 18 209 1056 0 211 206 212 207 ?12 29 210 1373 0 212 213 207 0 .02 -.005 18 21
2 1016 0 143 209 214 210 ?12 29 213 1375 0 214 215 210 0 .01 0 18 214 1038 0 216
 212 217 213 ?12 29 215 1376 0 217 0 213 0 .01 -.005 18 217 1059 0 218 214 0 215
 ?12 17 218 0 219 216 148 217 220 221 0 222 +15 255 219 1114 0 218 223 0 17 216
 0 219 181 218 214 224 225 0 226 +17 148 0 219 218 181 62 227 228 0 220 -17 220
 0 229 67 222 62 218 221 0 230 -16 221 944 0 ?218 231 225 232 231 233 12 17 222
 0 229 220 143 217 234 235 0 224 +15 229 434 0 236 237 0 17 143 0 229 222 145 21
2 142 144 0 234 -17 234 0 238 239 224 212 222 235 0 50 -16 235 1003 0 ?222 225 0
 240 0 0 12 17 224 0 238 234 241 217 216 225 0 0 -15 238 480 0 224 37 0 17 241 0
 238 224 242 214 44 32 0 0 -16 225 1006 0 ?216 221 235 243 0 0 12 30 243 1323 0
 225 240 244 0 +0 .01 -.005 0 0 1 30 240 1324 0 235 0 243 0 +0 .02 -.005 0 -1 17
34723475976805e-31 30 244 1318 0 245 243 232 0 +.12009940700245 .01 0 -1 0 0 16
 245 922 0 ?226 246 233 244 246 247 12 30 232 1317 0 221 244 248 0 +.12009940700
245 .01 -.005 -1 0 0 30 248 1294 0 249 232 250 0 +.11009940700245 .01 0 -5551115
12312578e-29 0 1 16 249 941 0 ?251 252 247 248 0 0 12 30 250 1293 0 252 248 253
 0 +.10009940700245 .01 -.005 0 0 -1 16 252 940 0 ?254 255 249 250 0 0 12 30 253
 1292 0 255 250 256 0 +.0900994070024501 .01 0 -555111512312578e-29 0 1 16 255 9
37 0 ?257 258 252 253 0 0 12 30 256 1291 0 258 253 259 0 +.0800994070024501 .01
 -.005 0 0 -1 16 258 936 0 ?260 261 255 256 0 0 12 30 259 1290 0 261 256 262 0 +
.0700994070024501 .01 0 -277555756156289e-29 0 1 16 261 933 0 ?263 264 258 259 0
 0 12 30 262 1289 0 264 259 265 0 +.0600994070024501 .01 -.005 0 0 -1 16 264 932
 0 ?266 267 261 262 0 0 12 30 265 1288 0 267 262 268 0 +.0500994070024501 .01 0
 -555111512312578e-29 0 1 16 267 929 0 ?269 270 264 265 0 0 12 30 268 1287 0 270
 265 271 0 +.0400994070024501 .01 -.005 0 0 -1 16 270 928 0 ?272 273 267 268 0 0
 12 30 271 1286 0 273 268 274 0 +.0300994070024501 .01 0 -555111512312578e-29 0
 1 16 273 925 0 ?275 276 270 271 0 0 12 30 274 1285 0 276 271 277 0 +.0200994070
024501 .01 -.005 0 0 -1 16 276 924 0 ?278 228 273 274 0 0 12 30 277 1284 0 228 2
74 279 0 +.0100994070024501 .01 0 -520417042793042e-29 0 1 16 228 921 0 ?227 280
 276 277 0 0 12 30 279 5 0 281 277 282 0 +-1208170360577758e-34 .02 -.01 1208170
360577758e-32 0 1 16 281 4 0 ?50 144 140 279 0 0 12 30 282 14 0 144 279 283 0 +.
01009940700245012 .02 -.005 1 0 0 16 144 13 0 ?142 284 281 282 0 0 12 30 283 77
 0 284 282 285 0 +.12009940700245 .02 -.005 0 0 -1 16 284 76 0 ?51 53 144 283 0
 0 12 30 285 80 0 53 283 286 0 +.12009940700245 .02 -.01 -1 0 1299965726181542e-
31 16 53 79 0 ?46 287 284 285 0 0 12 30 286 377 0 280 285 288 0 +-12081703605777
58e-34 0 -.01 1208170360577758e-32 0 1 16 280 321 0 ?242 289 228 286 0 0 12 30 2
88 376 0 289 286 290 0 +0 0 0 1 0 0 16 289 317 0 ?291 292 280 288 0 0 12 30 290
 375 0 292 288 293 0 +.0100994070024501 0 0 520417042793042e-29 0 -1 16 292 313
 0 ?294 295 289 290 0 0 12 30 293 374 0 295 290 296 0 +.01009940700245012 0 -.00
5 1 0 0 16 295 309 0 ?297 298 292 293 0 0 12 30 296 373 0 298 293 299 0 +.020099
4070024501 0 -.005 0 0 1 16 298 305 0 ?300 301 295 296 0 0 12 30 299 372 0 301 2
96 302 0 +.0200994070024501 0 0 1 0 0 16 301 301 0 ?303 304 298 299 0 0 12 30 30
2 371 0 304 299 305 0 +.0300994070024501 0 0 555111512312578e-29 0 -1 16 304 297
 0 ?306 307 301 302 0 0 12 30 305 370 0 307 302 308 0 +.0300994070024501 0 -.005
 1 0 0 16 307 293 0 ?309 310 304 305 0 0 12 30 308 369 0 310 305 311 0 +.0400994
070024501 0 -.005 0 0 1 16 310 289 0 ?312 313 307 308 0 0 12 30 311 368 0 313 30
8 314 0 +.0400994070024501 0 0 1 0 0 16 313 285 0 ?315 316 310 311 0 0 12 30 314
 367 0 316 311 317 0 +.0500994070024501 0 0 555111512312578e-29 0 -1 16 316 281
 0 ?318 319 313 314 0 0 12 30 317 366 0 319 314 320 0 +.0500994070024501 0 -.005
 1 0 0 16 319 277 0 ?321 322 316 317 0 0 12 30 320 365 0 322 317 323 0 +.0600994
070024501 0 -.005 0 0 1 16 322 273 0 ?324 325 319 320 0 0 12 30 323 364 0 325 32
0 326 0 +.0600994070024501 0 0 1 0 0 16 325 269 0 ?327 328 322 323 0 0 12 30 326
 363 0 328 323 329 0 +.0700994070024501 0 0 277555756156289e-29 0 -1 16 328 265
 0 ?330 331 325 326 0 0 12 30 329 362 0 331 326 332 0 +.0700994070024501 0 -.005
 1 0 0 16 331 261 0 ?333 334 328 329 0 0 12 30 332 361 0 334 329 335 0 +.0800994
070024501 0 -.005 0 0 1 16 334 257 0 ?336 337 331 332 0 0 12 30 335 360 0 337 33
2 338 0 +.0800994070024501 0 0 1 0 0 16 337 253 0 ?339 340 334 335 0 0 12 30 338
 359 0 340 335 341 0 +.0900994070024501 0 0 555111512312578e-29 0 -1 16 340 249
 0 ?342 343 337 338 0 0 12 30 341 358 0 343 338 344 0 +.0900994070024501 0 -.005
 1 0 0 16 343 245 0 ?345 346 340 341 0 0 12 30 344 357 0 346 341 347 0 +.1000994
0700245 0 -.005 0 0 1 16 346 241 0 ?348 349 343 344 0 0 12 30 347 356 0 349 344
 350 0 +.10009940700245 0 0 1 0 0 16 349 237 0 ?351 352 346 347 0 0 12 30 350 35
5 0 352 347 353 0 +.11009940700245 0 0 555111512312578e-29 0 -1 16 352 233 0 ?35
4 355 349 350 0 0 12 30 353 354 0 355 350 356 0 +.11009940700245 0 -.005 1 0 0 1
6 355 229 0 ?236 135 352 353 0 0 12 30 356 353 0 135 353 357 0 +.12009940700245
 0 -.005 0 0 -1 16 135 225 0 ?131 140 355 356 0 0 12 30 357 352 0 140 356 358 0
 +.12009940700245 0 -.01 -1 0 1299965726181542e-31 16 140 221 0 ?137 281 135 357
 0 0 12 30 358 508 0 287 357 359 0 +-1208170360577758e-34 .02 -.01 0 -1 0 16 287
 404 0 ?141 360 53 358 0 0 12 30 359 509 0 360 358 361 0 +.12009940700245 .02 -.
01 0 -1 0 16 360 405 0 ?136 362 287 359 0 0 12 30 361 510 0 362 359 363 0 +.1200
9940700245 .02 -.005 0 -1 0 16 362 406 0 ?129 364 360 361 0 0 12 30 363 511 0 36
4 361 365 0 +.11009940700245 .02 -.005 0 -1 0 16 364 717 0 ?127 366 362 363 0 0
 12 30 365 512 0 366 363 367 0 +.11009940700245 .02 0 0 -1 0 16 366 725 0 ?124 3
68 364 365 0 0 12 30 367 513 0 368 365 369 0 +.10009940700245 .02 0 0 -1 0 16 36
8 732 0 ?121 370 366 367 0 0 12 30 369 514 0 370 367 371 0 +.10009940700245 .02
 -.005 0 -1 0 16 370 740 0 ?118 372 368 369 0 0 12 30 371 515 0 372 369 373 0 +.
0900994070024501 .02 -.005 0 -1 0 16 372 747 0 ?115 374 370 371 0 0 12 30 373 51
6 0 374 371 375 0 +.0900994070024501 .02 0 0 -1 0 16 374 755 0 ?112 376 372 373
 0 0 12 30 375 517 0 376 373 377 0 +.0800994070024501 .02 0 0 -1 0 16 376 762 0
 ?109 378 374 375 0 0 12 30 377 518 0 378 375 379 0 +.0800994070024501 .02 -.005
 0 -1 0 16 378 770 0 ?106 380 376 377 0 0 12 30 379 519 0 380 377 381 0 +.070099
4070024501 .02 -.005 0 -1 0 16 380 777 0 ?103 382 378 379 0 0 12 30 381 520 0 38
2 379 383 0 +.0700994070024501 .02 0 0 -1 0 16 382 785 0 ?100 384 380 381 0 0 12
 30 383 521 0 384 381 385 0 +.0600994070024501 .02 0 0 -1 0 16 384 792 0 ?97 386
 382 383 0 0 12 30 385 522 0 386 383 387 0 +.0600994070024501 .02 -.005 0 -1 0 1
6 386 800 0 ?94 388 384 385 0 0 12 30 387 523 0 388 385 389 0 +.0500994070024501
 .02 -.005 0 -1 0 16 388 807 0 ?91 390 386 387 0 0 12 30 389 524 0 390 387 391 0
 +.0500994070024501 .02 0 0 -1 0 16 390 815 0 ?88 392 388 389 0 0 12 30 391 525
 0 392 389 393 0 +.0400994070024501 .02 0 0 -1 0 16 392 822 0 ?85 394 390 391 0
 0 12 30 393 526 0 394 391 395 0 +.0400994070024501 .02 -.005 0 -1 0 16 394 830
 0 ?82 396 392 393 0 0 12 30 395 527 0 396 393 397 0 +.0300994070024501 .02 -.00
5 0 -1 0 16 396 837 0 ?79 398 394 395 0 0 12 30 397 528 0 398 395 399 0 +.030099
4070024501 .02 0 0 -1 0 16 398 845 0 ?76 400 396 397 0 0 12 30 399 529 0 400 397
 401 0 +.0200994070024501 .02 0 0 -1 0 16 400 852 0 ?73 402 398 399 0 0 12 30 40
1 530 0 402 399 403 0 +.0200994070024501 .02 -.005 0 -1 0 16 402 860 0 ?70 404 4
00 401 0 0 12 30 403 531 0 404 401 40 0 +.01009940700245012 .02 -.005 0 -1 0 16
 404 867 0 ?67 45 402 403 0 0 12 30 40 532 0 45 403 29 0 +.0100994070024501 .02
 0 0 -1 0 16 45 875 0 ?64 32 404 40 0 0 12 17 64 0 405 294 227 61 406 45 0 291 +
15 405 476 0 230 407 0 17 294 0 405 230 64 65 408 292 0 409 +17 227 0 405 64 230
 179 148 228 0 406 +17 406 0 410 226 291 179 64 45 0 0 -17 291 0 410 406 44 61 4
11 289 0 408 +15 410 478 0 406 412 0 17 44 0 410 291 226 59 241 32 0 411 +17 411
 0 413 414 408 59 291 289 0 242 -17 408 0 413 411 409 61 294 292 0 0 -15 413 220
 0 414 415 0 17 409 0 413 408 416 65 297 295 0 0 -17 416 0 413 409 417 68 300 29
8 0 0 -17 297 0 229 418 67 68 409 295 0 416 +17 418 0 229 419 297 149 70 402 0 0
 -17 67 0 229 297 220 65 230 404 0 294 +17 230 0 405 227 294 62 67 404 0 0 -17 4
19 0 229 79 418 152 151 231 0 420 -17 70 0 421 300 278 68 418 402 0 297 +15 421
 472 0 422 423 0 17 300 0 421 422 70 71 416 298 0 417 +17 278 0 421 70 422 149 1
84 276 0 418 +17 422 0 421 278 300 182 73 400 0 0 -17 184 0 424 187 151 182 278
 276 0 425 -15 424 1118 0 187 426 0 17 187 0 424 154 184 185 425 246 0 275 -17 1
51 0 424 184 154 149 419 231 0 278 +17 425 0 427 73 428 182 187 246 0 422 +15 42
7 470 0 428 429 0 17 73 0 427 303 425 71 422 400 0 300 +17 428 0 427 425 303 185
 76 398 0 0 -16 246 923 0 ?425 430 245 244 430 245 12 16 430 927 0 ?431 432 246
 244 432 246 12 17 431 0 433 85 434 188 193 430 0 435 +16 432 931 0 ?436 437 430
 244 437 430 12 17 436 0 438 97 439 194 199 432 0 440 +16 437 935 0 ?441 247 432
 244 247 432 12 17 441 0 442 109 443 200 205 437 0 444 +16 247 939 0 ?445 249 43
7 244 245 437 12 17 445 0 446 121 447 206 211 247 0 448 +15 446 438 0 447 449 0
 17 121 0 446 351 445 119 448 368 0 348 +17 447 0 446 445 351 209 124 366 0 0 -1
7 211 0 450 178 208 209 445 247 0 251 -17 448 0 451 254 348 206 121 368 0 0 -15
 451 440 0 448 452 0 17 254 0 451 118 448 173 208 252 0 453 +17 348 0 451 448 11
8 119 454 346 0 455 +17 118 0 451 348 254 116 453 370 0 345 +17 454 0 413 456 45
5 116 348 346 0 0 -17 455 0 413 454 457 119 351 349 0 0 -17 457 0 413 455 458 12
2 354 352 0 0 -17 351 0 446 447 121 122 455 349 0 457 +17 458 0 413 457 134 125
 236 355 0 0 -17 354 0 459 460 124 125 457 352 0 458 +15 459 436 0 460 461 0 17
 460 0 459 251 354 176 127 364 0 0 -17 124 0 459 354 251 122 447 366 0 351 +17 2
51 0 459 124 460 209 178 249 0 447 +17 178 0 450 175 211 176 251 249 0 462 -15 4
50 1150 0 211 463 0 17 175 0 450 208 178 173 462 233 0 254 +17 462 0 229 127 453
 176 175 233 0 460 -17 127 0 229 236 462 125 460 364 0 354 +17 453 0 229 462 345
 173 118 370 0 0 -16 233 961 0 ?175 245 464 232 221 464 12 16 464 957 0 ?169 233
 465 232 233 465 12 17 169 0 466 202 172 167 467 464 0 260 +16 465 953 0 ?163 46
4 468 232 464 468 12 17 163 0 469 196 166 161 470 465 0 266 +16 468 949 0 ?157 4
65 231 232 465 231 12 17 157 0 471 190 160 155 472 468 0 272 +16 231 945 0 ?151
 468 221 232 468 221 12 15 471 1126 0 193 473 0 17 190 0 471 193 157 188 272 270
 0 431 -17 160 0 471 157 193 158 269 267 0 472 -17 472 0 229 91 474 158 157 468
 0 475 -17 272 0 476 82 435 155 190 270 0 474 +15 476 464 0 435 477 0 17 82 0 47
6 312 272 80 474 394 0 309 +17 435 0 476 272 312 188 85 392 0 0 -17 474 0 229 47
2 309 155 82 394 0 0 -17 309 0 229 474 79 80 478 307 0 479 +17 79 0 229 309 419
 77 420 396 0 306 +17 478 0 413 480 479 77 309 307 0 0 -17 479 0 413 478 481 80
 312 310 0 0 -17 481 0 413 479 482 83 315 313 0 0 -17 312 0 476 435 82 83 479 31
0 0 481 +17 482 0 413 481 483 86 318 316 0 0 -17 315 0 433 434 85 86 481 313 0 4
82 +15 433 462 0 434 484 0 17 434 0 433 431 315 191 88 390 0 0 -17 85 0 433 315
 431 83 435 392 0 312 +17 88 0 485 318 269 86 434 390 0 315 +15 485 460 0 475 48
6 0 17 318 0 485 475 88 89 482 316 0 483 +17 269 0 485 88 475 191 160 267 0 434
 +17 475 0 485 269 318 158 91 388 0 0 -17 91 0 229 321 472 89 475 388 0 318 +17
 321 0 229 487 91 92 483 319 0 488 +17 487 0 229 470 321 161 94 386 0 0 -17 483
 0 413 482 488 89 321 319 0 0 -17 488 0 413 483 489 92 324 322 0 0 -17 489 0 413
 488 490 95 327 325 0 0 -17 324 0 491 440 94 95 488 322 0 489 +15 491 456 0 440
 492 0 17 440 0 491 266 324 194 97 384 0 0 -17 94 0 491 324 266 92 487 386 0 321
 +17 266 0 491 94 440 161 196 264 0 487 +17 196 0 469 199 163 194 266 264 0 436
 -15 469 1134 0 199 493 0 17 199 0 469 166 196 197 436 432 0 263 -17 166 0 469 1
63 199 164 263 261 0 470 -17 263 0 494 100 495 197 166 261 0 439 +15 494 452 0 4
95 496 0 17 100 0 494 330 263 98 439 382 0 327 +17 495 0 494 263 330 164 103 380
 0 0 -17 439 0 438 436 327 197 100 382 0 0 -15 438 454 0 439 497 0 17 327 0 438
 439 97 98 489 325 0 490 +17 97 0 438 327 436 95 440 384 0 324 +17 490 0 413 489
 498 98 330 328 0 0 -17 498 0 413 490 499 101 333 331 0 0 -17 330 0 494 495 100
 101 490 328 0 498 +17 499 0 413 498 500 104 336 334 0 0 -17 333 0 229 501 103 1
04 498 331 0 499 +17 501 0 229 467 333 167 106 378 0 0 -17 103 0 229 333 470 101
 495 380 0 330 +17 470 0 229 103 487 164 163 465 0 495 -17 467 0 229 115 501 170
 169 464 0 502 -17 106 0 503 336 260 104 501 378 0 333 +15 503 448 0 444 504 0 1
7 336 0 503 444 106 107 499 334 0 500 +17 260 0 503 106 444 167 202 258 0 501 +1
7 444 0 503 260 336 200 109 376 0 0 -17 202 0 466 205 169 200 260 258 0 441 -15
 466 1142 0 205 505 0 17 205 0 466 172 202 203 441 437 0 257 -17 172 0 466 169 2
05 170 257 255 0 467 -17 257 0 506 112 502 203 172 255 0 443 +15 506 444 0 502 5
07 0 17 112 0 506 342 257 110 443 374 0 339 +17 502 0 506 257 342 170 115 372 0
 0 -17 443 0 442 441 339 203 112 374 0 0 -15 442 446 0 443 508 0 17 339 0 442 44
3 109 110 500 337 0 509 +17 109 0 442 339 441 107 444 376 0 336 +17 500 0 413 49
9 509 107 339 337 0 0 -17 509 0 413 500 456 110 342 340 0 0 -17 456 0 413 509 45
4 113 345 343 0 0 -17 342 0 506 502 112 113 509 340 0 456 +17 345 0 229 453 115
 116 456 343 0 454 +17 115 0 229 345 467 113 502 372 0 342 +14 255 508 447 510 ?
507 504 442 27 511 -0 0 507 504 43 81 1 510 1996 512 508 513 0 514 515 516 14 50
7 445 515 ?452 508 506 27 517 -0 0 452 508 43 14 504 449 514 ?508 496 503 27 518
 -0 0 508 496 43 50 511 490 0 508 517 518 0 +.0800994070024501 .02 0 0 0 -1 -1 0
 0 13 43 161 0 0 0 0 0 0 31 37 14 37 481 519 ?412 0 238 27 28 -0 0 412 0 43 81 1
 519 1983 512 37 520 0 0 521 522 14 412 479 521 ?407 37 410 27 39 -0 0 407 37 43
 81 1 521 1984 512 412 523 0 519 524 525 14 407 477 524 ?423 412 405 27 526 -0 0
 423 412 43 50 39 506 0 412 526 28 0 +0 .02 0 0 0 -1 -1 0 0 50 526 505 0 407 527
 39 0 +.0100994070024501 .02 0 -1 0 -520417042793042e-29 -520417042793042e-29 0
 1 50 527 503 0 423 528 526 0 +.0200994070024501 .02 -.005 1 0 0 0 0 -1 14 423 4
73 529 ?429 407 421 27 527 -0 0 429 407 43 50 528 502 0 429 530 527 0 +.02009940
70024501 .02 0 0 0 -1 -1 0 0 14 429 471 531 ?532 423 427 27 528 -0 0 532 423 43
 50 530 501 0 532 533 528 0 +.0300994070024501 .02 0 -1 0 -555111512312578e-29 -
555111512312578e-29 0 1 14 532 469 534 ?477 429 535 27 530 -0 0 477 429 43 50 53
3 499 0 477 536 530 0 +.0400994070024501 .02 -.005 1 0 0 0 0 -1 14 477 465 537 ?
484 532 476 27 533 -0 0 484 532 43 50 536 498 0 484 538 533 0 +.0400994070024501
 .02 0 0 0 -1 -1 0 0 14 484 463 539 ?486 477 433 27 536 -0 0 486 477 43 50 538 4
97 0 486 540 536 0 +.0500994070024501 .02 0 -1 0 -555111512312578e-29 -555111512
312578e-29 0 1 14 486 461 541 ?492 484 485 27 538 -0 0 492 484 43 50 540 495 0 4
92 542 538 0 +.0600994070024501 .02 -.005 1 0 0 0 0 -1 14 492 457 543 ?497 486 4
91 27 540 -0 0 497 486 43 50 542 494 0 497 544 540 0 +.0600994070024501 .02 0 0
 0 -1 -1 0 0 14 497 455 545 ?496 492 438 27 542 -0 0 496 492 43 50 544 493 0 496
 518 542 0 +.0700994070024501 .02 0 -1 0 -277555756156289e-29 -277555756156289e-
29 0 1 14 496 453 546 ?504 497 494 27 544 -0 0 504 497 43 50 518 491 0 504 511 5
44 0 +.0800994070024501 .02 -.005 1 0 0 0 0 -1 81 1 546 1994 512 496 547 0 545 5
14 548 80 255 1 512 0 549 8001 0 0 0 0 3 5 0 0 0 FFFFTFTFFFFFFF2 81 1 547 1947 5
50 496 0 546 551 552 553 81 1 545 1993 512 497 551 0 543 546 554 81 1 514 1995 5
12 504 555 0 546 510 556 83 255 3 548 1 .749019607843137 .372549019607843 81 1 5
55 1923 550 504 0 514 557 520 558 83 3 556 1 .749019607843137 .372549019607843 8
0 1 550 559 560 9000 1 1 1 1 1 1 1 1 0 FFFFTFTFFFFFFF1 81 1 557 1921 550 507 0 5
15 513 555 561 81 1 520 1925 550 37 0 519 555 523 562 82 255 1 558 -1733033824 8
1 1 523 1927 550 412 0 521 520 563 564 82 1 562 -1728839520 81 1 563 1929 550 40
7 0 524 523 565 566 82 1 564 -1729101664 81 1 524 1985 512 407 563 0 521 529 567
 81 1 565 1931 550 423 0 529 563 568 569 82 1 566 -1729363808 81 1 529 1986 512
 423 565 0 524 531 570 81 1 568 1933 550 429 0 531 565 571 572 82 1 569 -1729888
096 81 1 531 1987 512 429 568 0 529 534 573 81 1 571 1935 550 532 0 534 568 574
 575 82 1 572 -1730150240 81 1 534 1988 512 532 571 0 531 537 576 81 1 574 1937
 550 477 0 537 571 577 578 82 1 575 -1730412384 81 1 537 1989 512 477 574 0 534
 539 579 81 1 577 1939 550 484 0 539 574 580 581 82 1 578 -1730936672 81 1 539 1
990 512 484 577 0 537 541 582 81 1 580 1941 550 486 0 541 577 583 584 82 1 581 -
1731198816 81 1 541 1991 512 486 580 0 539 543 585 81 1 583 1943 550 492 0 543 5
80 551 586 82 1 584 -1731460960 81 1 543 1992 512 492 583 0 541 545 587 81 1 551
 1945 550 497 0 545 583 547 588 82 1 586 -1731985248 82 1 588 -1732247392 83 3 5
87 1 .749019607843137 .372549019607843 83 3 585 1 .749019607843137 .372549019607
843 83 3 582 1 .749019607843137 .372549019607843 83 3 579 1 .749019607843137 .37
2549019607843 83 3 576 1 .749019607843137 .372549019607843 83 3 573 1 .749019607
843137 .372549019607843 83 3 570 1 .749019607843137 .372549019607843 83 3 567 1
 .749019607843137 .372549019607843 81 1 515 1997 512 507 557 0 510 589 590 81 1
 513 1919 550 508 0 510 0 557 591 82 1 561 -1733558112 82 1 591 -1733295968 81 1
 589 1998 512 452 552 0 515 592 593 83 3 590 1 .749019607843137 .372549019607843
 14 452 441 589 ?449 507 451 27 594 -0 0 449 507 43 81 1 552 1949 550 452 0 589
 547 595 596 81 1 592 1999 512 449 595 0 589 597 598 83 3 593 1 .749019607843137
 .372549019607843 14 449 439 592 ?461 452 446 27 599 -0 0 461 452 43 81 1 595 19
51 550 449 0 592 552 600 601 81 1 597 2000 512 461 600 0 592 602 603 83 3 598 1
 .749019607843137 .372549019607843 14 461 437 597 ?237 449 459 27 604 -0 0 237 4
49 43 81 1 600 1953 550 461 0 597 595 605 606 81 1 602 2001 512 237 605 0 597 60
7 608 83 3 603 1 .749019607843137 .372549019607843 14 237 435 602 ?609 461 229 2
7 610 -0 0 609 461 43 81 1 605 1955 550 237 0 602 600 611 612 81 1 607 2002 512
 609 611 0 602 613 614 83 3 608 1 .749019607843137 .372549019607843 14 609 433 6
07 ?615 237 132 27 616 -0 0 615 237 43 81 1 611 1963 550 609 0 607 605 617 618 8
1 1 613 2003 512 615 617 0 607 619 620 83 3 614 1 .749019607843137 .372549019607
843 14 615 431 613 ?621 609 138 27 622 -0 0 621 609 43 81 1 617 1965 550 615 0 6
13 611 623 624 81 1 619 2004 512 621 623 0 613 625 626 83 3 620 1 .7490196078431
37 .372549019607843 14 621 1 619 ?415 615 49 27 627 +0 0 415 615 43 81 1 623 196
7 550 621 0 619 617 628 629 81 1 625 2005 512 415 628 0 619 630 631 83 3 626 1 .
749019607843137 .372549019607843 14 415 219 625 ?223 621 413 27 632 -0 0 223 621
 43 81 1 628 1969 550 415 0 625 623 633 634 81 1 630 2006 512 223 633 0 625 635
 636 83 3 631 1 .749019607843137 .372549019607843 14 223 1111 630 ?426 415 219 2
7 637 -426 463 426 415 43 81 1 633 1971 550 223 0 630 628 638 639 81 1 635 2007
 512 426 638 0 630 640 641 83 3 636 1 .749019607843137 .372549019607843 14 426 1
115 635 ?473 223 424 27 637 -473 223 473 223 43 81 1 638 1973 550 426 0 635 633
 642 643 81 1 640 2008 512 473 644 0 635 645 646 83 3 641 1 .749019607843137 .37
2549019607843 14 473 1123 640 ?493 426 471 27 637 -493 426 493 426 43 81 1 644 1
981 550 473 0 640 647 0 648 81 1 645 2009 512 493 647 0 640 649 650 83 3 646 1 .
749019607843137 .372549019607843 14 493 1131 645 ?505 473 469 27 637 -505 473 50
5 473 43 81 1 647 1979 550 493 0 645 651 644 652 81 1 649 2010 512 505 651 0 645
 653 654 83 3 650 1 .749019607843137 .372549019607843 14 505 1139 649 ?463 493 4
66 27 637 -463 493 463 493 43 81 1 651 1977 550 505 0 649 642 647 655 81 1 653 2
011 512 463 642 0 649 0 656 83 3 654 1 .749019607843137 .372549019607843 14 463
 1147 653 ?0 505 450 27 637 -223 505 0 505 43 81 1 642 1975 550 463 0 653 638 65
1 657 83 3 656 1 .749019607843137 .372549019607843 82 1 657 -1659043680 50 637 1
268 0 223 0 627 0 +.12009940700245 .01 -.005 0 -1 0 0 0 -1 50 627 2 0 621 637 63
2 0 +0 .02 0 0 1 0 0 0 1 50 632 351 0 415 627 622 0 +0 0 0 0 1 0 0 0 1 50 622 48
2 0 615 632 616 0 +.12009940700245 .02 -.01 1299965726181542e-31 0 1 1 0 -129996
5726181542e-31 50 616 483 0 609 622 610 0 +.12009940700245 .02 -.005 -1 0 0 0 0
 1 50 610 484 0 237 616 604 0 +.11009940700245 .02 -.005 0 0 -1 -1 0 0 50 604 48
5 0 461 610 599 0 +.11009940700245 .02 0 -1 0 -555111512312578e-29 -555111512312
578e-29 0 1 50 599 486 0 449 604 594 0 +.10009940700245 .02 0 0 0 -1 -1 0 0 50 5
94 487 0 452 599 517 0 +.10009940700245 .02 -.005 1 0 0 0 0 -1 50 517 489 0 507
 594 511 0 +.0900994070024501 .02 0 -1 0 -555111512312578e-29 -555111512312578e-
29 0 1 82 1 655 -1657995104 82 1 652 -1656946528 82 1 648 -1655897952 82 1 643 -
1654849376 82 1 639 -1654325088 82 1 634 -1740636002 82 1 629 -1772224352 15 49
 710 0 142 621 0 82 1 624 -1735393122 15 138 430 0 137 615 0 82 1 618 -173513097
6 15 132 432 0 131 609 0 82 1 612 -1734868832 82 1 606 -1734606688 82 1 601 -173
4344544 82 1 596 -1734082400 79 255 14 560 SWEntUnchanged83 3 554 1 .74901960784
3137 .372549019607843 82 1 553 -1732509536 79 15 549 SDL/TYSA_COLOUR15 535 468 0
 420 532 0 17 420 0 535 275 306 152 79 396 0 0 -17 275 0 535 76 420 185 154 273
 0 428 +17 306 0 535 420 76 77 480 304 0 478 +17 76 0 535 306 275 74 428 398 0 3
03 +17 480 0 413 417 478 74 306 304 0 0 -17 417 0 413 416 480 71 303 301 0 0 -17
 303 0 427 428 73 74 417 301 0 480 +17 154 0 424 151 187 152 275 273 0 419 -83 3
 525 1 .749019607843137 .372549019607843 83 3 522 1 .749019607843137 .3725490196
07843 83 3 516 1 .749019607843137 .372549019607843 17 193 0 471 160 190 191 431
 430 0 269 -17 236 0 229 145 127 128 458 355 0 134 +17 145 0 229 143 236 55 129
 362 0 658 -17 134 0 413 458 139 128 131 135 0 0 -17 139 0 413 134 414 130 137 1
40 0 0 -17 414 0 413 139 411 41 242 280 0 0 -17 242 0 238 241 141 59 414 280 0 0
 +17 141 0 238 242 239 41 54 287 0 414 +17 239 0 238 141 234 33 50 281 0 0 -17 5
4 0 138 52 137 33 141 287 0 239 -17 52 0 138 136 54 47 46 53 0 0 -17 136 0 138 1
37 52 130 133 360 0 139 +17 133 0 132 658 131 47 136 360 0 52 -17 658 0 132 129
 133 55 51 284 0 0 -17 129 0 132 131 658 128 145 362 0 236 +17 51 0 49 46 142 47
 658 284 0 133 +17 50 0 49 142 46 212 239 281 0 0 +17 208 0 450 211 175 206 254
 252 0 445 -17 226 0 410 44 406 214 181 245 0 241 +17 181 0 219 148 216 179 226
 245 0 227 -19 38 535 0 12 0 31 27 S0 74 4 CI16 index_map_offset0 0 1 dCCZ20 36
 3 0 0 644 653 24 0 0 0 0 0 0 0 0 0 0 0 0 0 0 0 0 0 80 1 5 659 660 8017 0 0 0 0
 0 0 0 0 0 TTTTTTTTTTTTTF3 84 255 10 35 СтенкаЗуб179 13 660 SDL/TYSA_NAME81 1 10
 1130 5 7 0 0 0 0 661 70 11 0 4 T7 0 0 3 20 1 662 662 13 13 374 0 7 0 663 0 0 66
4 0 50 14 355 0 663 665 0 0 +-1208170360577758e-34 .02 -.01 1 0 -120817036057775
8e-32 -1208170360577758e-32 0 -1 30 15 373 0 18 666 0 0 +0 .02 0 0 -1 0 29 16 26
6 0 667 668 0 -1208170360577758e-34 0 -.01 19 17 112 0 7 664 0 669 V0 16 18 614
 0 ?670 0 671 15 0 0 7 18 19 109 0 672 0 673 674 ?7 17 672 0 675 676 677 19 678
 679 0 680 +18 673 106 0 677 19 681 682 ?7 29 674 111 0 19 682 683 -120817036057
7758e-34 .02 -.01 29 682 108 0 673 684 674 .0800994070024501 .02 -.01 29 683 283
 0 685 674 686 0 0 0 18 685 246 0 670 687 688 683 ?7 29 686 282 0 687 683 689 .0
100994070024501 0 0 18 687 245 0 690 691 685 686 ?7 29 689 281 0 691 686 692 .01
009940700245012 0 -.005 18 691 244 0 693 694 687 689 ?7 29 692 280 0 694 689 695
 .0200994070024501 0 -.005 18 694 243 0 696 697 691 692 ?7 29 695 279 0 697 692
 698 .0200994070024501 0 0 18 697 242 0 699 700 694 695 ?7 29 698 278 0 700 695
 701 .0300994070024501 0 0 18 700 241 0 702 703 697 698 ?7 29 701 277 0 703 698
 704 .0300994070024501 0 -.005 18 703 240 0 705 706 700 701 ?7 29 704 276 0 706
 701 707 .0400994070024501 0 -.005 18 706 239 0 708 709 703 704 ?7 29 707 275 0
 709 704 710 .0400994070024501 0 0 18 709 238 0 711 712 706 707 ?7 29 710 274 0
 712 707 713 .0500994070024501 0 0 18 712 237 0 714 715 709 710 ?7 29 713 273 0
 715 710 716 .0500994070024501 0 -.005 18 715 236 0 717 718 712 713 ?7 29 716 27
2 0 718 713 719 .0600994070024501 0 -.005 18 718 235 0 720 721 715 716 ?7 29 719
 271 0 721 716 722 .0600994070024501 0 0 18 721 234 0 723 724 718 719 ?7 29 722
 270 0 724 719 725 .0700994070024501 0 0 18 724 233 0 726 727 721 722 ?7 29 725
 269 0 727 722 728 .0700994070024501 0 -.005 18 727 232 0 729 730 724 725 ?7 29
 728 268 0 730 725 668 .0800994070024501 0 -.005 18 730 231 0 731 732 727 728 ?7
 29 668 267 0 732 728 16 .0800994070024501 0 -.01 18 732 230 0 733 667 730 668 ?
7 17 733 0 734 735 731 732 736 737 0 738 +18 667 229 0 739 681 732 16 ?7 17 739
 0 740 680 738 667 741 742 0 743 +18 681 103 0 744 673 667 684 ?7 17 744 0 675 6
77 676 681 745 746 0 747 +29 684 105 0 681 748 682 .0800994070024501 .02 -.005 2
9 748 933 0 688 749 684 .0100994070024501 .01 -.005 18 688 733 0 750 685 751 748
 ?7 29 749 934 0 751 752 748 .0200994070024501 .01 -.005 18 751 731 0 753 688 75
4 749 ?7 29 752 935 0 754 755 749 .0300994070024501 .01 -.005 18 754 737 0 756 7
51 757 752 ?7 29 755 936 0 757 758 752 .0400994070024501 .01 -.005 18 757 735 0
 759 754 760 755 ?7 29 758 937 0 760 761 755 .0500994070024501 .01 -.005 18 760
 741 0 762 757 763 758 ?7 29 761 938 0 763 764 758 .0600994070024501 .01 -.005 1
8 763 739 0 765 760 766 761 ?7 29 764 939 0 766 767 761 .0700994070024501 .01 -.
005 18 766 749 0 768 763 769 764 ?7 29 767 954 0 769 770 764 .0100994070024501 .
01 0 18 769 729 0 771 766 772 767 ?7 29 770 955 0 772 773 767 .0200994070024501
 .01 0 18 772 734 0 774 769 775 770 ?7 29 773 956 0 775 776 770 .030099407002450
1 .01 0 18 775 732 0 777 772 778 773 ?7 29 776 957 0 778 779 773 .04009940700245
01 .01 0 18 778 738 0 780 775 781 776 ?7 29 779 958 0 781 782 776 .0500994070024
501 .01 0 18 781 736 0 783 778 784 779 ?7 29 782 959 0 784 785 779 .060099407002
4501 .01 0 18 784 742 0 786 781 787 782 ?7 29 785 960 0 787 788 782 .07009940700
24501 .01 0 18 787 740 0 789 784 790 785 ?7 29 788 961 0 790 791 785 0 .02 -.005
 18 790 716 0 745 787 792 788 ?7 29 791 963 0 792 793 788 0 .01 0 18 792 730 0 7
94 790 795 791 ?7 29 793 964 0 795 0 791 0 .01 -.005 18 795 743 0 796 792 0 793
 ?7 17 796 0 797 794 750 795 798 799 0 800 +15 797 782 0 796 801 0 17 794 0 797
 771 796 792 802 803 0 804 +17 750 0 797 796 771 688 805 806 0 798 -17 798 0 807
 693 800 688 796 799 0 808 -16 799 660 0 ?796 809 803 810 809 811 7 17 800 0 807
 798 745 795 812 813 0 802 +15 807 306 0 814 815 0 17 745 0 807 800 747 790 744
 746 0 812 -17 812 0 816 817 802 790 800 813 0 676 -16 813 703 0 ?800 803 0 818
 0 0 7 17 802 0 816 812 819 795 794 803 0 0 -15 816 336 0 802 663 0 17 819 0 816
 802 820 792 670 18 0 0 -16 803 706 0 ?794 799 813 821 0 0 7 30 821 927 0 803 81
8 822 0 +0 .01 -.005 0 0 1 30 818 928 0 813 0 821 0 +0 .02 -.005 0 -1 1734723475
976805e-31 30 822 922 0 823 821 810 0 +.0800994070024501 .01 0 -1 0 0 16 823 646
 0 ?804 824 811 822 824 825 7 30 810 921 0 799 822 826 0 +.0800994070024501 .01
 -.005 -1 0 0 30 826 906 0 827 810 828 0 +.0700994070024501 .01 0 0 0 1 16 827 6
57 0 ?829 830 825 826 0 0 7 30 828 905 0 830 826 831 0 +.0600994070024501 .01 -.
005 0 0 -1 16 830 656 0 ?832 833 827 828 0 0 7 30 831 904 0 833 828 834 0 +.0500
994070024501 .01 0 -555111512312578e-29 0 1 16 833 653 0 ?835 836 830 831 0 0 7
 30 834 903 0 836 831 837 0 +.0400994070024501 .01 -.005 0 0 -1 16 836 652 0 ?83
8 839 833 834 0 0 7 30 837 902 0 839 834 840 0 +.0300994070024501 .01 0 -5551115
12312578e-29 0 1 16 839 649 0 ?841 842 836 837 0 0 7 30 840 901 0 842 837 843 0
 +.0200994070024501 .01 -.005 0 0 -1 16 842 648 0 ?844 806 839 840 0 0 7 30 843
 900 0 806 840 845 0 +.0100994070024501 .01 0 -520417042793042e-29 0 1 16 806 64
5 0 ?805 846 842 843 0 0 7 30 845 5 0 847 843 848 0 +-1208170360577758e-34 .02 -
.01 1208170360577758e-32 0 1 16 847 4 0 ?676 746 742 845 0 0 7 30 848 14 0 746 8
45 849 0 +.01009940700245012 .02 -.005 1 0 0 16 746 13 0 ?744 850 847 848 0 0 7
 30 849 53 0 850 848 851 0 +.0800994070024501 .02 -.005 0 0 -1 16 850 52 0 ?677
 679 746 849 0 0 7 30 851 56 0 679 849 852 0 +.0800994070024501 .02 -.01 -1 0 12
99427954010004e-31 16 679 55 0 ?672 853 850 851 0 0 7 30 852 265 0 846 851 854 0
 +-1208170360577758e-34 0 -.01 1208170360577758e-32 0 1 16 846 225 0 ?820 855 80
6 852 0 0 7 30 854 264 0 855 852 856 0 +0 0 0 1 0 0 16 855 221 0 ?857 858 846 85
4 0 0 7 30 856 263 0 858 854 859 0 +.0100994070024501 0 0 520417042793042e-29 0
 -1 16 858 217 0 ?860 861 855 856 0 0 7 30 859 262 0 861 856 862 0 +.01009940700
245012 0 -.005 1 0 0 16 861 213 0 ?863 864 858 859 0 0 7 30 862 261 0 864 859 86
5 0 +.0200994070024501 0 -.005 0 0 1 16 864 209 0 ?866 867 861 862 0 0 7 30 865
 260 0 867 862 868 0 +.0200994070024501 0 0 1 0 0 16 867 205 0 ?869 870 864 865
 0 0 7 30 868 259 0 870 865 871 0 +.0300994070024501 0 0 555111512312578e-29 0 -
1 16 870 201 0 ?872 873 867 868 0 0 7 30 871 258 0 873 868 874 0 +.0300994070024
501 0 -.005 1 0 0 16 873 197 0 ?875 876 870 871 0 0 7 30 874 257 0 876 871 877 0
 +.0400994070024501 0 -.005 0 0 1 16 876 193 0 ?878 879 873 874 0 0 7 30 877 256
 0 879 874 880 0 +.0400994070024501 0 0 1 0 0 16 879 189 0 ?881 882 876 877 0 0
 7 30 880 255 0 882 877 883 0 +.0500994070024501 0 0 555111512312578e-29 0 -1 16
 882 185 0 ?884 885 879 880 0 0 7 30 883 254 0 885 880 886 0 +.0500994070024501
 0 -.005 1 0 0 16 885 181 0 ?887 888 882 883 0 0 7 30 886 253 0 888 883 889 0 +.
0600994070024501 0 -.005 0 0 1 16 888 177 0 ?890 891 885 886 0 0 7 30 889 252 0
 891 886 892 0 +.0600994070024501 0 0 1 0 0 16 891 173 0 ?893 894 888 889 0 0 7
 30 892 251 0 894 889 895 0 +.0700994070024501 0 0 0 0 -1 16 894 169 0 ?896 897
 891 892 0 0 7 30 895 250 0 897 892 898 0 +.0700994070024501 0 -.005 1 0 0 16 89
7 165 0 ?814 737 894 895 0 0 7 30 898 249 0 737 895 899 0 +.0800994070024501 0 -
.005 0 0 -1 16 737 161 0 ?733 742 897 898 0 0 7 30 899 248 0 742 898 900 0 +.080
0994070024501 0 -.01 -1 0 1299427954010004e-31 16 742 157 0 ?739 847 737 899 0 0
 7 30 900 356 0 853 899 901 0 +-1208170360577758e-34 .02 -.01 0 -1 0 16 853 284
 0 ?743 902 679 900 0 0 7 30 901 357 0 902 900 903 0 +.0800994070024501 .02 -.01
 0 -1 0 16 902 285 0 ?738 904 853 901 0 0 7 30 903 358 0 904 901 905 0 +.0800994
070024501 .02 -.005 0 -1 0 16 904 286 0 ?731 906 902 903 0 0 7 30 905 359 0 906
 903 907 0 +.0700994070024501 .02 -.005 0 -1 0 16 906 509 0 ?729 908 904 905 0 0
 7 30 907 360 0 908 905 909 0 +.0700994070024501 .02 0 0 -1 0 16 908 517 0 ?726
 910 906 907 0 0 7 30 909 361 0 910 907 911 0 +.0600994070024501 .02 0 0 -1 0 16
 910 524 0 ?723 912 908 909 0 0 7 30 911 362 0 912 909 913 0 +.0600994070024501
 .02 -.005 0 -1 0 16 912 532 0 ?720 914 910 911 0 0 7 30 913 363 0 914 911 915 0
 +.0500994070024501 .02 -.005 0 -1 0 16 914 539 0 ?717 916 912 913 0 0 7 30 915
 364 0 916 913 917 0 +.0500994070024501 .02 0 0 -1 0 16 916 547 0 ?714 918 914 9
15 0 0 7 30 917 365 0 918 915 919 0 +.0400994070024501 .02 0 0 -1 0 16 918 554 0
 ?711 920 916 917 0 0 7 30 919 366 0 920 917 921 0 +.0400994070024501 .02 -.005
 0 -1 0 16 920 562 0 ?708 922 918 919 0 0 7 30 921 367 0 922 919 923 0 +.0300994
070024501 .02 -.005 0 -1 0 16 922 569 0 ?705 924 920 921 0 0 7 30 923 368 0 924
 921 925 0 +.0300994070024501 .02 0 0 -1 0 16 924 577 0 ?702 926 922 923 0 0 7 3
0 925 369 0 926 923 927 0 +.0200994070024501 .02 0 0 -1 0 16 926 584 0 ?699 928
 924 925 0 0 7 30 927 370 0 928 925 929 0 +.0200994070024501 .02 -.005 0 -1 0 16
 928 592 0 ?696 930 926 927 0 0 7 30 929 371 0 930 927 666 0 +.01009940700245012
 .02 -.005 0 -1 0 16 930 599 0 ?693 671 928 929 0 0 7 30 666 372 0 671 929 15 0
 +.0100994070024501 .02 0 0 -1 0 16 671 607 0 ?690 18 930 666 0 0 7 17 690 0 931
 860 805 687 932 671 0 857 +15 931 332 0 808 933 0 17 860 0 931 808 690 691 934
 858 0 935 +17 805 0 931 690 808 769 750 806 0 932 +17 932 0 936 804 857 769 690
 671 0 0 -17 857 0 936 932 670 687 937 855 0 934 +15 936 334 0 932 938 0 17 670
 0 936 857 804 685 819 18 0 937 +17 937 0 939 940 934 685 857 855 0 820 -17 934
 0 939 937 935 687 860 858 0 0 -15 939 156 0 940 941 0 17 935 0 939 934 942 691
 863 861 0 0 -17 942 0 939 935 943 694 866 864 0 0 -17 863 0 807 944 693 694 935
 861 0 942 +17 944 0 807 945 863 751 696 928 0 0 -17 693 0 807 863 798 691 808 9
30 0 860 +17 808 0 931 805 860 688 693 930 0 0 -17 945 0 807 705 944 754 753 809
 0 946 -17 696 0 947 866 844 694 944 928 0 863 +15 947 328 0 948 949 0 17 866 0
 947 948 696 697 942 864 0 943 +17 844 0 947 696 948 751 774 842 0 944 +17 948 0
 947 844 866 772 699 926 0 0 -17 774 0 950 777 753 772 844 842 0 951 -15 950 786
 0 777 952 0 17 777 0 950 756 774 775 951 824 0 841 -17 753 0 950 774 756 751 94
5 809 0 844 +17 951 0 953 699 954 772 777 824 0 948 +15 953 326 0 954 955 0 17 6
99 0 953 869 951 697 948 926 0 866 +17 954 0 953 951 869 775 702 924 0 0 -16 824
 647 0 ?951 956 823 822 956 823 7 16 956 651 0 ?957 825 824 822 825 824 7 17 957
 0 958 711 959 778 783 956 0 960 +16 825 655 0 ?961 827 956 822 823 956 7 17 961
 0 962 723 963 784 789 825 0 964 +15 962 310 0 963 965 0 17 723 0 962 893 961 72
1 964 910 0 890 +17 963 0 962 961 893 787 726 908 0 0 -17 789 0 966 768 786 787
 961 825 0 829 -17 964 0 967 832 890 784 723 910 0 0 -15 967 312 0 964 968 0 17
 832 0 967 720 964 763 786 830 0 969 +17 890 0 967 964 720 721 970 888 0 971 +17
 720 0 967 890 832 718 969 912 0 887 +17 970 0 939 972 971 718 890 888 0 0 -17 9
71 0 939 970 973 721 893 891 0 0 -17 973 0 939 971 974 724 896 894 0 0 -17 893 0
 962 963 723 724 971 891 0 973 +17 974 0 939 973 736 727 814 897 0 0 -17 896 0 9
75 976 726 727 973 894 0 974 +15 975 308 0 976 977 0 17 976 0 975 829 896 766 72
9 906 0 0 -17 726 0 975 896 829 724 963 908 0 893 +17 829 0 975 726 976 787 768
 827 0 963 +17 768 0 966 765 789 766 829 827 0 978 -15 966 802 0 789 979 0 17 76
5 0 966 786 768 763 978 811 0 832 +17 978 0 807 729 969 766 765 811 0 976 -17 72
9 0 807 814 978 727 976 906 0 896 +17 969 0 807 978 887 763 720 912 0 0 -16 811
 669 0 ?765 823 980 810 799 980 7 16 980 665 0 ?759 811 809 810 811 809 7 17 759
 0 981 780 762 757 982 980 0 838 +16 809 661 0 ?753 980 799 810 980 799 7 15 981
 794 0 783 983 0 17 780 0 981 783 759 778 838 836 0 957 -17 762 0 981 759 783 76
0 835 833 0 982 -17 982 0 807 717 984 760 759 980 0 985 -17 838 0 986 708 960 75
7 780 836 0 984 +15 986 320 0 960 987 0 17 708 0 986 878 838 706 984 920 0 875 +
17 960 0 986 838 878 778 711 918 0 0 -17 984 0 807 982 875 757 708 920 0 0 -17 8
75 0 807 984 705 706 988 873 0 989 +17 705 0 807 875 945 703 946 922 0 872 +17 9
88 0 939 990 989 703 875 873 0 0 -17 989 0 939 988 991 706 878 876 0 0 -17 991 0
 939 989 992 709 881 879 0 0 -17 878 0 986 960 708 709 989 876 0 991 +17 992 0 9
39 991 972 712 884 882 0 0 -17 881 0 958 959 711 712 991 879 0 992 +15 958 318 0
 959 993 0 17 959 0 958 957 881 781 714 916 0 0 -17 711 0 958 881 957 709 960 91
8 0 878 +17 714 0 994 884 835 712 959 916 0 881 +15 994 316 0 985 995 0 17 884 0
 994 985 714 715 992 882 0 972 +17 835 0 994 714 985 781 762 833 0 959 +17 985 0
 994 835 884 760 717 914 0 0 -17 717 0 807 887 982 715 985 914 0 884 +17 887 0 8
07 969 717 718 972 885 0 970 +17 972 0 939 992 970 715 887 885 0 0 -14 995 317 9
96 ?968 993 994 13 997 -0 0 968 993 669 81 1 996 1117 512 995 998 0 999 1000 100
1 14 968 313 1000 ?965 995 967 13 1002 -0 0 965 995 669 14 993 319 999 ?995 987
 958 13 1003 -0 0 995 987 669 50 997 345 0 995 1002 1003 0 +.0500994070024501 .0
2 0 -1 0 -555111512312578e-29 -555111512312578e-29 0 1 13 669 113 0 0 0 0 0 0 17
 663 14 663 337 1004 ?938 0 816 13 14 -0 0 938 0 669 81 1 1004 1109 512 663 1005
 0 0 1006 1007 14 938 335 1006 ?933 663 936 13 665 -0 0 933 663 669 81 1 1006 11
10 512 938 1008 0 1004 1009 1010 14 933 333 1009 ?949 938 931 13 1011 -0 0 949 9
38 669 50 665 354 0 938 1011 14 0 +0 .02 0 0 0 -1 -1 0 0 50 1011 353 0 933 1012
 665 0 +.0100994070024501 .02 0 -1 0 -520417042793042e-29 -520417042793042e-29 0
 1 50 1012 351 0 949 1013 1011 0 +.0200994070024501 .02 -.005 1 0 0 0 0 -1 14 94
9 329 1014 ?955 933 947 13 1012 -0 0 955 933 669 50 1013 350 0 955 1015 1012 0 +
.0200994070024501 .02 0 0 0 -1 -1 0 0 14 955 327 1016 ?1017 949 953 13 1013 -0 0
 1017 949 669 50 1015 349 0 1017 1018 1013 0 +.0300994070024501 .02 0 -1 0 -5551
11512312578e-29 -555111512312578e-29 0 1 14 1017 325 1019 ?987 955 1020 13 1015
 -0 0 987 955 669 50 1018 347 0 987 1003 1015 0 +.0400994070024501 .02 -.005 1 0
 0 0 0 -1 14 987 321 1021 ?993 1017 986 13 1018 -0 0 993 1017 669 50 1003 346 0
 993 997 1018 0 +.0400994070024501 .02 0 0 0 -1 -1 0 0 81 1 1021 1115 512 987 10
22 0 1019 999 1023 81 1 1022 1081 550 987 0 1021 1024 1025 1026 81 1 1019 1114 5
12 1017 1024 0 1016 1021 1027 81 1 999 1116 512 993 1028 0 1021 996 1029 83 3 10
23 1 .749019607843137 .372549019607843 81 1 1028 1067 550 993 0 999 1030 1005 10
31 83 3 1029 1 .749019607843137 .372549019607843 81 1 1030 1065 550 968 0 1000 9
98 1028 1032 81 1 1005 1069 550 663 0 1004 1028 1008 1033 82 1 1031 2017853612 8
1 1 1008 1071 550 938 0 1006 1005 1034 1035 82 1 1033 2020212908 81 1 1034 1073
 550 933 0 1009 1008 1036 1037 82 1 1035 2019950764 81 1 1009 1111 512 933 1034
 0 1006 1014 1038 81 1 1036 1075 550 949 0 1014 1034 1039 1040 82 1 1037 2019688
620 81 1 1014 1112 512 949 1036 0 1009 1016 1041 81 1 1039 1077 550 955 0 1016 1
036 1024 1042 82 1 1040 2019164332 81 1 1016 1113 512 955 1039 0 1014 1019 1043
 81 1 1024 1079 550 1017 0 1019 1039 1022 1044 82 1 1042 2018902188 82 1 1044 20
18640044 83 3 1043 1 .749019607843137 .372549019607843 83 3 1041 1 .749019607843
137 .372549019607843 83 3 1038 1 .749019607843137 .372549019607843 81 1 1000 111
8 512 968 1030 0 996 1045 1046 81 1 998 1063 550 995 0 996 0 1030 1047 82 1 1032
 2017067180 82 1 1047 2017591468 81 1 1045 1119 512 965 1025 0 1000 1048 1049 83
 3 1046 1 .749019607843137 .372549019607843 14 965 311 1045 ?977 968 962 13 1050
 -0 0 977 968 669 81 1 1025 1083 550 965 0 1045 1022 1051 1052 81 1 1048 1120 51
2 977 1051 0 1045 1053 1054 83 3 1049 1 .749019607843137 .372549019607843 14 977
 309 1048 ?815 965 975 13 1055 -0 0 815 965 669 81 1 1051 1085 550 977 0 1048 10
25 1056 1057 81 1 1053 1121 512 815 1056 0 1048 1058 1059 83 3 1054 1 .749019607
843137 .372549019607843 14 815 307 1053 ?1060 977 807 13 1061 -0 0 1060 977 669
 81 1 1056 1087 550 815 0 1053 1051 1062 1063 81 1 1058 1122 512 1060 1062 0 105
3 1064 1065 83 3 1059 1 .749019607843137 .372549019607843 14 1060 305 1058 ?1066
 815 734 13 1067 -0 0 1066 815 669 81 1 1062 1093 550 1060 0 1058 1056 1068 1069
 81 1 1064 1123 512 1066 1068 0 1058 1070 1071 83 3 1065 1 .749019607843137 .372
549019607843 14 1066 303 1064 ?1072 1060 740 13 1073 -0 0 1072 1060 669 81 1 106
8 1095 550 1066 0 1064 1062 1074 1075 81 1 1070 1124 512 1072 1074 0 1064 1076 1
077 83 3 1071 1 .749019607843137 .372549019607843 14 1072 1 1070 ?941 1066 675 1
3 1078 +0 0 941 1066 669 81 1 1074 1097 550 1072 0 1070 1068 1079 1080 81 1 1076
 1125 512 941 1079 0 1070 1081 1082 83 3 1077 1 .749019607843137 .37254901960784
3 14 941 155 1076 ?801 1072 939 13 1083 -0 0 801 1072 669 81 1 1079 1099 550 941
 0 1076 1074 1084 1085 81 1 1081 1126 512 801 1084 0 1076 1086 1087 83 3 1082 1
 .749019607843137 .372549019607843 14 801 779 1081 ?952 941 797 13 1088 -952 979
 952 941 669 81 1 1084 1101 550 801 0 1081 1079 1089 1090 81 1 1086 1127 512 952
 1089 0 1081 1091 1092 83 3 1087 1 .749019607843137 .372549019607843 14 952 783
 1086 ?983 801 950 13 1088 -983 801 983 801 669 81 1 1089 1103 550 952 0 1086 10
84 1093 1094 81 1 1091 1128 512 983 1095 0 1086 1096 1097 83 3 1092 1 .749019607
843137 .372549019607843 14 983 791 1091 ?979 952 981 13 1088 -979 952 979 952 66
9 81 1 1095 1107 550 983 0 1091 1093 0 1098 81 1 1096 1129 512 979 1093 0 1091 0
 1099 83 3 1097 1 .749019607843137 .372549019607843 14 979 799 1096 ?0 983 966 1
3 1088 -801 983 0 983 669 81 1 1093 1105 550 979 0 1096 1089 1095 1100 83 3 1099
 1 .749019607843137 .372549019607843 82 1 1100 2076115116 50 1088 888 0 801 0 10
78 0 +.0800994070024501 .01 -.005 0 -1 0 0 0 -1 50 1078 2 0 1072 1088 1083 0 +0
 .02 0 0 1 0 0 0 1 50 1083 247 0 941 1078 1073 0 +0 0 0 0 1 0 0 0 1 50 1073 338
 0 1066 1083 1067 0 +.0800994070024501 .02 -.01 1299427954010004e-31 0 1 1 0 -12
99427954010004e-31 50 1067 339 0 1060 1073 1061 0 +.0800994070024501 .02 -.005 -
1 0 0 0 0 1 50 1061 340 0 815 1067 1055 0 +.0700994070024501 .02 -.005 0 0 -1 -1
 0 0 50 1055 341 0 977 1061 1050 0 +.0700994070024501 .02 0 -1 0 0 0 0 1 50 1050
 342 0 965 1055 1002 0 +.0600994070024501 .02 0 0 0 -1 -1 0 0 50 1002 343 0 968
 1050 997 0 +.0600994070024501 .02 -.005 1 0 0 0 0 -1 82 1 1098 2077163692 82 1
 1094 2078212268 82 1 1090 2078736556 82 1 1085 2012086442 82 1 1080 1989935276
 15 675 502 0 744 1072 0 82 1 1075 2015756458 15 740 302 0 739 1066 0 82 1 1069
 2016018604 15 734 304 0 733 1060 0 82 1 1063 2016280748 82 1 1057 2016542892 82
 1 1052 2016805036 83 3 1027 1 .749019607843137 .372549019607843 82 1 1026 20181
15756 15 1020 324 0 946 1017 0 17 946 0 1020 841 872 754 705 922 0 0 -17 841 0 1
020 702 946 775 756 839 0 954 +17 872 0 1020 946 702 703 990 870 0 988 +17 702 0
 1020 872 841 700 954 924 0 869 +17 990 0 939 943 988 700 872 870 0 0 -17 943 0
 939 942 990 697 869 867 0 0 -17 869 0 953 954 699 700 943 867 0 990 +17 756 0 9
50 753 777 754 841 839 0 945 -83 3 1010 1 .749019607843137 .372549019607843 83 3
 1007 1 .749019607843137 .372549019607843 83 3 1001 1 .749019607843137 .37254901
9607843 17 783 0 981 762 780 781 957 956 0 835 -17 814 0 807 747 729 730 974 897
 0 736 +17 747 0 807 745 814 681 731 904 0 1101 -17 736 0 939 974 741 730 733 73
7 0 0 -17 741 0 939 736 940 732 739 742 0 0 -17 940 0 939 741 937 667 820 846 0
 0 -17 820 0 816 819 743 685 940 846 0 0 +17 743 0 816 820 817 667 680 853 0 940
 +17 817 0 816 743 812 19 676 847 0 0 -17 680 0 740 678 739 19 743 853 0 817 -17
 678 0 740 738 680 673 672 679 0 0 -17 738 0 740 739 678 732 735 902 0 741 +17 7
35 0 734 1101 733 673 738 902 0 678 -17 1101 0 734 731 735 681 677 850 0 0 -17 7
31 0 734 733 1101 730 747 904 0 814 +17 677 0 675 672 744 673 1101 850 0 735 +17
 676 0 675 744 672 790 817 847 0 0 +17 786 0 966 789 765 784 832 830 0 961 -17 8
04 0 936 670 932 792 771 823 0 819 +17 771 0 797 750 794 769 804 823 0 805 -19 6
64 375 0 7 0 17 13 S0 74 20 662 3 0 0 1095 1096 10 0 0 0 0 0 0 0 0 0 0 0 0 0 0 0
 0 0 84 10 661 СтенкаЗуб274 20 6 1 0 0 2 0 0 0 0 0 0 0 0 0 0 0 0 0 0 0 0 0 0 0 1
 0 
