**ABCDEFGHIJKLMNOPQRSTUVWXYZabcdefghijklmnopqrstuvwxyz**************************
**PARASOLID !"#$%&'()*+,-./:;<=>?@[\]^_`{|}~0123456789**************************
**PART1;
MC=x86;
MC_MODEL=Intel64 Family 6 Model 60 Stepping 3, GenuineIntel;
MC_ID=unknown;
OS=Windows_NT;
OS_RELEASE=unknown;
FRU=CAD Exchanger 3.4.0 (cadexchanger.com);
APPL=unknown;
SITE=unknown;
USER=unknown;
FORMAT=text;
GUISE=transmit;
KEY=INDC4532L_L1812;
FILE=INDC4532L_L1812.x_t;
DATE=Thu Dec 27 19:42:01 2018;
**PART2;
SCH=SCH_1200000_12006;
USFLD_SIZE=0;
**PART3;
**END_OF_HEADER*****************************************************************
T51 : TRANSMIT FILE created by modeller version 120000017 SCH_1200000_120060 12
 1 412 0 2 0 0 0 0 1000 1e-008 0 0 0 1 0 1 1 38 6 12 10 35 11 9 70 2 0 1 0 0 4 1
 20 0 3 3 1 T74 20 3 1 0 4 0 0 0 0 0 0 0 0 0 0 0 0 0 0 0 0 0 0 0 81 1 4 7 32 5 0
 0 41 0 34 14 5 5 4 1e-008 39 0 7 38 6 -0 0 39 0 36 50 6 6 0 5 40 0 0 +-0.002249
88302012591 -0.001599931540209433 0.001765240069567777 3.821370931907936e-015 -4
.371138828673789e-008 -0.9999999999999991 8.742277657347545e-008 -0.999999999999
9953 4.371138828673806e-008 15 7 8 0 8 5 0 17 8 0 7 16 28 9 13 11 0 21 -18 9 9 0
 8 0 14 10 ?1 29 10 10 0 9 15 0 0.001750116975502936 -0.001549931190518327 0.001
765240067382207 16 11 11 0 ?13 0 19 12 0 0 1 30 12 12 0 11 20 0 0 +0.00175011697
9874075 -0.001599931190518326 0.001765240069567777 -8.742277650571281e-008 0.999
9999999999953 -4.371138828673806e-008 17 13 0 434 439 435 14 8 11 0 28 +18 14 13
 0 13 9 17 15 ?1 29 15 14 0 14 18 10 0.001750116704492329 0.001550068809481659 0
.001765239931876904 17 16 0 7 22 8 17 21 19 0 27 +18 17 15 0 16 14 23 18 ?1 29 1
8 16 0 17 24 15 0.002200116975502934 -0.001549931151178077 0.001765240067382207
 16 19 17 0 ?16 11 25 20 0 0 1 30 20 18 0 19 26 12 0 +-0.002249883024497048 -0.0
01549931540209433 0.001765240067382207 0.9999999999999962 8.742277657347554e-008
 0 17 21 0 240 241 253 9 16 19 0 246 -17 22 0 7 28 16 23 27 25 0 31 +18 23 19 0
 477 17 45 24 ?1 29 24 20 0 23 46 18 0.002200116704492327 0.001550068848821909 0
.001765239931876904 16 25 21 0 ?22 19 29 26 0 0 1 30 26 22 0 25 30 20 0 +0.00220
0116979874073 -0.001599931151178077 0.001765240069567777 -8.742277643795018e-008
 0.9999999999999953 -4.371138828673806e-008 17 27 0 496 497 477 17 22 25 0 253 -
17 28 0 7 8 22 14 31 29 0 81 +16 29 23 0 ?28 25 47 30 0 0 1 30 30 24 0 29 48 26
 0 +-0.002249883295507656 0.001550068459790553 0.001765239931876904 -0.999999999
9999962 -8.742277657347554e-008 0 17 31 0 72 85 81 23 28 29 0 88 -80 1 32 0 33 8
001 0 0 0 0 3 5 0 0 FFFFTFTFFFFFFF2 79 15 33 SDL/TYSA_COLOUR83 3 34 1 1 1 19 35
 1 0 1 37 0 36 V13 36 2 0 1 0 0 0 0 35 5 19 37 3 0 1 0 35 38 S13 38 4 0 1 0 5 0
 0 37 0 14 39 25 41 1e-008 68 5 43 38 40 -0 0 68 5 36 50 40 26 0 39 69 6 0 +-0.0
0224988302012591 -0.001599931540209433 0.001765240069567777 3.821370931907936e-0
15 -4.371138828673789e-008 -0.9999999999999991 8.742277657347545e-008 -0.9999999
999999953 4.371138828673806e-008 81 1 41 27 32 39 0 0 70 4 42 83 3 42 1 1 1 15 4
3 28 0 44 39 0 17 44 0 43 52 64 45 49 47 0 439 -18 45 29 0 99 23 50 46 ?1 29 46
 30 0 45 51 24 -0.00174988329550766 0.001550068503501941 0.001765239931876904 16
 47 31 0 ?49 29 55 48 0 0 1 30 48 32 0 47 56 30 0 +-0.001749883020125913 -0.0015
99931496498044 0.001765240069567777 8.742277691228863e-008 -0.9999999999999953 4
.371138828673806e-008 17 49 0 434 435 439 50 44 47 0 270 +18 50 33 0 64 45 53 51
 ?1 29 51 34 0 50 54 46 -0.001749883024497051 -0.001549931496498045 0.0017652400
67382207 17 52 0 43 58 44 53 57 55 0 63 +18 53 35 0 52 50 59 54 ?1 29 54 36 0 53
 60 51 -0.002199883295507656 0.001550068464161691 0.001765239931876904 16 55 37
 0 ?52 47 61 56 0 0 1 30 56 38 0 55 62 48 0 +-0.002249883295507656 0.00155006845
9790553 0.001765239931876904 -0.9999999999999962 -8.742277657347554e-008 0 17 57
 0 93 94 106 45 52 55 0 44 -17 58 0 43 64 52 59 63 61 0 67 +18 59 39 0 58 53 74
 60 ?1 29 60 40 0 59 75 54 -0.002199883024497048 -0.001549931535838294 0.0017652
40067382207 16 61 41 0 ?58 55 65 62 0 0 1 30 62 42 0 61 66 56 0 +-0.002199883020
12591 -0.001599931535838294 0.001765240069567777 8.742277657347545e-008 -0.99999
99999999953 4.371138828673806e-008 17 63 0 573 549 574 53 58 61 0 106 -17 64 0 4
3 44 58 50 67 65 0 49 +16 65 43 0 ?64 61 76 66 0 0 1 30 66 44 0 65 77 62 0 +-0.0
02249883024497048 -0.001549931540209433 0.001765240067382207 0.9999999999999962
 8.742277657347554e-008 0 17 67 0 261 274 270 59 64 65 0 277 -14 68 45 70 1e-008
 89 39 72 38 69 +0 0 89 39 36 51 69 46 0 68 90 40 0 +-0.002249883295507656 0.001
550068457604983 0.001715239931876904 -0.9999999999999962 -8.742277657347554e-008
 0 4.999999999999991e-005 8.742277657347545e-008 -0.9999999999999953 4.371138828
673806e-008 81 1 70 47 32 68 0 0 91 41 71 83 3 71 1 1 1 15 72 48 0 73 68 0 17 73
 0 72 81 85 74 78 76 0 84 -18 74 49 0 73 59 79 75 ?1 29 75 50 0 74 80 60 0.00175
011670012119 0.001600068807296089 0.001715239929691335 16 76 51 0 ?78 65 82 77 0
 0 1 30 77 52 0 76 83 66 0 +0.002250116700121188 0.001600068851007478 0.00171523
9929691335 0.9999999999999962 8.742277657347554e-008 0 17 78 0 114 121 115 79 73
 76 0 85 +18 79 53 0 78 74 95 80 ?1 29 80 54 0 79 96 75 0.002200116700121188 0.0
01600068846636339 0.001715239929691335 17 81 0 72 31 73 14 84 82 0 442 +16 82 55
 0 ?81 76 86 83 0 0 1 31 83 56 0 82 87 77 0 +0.001750116704492329 0.001550068807
29609 0.001715239931876904 0.9999999999999963 8.74227765057129e-008 2.9619983608
44846e-024 8.742277650571281e-008 -0.9999999999999953 4.371138828673806e-008 4.9
99999999999991e-005 17 84 0 491 425 442 74 81 82 0 115 -17 85 0 72 73 31 79 88 8
6 0 126 +16 86 57 0 ?85 82 97 87 0 0 1 31 87 58 0 86 98 83 0 +0.0022001167044923
27 0.00155006884663634 0.001715239931876904 -0.9999999999999963 -8.7422776573475
16e-008 8.673617379884042e-015 -4.852246447976081e-015 -4.371138828673865e-008 -
0.9999999999999991 4.999999999999991e-005 17 88 0 473 474 464 23 85 86 0 0 -14 8
9 59 91 1e-008 110 68 93 38 90 +0 0 110 68 36 51 90 60 0 89 111 69 0 +-0.0022498
83295507656 0.001550068457604983 0.001715239931876904 -0.9999999999999962 -8.742
277657347554e-008 0 4.999999999999991e-005 8.742277657347545e-008 -0.99999999999
99953 4.371138828673806e-008 81 1 91 61 32 89 0 0 112 70 92 83 3 92 1 1 1 15 93
 62 0 57 89 0 17 94 0 93 100 57 95 99 97 0 105 +18 95 63 0 94 79 101 96 ?1 29 96
 64 0 95 102 80 -0.001749883299878798 0.001600068501316371 0.001715239929691335
 16 97 65 0 ?94 86 103 98 0 0 1 31 98 66 0 97 104 87 0 +-0.00174988329550766 0.0
01550068501316372 0.001715239931876904 -0.9999999999999963 -8.742277691228872e-0
08 1.480999495966785e-023 -8.742277691228863e-008 0.9999999999999953 -4.37113882
8673806e-008 4.999999999999991e-005 17 99 0 491 442 425 45 94 97 0 57 -17 100 0
 93 106 94 101 105 103 0 109 -18 101 67 0 100 95 119 102 ?1 29 102 68 0 101 120
 96 -0.002199883299878795 0.001600068461976122 0.001715239929691335 16 103 69 0
 ?105 97 107 104 0 0 1 30 104 70 0 103 108 98 0 +0.002250116700121188 0.00160006
8851007478 0.001715239929691335 0.9999999999999962 8.742277657347554e-008 0 17 1
05 0 135 136 148 95 100 103 0 141 +17 106 0 93 57 100 53 109 107 0 546 -16 107 7
1 0 ?109 103 116 108 0 0 1 31 108 72 0 107 117 104 0 +-0.002199883295507656 0.00
1550068461976122 0.001715239931876904 -0.9999999999999963 -8.742277657347554e-00
8 7.888609052210118e-031 8.742277657347545e-008 -0.9999999999999953 4.3711388286
73806e-008 4.999999999999991e-005 17 109 0 545 536 546 101 106 107 0 533 +14 110
 73 112 1e-008 131 89 114 38 111 -0 0 131 89 36 50 111 74 0 110 132 90 0 +0.0022
50116700121188 0.001600068853193047 0.001765239929691334 8.742277657347545e-008
 -0.9999999999999953 4.371138828673806e-008 0.9999999999999962 8.742277657347554
e-008 0 81 1 112 75 32 110 0 0 133 91 113 83 3 113 1 1 1 15 114 76 0 115 110 0 1
7 115 0 114 78 127 74 118 116 0 422 -16 116 77 0 ?118 107 124 117 0 0 1 30 117 7
8 0 116 125 108 0 +0.00175011670012119 0.001600068809481659 0.001765239929691334
 3.821370931907936e-015 -4.371138828673789e-008 -0.9999999999999991 17 118 0 421
 426 422 119 115 116 0 127 +18 119 79 0 118 101 122 120 ?1 29 120 80 0 119 123 1
02 0.001750116700121197 0.001600068735172299 6.523992969133575e-005 17 121 0 114
 127 78 122 126 124 0 130 +18 122 81 0 172 119 137 123 ?1 29 123 82 0 122 138 12
0 0.002200116700121195 0.001600068774512548 6.523992969133575e-005 16 124 83 0 ?
121 116 128 125 0 0 1 30 125 84 0 124 129 117 0 +0.002200116700121188 0.00160006
8848821908 0.001765239929691334 3.821370931907936e-015 -4.371138828673789e-008 -
0.9999999999999991 17 126 0 460 461 465 79 121 124 0 464 -17 127 0 114 115 121 1
19 130 128 0 165 +16 128 85 0 ?127 124 139 129 0 0 1 30 129 86 0 128 140 125 0 +
-0.002249883299878788 0.001600068385481193 6.523992969133575e-005 -0.99999999999
99962 -8.742277657347554e-008 0 17 130 0 156 169 165 122 127 128 0 465 -14 131 8
7 133 1e-008 152 110 135 38 132 -0 0 152 110 36 50 132 88 0 131 153 111 0 +0.002
250116700121188 0.001600068853193047 0.001765239929691334 8.742277657347545e-008
 -0.9999999999999953 4.371138828673806e-008 0.9999999999999962 8.742277657347554
e-008 0 81 1 133 89 32 131 0 0 154 112 134 83 3 134 1 1 1 15 135 90 0 136 131 0
 17 136 0 135 142 105 137 141 139 0 147 -18 137 91 0 183 122 143 138 ?1 29 138 9
2 0 137 144 123 -0.001749883299878792 0.001600068429192581 6.523992969133575e-00
5 16 139 93 0 ?141 128 145 140 0 0 1 30 140 94 0 139 146 129 0 +-0.0017498832998
78799 0.001600068503501941 0.001765239929691334 -3.821370931907936e-015 4.371138
828673789e-008 0.9999999999999991 17 141 0 421 422 426 95 136 139 0 425 +17 142
 0 135 148 136 143 147 145 0 151 +18 143 95 0 190 137 158 144 ?1 29 144 96 0 143
 159 138 -0.002199883299878788 0.001600068389852331 6.523992969133575e-005 16 14
5 97 0 ?142 139 149 146 0 0 1 30 146 98 0 145 150 140 0 +-0.002249883299878788 0
.001600068385481193 6.523992969133575e-005 -0.9999999999999962 -8.74227765734755
4e-008 0 17 147 0 177 178 190 137 142 145 0 426 -17 148 0 135 105 142 101 151 14
9 0 0 +16 149 99 0 ?148 145 160 150 0 0 1 30 150 100 0 149 161 146 0 +-0.0021998
83299878794 0.001600068464161691 0.001765239929691334 -3.821370931907936e-015 4.
371138828673789e-008 0.9999999999999991 17 151 0 532 537 533 143 148 149 0 540 -
14 152 101 154 1e-008 173 131 156 38 153 +0 0 173 131 36 51 153 102 0 152 174 13
2 0 +0.002250116704492334 0.001550068778883688 6.523993187690517e-005 0.99999999
99999962 8.742277657347554e-008 0 4.999999999999991e-005 -8.742277657347545e-008
 0.9999999999999953 -4.371138828673806e-008 81 1 154 103 32 152 0 0 175 133 155
 83 3 155 1 1 1 15 156 104 0 157 152 0 17 157 0 156 165 169 158 162 160 0 168 -1
8 158 105 0 207 143 163 159 ?1 29 159 106 0 158 164 144 0.001750116704492336 0.0
0155006873298673 1.523993187690529e-005 16 160 107 0 ?162 149 166 161 0 0 1 30 1
61 108 0 160 167 150 0 +0.002250116704492334 0.001550068776698118 1.523993187690
529e-005 0.9999999999999962 8.742277657347554e-008 -0 17 162 0 198 211 207 163 1
57 160 0 0 +18 163 109 0 169 158 179 164 ?1 29 164 110 0 163 180 159 0.002200116
704492333 0.001550068772326979 1.523993187690529e-005 17 165 0 156 130 157 119 1
68 166 0 429 +16 166 111 0 ?165 160 170 167 0 0 1 31 167 112 0 166 171 161 0 +0.
001750116704492336 0.0015500687351723 6.523993187690517e-005 0.9999999999999963
 8.74227765057129e-008 2.961998360844846e-024 8.742277650571281e-008 -0.99999999
99999953 4.371138828673806e-008 4.999999999999991e-005 17 168 0 527 455 429 158
 165 166 0 0 -17 169 0 156 157 130 163 172 170 0 483 +16 170 113 0 ?169 166 181
 171 0 0 1 31 171 114 0 170 182 167 0 +0.002200116704492333 0.001550068774512549
 6.523993187690525e-005 -0.9999999999999963 -8.742277657347554e-008 7.8886090522
10118e-031 -8.742277657347545e-008 0.9999999999999953 -4.371138828673806e-008 4.
999999999999991e-005 17 172 0 482 468 483 122 169 170 0 121 -14 173 115 175 1e-0
08 194 152 177 38 174 +0 0 194 152 36 51 174 116 0 173 195 153 0 +0.002250116704
492334 0.001550068778883688 6.523993187690517e-005 0.9999999999999962 8.74227765
7347554e-008 0 4.999999999999991e-005 -8.742277657347545e-008 0.9999999999999953
 -4.371138828673806e-008 81 1 175 117 32 173 0 0 196 154 176 83 3 176 1 1 1 15 1
77 118 0 147 173 0 17 178 0 177 184 147 179 183 181 0 189 +18 179 119 0 178 163
 185 180 ?1 29 180 120 0 179 186 164 -0.001749883295507653 0.001550068427007012
 1.523993187690529e-005 16 181 121 0 ?178 170 187 182 0 0 1 31 182 122 0 181 188
 171 0 +-0.001749883295507653 0.001550068429192582 6.523993187690517e-005 -0.999
9999999999963 -8.742277691228872e-008 1.480999495966785e-023 -8.742277691228863e
-008 0.9999999999999953 -4.371138828673806e-008 4.999999999999991e-005 17 183 0
 527 429 455 137 178 181 0 136 -17 184 0 177 190 178 185 189 187 0 193 -18 185 1
23 0 184 179 200 186 ?1 29 186 124 0 185 201 180 -0.002199883295507649 0.0015500
68387666763 1.523993187690529e-005 16 187 125 0 ?189 181 191 188 0 0 1 30 188 12
6 0 187 192 182 0 +0.002250116704492334 0.001550068776698118 1.523993187690529e-
005 0.9999999999999962 8.742277657347554e-008 -0 17 189 0 219 220 232 179 184 18
7 0 225 +17 190 0 177 147 184 143 193 191 0 142 -16 191 127 0 ?193 187 202 192 0
 0 1 31 192 128 0 191 203 188 0 +-0.002199883295507649 0.001550068389852332 6.52
3993187690517e-005 -0.9999999999999963 -8.742277657347554e-008 7.888609052210118
e-031 8.742277657347545e-008 -0.9999999999999953 4.371138828673806e-008 4.999999
999999991e-005 17 193 0 564 565 540 185 190 191 0 232 +14 194 129 196 1e-008 215
 173 198 38 195 +0 0 215 173 36 50 195 130 0 194 216 174 0 +-0.00224988302012590
3 -0.001599931616704362 1.524006956777839e-005 3.821370931907936e-015 -4.3711388
28673789e-008 -0.9999999999999991 8.742277657347545e-008 -0.9999999999999953 4.3
71138828673806e-008 81 1 196 131 32 194 0 0 217 175 197 83 3 197 1 1 1 15 198 13
2 0 199 194 0 17 199 0 198 207 211 200 204 202 0 291 +18 200 133 0 210 185 205 2
01 ?1 29 201 134 0 200 206 186 0.001750116975502943 -0.001549931267013256 1.5240
06738220898e-005 16 202 135 0 ?199 191 208 203 0 0 1 30 203 136 0 202 209 192 0
 +-0.002249883024497041 -0.001549931616704363 1.524006738220898e-005 -0.99999999
99999962 -8.742277657347554e-008 0 17 204 0 282 295 291 205 199 202 0 519 -18 20
5 137 0 211 200 221 206 ?1 29 206 138 0 205 222 201 0.002200116975502941 -0.0015
49931227673007 1.524006738220898e-005 17 207 0 198 162 199 158 210 208 0 452 +16
 208 139 0 ?207 202 212 209 0 0 1 30 209 140 0 208 213 203 0 +0.0017501169798740
82 -0.001599931267013256 1.524006956777839e-005 -8.742277650571281e-008 0.999999
9999999953 -4.371138828673806e-008 17 210 0 447 448 452 200 207 208 0 199 -17 21
1 0 198 199 162 205 214 212 0 204 +16 212 141 0 ?211 208 223 213 0 0 1 30 213 14
2 0 212 224 209 0 +0.002200116979874079 -0.001599931227673006 1.524006956777839e
-005 8.742277643795018e-008 -0.9999999999999953 4.371138828673806e-008 17 214 0
 518 486 519 163 211 212 0 162 -14 215 143 217 1e-008 236 194 219 38 216 +0 0 23
6 194 36 50 216 144 0 215 237 195 0 +-0.002249883020125903 -0.001599931616704362
 1.524006956777839e-005 3.821370931907936e-015 -4.371138828673789e-008 -0.999999
9999999991 8.742277657347545e-008 -0.9999999999999953 4.371138828673806e-008 81
 1 217 145 32 215 0 0 238 196 218 83 3 218 1 1 1 15 219 146 0 189 215 0 17 220 0
 219 226 189 221 225 223 0 231 +18 221 147 0 220 205 227 222 ?1 29 222 148 0 221
 228 206 -0.001749883024497046 -0.001549931572992974 1.524006738220898e-005 16 2
23 149 0 ?220 212 229 224 0 0 1 30 224 150 0 223 230 213 0 +-0.00174988302012590
6 -0.001599931572992974 1.524006956777839e-005 8.742277691228863e-008 -0.9999999
999999953 4.371138828673806e-008 17 225 0 447 452 448 179 220 223 0 455 -17 226
 0 219 232 220 227 231 229 0 235 +18 227 151 0 226 221 242 228 ?1 29 228 152 0 2
27 243 222 -0.002199883024497042 -0.001549931612333224 1.524006738220898e-005 16
 229 153 0 ?226 223 233 230 0 0 1 30 230 154 0 229 234 224 0 +-0.002249883024497
041 -0.001549931616704363 1.524006738220898e-005 -0.9999999999999962 -8.74227765
7347554e-008 0 17 231 0 303 304 316 221 226 229 0 309 -17 232 0 219 189 226 185
 235 233 0 568 +16 233 155 0 ?232 229 244 234 0 0 1 30 234 156 0 233 245 230 0 +
-0.002199883299878788 0.001600068387666762 1.523992969133587e-005 -8.74227765734
7545e-008 0.9999999999999953 -4.371138828673806e-008 17 235 0 592 593 568 227 23
2 233 0 316 -14 236 157 238 1e-008 257 215 240 38 237 +0 0 257 215 36 51 237 158
 0 236 258 216 0 +-0.002249883024497048 -0.001549931542395003 0.0017152400673822
08 0.9999999999999962 8.742277657347554e-008 0 4.999999999999991e-005 -8.7422776
57347545e-008 0.9999999999999953 -4.371138828673806e-008 81 1 238 159 32 236 0 0
 259 217 239 83 3 239 1 1 1 15 240 160 0 21 236 0 17 241 0 240 247 21 242 246 24
4 0 387 +18 242 161 0 328 227 248 243 ?1 29 243 162 0 242 249 228 0.001750116979
874075 -0.001599931192703896 0.001715240069567777 16 244 163 0 ?241 233 250 245
 0 0 1 31 245 164 0 244 251 234 0 +0.001750116975502936 -0.001549931192703896 0.
001715240067382208 0.9999999999999963 8.74227765057129e-008 2.961998360844846e-0
24 8.742277650571281e-008 -0.9999999999999953 4.371138828673806e-008 4.999999999
999991e-005 17 246 0 582 438 387 9 241 244 0 435 -17 247 0 240 253 241 248 252 2
50 0 329 -18 248 165 0 247 242 263 249 ?1 29 249 166 0 248 264 243 0.00220011697
9874072 -0.001599931153363646 0.001715240069567777 16 250 167 0 ?252 244 254 251
 0 0 1 30 251 168 0 250 255 245 0 +0.002250116979874073 -0.001599931148992508 0.
001715240069567777 -0.9999999999999962 -8.742277657347554e-008 0 17 252 0 324 32
5 329 242 247 250 0 241 +17 253 0 240 21 247 17 256 254 0 500 +16 254 169 0 ?253
 250 265 255 0 0 1 31 255 170 0 254 266 251 0 +0.002200116975502934 -0.001549931
153363647 0.001715240067382208 -0.9999999999999963 -8.742276789985816e-008 -3.79
1358564524563e-022 -8.742276789985807e-008 0.9999999999999953 -4.371138828673806
e-008 4.999999999999991e-005 17 256 0 554 513 500 248 253 254 0 510 -14 257 171
 259 1e-008 278 236 261 38 258 +0 0 278 236 36 51 258 172 0 257 279 237 0 +-0.00
2249883024497048 -0.001549931542395003 0.001715240067382208 0.9999999999999962 8
.742277657347554e-008 0 4.999999999999991e-005 -8.742277657347545e-008 0.9999999
999999953 -4.371138828673806e-008 81 1 259 173 32 257 0 0 280 238 260 83 3 260 1
 1 1 15 261 174 0 262 257 0 17 262 0 261 270 274 263 267 265 0 273 -18 263 175 0
 338 248 268 264 ?1 29 264 176 0 263 269 249 -0.001749883020125913 -0.0015999314
98683614 0.001715240069567777 16 265 177 0 ?267 254 271 266 0 0 1 30 266 178 0 2
65 272 255 0 +0.002250116979874073 -0.001599931148992508 0.001715240069567777 -0
.9999999999999962 -8.742277657347554e-008 0 17 267 0 337 342 338 268 262 265 0 3
45 +18 268 179 0 267 263 284 269 ?1 29 269 180 0 268 285 264 -0.0021998830201259
1 -0.001599931538023863 0.001715240069567777 17 270 0 261 67 262 50 273 271 0 43
8 +16 271 181 0 ?270 265 275 272 0 0 1 31 272 182 0 271 276 266 0 +-0.0017498830
24497051 -0.001549931498683614 0.001715240067382208 -0.9999999999999963 -8.74227
7691228872e-008 1.480999495966785e-023 -8.742277691228863e-008 0.999999999999995
3 -4.371138828673806e-008 4.999999999999991e-005 17 273 0 582 387 438 263 270 27
1 0 384 -17 274 0 261 262 67 268 277 275 0 602 -16 275 183 0 ?277 271 286 276 0
 0 1 31 276 184 0 275 287 272 0 +-0.002199883024497048 -0.001549931538023864 0.0
01715240067382208 -0.9999999999999963 -8.742277657347554e-008 7.888609052210118e
-031 8.742277657347545e-008 -0.9999999999999953 4.371138828673806e-008 4.9999999
99999991e-005 17 277 0 601 577 602 59 274 275 0 574 +14 278 185 280 1e-008 299 2
57 282 38 279 +0 0 299 257 36 51 279 186 0 278 300 258 0 +0.002250116975502941 -
0.001549931221116299 6.524006738220885e-005 -0.9999999999999962 -8.7422776573475
54e-008 0 4.999999999999991e-005 8.742277657347545e-008 -0.9999999999999953 4.37
1138828673806e-008 81 1 280 187 32 278 0 0 301 259 281 83 3 281 1 1 1 15 282 188
 0 283 278 0 17 283 0 282 291 295 284 288 286 0 380 -18 284 189 0 325 268 289 28
5 ?1 29 285 190 0 284 290 269 0.001750116979874081 -0.001599931264827686 6.52400
6956777825e-005 16 286 191 0 ?288 275 292 287 0 0 1 30 287 192 0 286 293 276 0 +
0.002250116979874079 -0.001599931221116298 6.524006956777825e-005 0.999999999999
9962 8.742277657347554e-008 0 17 288 0 324 329 325 289 283 286 0 295 +18 289 193
 0 332 284 305 290 ?1 29 290 194 0 289 306 285 0.002200116979874079 -0.001599931
225487437 6.524006956777825e-005 17 291 0 282 204 283 200 294 292 0 451 +16 292
 195 0 ?291 286 296 293 0 0 1 31 293 196 0 292 297 287 0 +0.001750116975502942 -
0.001549931264827687 6.524006738220885e-005 0.9999999999999963 8.74227765057129e
-008 2.961998360844846e-024 8.742277650571281e-008 -0.9999999999999953 4.3711388
28673806e-008 4.999999999999991e-005 17 294 0 587 383 451 284 291 292 0 0 -17 29
5 0 282 283 204 289 298 296 0 0 +16 296 197 0 ?295 292 307 297 0 0 1 31 297 198
 0 296 308 293 0 +0.002200116975502941 -0.001549931225487438 6.524006738220885e-
005 -0.9999999999999963 -8.742277657347554e-008 7.888609052210118e-031 -8.742277
657347545e-008 0.9999999999999953 -4.371138828673806e-008 4.999999999999991e-005
 17 298 0 559 522 509 205 295 296 0 0 -14 299 199 301 1e-008 320 278 303 38 300
 +0 0 320 278 36 51 300 200 0 299 321 279 0 +0.002250116975502941 -0.00154993122
1116299 6.524006738220885e-005 -0.9999999999999962 -8.742277657347554e-008 0 4.9
99999999999991e-005 8.742277657347545e-008 -0.9999999999999953 4.371138828673806
e-008 81 1 301 201 32 299 0 0 322 280 302 83 3 302 1 1 1 15 303 202 0 231 299 0
 17 304 0 303 310 231 305 309 307 0 315 +18 305 203 0 341 289 311 306 ?1 29 306
 204 0 305 312 290 -0.001749883020125907 -0.001599931570807404 6.524006956777825
e-005 16 307 205 0 ?304 296 313 308 0 0 1 31 308 206 0 307 314 297 0 +-0.0017498
83024497046 -0.001549931570807405 6.524006738220885e-005 -0.9999999999999963 -8.
742277691228872e-008 1.480999495966785e-023 -8.742277691228863e-008 0.9999999999
999953 -4.371138828673806e-008 4.999999999999991e-005 17 309 0 587 451 383 221 3
04 307 0 448 -17 310 0 303 316 304 311 315 313 0 319 -18 311 207 0 342 305 352 3
12 ?1 29 312 208 0 311 353 306 -0.002199883020125903 -0.001599931610147654 6.524
006956777825e-005 16 313 209 0 ?315 307 317 314 0 0 1 30 314 210 0 313 318 308 0
 +0.002250116979874079 -0.001599931221116298 6.524006956777825e-005 0.9999999999
999962 8.742277657347554e-008 0 17 315 0 337 338 342 305 310 313 0 0 +17 316 0 3
03 231 310 227 319 317 0 596 -16 317 211 0 ?319 313 326 318 0 0 1 31 318 212 0 3
17 327 314 0 +-0.002199883024497042 -0.001549931610147655 6.524006738220895e-005
 -0.9999999999999963 -8.742277657347554e-008 7.888609052210118e-031 8.7422776573
47545e-008 -0.9999999999999953 4.371138828673806e-008 4.999999999999991e-005 17
 319 0 610 611 596 311 316 317 0 614 +14 320 213 322 1e-008 333 299 324 38 321 -
0 0 333 299 36 50 321 214 0 320 334 300 0 +0.002250116979874073 -0.0015999311468
06938 0.001765240069567777 -8.742277657347545e-008 0.9999999999999953 -4.3711388
28673806e-008 -0.9999999999999962 -8.742277657347554e-008 0 81 1 322 215 32 320
 0 0 335 301 323 83 3 323 1 1 1 15 324 216 0 325 320 0 17 325 0 324 288 252 284
 328 326 0 283 -16 326 217 0 ?328 317 330 327 0 0 1 30 327 218 0 326 331 318 0 +
0.001750116979874075 -0.001599931190518326 0.001765240069567777 -3.8213709319079
36e-015 4.371138828673789e-008 0.9999999999999991 17 328 0 379 384 380 242 325 3
26 0 252 +17 329 0 324 252 288 248 332 330 0 256 +16 330 219 0 ?329 326 339 331
 0 0 1 30 331 220 0 330 340 327 0 +0.002200116979874072 -0.001599931151178077 0.
001765240069567777 -3.821370931907936e-015 4.371138828673789e-008 0.999999999999
9991 17 332 0 505 506 510 289 329 330 0 509 -14 333 221 335 1e-008 346 320 337 3
8 334 -0 0 346 320 36 50 334 222 0 333 347 321 0 +0.002250116979874073 -0.001599
931146806938 0.001765240069567777 -8.742277657347545e-008 0.9999999999999953 -4.
371138828673806e-008 -0.9999999999999962 -8.742277657347554e-008 0 81 1 335 223
 32 333 0 0 348 322 336 83 3 336 1 1 1 15 337 224 0 338 333 0 17 338 0 337 267 3
15 263 341 339 0 262 -16 339 225 0 ?341 330 343 340 0 0 1 30 340 226 0 339 344 3
31 0 +-0.001749883020125914 -0.001599931496498044 0.001765240069567777 3.8213709
31907936e-015 -4.371138828673789e-008 -0.9999999999999991 17 341 0 379 380 384 3
05 338 339 0 383 +17 342 0 337 315 267 311 345 343 0 310 +16 343 227 0 ?342 339
 354 344 0 0 1 30 344 228 0 343 355 340 0 +-0.00219988302012591 -0.0015999315358
38294 0.001765240069567777 3.821370931907936e-015 -4.371138828673789e-008 -0.999
9999999999991 17 345 0 619 605 614 268 342 343 0 274 -14 346 229 348 1e-008 375
 333 350 38 347 -0 0 375 333 36 50 347 230 0 346 376 334 0 +-0.00224988329987879
5 0.001600068459790553 0.001765239929691334 0.9999999999999962 8.742277657347554
e-008 0 -8.742277657347545e-008 0.9999999999999953 -4.371138828673806e-008 81 1
 348 231 32 346 0 0 377 335 349 83 3 349 1 1 1 15 350 232 0 351 346 0 17 351 0 3
50 359 371 352 356 354 0 364 +18 352 233 0 351 311 357 353 ?1 29 353 234 0 352 3
58 312 -0.002249883024497048 -0.001549931542395003 0.001715240067382208 16 354 2
35 0 ?351 343 362 355 0 0 1 30 355 236 0 354 363 344 0 +-0.002249883024497048 -0
.001549931540209433 0.001765240067382207 -3.821370931907936e-015 4.3711388286737
89e-008 0.9999999999999991 17 356 0 619 614 605 357 351 354 0 371 -18 357 237 0
 356 352 360 358 ?1 29 358 238 0 357 361 353 -0.002249883024497042 -0.0015499316
14518793 6.524006738220884e-005 17 359 0 350 365 351 360 364 362 0 549 +18 360 2
39 0 359 357 366 361 ?1 29 361 240 0 360 367 358 -0.002249883295507656 0.0015500
68457604984 0.001715239931876904 16 362 241 0 ?359 354 368 363 0 0 1 30 363 242
 0 362 369 355 0 +-0.002249883299878795 0.001600068457604983 0.00171523992969133
5 -8.742277657347545e-008 0.9999999999999953 -4.371138828673806e-008 17 364 0 57
3 574 549 352 359 362 0 577 -17 365 0 350 371 359 366 370 368 0 565 +18 366 243
 0 365 360 394 367 ?1 29 367 244 0 366 395 361 -0.002249883295507649 0.001550068
385481193 6.523993187690517e-005 16 368 245 0 ?365 362 372 369 0 0 1 30 369 246
 0 368 373 363 0 +-0.002249883295507656 0.001550068459790553 0.00176523993187690
4 3.821370931907936e-015 -4.371138828673789e-008 -0.9999999999999991 17 370 0 53
2 533 537 360 365 368 0 536 -17 371 0 350 351 365 357 374 372 0 611 +16 372 247
 0 ?371 368 381 373 0 0 1 30 373 248 0 372 382 369 0 +-0.002249883020125903 -0.0
01599931614518793 6.524006956777825e-005 8.742277657347545e-008 -0.9999999999999
953 4.371138828673806e-008 17 374 0 592 568 593 366 371 372 0 537 -14 375 249 37
7 1e-008 388 346 379 38 376 -0 0 388 346 36 50 376 250 0 375 389 347 0 +0.002250
116979874073 -0.001599931146806938 0.001765240069567777 -8.742277657347545e-008
 0.9999999999999953 -4.371138828673806e-008 -0.9999999999999962 -8.7422776573475
54e-008 0 81 1 377 251 32 375 0 0 390 348 378 83 3 378 0 0.501960813999176 0.501
960813999176 15 379 252 0 380 375 0 17 380 0 379 328 341 284 383 381 0 294 +16 3
81 253 0 ?380 372 385 382 0 0 1 30 382 254 0 381 386 373 0 +0.002250116979874079
 -0.001599931221116298 6.524006956777825e-005 0.9999999999999962 8.7422776573475
54e-008 0 17 383 0 587 309 294 305 380 381 0 304 -17 384 0 379 341 328 263 387 3
85 0 0 +16 385 255 0 ?384 381 396 386 0 0 1 30 386 256 0 385 397 382 0 +0.002250
116979874073 -0.001599931148992508 0.001715240069567777 -0.9999999999999962 -8.7
42277657347554e-008 0 17 387 0 582 246 273 242 384 385 0 0 -14 388 257 390 1e-00
8 417 375 392 38 389 -0 0 417 375 36 50 389 258 0 388 418 376 0 +0.0022501167001
21188 0.001600068853193047 0.001765239929691334 -0.9999999999999962 -8.742277643
795027e-008 -5.923997767854853e-024 8.742277643795018e-008 -0.9999999999999953 4
.371138828673806e-008 81 1 390 259 32 388 0 0 419 377 391 83 3 391 1 1 1 15 392
 260 0 393 388 0 17 393 0 392 401 413 394 398 396 0 461 +18 394 261 0 474 366 39
9 395 ?1 29 395 262 0 394 400 367 0.002250116704492327 0.001550068851007478 0.00
1715239931876904 16 396 263 0 ?393 385 404 397 0 0 1 30 397 264 0 396 405 386 0
 +0.002250116704492327 0.001550068853193048 0.001765239931876904 -3.821370931907
936e-015 4.371138828673789e-008 0.9999999999999991 17 398 0 460 465 461 399 393
 396 0 413 -18 399 265 0 486 394 402 400 ?1 29 400 266 0 399 403 395 0.002250116
704492334 0.001550068778883688 6.523993187690517e-005 17 401 0 392 407 393 402 4
06 404 0 412 +18 402 267 0 497 399 408 403 ?1 29 403 268 0 402 409 400 0.0022501
16975502934 -0.001549931148992508 0.001715240067382208 16 404 269 0 ?401 396 410
 405 0 0 1 30 405 270 0 404 411 397 0 +0.002250116700121188 0.001600068851007478
 0.001715239929691335 8.742277643795018e-008 -0.9999999999999953 4.3711388286738
06e-008 17 406 0 496 477 497 394 401 404 0 393 -17 407 0 392 413 401 408 412 410
 0 416 +18 408 271 0 506 402 0 409 ?1 29 409 272 0 408 0 403 0.00225011697550294
1 -0.001549931221116298 6.524006738220884e-005 16 410 273 0 ?407 404 414 411 0 0
 1 30 411 274 0 410 415 405 0 +0.002250116975502934 -0.001549931146806938 0.0017
65240067382207 3.821370931907936e-015 -4.371138828673789e-008 -0.999999999999999
1 17 412 0 505 510 506 402 407 410 0 0 -17 413 0 392 393 407 399 416 414 0 468 +
16 414 275 0 ?413 410 423 415 0 0 1 30 415 276 0 414 424 411 0 +0.00225011670012
1195 0.001600068778883687 6.523992969133575e-005 -8.742277643795018e-008 0.99999
99999999953 -4.371138828673806e-008 17 416 0 518 519 486 408 413 414 0 0 -14 417
 277 419 1e-008 430 388 421 38 418 -0 0 430 388 36 50 418 278 0 417 431 389 0 +0
.002250116700121188 0.001600068853193047 0.001765239929691334 8.742277657347545e
-008 -0.9999999999999953 4.371138828673806e-008 0.9999999999999962 8.74227765734
7554e-008 0 81 1 419 279 32 417 0 0 432 390 420 83 3 420 0 0.501960813999176 0.5
01960813999176 15 421 280 0 422 417 0 17 422 0 421 118 141 74 425 423 0 0 +16 42
3 281 0 ?422 414 427 424 0 0 1 30 424 282 0 423 428 415 0 +0.002250116700121188
 0.001600068851007478 0.001715239929691335 0.9999999999999962 8.742277657347554e
-008 0 17 425 0 491 99 84 95 422 423 0 0 -17 426 0 421 141 118 137 429 427 0 0 +
16 427 283 0 ?426 423 436 428 0 0 1 30 428 284 0 427 437 424 0 +-0.0022498832998
78788 0.001600068385481193 6.523992969133575e-005 -0.9999999999999962 -8.7422776
57347554e-008 0 17 429 0 527 168 183 119 426 427 0 0 -14 430 285 432 1e-008 443
 417 434 38 431 -0 0 443 417 36 50 431 286 0 430 444 418 0 +-0.00224988302012591
 -0.001599931540209433 0.001765240069567777 3.821370931907936e-015 -4.3711388286
73789e-008 -0.9999999999999991 8.742277657347545e-008 -0.9999999999999953 4.3711
38828673806e-008 81 1 432 287 32 430 0 0 445 419 433 83 3 433 0 0.50196081399917
6 0.501960813999176 15 434 288 0 435 430 0 17 435 0 434 13 49 9 438 436 0 0 +16
 436 289 0 ?435 427 440 437 0 0 1 30 437 290 0 436 441 428 0 +-0.002249883024497
048 -0.001549931540209433 0.001765240067382207 0.9999999999999962 8.742277657347
554e-008 0 17 438 0 582 273 246 50 435 436 0 0 -17 439 0 434 49 13 45 442 440 0
 0 +16 440 291 0 ?439 436 449 441 0 0 1 30 441 292 0 440 450 437 0 +-0.002249883
295507656 0.001550068459790553 0.001765239931876904 -0.9999999999999962 -8.74227
7657347554e-008 0 17 442 0 491 84 99 14 439 440 0 0 -14 443 293 445 1e-008 456 4
30 447 38 444 +0 0 456 430 36 50 444 294 0 443 457 431 0 +-0.002249883020125903
 -0.001599931616704362 1.524006956777839e-005 3.821370931907936e-015 -4.37113882
8673789e-008 -0.9999999999999991 8.742277657347545e-008 -0.9999999999999953 4.37
1138828673806e-008 81 1 445 295 32 443 0 0 458 432 446 83 3 446 0 0.501960813999
176 0.501960813999176 15 447 296 0 210 443 0 17 448 0 447 225 210 221 451 449 0
 0 +16 449 297 0 ?448 440 453 450 0 0 1 30 450 298 0 449 454 441 0 +-0.002249883
024497041 -0.001549931616704363 1.524006738220898e-005 -0.9999999999999962 -8.74
2277657347554e-008 0 17 451 0 587 294 309 200 448 449 0 0 -17 452 0 447 210 225
 158 455 453 0 157 +16 453 299 0 ?452 449 462 454 0 0 1 30 454 300 0 453 463 450
 0 +0.002250116704492334 0.001550068776698118 1.523993187690529e-005 0.999999999
9999962 8.742277657347554e-008 -0 17 455 0 527 183 168 179 452 453 0 0 -14 456 3
01 458 1e-008 469 443 460 38 457 +0 0 469 443 36 51 457 302 0 456 470 444 0 +0.0
02200116704492327 0.001550068848821909 0.001765239931876904 3.821370931907936e-0
15 -4.371138828673789e-008 -0.9999999999999991 4.999999999999991e-005 8.74227765
7347545e-008 -0.9999999999999953 4.371138828673806e-008 81 1 458 303 32 456 0 0
 471 445 459 83 3 459 1 1 1 15 460 304 0 461 456 0 17 461 0 460 398 126 394 464
 462 0 0 -16 462 305 0 ?464 453 466 463 0 0 1 31 463 306 0 462 467 454 0 +0.0022
00116704492327 0.00155006884663634 0.001715239931876904 -3.821370931907936e-015
 4.371138828673788e-008 0.999999999999999 -8.742277657347545e-008 0.999999999999
9953 -4.371138828673806e-008 4.999999999999991e-005 17 464 0 473 88 474 79 461 4
62 0 0 +17 465 0 460 126 398 122 468 466 0 0 -16 466 307 0 ?468 462 475 467 0 0
 1 31 467 308 0 466 476 463 0 +0.002200116704492333 0.001550068774512549 6.52399
3187690517e-005 3.821370931907936e-015 -4.371138828673788e-008 -0.99999999999999
9 8.742277657347545e-008 -0.9999999999999953 4.371138828673806e-008 4.9999999999
99991e-005 17 468 0 482 483 172 399 465 466 0 0 +14 469 309 471 1e-008 478 456 4
73 38 470 +0 0 478 456 36 53 470 310 0 469 479 457 0 +0.002200116704492327 0.001
55006884663634 0.001715239931876904 5e-005 -3.821370931907936e-015 4.37113882867
3789e-008 0.9999999999999991 -0.9999999999999962 -8.742277657347554e-008 0 81 1
 471 311 32 469 0 0 480 458 472 83 3 472 1 1 1 15 473 312 0 474 469 0 17 474 0 4
73 464 88 394 477 475 0 406 -16 475 313 0 ?477 466 484 476 0 0 1 31 476 314 0 47
5 485 467 0 +0.002200116704492327 0.001550068846636339 0.001715239931876904 8.74
2278091028415e-008 -0.9999999999999953 4.371138828673806e-008 -0.999999999999996
2 -8.742278091028423e-008 1.895679285713565e-022 5.000000000000012e-005 17 477 0
 496 27 406 23 474 475 0 22 +14 478 315 480 1e-008 487 469 482 38 479 +0 0 487 4
69 36 53 479 316 0 478 488 470 0 +0.002200116704492333 0.001550068774512549 6.52
3993187690525e-005 5e-005 -3.821370931907936e-015 4.371138828673789e-008 0.99999
99999999991 -0.9999999999999962 -8.742277657347554e-008 0 81 1 480 317 32 478 0
 0 489 471 481 83 3 481 1 1 1 15 482 318 0 172 478 0 17 483 0 482 172 468 163 48
6 484 0 214 -16 484 319 0 ?486 475 498 485 0 0 1 31 485 320 0 484 499 476 0 +0.0
02200116704492333 0.001550068774512549 6.523993187690517e-005 8.742277657347546e
-008 -0.9999999999999953 4.371138828673806e-008 -0.9999999999999962 -8.742277657
347554e-008 0 5.000000000000012e-005 17 486 0 518 416 214 399 483 484 0 398 +14
 487 321 489 1e-008 492 478 491 38 488 +0 0 492 478 36 51 488 322 0 487 493 479
 0 +-0.002249883295507656 0.001550068457604983 0.001715239931876904 -0.999999999
9999962 -8.742277657347554e-008 0 4.999999999999991e-005 8.742277657347545e-008
 -0.9999999999999953 4.371138828673806e-008 81 1 489 323 32 487 0 0 494 480 490
 83 3 490 0 0.501960813999176 0.501960813999176 15 491 324 0 84 487 0 14 492 325
 494 1e-008 501 487 496 38 493 +0 0 501 487 36 51 493 326 0 492 502 488 0 +0.002
200116979874073 -0.001599931153363647 0.001715240069567777 -8.742277643795018e-0
08 0.9999999999999953 -4.371138828673806e-008 5.000000000000012e-005 -0.99999999
99999962 -8.742277643795027e-008 -5.923997767854853e-024 81 1 494 327 32 492 0 0
 503 489 495 83 3 495 1 1 1 15 496 328 0 477 492 0 17 497 0 496 406 27 402 500 4
98 0 513 -16 498 329 0 ?500 484 507 499 0 0 1 31 499 330 0 498 508 485 0 +0.0022
00116975502934 -0.001549931153363647 0.001715240067382208 8.742277657347546e-008
 -0.9999999999999953 4.371138394992937e-008 -3.821370552772078e-015 4.3711383949
9292e-008 0.9999999999999991 4.999999999999991e-005 17 500 0 554 256 513 17 497
 498 0 0 +14 501 331 503 1e-008 514 492 505 38 502 +0 0 514 492 36 51 502 332 0
 501 515 493 0 +0.002200116975502934 -0.001549931151178077 0.001765240067382208
 3.821370931907936e-015 -4.371138828673789e-008 -0.9999999999999991 4.9999999999
99991e-005 8.742277657347545e-008 -0.9999999999999953 4.371138828673806e-008 81
 1 503 333 32 501 0 0 516 494 504 83 3 504 1 1 1 15 505 334 0 506 501 0 17 506 0
 505 412 332 408 509 507 0 522 -16 507 335 0 ?509 498 511 508 0 0 1 31 508 336 0
 507 512 499 0 +0.002200116975502941 -0.001549931225487437 6.524006738220885e-00
5 3.821370931907936e-015 -4.371138828673788e-008 -0.999999999999999 8.7422776573
47545e-008 -0.9999999999999953 4.371138828673806e-008 4.999999999999991e-005 17
 509 0 559 298 522 289 506 507 0 288 +17 510 0 505 332 412 248 513 511 0 0 -16 5
11 337 0 ?513 507 520 512 0 0 1 31 512 338 0 511 521 508 0 +0.002200116975502934
 -0.001549931153363647 0.001715240067382208 -3.821370931907936e-015 4.3711388286
73788e-008 0.999999999999999 -8.742277657347545e-008 0.9999999999999953 -4.37113
8828673806e-008 4.999999999999991e-005 17 513 0 554 500 256 402 510 511 0 401 +1
4 514 339 516 1e-008 523 501 518 38 515 +0 0 523 501 36 51 515 340 0 514 524 502
 0 +0.002200116700121195 0.001600068774512548 6.523992969133575e-005 8.742277643
795018e-008 -0.9999999999999953 4.371138828673806e-008 5.000000000000012e-005 0.
9999999999999962 8.742277643795027e-008 5.923997767854853e-024 81 1 516 341 32 5
14 0 0 525 503 517 83 3 517 1 1 1 15 518 342 0 486 514 0 17 519 0 518 214 416 20
5 522 520 0 298 -16 520 343 0 ?522 511 534 521 0 0 1 31 521 344 0 520 535 512 0
 +0.002200116975502941 -0.001549931225487438 6.524006738220895e-005 8.7422780910
28415e-008 -0.9999999999999953 4.371138828673806e-008 0.9999999999999962 8.74227
8091028423e-008 -1.895679285713549e-022 5.000000000000012e-005 17 522 0 559 509
 298 408 519 520 0 407 +14 523 345 525 1e-008 528 514 527 38 524 +0 0 528 514 36
 51 524 346 0 523 529 515 0 +0.002250116704492334 0.001550068778883688 6.5239931
87690517e-005 0.9999999999999962 8.742277657347554e-008 0 4.999999999999991e-005
 -8.742277657347545e-008 0.9999999999999953 -4.371138828673806e-008 81 1 525 347
 32 523 0 0 530 516 526 83 3 526 0 0.501960813999176 0.501960813999176 15 527 34
8 0 168 523 0 14 528 349 530 1e-008 541 523 532 38 529 +0 0 541 523 36 51 529 35
0 0 528 542 524 0 +-0.002199883295507656 0.001550068464161692 0.0017652399318769
04 3.821370931907936e-015 -4.371138828673789e-008 -0.9999999999999991 4.99999999
9999991e-005 8.742277657347545e-008 -0.9999999999999953 4.371138828673806e-008 8
1 1 530 351 32 528 0 0 543 525 531 83 3 531 1 1 1 15 532 352 0 533 528 0 17 533
 0 532 151 370 101 536 534 0 148 -16 534 353 0 ?536 520 538 535 0 0 1 31 535 354
 0 534 539 521 0 +-0.002199883295507656 0.001550068461976123 0.00171523993187690
4 -3.821370931907936e-015 4.371138828673788e-008 0.999999999999999 -8.7422776573
47545e-008 0.9999999999999953 -4.371138828673806e-008 4.999999999999991e-005 17
 536 0 545 546 109 360 533 534 0 0 +17 537 0 532 370 151 366 540 538 0 0 -16 538
 355 0 ?540 534 547 539 0 0 1 31 539 356 0 538 548 535 0 +-0.002199883295507649
 0.001550068389852332 6.523993187690517e-005 3.821370931907936e-015 -4.371138828
673788e-008 -0.999999999999999 8.742277657347545e-008 -0.9999999999999953 4.3711
38828673806e-008 4.999999999999991e-005 17 540 0 564 193 565 143 537 538 0 0 +14
 541 357 543 1e-008 550 528 545 38 542 +0 0 550 528 36 53 542 358 0 541 551 529
 0 +-0.002199883295507656 0.001550068461976123 0.001715239931876904 5e-005 -3.82
1370931907936e-015 4.371138828673789e-008 0.9999999999999991 -0.9999999999999962
 -8.742277657347554e-008 0 81 1 543 359 32 541 0 0 552 530 544 83 3 544 1 1 1 15
 545 360 0 109 541 0 17 546 0 545 109 536 53 549 547 0 0 -16 547 361 0 ?549 538
 566 548 0 0 1 31 548 362 0 547 567 539 0 +-0.002199883295507656 0.0015500684619
76123 0.001715239931876904 8.742277657347546e-008 -0.9999999999999953 4.37113839
4992937e-008 3.821370552772078e-015 -4.37113839499292e-008 -0.9999999999999991 4
.999999999999991e-005 17 549 0 573 364 63 360 546 547 0 370 +14 550 363 552 1e-0
08 555 541 554 38 551 +0 0 555 541 36 53 551 364 0 550 556 542 0 +0.002200116975
502934 -0.001549931153363647 0.001715240067382208 5e-005 -3.821370931907936e-015
 4.371138828673789e-008 0.9999999999999991 -0.9999999999999962 -8.74227765734755
4e-008 0 81 1 552 365 32 550 0 0 557 543 553 83 3 553 1 1 1 15 554 366 0 513 550
 0 14 555 367 557 1e-008 560 550 559 38 556 +0 0 560 550 36 53 556 368 0 555 561
 551 0 +0.002200116975502941 -0.001549931225487438 6.524006738220895e-005 5e-005
 -3.821370931907936e-015 4.371138828673789e-008 0.9999999999999991 -0.9999999999
999962 -8.742277657347554e-008 0 81 1 557 369 32 555 0 0 562 552 558 83 3 558 1
 1 1 15 559 370 0 522 555 0 14 560 371 562 1e-008 569 555 564 38 561 +0 0 569 55
5 36 53 561 372 0 560 570 556 0 +-0.002199883295507649 0.001550068389852332 6.52
3993187690525e-005 5e-005 -3.821370931907936e-015 4.371138828673789e-008 0.99999
99999999991 -0.9999999999999962 -8.742277657347554e-008 0 81 1 562 373 32 560 0
 0 571 557 563 83 3 563 1 1 1 15 564 374 0 540 560 0 17 565 0 564 540 193 366 56
8 566 0 374 -16 566 375 0 ?568 547 575 567 0 0 1 31 567 376 0 566 576 548 0 +-0.
002199883295507649 0.001550068389852332 6.523993187690525e-005 8.742277657347546
e-008 -0.9999999999999953 4.371138828673806e-008 -0.9999999999999962 -8.74227765
7347554e-008 0 5.000000000000012e-005 17 568 0 592 235 374 185 565 566 0 0 +14 5
69 377 571 1e-008 578 560 573 38 570 +0 0 578 560 36 51 570 378 0 569 579 561 0
 +-0.00219988302012591 -0.001599931538023863 0.001715240069567777 8.742277657347
545e-008 -0.9999999999999953 4.371138828673806e-008 5.000000000000012e-005 0.999
9999999999962 8.742277657347554e-008 0 81 1 571 379 32 569 0 0 580 562 572 83 3
 572 1 1 1 15 573 380 0 549 569 0 17 574 0 573 63 364 59 577 575 0 0 -16 575 381
 0 ?577 566 594 576 0 0 1 31 576 382 0 575 595 567 0 +-0.002199883024497048 -0.0
01549931538023864 0.001715240067382208 8.742277657347546e-008 -0.999999999999995
3 4.371138828673806e-008 0.9999999999999962 8.742277657347554e-008 0 5.000000000
000012e-005 17 577 0 601 602 277 352 574 575 0 605 +14 578 383 580 1e-008 583 56
9 582 38 579 +0 0 583 569 36 51 579 384 0 578 584 570 0 +-0.002249883024497048 -
0.001549931542395003 0.001715240067382208 0.9999999999999962 8.742277657347554e-
008 0 4.999999999999991e-005 -8.742277657347545e-008 0.9999999999999953 -4.37113
8828673806e-008 81 1 580 385 32 578 0 0 585 571 581 83 3 581 0 0.501960813999176
 0.501960813999176 15 582 386 0 246 578 0 14 583 387 585 1e-008 588 578 587 38 5
84 +0 0 588 578 36 51 584 388 0 583 589 579 0 +0.002250116975502941 -0.001549931
221116299 6.524006738220885e-005 -0.9999999999999962 -8.742277657347554e-008 0 4
.999999999999991e-005 8.742277657347545e-008 -0.9999999999999953 4.3711388286738
06e-008 81 1 585 389 32 583 0 0 590 580 586 83 3 586 0 0.501960813999176 0.50196
0813999176 15 587 390 0 294 583 0 14 588 391 590 1e-008 597 583 592 38 589 +0 0
 597 583 36 51 589 392 0 588 598 584 0 +-0.002199883299878788 0.0016000683898523
32 6.523992969133575e-005 -8.742277657347545e-008 0.9999999999999953 -4.37113882
8673806e-008 5.000000000000012e-005 -0.9999999999999962 -8.742277657347554e-008
 0 81 1 590 393 32 588 0 0 599 585 591 83 3 591 1 1 1 15 592 394 0 568 588 0 17
 593 0 592 374 235 357 596 594 0 0 -16 594 395 0 ?596 575 603 595 0 0 1 31 595 3
96 0 594 604 576 0 +-0.002199883024497042 -0.001549931610147655 6.52400673822088
5e-005 8.742277657347546e-008 -0.9999999999999953 4.371138828673806e-008 0.99999
99999999962 8.742277657347554e-008 0 5.000000000000012e-005 17 596 0 610 319 611
 227 593 594 0 0 +14 597 397 599 1e-008 606 588 601 38 598 +0 0 606 588 36 53 59
8 398 0 597 607 589 0 +-0.002199883024497048 -0.001549931538023864 0.00171524006
7382208 5e-005 -3.821370931907936e-015 4.371138828673789e-008 0.9999999999999991
 -0.9999999999999962 -8.742277657347554e-008 0 81 1 599 399 32 597 0 0 608 590 6
00 83 3 600 1 1 1 15 601 400 0 277 597 0 17 602 0 601 277 577 268 605 603 0 0 -1
6 603 401 0 ?605 594 612 604 0 0 1 31 604 402 0 603 613 595 0 +-0.00219988302449
7048 -0.001549931538023864 0.001715240067382208 3.821370931907936e-015 -4.371138
828673788e-008 -0.999999999999999 -8.742277657347545e-008 0.9999999999999953 -4.
371138828673806e-008 4.999999999999991e-005 17 605 0 619 356 345 352 602 603 0 0
 +14 606 403 608 1e-008 615 597 610 38 607 +0 0 615 597 36 53 607 404 0 606 616
 598 0 +-0.002199883024497042 -0.001549931610147655 6.524006738220895e-005 5e-00
5 -3.821370931907936e-015 4.371138828673789e-008 0.9999999999999991 -0.999999999
9999962 -8.742277657347554e-008 0 81 1 608 405 32 606 0 0 617 599 609 83 3 609 1
 1 1 15 610 406 0 596 606 0 17 611 0 610 596 319 357 614 612 0 593 -16 612 407 0
 ?614 603 0 613 0 0 1 31 613 408 0 612 0 604 0 +-0.002199883024497042 -0.0015499
31610147655 6.524006738220885e-005 -3.821370931907936e-015 4.371138828673788e-00
8 0.999999999999999 8.742277657347545e-008 -0.9999999999999953 4.371138828673806
e-008 4.999999999999991e-005 17 614 0 619 345 356 311 611 612 0 0 +14 615 409 61
7 1e-008 0 606 619 38 616 +0 0 0 606 36 51 616 410 0 615 0 607 0 +-0.00219988302
4497048 -0.001549931535838294 0.001765240067382208 3.821370931907936e-015 -4.371
138828673789e-008 -0.9999999999999991 4.999999999999991e-005 8.742277657347545e-
008 -0.9999999999999953 4.371138828673806e-008 81 1 617 411 32 615 0 0 0 608 618
 83 3 618 1 1 1 15 619 412 0 605 615 0 1 0 
