**ABCDEFGHIJKLMNOPQRSTUVWXYZabcdefghijklmnopqrstuvwxyz**************************
**PARASOLID !"#$%&'()*+,-./:;<=>?@[\]^_`{|}~0123456789**************************
**PART1;
MC=x86;
MC_MODEL=Intel64 Family 6 Model 60 Stepping 3, GenuineIntel;
MC_ID=unknown;
OS=Windows_NT;
OS_RELEASE=unknown;
FRU=CAD Exchanger 3.4.0 (cadexchanger.com);
APPL=unknown;
SITE=unknown;
USER=unknown;
FORMAT=text;
GUISE=transmit;
KEY=MW_GAT-0_GAT;
FILE=MW_GAT-0_GAT.x_t;
DATE=Thu Dec 27 19:42:01 2018;
**PART2;
SCH=SCH_1200000_12006;
USFLD_SIZE=0;
**PART3;
**END_OF_HEADER*****************************************************************
T51 : TRANSMIT FILE created by modeller version 120000017 SCH_1200000_120060 12
 1 255 0 2 0 0 0 0 1000 1e-008 0 0 0 1 0 1 1 50 6 12 10 47 11 9 70 2 0 1 0 0 4 1
 20 0 3 3 1 T74 20 3 1 0 4 0 0 0 0 0 0 0 0 0 0 0 0 0 0 0 0 0 0 0 81 1 4 7 44 5 0
 0 53 0 46 14 5 5 4 1e-008 51 0 7 50 6 -0 0 51 0 48 50 6 6 0 5 52 0 0 +1.2191999
84916486e-007 4.06399994972162e-008 1.219199970364571e-005 0 -4.37113882867379e-
008 0.9999999999999991 1 0 0 15 7 8 0 8 5 0 17 8 0 7 16 40 9 13 11 0 21 +18 9 9
 0 8 0 14 10 ?1 29 10 10 0 9 15 0 0.001816442263558132 -0.0003049593600005025 1.
219198637167228e-005 16 11 11 0 ?8 0 19 12 0 0 1 30 12 12 0 11 20 0 0 +-0.001816
198423561148 -0.0003049593600005025 1.219198637167228e-005 1 3.056242332366688e-
017 1.335925952884458e-024 17 13 0 350 225 210 14 8 11 0 222 -18 14 13 0 13 9 17
 15 ?1 29 15 14 0 14 18 10 -0.001816198423561148 -0.0003049593600005025 1.219198
637167228e-005 17 16 0 7 22 8 17 21 19 0 27 -18 17 15 0 16 14 23 18 ?1 29 18 16
 0 17 24 15 0.0002151219199984916 -0.001906279703560141 1.219191637573697e-005 1
6 19 17 0 ?21 11 25 20 0 0 1 30 20 18 0 19 26 12 0 +0.0002151219199984916 -0.001
906279703560141 1.219191637573697e-005 0.7071067811865476 0.7071067811865469 3.0
90861907263059e-008 17 21 0 178 207 203 9 16 19 0 210 +17 22 0 7 28 16 23 27 25
 0 33 +18 23 19 0 269 17 29 24 ?1 29 24 20 0 23 30 18 0.0002151219199984916 -0.0
00851279703560144 1.219196249125161e-005 16 25 21 0 ?22 19 31 26 0 0 1 30 26 22
 0 25 32 20 0 +0.0002151219199984916 -0.001906279703560141 1.219191637573697e-00
5 7.89258074378073e-017 0.9999999999999991 4.37113882867379e-008 17 27 0 283 206
 269 17 22 25 0 203 -17 28 0 7 34 22 29 33 31 0 270 +18 29 23 0 28 23 35 30 ?1 2
9 30 24 0 29 36 24 -0.0002148780800015084 -0.000851279703560144 1.21919624912516
1e-005 16 31 25 0 ?28 25 37 32 0 0 1 30 32 26 0 31 38 26 0 +0.000215121919998491
6 -0.000851279703560144 1.219196249125161e-005 -1 -0 0 17 33 0 265 266 270 23 28
 31 0 0 -17 34 0 7 40 28 35 39 37 0 43 +18 35 27 0 231 29 57 36 ?1 29 36 28 0 35
 58 30 -0.0002148780800015094 -0.001906279703560141 1.219191637573697e-005 16 37
 29 0 ?34 31 41 38 0 0 1 30 38 30 0 37 42 32 0 +-0.0002148780800015084 -0.000851
279703560144 1.219196249125161e-005 -5.26172049585382e-017 -0.9999999999999991 -
4.37113882867379e-008 17 39 0 278 273 231 29 34 37 0 0 -17 40 0 7 8 34 14 43 41
 0 0 -16 41 31 0 ?43 37 59 42 0 0 1 30 42 32 0 41 60 38 0 +-0.001816198423561148
 -0.0003049593600005025 1.219198637167228e-005 0.707106781186547 -0.707106781186
5474 -3.090861907263061e-008 17 43 0 215 226 222 35 40 41 0 0 +80 1 44 0 45 8001
 0 0 0 0 3 5 0 0 FFFFTFTFFFFFFF2 79 15 45 SDL/TYSA_COLOUR83 3 46 1 1 1 19 47 1 0
 1 49 0 48 V13 48 2 0 1 0 0 0 0 47 5 19 49 3 0 1 0 47 50 S13 50 4 0 1 0 5 0 0 49
 0 14 51 33 53 1e-008 92 5 55 50 52 -0 0 92 5 48 50 52 34 0 51 93 6 0 +1.2191999
84916486e-007 4.06399994972162e-008 1.219199970364571e-005 0 -4.37113882867379e-
008 0.9999999999999991 1 0 0 81 1 53 35 44 51 0 0 94 4 54 83 3 54 1 1 1 15 55 36
 0 56 51 0 17 56 0 55 64 88 57 61 59 0 69 +18 57 37 0 136 35 62 58 ?1 29 58 38 0
 57 63 36 -0.001816198423561148 0.0003050406399994969 1.219201303561914e-005 16
 59 39 0 ?56 41 67 60 0 0 1 30 60 40 0 59 68 42 0 +0.001816442263558132 0.000305
0406399994969 1.219201303561914e-005 -1 -3.056242332366688e-017 -1.3359259528844
58e-024 17 61 0 345 153 136 62 56 59 0 88 -18 62 41 0 150 57 65 63 ?1 29 63 42 0
 62 66 58 0.001816442263558132 0.0003050406399994969 1.219201303561914e-005 17 6
4 0 55 70 56 65 69 67 0 75 -18 65 43 0 129 62 71 66 ?1 29 66 44 0 65 72 63 -0.00
02148780800015084 0.001906360983559136 1.219208303155444e-005 16 67 45 0 ?69 59
 73 68 0 0 1 30 68 46 0 67 74 60 0 +-0.0002148780800015084 0.001906360983559136
 1.219208303155444e-005 -0.7071067811865476 -0.7071067811865469 -3.0908619072630
59e-008 17 69 0 96 133 129 57 64 67 0 0 +17 70 0 55 76 64 71 75 73 0 0 +18 71 47
 0 319 65 77 72 ?1 29 72 48 0 71 78 66 -0.0002148780800015084 0.0008513609835591
384 1.21920369160398e-005 16 73 49 0 ?70 67 79 74 0 0 1 30 74 50 0 73 80 68 0 +-
0.0002148780800015084 0.001906360983559136 1.219208303155444e-005 5.261720495853
82e-017 -0.9999999999999991 -4.37113882867379e-008 17 75 0 318 132 319 65 70 73
 0 0 -17 76 0 55 82 70 77 81 79 0 87 +18 77 51 0 313 71 83 78 ?1 29 78 52 0 77 8
4 72 0.0002151219199984916 0.0008513609835591384 1.21920369160398e-005 16 79 53
 0 ?76 73 85 80 0 0 1 30 80 54 0 79 86 74 0 +-0.0002148780800015084 0.0008513609
835591384 1.21920369160398e-005 1 0 0 17 81 0 327 322 313 71 76 79 0 70 -17 82 0
 55 88 76 83 87 85 0 91 +18 83 55 0 159 77 98 84 ?1 29 84 56 0 83 99 78 0.000215
1219199984916 0.001906360983559136 1.219208303155444e-005 16 85 57 0 ?82 79 89 8
6 0 0 1 30 86 58 0 85 90 80 0 +0.0002151219199984916 0.0008513609835591384 1.219
20369160398e-005 -7.89258074378073e-017 0.9999999999999991 4.37113882867379e-008
 17 87 0 309 310 159 77 82 85 0 0 -17 88 0 55 56 82 62 91 89 0 0 -16 89 59 0 ?91
 85 100 90 0 0 1 30 90 60 0 89 101 86 0 +0.001816442263558132 0.0003050406399994
969 1.219201303561914e-005 -0.7071067811865476 0.7071067811865469 3.090861907263
059e-008 17 91 0 141 154 150 83 88 89 0 0 +14 92 61 94 1e-008 137 51 96 50 93 +0
 0 137 51 48 50 93 62 0 92 138 52 0 +1.219199984918706e-007 0.002121360983559136
 1.219209242950292e-005 -0.7071067811865476 0.7071067811865469 3.090861907263059
e-008 -0.7071067811865476 -0.7071067811865469 -3.090861907263059e-008 81 1 94 63
 44 92 0 0 139 53 95 83 3 95 1 1 1 15 96 64 0 97 92 0 17 97 0 96 105 133 98 102
 100 0 110 +18 98 65 0 221 83 103 99 ?1 29 99 66 0 98 104 84 -0.0021211984235611
48 4.063995578638302e-008 1.319199970364571e-005 16 100 67 0 ?97 89 108 101 0 0
 1 30 101 68 0 100 109 90 0 +-0.001816198423561148 0.0003050406399557855 1.31920
1303561913e-005 -0.707106781186548 -0.7071067811865464 -3.090861907263057e-008 1
7 102 0 332 333 221 103 97 100 0 133 -18 103 69 0 102 98 106 104 ?1 29 104 70 0
 103 107 99 -0.001816198423561148 0.0003050406399557855 1.319201303561913e-005 1
7 105 0 96 111 97 106 110 108 0 116 +18 106 71 0 105 103 112 107 ?1 29 107 72 0
 106 113 104 -0.002121198423561148 4.060109636186304e-008 0.000902191999703645 1
6 108 73 0 ?105 100 114 109 0 0 1 30 109 74 0 108 115 101 0 +-0.0021211984235611
48 4.063995578671608e-008 1.319199970364571e-005 0 -4.371138878627582e-008 0.999
9999999999991 17 110 0 215 216 236 98 105 108 0 0 -17 111 0 96 117 105 112 116 1
14 0 122 -18 112 75 0 111 106 118 113 ?1 29 113 76 0 112 119 107 1.2191999849187
06e-007 0.002121360944656 0.0009021920924295021 16 114 77 0 ?116 108 120 115 0 0
 1 30 115 78 0 114 121 109 0 +1.219199984918706e-007 0.002121360944656 0.0009021
920924295021 -0.707106781186547 -0.7071067811865474 -3.090861907263061e-008 17 1
16 0 362 239 169 106 111 114 0 236 +17 117 0 96 123 111 118 122 120 0 128 -18 11
8 79 0 117 112 124 119 ?1 29 119 80 0 118 125 113 1.219199984922037e-007 0.00212
1360983515424 1.319209242950292e-005 16 120 81 0 ?122 114 126 121 0 0 1 30 121 8
2 0 120 127 115 0 +1.219199984925368e-007 0.002121360983515424 1.319209242950292
e-005 -4.99537918841465e-016 -4.37113882867379e-008 0.9999999999999991 17 122 0
 141 164 160 112 117 120 0 169 +17 123 0 96 129 117 124 128 126 0 132 +18 124 83
 0 301 118 143 125 ?1 29 125 84 0 124 144 119 -0.0002148780800015084 0.001906360
983515424 1.319208303155444e-005 16 126 85 0 ?123 120 130 127 0 0 1 30 127 86 0
 126 131 121 0 +1.219199984910071e-007 0.002121360983515424 1.319209242950292e-0
05 -0.7071067811865476 -0.7071067811865469 -3.090861907263059e-008 17 128 0 288
 163 301 118 123 126 0 160 -17 129 0 96 69 123 65 132 130 0 64 -16 130 87 0 ?132
 126 134 131 0 0 1 30 131 88 0 130 135 127 0 +-0.0002148780800015084 0.001906360
983559136 1.219208303155444e-005 0 -4.37113882867379e-008 0.9999999999999991 17
 132 0 318 304 75 124 129 130 0 0 +17 133 0 96 97 69 103 136 134 0 336 -16 134 8
9 0 ?136 130 145 135 0 0 1 30 135 90 0 134 146 131 0 +-0.001816198423561148 0.00
03050406399557855 1.319201303561913e-005 0 4.37113882867379e-008 -0.999999999999
9991 17 136 0 345 61 336 57 133 134 0 56 +14 137 91 139 1e-008 174 92 141 50 138
 +0 0 174 92 48 50 138 92 0 137 175 93 0 +0.002121442263558132 4.063999949699415
e-008 1.219199970364571e-005 0.7071067811865476 0.7071067811865469 3.09086190726
3059e-008 -0.7071067811865476 0.7071067811865469 3.090861907263059e-008 81 1 139
 93 44 137 0 0 176 94 140 83 3 140 1 1 1 15 141 94 0 142 137 0 17 142 0 141 150
 170 143 147 145 0 333 +18 143 95 0 142 124 148 144 ?1 29 144 96 0 143 149 125 0
.001816442263558132 0.0003050406399557855 1.319201303561913e-005 16 145 97 0 ?14
2 134 151 146 0 0 1 30 146 98 0 145 152 135 0 +0.002121442263558132 4.0639955786
39092e-008 1.319199970364571e-005 -0.707106781186547 0.7071067811865474 3.090861
907263061e-008 17 147 0 332 182 333 148 142 145 0 170 -18 148 99 0 179 143 155 1
49 ?1 29 149 100 0 148 156 144 0.002121442263558132 4.063995578527279e-008 1.319
199970364571e-005 17 150 0 141 91 142 62 153 151 0 61 -16 151 101 0 ?153 145 157
 152 0 0 1 30 152 102 0 151 158 146 0 +0.001816442263558132 0.000305040639999496
9 1.219201303561914e-005 0 -4.37113882867379e-008 0.9999999999999991 17 153 0 34
5 336 61 143 150 151 0 0 +17 154 0 141 160 91 155 159 157 0 163 -18 155 103 0 29
4 148 165 156 ?1 29 156 104 0 155 166 149 0.0002151219199984916 0.00190636098351
5424 1.319208303155444e-005 16 157 105 0 ?159 151 161 158 0 0 1 30 158 106 0 157
 162 152 0 +0.0002151219199984916 0.001906360983515424 1.319208303155444e-005 0
 4.37113882867379e-008 -0.9999999999999991 17 159 0 309 87 294 83 154 157 0 82 +
17 160 0 141 122 154 118 163 161 0 0 +16 161 107 0 ?160 157 167 162 0 0 1 30 162
 108 0 161 168 158 0 +0.0002151219199984916 0.001906360983515424 1.3192083031554
44e-005 -0.707106781186547 0.7071067811865474 3.090861907263061e-008 17 163 0 28
8 289 128 155 160 161 0 0 -17 164 0 141 170 122 165 169 167 0 173 -18 165 109 0
 190 155 183 166 ?1 29 166 110 0 165 184 156 0.002121442263558132 4.060109636141
895e-008 0.000902191999703645 16 167 111 0 ?169 161 171 168 0 0 1 30 168 112 0 1
67 172 162 0 +0.002121442263558132 4.060109636141895e-008 0.000902191999703645 -
0.707106781186548 0.7071067811865464 3.090861907263057e-008 17 169 0 362 116 190
 112 164 167 0 0 +17 170 0 141 142 164 148 173 171 0 0 -16 171 113 0 ?173 167 18
0 172 0 0 1 30 172 114 0 171 181 168 0 +0.002121442263558132 4.063995578493973e-
008 1.319199970364571e-005 0 -4.371138778719998e-008 0.9999999999999991 17 173 0
 178 185 179 165 170 171 0 0 +14 174 115 176 1e-008 211 137 178 50 175 +0 0 211
 137 48 50 175 116 0 174 212 138 0 +1.219199984914265e-007 -0.002121279703560141
 1.219190697778849e-005 0.7071067811865476 -0.7071067811865469 -3.09086190726305
9e-008 0.7071067811865476 0.7071067811865469 3.090861907263059e-008 81 1 176 117
 44 174 0 0 213 139 177 83 3 177 1 1 1 15 178 118 0 179 174 0 17 179 0 178 173 2
07 148 182 180 0 147 +16 180 119 0 ?179 171 188 181 0 0 1 30 181 120 0 180 189 1
72 0 +0.001816442263558132 -0.0003049593600442139 1.319198637167228e-005 0.70710
6781186548 0.7071067811865464 3.090861907263057e-008 17 182 0 332 337 147 183 17
9 180 0 340 -18 183 121 0 182 165 186 184 ?1 29 184 122 0 183 187 166 0.00181644
2263558132 -0.0003049593600442139 1.319198637167228e-005 17 185 0 178 191 173 18
6 190 188 0 196 -18 186 123 0 185 183 192 187 ?1 29 187 124 0 186 193 184 1.2191
99984914265e-007 -0.002121279742463276 0.0009021919069777877 16 188 125 0 ?190 1
80 194 189 0 0 1 30 189 126 0 188 195 181 0 +1.219199984914265e-007 -0.002121279
742463276 0.0009021919069777877 0.707106781186547 0.7071067811865474 3.090861907
263061e-008 17 190 0 362 169 239 165 185 188 0 164 +17 191 0 178 197 185 192 196
 194 0 232 -18 192 127 0 191 186 198 193 ?1 29 193 128 0 192 199 187 1.219199984
910935e-007 -0.002121279703603853 1.319190697778849e-005 16 194 129 0 ?196 188 2
00 195 0 0 1 30 195 130 0 194 201 189 0 +1.219199984907604e-007 -0.0021212797036
03853 1.319190697778849e-005 4.99537918841465e-016 -4.37113882867379e-008 0.9999
999999999991 17 196 0 215 236 232 186 191 194 0 239 +17 197 0 178 203 191 198 20
2 200 0 206 +18 198 131 0 257 192 217 199 ?1 29 199 132 0 198 218 193 0.00021512
19199984916 -0.001906279703603853 1.319191637573697e-005 16 200 133 0 ?197 194 2
04 201 0 0 1 30 201 134 0 200 205 195 0 +1.219199984922901e-007 -0.0021212797036
03853 1.319190697778849e-005 0.707106781186547 0.7071067811865474 3.090861907263
061e-008 17 202 0 244 235 257 192 197 200 0 0 -17 203 0 178 21 197 17 206 204 0
 0 -16 204 135 0 ?206 200 208 205 0 0 1 30 205 136 0 204 209 201 0 +0.0002151219
199984916 -0.001906279703560141 1.219191637573697e-005 0 -4.37113882867379e-008
 0.9999999999999991 17 206 0 283 260 27 198 203 204 0 0 +17 207 0 178 179 21 183
 210 208 0 0 -16 208 137 0 ?210 204 219 209 0 0 1 30 209 138 0 208 220 205 0 +0.
001816442263558132 -0.0003049593600442139 1.319198637167228e-005 0 4.37113882867
379e-008 -0.9999999999999991 17 210 0 350 13 340 9 207 208 0 0 +14 211 139 213 1
e-008 240 174 215 50 212 +0 0 240 174 48 50 212 140 0 211 241 175 0 +-0.00212119
8423561149 4.063999949743824e-008 1.219199970364571e-005 -0.7071067811865476 -0.
7071067811865469 -3.090861907263059e-008 0.7071067811865476 -0.7071067811865469
 -3.090861907263059e-008 81 1 213 141 44 211 0 0 242 176 214 83 3 214 1 1 1 15 2
15 142 0 216 211 0 17 216 0 215 222 110 217 221 219 0 225 +18 217 143 0 216 198
 227 218 ?1 29 218 144 0 217 228 199 -0.001816198423561148 -0.000304959360044213
9 1.319198637167228e-005 16 219 145 0 ?216 208 223 220 0 0 1 30 220 146 0 219 22
4 209 0 +-0.002121198423561148 4.063995578604995e-008 1.319199970364571e-005 0.7
07106781186547 -0.7071067811865474 -3.090861907263061e-008 17 221 0 332 102 337
 98 216 219 0 97 -17 222 0 215 43 216 14 225 223 0 40 -16 223 147 0 ?225 219 229
 224 0 0 1 30 224 148 0 223 230 220 0 +-0.001816198423561148 -0.0003049593600005
025 1.219198637167228e-005 0 -4.37113882867379e-008 0.9999999999999991 17 225 0
 350 340 13 217 222 223 0 337 +17 226 0 215 232 43 227 231 229 0 235 -18 227 149
 0 226 217 246 228 ?1 29 228 150 0 227 247 218 -0.0002148780800015084 -0.0019062
79703603853 1.319191637573697e-005 16 229 151 0 ?231 223 233 230 0 0 1 30 230 15
2 0 229 234 224 0 +-0.0002148780800015094 -0.001906279703603853 1.31919163757369
7e-005 0 4.37113882867379e-008 -0.9999999999999991 17 231 0 278 39 250 35 226 22
9 0 34 +17 232 0 215 196 226 192 235 233 0 202 +16 233 153 0 ?232 229 237 234 0
 0 1 30 234 154 0 233 238 230 0 +-0.0002148780800015084 -0.001906279703603853 1.
319191637573697e-005 0.707106781186547 -0.7071067811865474 -3.090861907263061e-0
08 17 235 0 244 245 202 227 232 233 0 250 -17 236 0 215 110 196 106 239 237 0 0
 -16 237 155 0 ?239 233 248 238 0 0 1 30 238 156 0 237 249 234 0 +-0.00212119842
3561148 4.060109636186304e-008 0.000902191999703645 0.707106781186548 -0.7071067
811865464 -3.090861907263057e-008 17 239 0 362 190 116 186 236 237 0 0 +14 240 1
57 242 1e-008 261 211 244 50 241 +0 0 261 211 48 50 241 158 0 240 262 212 0 +1.2
19199984916486e-007 4.063995578582791e-008 1.319199970364571e-005 0 4.3711388286
7379e-008 -0.9999999999999991 1 0 0 81 1 242 159 44 240 0 0 263 213 243 83 3 243
 1 0.843137264251709 0 15 244 160 0 235 240 0 17 245 0 244 251 235 246 250 248 0
 256 +18 246 161 0 273 227 252 247 ?1 29 247 162 0 246 253 228 -0.00021487808000
15084 -0.0008512797036038554 1.319196249125161e-005 16 248 163 0 ?245 237 254 24
9 0 0 1 30 249 164 0 248 255 238 0 +-0.0002148780800015084 -0.001906279703603853
 1.319191637573697e-005 5.26172049585382e-017 0.9999999999999991 4.3711388286737
9e-008 17 250 0 278 231 273 227 245 248 0 0 -17 251 0 244 257 245 252 256 254 0
 0 +18 252 165 0 260 246 290 253 ?1 29 253 166 0 252 291 247 0.00021512191999849
16 -0.0008512797036038554 1.319196249125161e-005 16 254 167 0 ?251 248 258 255 0
 0 1 30 255 168 0 254 259 249 0 +-0.0002148780800015084 -0.0008512797036038554 1
.319196249125161e-005 1 0 0 17 256 0 265 270 266 246 251 254 0 0 -17 257 0 244 2
02 251 198 260 258 0 197 +16 258 169 0 ?257 254 267 259 0 0 1 30 259 170 0 258 2
68 255 0 +0.0002151219199984916 -0.0008512797036038554 1.319196249125161e-005 -7
.89258074378073e-017 -0.9999999999999991 -4.37113882867379e-008 17 260 0 283 269
 206 252 257 258 0 266 -14 261 171 263 1e-008 274 240 265 50 262 -0 0 274 240 48
 50 262 172 0 261 275 241 0 +-0.0002148780800015084 -0.0008512797036038554 1.319
196249125161e-005 0 0.9999999999999991 4.37113882867379e-008 1 0 0 81 1 263 173
 44 261 0 0 276 242 264 83 3 264 1 0.843137264251709 0 15 265 174 0 33 261 0 17
 266 0 265 256 33 252 269 267 0 251 -16 267 175 0 ?269 258 271 268 0 0 1 30 268
 176 0 267 272 259 0 +0.0002151219199984916 -0.0008512797036038554 1.31919624912
5161e-005 0 4.37113882867379e-008 -0.9999999999999991 17 269 0 283 27 260 23 266
 267 0 22 +17 270 0 265 33 256 29 273 271 0 39 +16 271 177 0 ?270 267 292 272 0
 0 1 30 272 178 0 271 293 268 0 +-0.0002148780800015084 -0.0008512797036038554 1
.319196249125161e-005 0 4.37113882867379e-008 -0.9999999999999991 17 273 0 278 2
50 39 246 270 271 0 245 -14 274 179 276 1e-008 279 261 278 50 275 -0 0 279 261 4
8 50 275 180 0 274 280 262 0 +-0.0002148780800015084 -0.001906279703603853 1.319
191637573697e-005 -1 5.261720495853815e-017 2.299971076505534e-024 5.26172049585
382e-017 0.9999999999999991 4.37113882867379e-008 81 1 276 181 44 274 0 0 281 26
3 277 83 3 277 1 0.843137264251709 0 15 278 182 0 39 274 0 14 279 183 281 1e-008
 284 274 283 50 280 -0 0 284 274 48 50 280 184 0 279 285 275 0 +0.00021512191999
84916 -0.0008512797036038554 1.319196249125161e-005 1 -7.892580743780723e-017 -3
.449956614758301e-024 -7.89258074378073e-017 -0.9999999999999991 -4.371138828673
79e-008 81 1 281 185 44 279 0 0 286 276 282 83 3 282 1 0.843137264251709 0 15 28
3 186 0 27 279 0 14 284 187 286 1e-008 305 279 288 50 285 +0 0 305 279 48 50 285
 188 0 284 306 280 0 +1.219199984916486e-007 4.063995578582791e-008 1.3191999703
64571e-005 0 4.37113882867379e-008 -0.9999999999999991 1 0 0 81 1 286 189 44 284
 0 0 307 281 287 83 3 287 1 0.843137264251709 0 15 288 190 0 163 284 0 17 289 0
 288 295 163 290 294 292 0 300 +18 290 191 0 310 252 296 291 ?1 29 291 192 0 290
 297 253 0.0002151219199984916 0.0008513609835154271 1.31920369160398e-005 16 29
2 193 0 ?289 271 298 293 0 0 1 30 293 194 0 292 299 272 0 +0.0002151219199984916
 0.001906360983515424 1.319208303155444e-005 7.89258074378073e-017 -0.9999999999
999991 -4.37113882867379e-008 17 294 0 309 159 310 155 289 292 0 154 -17 295 0 2
88 301 289 296 300 298 0 304 +18 296 195 0 322 290 357 297 ?1 29 297 196 0 296 3
58 291 -0.0002148780800015084 0.0008513609835154271 1.31920369160398e-005 16 298
 197 0 ?295 292 302 299 0 0 1 30 299 198 0 298 303 293 0 +0.0002151219199984916
 0.0008513609835154271 1.31920369160398e-005 -1 -0 0 17 300 0 327 313 322 290 29
5 298 0 0 -17 301 0 288 128 295 124 304 302 0 123 +16 302 199 0 ?301 298 311 303
 0 0 1 30 303 200 0 302 312 299 0 +-0.0002148780800015084 0.0008513609835154271
 1.31920369160398e-005 -5.26172049585382e-017 0.9999999999999991 4.3711388286737
9e-008 17 304 0 318 319 132 296 301 302 0 0 -14 305 201 307 1e-008 314 284 309 5
0 306 -0 0 314 284 48 50 306 202 0 305 315 285 0 +0.0002151219199984916 0.001906
360983515424 1.319208303155444e-005 1 7.892580743780723e-017 3.449956614758301e-
024 7.89258074378073e-017 -0.9999999999999991 -4.37113882867379e-008 81 1 307 20
3 44 305 0 0 316 286 308 83 3 308 1 0.843137264251709 0 15 309 204 0 87 305 0 17
 310 0 309 294 87 290 313 311 0 289 -16 311 205 0 ?313 302 320 312 0 0 1 30 312
 206 0 311 321 303 0 +0.0002151219199984916 0.0008513609835154271 1.319203691603
98e-005 0 4.37113882867379e-008 -0.9999999999999991 17 313 0 327 81 300 77 310 3
11 0 76 +14 314 207 316 1e-008 323 305 318 50 315 -0 0 323 305 48 50 315 208 0 3
14 324 306 0 +-0.0002148780800015084 0.0008513609835154271 1.31920369160398e-005
 -1 -5.261720495853815e-017 -2.299971076505534e-024 -5.26172049585382e-017 0.999
9999999999991 4.37113882867379e-008 81 1 316 209 44 314 0 0 325 307 317 83 3 317
 1 0.843137264251709 0 15 318 210 0 75 314 0 17 319 0 318 75 304 71 322 320 0 81
 +16 320 211 0 ?319 311 334 321 0 0 1 30 321 212 0 320 335 312 0 +-0.00021487808
00015084 0.0008513609835154271 1.31920369160398e-005 0 4.37113882867379e-008 -0.
9999999999999991 17 322 0 327 300 81 296 319 320 0 295 -14 323 213 325 1e-008 32
8 314 327 50 324 -0 0 328 314 48 50 324 214 0 323 329 315 0 +0.00021512191999849
16 0.0008513609835154271 1.31920369160398e-005 0 -0.9999999999999991 -4.37113882
867379e-008 -1 -0 0 81 1 325 215 44 323 0 0 330 316 326 83 3 326 1 0.84313726425
1709 0 15 327 216 0 81 323 0 14 328 217 330 1e-008 341 323 332 50 329 +0 0 341 3
23 48 50 329 218 0 328 342 324 0 +1.219199984916486e-007 4.063995578582791e-008
 1.319199970364571e-005 0 4.37113882867379e-008 -0.9999999999999991 1 0 0 81 1 3
30 219 44 328 0 0 343 325 331 83 3 331 1 0.843137264251709 0 15 332 220 0 221 32
8 0 17 333 0 332 147 102 143 336 334 0 153 +16 334 221 0 ?333 320 338 335 0 0 1
 30 335 222 0 334 339 321 0 +-0.001816198423561148 0.0003050406399557855 1.31920
1303561913e-005 1 3.056242332366688e-017 1.335925952884458e-024 17 336 0 345 136
 153 103 333 334 0 0 -17 337 0 332 221 182 217 340 338 0 0 +16 338 223 0 ?337 33
4 359 339 0 0 1 30 339 224 0 338 360 335 0 +0.001816442263558132 -0.000304959360
0442139 1.319198637167228e-005 -1 -3.056242332366688e-017 -1.335925952884458e-02
4 17 340 0 350 210 225 183 337 338 0 207 -14 341 225 343 1e-008 346 328 345 50 3
42 -0 0 346 328 48 50 342 226 0 341 347 329 0 +-0.001816198423561148 0.000305040
6399557856 1.319201303561913e-005 -3.05624233236669e-017 0.9999999999999991 4.37
113882867379e-008 1 3.056242332366688e-017 1.335925952884458e-024 81 1 343 227 4
4 341 0 0 348 330 344 83 3 344 1 0.843137264251709 0 15 345 228 0 61 341 0 14 34
6 229 348 1e-008 351 341 350 50 347 -0 0 351 341 48 50 347 230 0 346 352 342 0 +
0.001816442263558132 -0.0003049593600442139 1.319198637167228e-005 3.05624233236
669e-017 -0.9999999999999991 -4.37113882867379e-008 -1 -3.056242332366688e-017 -
1.335925952884458e-024 81 1 348 231 44 346 0 0 353 343 349 83 3 349 1 0.84313726
4251709 0 15 350 232 0 13 346 0 14 351 233 353 1e-008 363 346 355 50 352 +0 0 36
3 346 48 50 352 234 0 351 364 347 0 +1.219199984916486e-007 4.0601096361641e-008
 0.000902191999703645 0 -4.37113882867379e-008 0.9999999999999991 1 0 0 81 1 353
 235 44 351 0 0 365 348 354 83 3 354 1 1 1 15 355 236 0 356 351 362 17 356 0 355
 356 356 357 361 359 0 373 -18 357 237 0 361 296 369 358 ?1 29 358 238 0 357 370
 297 0.0001724650992956087 -0.001570341691094467 0.0009021919310600548 16 359 23
9 0 ?361 338 371 360 0 0 1 31 360 240 0 359 372 339 0 +1.219199984912045e-007 -0
.001570341691094467 0.0009021919310600548 0 -4.37113882867379e-008 0.99999999999
99991 1 0 0 0.000172343179297117 17 361 0 367 368 373 357 356 359 0 356 +15 362
 241 0 239 351 0 14 363 242 365 1e-008 378 351 367 50 364 -0 0 378 351 48 51 364
 243 0 363 379 352 0 +1.219199984912045e-007 -0.001570341686723328 0.00080219193
1060055 0 -4.37113882867379e-008 0.9999999999999991 0.000172343179297117 1 0 0 8
1 1 365 244 44 363 0 0 380 353 366 83 3 366 0 0 0 15 367 245 0 361 363 0 17 368
 0 367 374 361 369 373 371 0 377 -18 369 246 0 368 357 0 370 ?1 29 370 247 0 369
 0 358 0.0001724650992956087 -0.001570341686723328 0.000802191931060055 16 371 2
48 0 ?373 359 375 372 0 0 1 30 372 249 0 371 376 360 0 +0.0001724650992956087 -0
.001570341686723328 0.000802191931060055 0 -4.37113882867379e-008 0.999999999999
9991 17 373 0 367 361 374 357 368 371 0 0 +17 374 0 367 373 368 369 377 375 0 0
 -16 375 250 0 ?377 371 0 376 0 0 1 31 376 251 0 375 0 372 0 +1.219199984912045e
-007 -0.001570341686723328 0.000802191931060055 0 -4.37113882867379e-008 0.99999
99999999991 1 0 0 0.000172343179297117 17 377 0 382 377 377 369 374 375 0 374 +1
4 378 252 380 1e-008 0 363 382 50 379 +0 0 0 363 48 50 379 253 0 378 0 364 0 +1.
219199984916486e-007 4.060546750046967e-008 0.0008021919997036451 0 -4.371138828
67379e-008 0.9999999999999991 1 0 0 81 1 380 254 44 378 0 0 0 365 381 83 3 381 0
 0 0 15 382 255 0 377 378 0 1 0 
