**ABCDEFGHIJKLMNOPQRSTUVWXYZabcdefghijklmnopqrstuvwxyz**************************
**PARASOLID !"#$%&'()*+,-./:;<=>?@[\]^_`{|}~0123456789**************************
**PART1;
MC=x86;
MC_MODEL=Intel64 Family 6 Model 60 Stepping 3, GenuineIntel;
MC_ID=unknown;
OS=Windows_NT;
OS_RELEASE=unknown;
FRU=CAD Exchanger 3.4.0 (cadexchanger.com);
APPL=unknown;
SITE=unknown;
USER=unknown;
FORMAT=text;
GUISE=transmit;
KEY=MW_SYM-25DLHW_SYM-11+;
FILE=MW_SYM-25DLHW_SYM-11+.x_t;
DATE=Thu Dec 27 19:42:01 2018;
**PART2;
SCH=SCH_1200000_12006;
USFLD_SIZE=0;
**PART3;
**END_OF_HEADER*****************************************************************
T51 : TRANSMIT FILE created by modeller version 120000017 SCH_1200000_120060 12
 1 391 0 2 0 0 0 0 1000 1e-008 0 0 0 1 0 1 1 45 6 12 10 42 11 9 70 2 0 1 0 0 4 1
 20 0 3 3 1 T74 20 3 1 0 4 0 0 0 0 0 0 0 0 0 0 0 0 0 0 0 0 0 0 0 81 1 4 7 39 5 0
 0 48 0 41 14 5 5 4 1e-008 46 0 7 45 6 +0 0 46 0 43 50 6 6 0 5 47 0 0 +1.2191999
85362822e-007 8.102472448683784e-008 0.005852191999703641 7.642741863815873e-015
 -4.371138828673789e-008 0.9999999999999991 0.9999999999999848 1.748455531469491
e-007 0 15 7 8 0 8 5 14 17 8 0 7 8 8 9 13 11 0 56 -18 9 9 0 13 0 16 10 ?1 29 10
 10 0 9 17 0 -0.004222997577271734 -0.003296496756730975 0.005852191855605681 16
 11 11 0 ?13 0 18 12 0 0 1 31 12 12 0 11 19 0 0 +-0.004757611936071716 -0.003296
496850205919 0.005852191855605681 7.642741863815873e-015 -4.37113882867379e-008
 0.9999999999999991 0.9999999999999848 1.748455531469491e-007 0 0.00053461435879
999 17 13 0 50 51 56 9 8 11 0 8 +15 14 13 0 15 5 0 17 15 0 14 23 35 16 20 18 0 2
8 +18 16 14 0 15 9 21 17 ?1 29 17 15 0 16 22 10 -0.005712377343433297 -0.0042125
98348077687 0.005852191815561621 16 18 16 0 ?15 11 26 19 0 0 1 30 19 17 0 18 27
 12 0 +-0.005712378816569458 0.004212758399916217 0.00585219218384566 1.74845553
1469489e-007 -0.9999999999999838 -4.371138828673856e-008 17 20 0 65 78 74 21 15
 18 0 0 -18 21 18 0 35 16 24 22 ?1 29 22 19 0 21 25 17 -0.005712378816569458 0.0
04212758399916217 0.00585219218384566 17 23 0 14 29 15 24 28 26 0 34 +18 24 20 0
 23 21 30 25 ?1 29 25 21 0 24 31 22 0.00571262265656653 -0.004212596350467244 0.
005852191815561621 16 26 22 0 ?23 18 32 27 0 0 1 30 27 23 0 26 33 19 0 +-0.00571
2377343433297 -0.004212598348077687 0.005852191815561621 0.9999999999999848 1.74
8455531469491e-007 0 17 28 0 86 77 105 16 23 26 0 74 -17 29 0 14 35 23 30 34 32
 0 120 +18 30 24 0 38 24 52 31 ?1 29 31 25 0 30 53 25 0.005712621183430369 0.004
212760397526661 0.00585219218384566 16 32 26 0 ?29 26 36 33 0 0 1 30 33 27 0 32
 37 27 0 +0.00571262265656653 -0.004212596350467244 0.005852191815561621 -1.7484
55531469489e-007 0.9999999999999838 4.371138828673856e-008 17 34 0 113 108 120 2
4 29 32 0 105 -17 35 0 14 15 29 21 38 36 0 81 +16 36 28 0 ?35 32 54 37 0 0 1 30
 37 29 0 36 55 33 0 +0.005712621183430369 0.004212760397526661 0.005852192183845
66 -0.9999999999999848 -1.748455531469491e-007 0 17 38 0 128 123 81 30 35 36 0 2
9 -80 1 39 0 40 8001 0 0 0 0 3 5 0 0 FFFFTFTFFFFFFF2 79 15 40 SDL/TYSA_COLOUR83
 3 41 1 1 1 19 42 1 0 1 44 0 43 V13 43 2 0 1 0 0 0 0 42 5 19 44 3 0 1 0 42 45 S1
3 45 4 0 1 0 5 0 0 44 0 14 46 30 48 1e-008 61 5 50 45 47 -0 0 61 5 43 51 47 31 0
 46 62 6 0 +-0.004757611936071717 -0.003296496845834779 0.005752191855605681 7.6
42741863815873e-015 -4.371138828673789e-008 0.9999999999999991 0.000534614358799
99 0.9999999999999848 1.748455531469491e-007 0 81 1 48 32 39 46 0 0 63 4 49 83 3
 49 0 0 0 15 50 33 0 13 46 0 17 51 0 50 57 13 52 56 54 0 60 -18 52 34 0 51 30 67
 53 ?1 29 53 35 0 52 68 31 -0.004222997577271735 -0.003296496752359836 0.0057521
91855605681 16 54 36 0 ?56 36 58 55 0 0 1 30 55 37 0 54 59 37 0 +-0.004222997577
271735 -0.003296496752359836 0.005752191855605681 7.642741863815873e-015 -4.3711
38828673789e-008 0.9999999999999991 17 56 0 50 13 57 9 51 54 0 0 +17 57 0 50 56
 51 52 60 58 0 0 -16 58 38 0 ?60 54 69 59 0 0 1 31 59 39 0 58 70 55 0 +-0.004757
611936071717 -0.003296496845834779 0.005752191855605681 7.642741863815873e-015 -
4.37113882867379e-008 0.9999999999999991 0.9999999999999848 1.748455531469491e-0
07 0 0.00053461435879999 17 60 0 173 60 60 52 57 58 0 57 +14 61 40 63 1e-008 82
 46 65 45 62 +0 0 82 46 43 50 62 41 0 61 83 47 0 +-0.005712378816569498 0.004212
758632897916 0.0005221921838456655 -0.9999999999999848 -1.748455531469491e-007 0
 1.748455531469489e-007 -0.9999999999999838 -4.371138828673856e-008 81 1 63 42 3
9 61 0 0 84 48 64 83 3 64 1 1 1 15 65 43 0 66 61 0 17 66 0 65 74 78 67 71 69 0 7
7 +18 67 44 0 92 52 72 68 ?1 29 68 45 0 67 73 53 -0.005712377343433338 -0.004212
598115095988 0.000522191815561625 16 69 46 0 ?66 58 75 70 0 0 1 30 70 47 0 69 76
 59 0 +-0.005712378816569498 0.004212758632897916 0.0005221921838456655 1.748455
531469489e-007 -0.9999999999999838 -4.371138828673856e-008 17 71 0 178 168 92 72
 66 69 0 0 -18 72 48 0 78 67 88 73 ?1 29 73 49 0 72 89 68 -0.005712378816569498
 0.004212758632897916 0.0005221921838456655 17 74 0 65 20 66 16 77 75 0 0 +16 75
 50 0 ?74 69 79 76 0 0 1 30 76 51 0 75 80 70 0 +-0.005712377343433338 -0.0042125
98115095988 0.000522191815561625 7.642741863815873e-015 -4.371138828673789e-008
 0.9999999999999991 17 77 0 86 87 28 67 74 75 0 0 -17 78 0 65 66 20 72 81 79 0 1
65 -16 79 52 0 ?81 75 90 80 0 0 1 30 80 53 0 79 91 76 0 +-0.005712378816569498 0
.004212758632897916 0.0005221921838456655 7.642741863815873e-015 -4.371138828673
789e-008 0.9999999999999991 17 81 0 128 38 165 21 78 79 0 20 +14 82 54 84 1e-008
 109 61 86 45 83 +0 0 109 61 43 50 83 55 0 82 110 62 0 +-0.005712377343433338 -0
.004212598115095988 0.000522191815561625 1.748455531469489e-007 -0.9999999999999
838 -4.371138828673856e-008 0.9999999999999848 1.748455531469491e-007 0 81 1 84
 56 39 82 0 0 111 63 85 83 3 85 1 1 1 15 86 57 0 87 82 0 17 87 0 86 93 77 88 92
 90 0 98 +18 88 58 0 215 72 94 89 ?1 29 89 59 0 88 95 73 -0.0001680654117648724
 -0.004212597145697702 0.000522191815561625 16 90 60 0 ?87 79 96 91 0 0 1 30 91
 61 0 90 97 80 0 +-0.005712377343433338 -0.004212598115095988 0.0005221918155616
25 0.9999999999999848 1.748455531469491e-007 0 17 92 0 178 71 215 67 87 90 0 66
 -17 93 0 86 99 87 94 98 96 0 104 +18 94 62 0 224 88 100 95 ?1 29 95 63 0 94 101
 89 0.0001683107248980235 -0.004212597086883829 0.000522191815561625 16 96 64 0
 ?93 90 102 97 0 0 1 30 97 65 0 96 103 91 0 +-0.0001680654117648694 -0.004212597
145697702 0.000522191815561625 0.9999999999999848 1.748455531469491e-007 0 17 98
 0 223 224 224 88 93 96 0 0 -17 99 0 86 105 93 100 104 102 0 108 +18 100 66 0 99
 94 115 101 ?1 29 101 67 0 100 116 95 0.005712622656566489 -0.004212596117485544
 0.000522191815561625 16 102 68 0 ?99 96 106 103 0 0 1 30 103 69 0 102 107 97 0
 +0.0001683107248980385 -0.004212597086883829 0.000522191815561625 0.99999999999
99848 1.748455531469491e-007 0 17 104 0 232 233 119 94 99 102 0 0 -17 105 0 86 2
8 99 24 108 106 0 0 +16 106 70 0 ?105 102 117 107 0 0 1 30 107 71 0 106 118 103
 0 +0.005712622656566489 -0.004212596117485544 0.000522191815561625 7.6427418638
15873e-015 -4.371138828673789e-008 0.9999999999999991 17 108 0 113 114 34 100 10
5 106 0 119 -14 109 72 111 1e-008 124 82 113 45 110 +0 0 124 82 43 50 110 73 0 1
09 125 83 0 +0.005712622656566489 -0.004212596117485544 0.000522191815561625 0.9
999999999999848 1.748455531469491e-007 0 -1.748455531469489e-007 0.9999999999999
838 4.371138828673856e-008 81 1 111 74 39 109 0 0 126 84 112 83 3 112 1 1 1 15 1
13 75 0 114 109 0 17 114 0 113 120 108 115 119 117 0 134 +18 115 76 0 114 100 13
0 116 ?1 29 116 77 0 115 131 101 0.005712621183430328 0.00421276063050836 0.0005
221921838456655 16 117 78 0 ?114 106 121 118 0 0 1 30 118 79 0 117 122 107 0 +0.
005712622656566489 -0.004212596117485544 0.000522191815561625 -1.748455531469489
e-007 0.9999999999999838 4.371138828673856e-008 17 119 0 232 104 134 100 114 117
 0 0 -17 120 0 113 34 114 30 123 121 0 0 +16 121 80 0 ?120 117 132 122 0 0 1 30
 122 81 0 121 133 118 0 +0.005712621183430328 0.00421276063050836 0.000522192183
8456655 7.642741863815873e-015 -4.371138828673789e-008 0.9999999999999991 17 123
 0 128 129 38 115 120 121 0 0 -14 124 82 126 1e-008 169 109 128 45 125 +0 0 169
 109 43 50 125 83 0 124 170 110 0 +0.005712621183430328 0.00421276063050836 0.00
05221921838456655 -1.748455531469489e-007 0.9999999999999838 4.371138828673856e-
008 -0.9999999999999848 -1.748455531469491e-007 0 81 1 126 84 39 124 0 0 171 111
 127 83 3 127 1 1 1 15 128 85 0 129 124 0 17 129 0 128 135 123 130 134 132 0 269
 +18 130 86 0 129 115 136 131 ?1 29 131 87 0 130 137 116 0.004618309251761785 0.
004212760439172785 0.0005221921838456655 16 132 88 0 ?129 121 138 133 0 0 1 30 1
33 89 0 132 139 122 0 +0.005712621183430328 0.00421276063050836 0.00052219218384
56655 -0.9999999999999848 -1.748455531469491e-007 0 17 134 0 232 119 269 115 129
 132 0 123 -17 135 0 128 141 129 136 140 138 0 278 +18 136 90 0 292 130 142 137
 ?1 29 137 91 0 136 143 131 0.00428193311509891 0.004212760380358915 0.000522192
1838456655 16 138 92 0 ?135 132 144 139 0 0 1 30 139 93 0 138 145 133 0 +0.00461
8309251761785 0.004212760439172785 0.0005221921838456655 -0.9999999999999848 -1.
748455531469491e-007 0 17 140 0 277 278 278 130 135 138 0 281 -17 141 0 128 147
 135 142 146 144 0 0 +18 142 94 0 152 136 148 143 ?1 29 143 95 0 142 149 137 0.0
001733092517618614 0.004212759661984302 0.0005221921838456655 16 144 96 0 ?141 1
38 150 145 0 0 1 30 145 97 0 144 151 139 0 +0.00428193311509891 0.00421276038035
8915 0.0005221921838456655 -0.9999999999999848 -1.748455531469491e-007 0 17 146
 0 286 287 299 136 141 144 0 0 -17 147 0 128 153 141 148 152 150 0 158 +18 148 9
8 0 147 142 154 149 ?1 29 149 99 0 148 155 143 -0.0001630668849010215 0.00421275
960317043 0.0005221921838456655 16 150 100 0 ?147 144 156 151 0 0 1 30 151 101 0
 150 157 145 0 +0.0001733092517618624 0.004212759661984302 0.0005221921838456655
 -0.9999999999999848 -1.748455531469491e-007 0 17 152 0 307 308 308 142 147 150
 0 299 -17 153 0 128 159 147 154 158 156 0 164 +18 154 102 0 153 148 160 155 ?1
 29 155 103 0 154 161 149 -0.004271690748238061 0.004212758884795818 0.000522192
1838456655 16 156 104 0 ?153 150 162 157 0 0 1 30 157 105 0 156 163 151 0 +-0.00
01630668849010215 0.00421275960317043 0.0005221921838456655 -0.9999999999999848
 -1.748455531469491e-007 0 17 158 0 316 317 329 148 153 156 0 308 -17 159 0 128
 165 153 160 164 162 0 168 +18 160 106 0 159 154 180 161 ?1 29 161 107 0 160 181
 155 -0.004608066884900985 0.004212758825981947 0.0005221921838456655 16 162 108
 0 ?159 156 166 163 0 0 1 30 163 109 0 162 167 157 0 +-0.004271690748238061 0.00
4212758884795818 0.0005221921838456655 -0.9999999999999848 -1.748455531469491e-0
07 0 17 164 0 337 338 338 154 159 162 0 329 -17 165 0 128 81 159 72 168 166 0 71
 +16 166 110 0 ?165 162 182 167 0 0 1 30 167 111 0 166 183 163 0 +-0.00460806688
4901015 0.004212758825981947 0.0005221921838456655 -0.9999999999999848 -1.748455
531469491e-007 0 17 168 0 178 179 71 160 165 166 0 184 -14 169 112 171 1e-008 17
4 124 173 45 170 +0 0 174 124 43 50 170 113 0 169 175 125 0 +1.219199985355179e-
007 8.102909562566652e-008 0.00575219199970364 7.642741863815873e-015 -4.3711388
28673789e-008 0.9999999999999991 0.9999999999999848 1.748455531469491e-007 0 81
 1 171 114 39 169 0 0 176 126 172 83 3 172 0 0 0 15 173 115 0 60 169 0 14 174 11
6 176 1e-008 219 169 178 45 175 +0 0 219 169 43 50 175 117 0 174 220 170 0 +1.21
9199984955464e-007 8.125770618640616e-008 0.0005221919997036453 7.64274186381587
3e-015 -4.371138828673789e-008 0.9999999999999991 0.9999999999999848 1.748455531
469491e-007 0 81 1 176 118 39 174 0 0 221 171 177 83 3 177 0 0.5764706134796143
 0 15 178 119 0 71 174 0 17 179 0 178 185 168 180 184 182 0 359 +18 180 120 0 19
0 160 186 181 ?1 29 181 121 0 180 187 161 -0.005074878923631211 0.00482508037036
4926 0.0005221922106110938 16 182 122 0 ?179 166 188 183 0 0 1 31 183 123 0 182
 189 167 0 +-0.004439878923631231 0.004825080481391852 0.0005221922106110938 -7.
642741860658822e-015 4.37113882867379e-008 -0.9999999999999991 -0.26486293113347
35 -0.9642860715116564 -4.215028086706014e-008 0.000635 17 184 0 346 341 359 160
 179 182 0 338 -17 185 0 178 191 179 186 190 188 0 196 +18 186 124 0 185 180 192
 187 ?1 29 187 125 0 186 193 181 -0.006349878923631201 0.004825080147436846 0.00
05221922106110938 16 188 126 0 ?185 182 194 189 0 0 1 30 189 127 0 188 195 183 0
 +-0.005074878923631211 0.004825080370364926 0.0005221922106110938 -0.9999999999
999848 -1.748455524503385e-007 3.044981315405007e-023 17 190 0 367 362 374 180 1
85 188 0 179 -17 191 0 178 197 185 192 196 194 0 202 +18 192 128 0 191 186 198 1
93 ?1 29 193 129 0 192 199 187 -0.00634987820414175 0.0007100801474369134 0.0005
22192030738731 16 194 130 0 ?191 188 200 195 0 0 1 30 195 131 0 194 201 189 0 +-
0.006349878923631201 0.004825080147436846 0.0005221922106110938 1.74845553146948
9e-007 -0.9999999999999838 -4.371138828673856e-008 17 196 0 382 377 389 186 191
 194 0 374 -17 197 0 178 203 191 198 202 200 0 208 +18 198 132 0 197 192 204 199
 ?1 29 199 133 0 198 205 193 -0.006349877982087897 -0.0005599198525630649 0.0005
221919752252678 16 200 134 0 ?197 194 206 201 0 0 1 31 201 135 0 200 207 195 0 +
-0.006349878093114824 7.508014743692379e-005 0.0005221920029819994 -7.6427418638
15873e-015 4.37113882867379e-008 -0.9999999999999991 -1.748455531469489e-007 0.9
999999999999838 4.371138828673856e-008 0.000635 17 202 0 397 392 404 192 197 200
 0 389 -17 203 0 178 209 197 204 208 206 0 214 +18 204 136 0 203 198 210 205 ?1
 29 205 137 0 204 211 199 -0.006349877236371614 -0.004824919852562998 0.00052219
17887961967 16 206 138 0 ?203 200 212 207 0 0 1 30 207 139 0 206 213 201 0 +-0.0
06349877982087897 -0.0005599198525630649 0.0005221919752252678 1.748455531469489
e-007 -0.9999999999999838 -4.371138828673856e-008 17 208 0 412 407 419 198 203 2
06 0 404 -17 209 0 178 215 203 210 214 212 0 0 +18 210 140 0 218 204 234 211 ?1
 29 211 141 0 210 235 205 -0.0006348772363717019 -0.004824918853320662 0.0005221
917887961967 16 212 142 0 ?209 206 216 213 0 0 1 30 213 143 0 212 217 207 0 +-0.
006349877236371614 -0.004824919852562998 0.0005221917887961967 0.999999999999984
8 1.748455531469491e-007 0 17 214 0 427 422 434 204 209 212 0 419 -17 215 0 178
 92 209 88 218 216 0 227 +16 216 144 0 ?215 212 225 217 0 0 1 31 217 145 0 216 2
26 213 0 +1.227636282885922e-007 -0.004824918742293735 0.0005221917887961967 -7.
642741863815873e-015 4.37113882867379e-008 -0.9999999999999991 -0.99999999999998
48 -1.748455531469491e-007 0 0.000635 17 218 0 442 437 227 210 215 216 0 434 -14
 219 146 221 1e-008 228 174 223 45 220 -0 0 228 174 43 50 220 147 0 219 229 175
 0 +1.219199984955464e-007 8.125770618640616e-008 0.0005221919997036453 7.642741
863815873e-015 -4.371138828673789e-008 0.9999999999999991 0.9999999999999848 1.7
48455531469491e-007 0 81 1 221 148 39 219 0 0 230 176 222 83 3 222 1 1 1 15 223
 149 0 224 219 0 17 224 0 223 98 98 94 227 225 0 238 +16 225 150 0 ?224 216 236
 226 0 0 1 31 226 151 0 225 237 217 0 +1.227636282885922e-007 -0.004824918742293
735 0.0005221917887961967 -7.642741863967543e-015 4.371138828673789e-008 -0.9999
999999999991 -0.2648632683356776 0.9642859788913978 4.215028086706065e-008 0.000
635 17 227 0 442 218 238 88 224 225 0 87 -14 228 152 230 1e-008 273 219 232 45 2
29 +0 0 273 219 43 50 229 153 0 228 274 220 0 +1.219199984955464e-007 8.12577061
8640616e-008 0.0005221919997036453 7.642741863815873e-015 -4.371138828673789e-00
8 0.9999999999999991 0.9999999999999848 1.748455531469491e-007 0 81 1 230 154 39
 228 0 0 275 221 231 83 3 231 0 0.5764706134796143 0 15 232 155 0 104 228 0 17 2
33 0 232 239 104 234 238 236 0 244 +18 234 156 0 233 210 240 235 ?1 29 235 157 0
 234 241 211 0.0006351227636282788 -0.00482491863126681 0.0005221917887961967 16
 236 158 0 ?233 225 242 237 0 0 1 31 237 159 0 236 243 226 0 +1.227636282885922e
-007 -0.004824918742293735 0.0005221917887961967 -7.642741860658822e-015 4.37113
882867379e-008 -0.9999999999999991 0.2648629311334335 0.9642860715116673 4.21502
8086706062e-008 0.000635 17 238 0 442 227 449 94 233 236 0 93 -17 239 0 232 245
 233 240 244 242 0 250 +18 240 160 0 239 234 246 241 ?1 29 241 161 0 240 247 235
 0.006350122763628192 -0.004824917632024473 0.0005221917887961967 16 242 162 0 ?
239 236 248 243 0 0 1 30 243 163 0 242 249 237 0 +0.0006351227636282788 -0.00482
491863126681 0.0005221917887961967 0.9999999999999848 1.748455531469491e-007 0 1
7 244 0 457 452 464 234 239 242 0 449 -17 245 0 232 251 239 246 250 248 0 256 +1
8 246 164 0 245 240 252 247 ?1 29 247 165 0 246 253 241 0.006350122017911909 -0.
000559917632024542 0.0005221919752252678 16 248 166 0 ?245 242 254 249 0 0 1 30
 249 167 0 248 255 243 0 +0.006350122763628192 -0.004824917632024473 0.000522191
7887961967 -1.748455531469489e-007 0.9999999999999838 4.371138828673856e-008 17
 250 0 472 467 479 240 245 248 0 464 -17 251 0 232 257 245 252 256 254 0 262 +18
 252 168 0 251 246 258 253 ?1 29 253 169 0 252 259 247 0.006350121795858056 0.00
07100823679754374 0.000522192030738731 16 254 170 0 ?251 248 260 255 0 0 1 31 25
5 171 0 254 261 249 0 +0.006350121906884982 7.508236797544788e-005 0.00052219200
29819994 -7.642741863815873e-015 4.37113882867379e-008 -0.9999999999999991 1.748
455531469489e-007 -0.9999999999999838 -4.371138828673856e-008 0.000635 17 256 0
 487 482 494 246 251 254 0 479 -17 257 0 232 263 251 258 262 260 0 509 +18 258 1
72 0 257 252 264 259 ?1 29 259 173 0 258 265 253 0.006350121076368604 0.00482508
2367975371 0.0005221922106110938 16 260 174 0 ?257 254 266 261 0 0 1 30 261 175
 0 260 267 255 0 +0.006350121795858056 0.0007100823679754374 0.00052219203073873
1 -1.748455531469489e-007 0.9999999999999838 4.371138828673856e-008 17 262 0 502
 497 509 252 257 260 0 494 -17 263 0 232 269 257 264 268 266 0 272 +18 264 176 0
 263 258 288 265 ?1 29 265 177 0 264 289 259 0.005085121076368625 0.004825082146
795746 0.0005221922106110938 16 266 178 0 ?263 260 270 267 0 0 1 30 267 179 0 26
6 271 261 0 +0.006350121076368604 0.004825082367975371 0.0005221922106110938 -0.
9999999999999848 -1.748455531469491e-007 0 17 268 0 517 512 524 258 263 266 0 0
 -17 269 0 232 134 263 130 272 270 0 140 +16 270 180 0 ?269 266 279 271 0 0 1 31
 271 181 0 270 280 267 0 +0.004450121076368634 0.00482508203576882 0.00052219221
06110938 -7.642741863815873e-015 4.37113882867379e-008 -0.9999999999999991 0.999
9999999999848 1.748455531469491e-007 0 0.000635 17 272 0 532 527 281 264 269 270
 0 524 -14 273 182 275 1e-008 282 228 277 45 274 -0 0 282 228 43 50 274 183 0 27
3 283 229 0 +1.219199984955464e-007 8.125770618640616e-008 0.0005221919997036453
 7.642741863815873e-015 -4.371138828673789e-008 0.9999999999999991 0.99999999999
99848 1.748455531469491e-007 0 81 1 275 184 39 273 0 0 284 230 276 83 3 276 1 1
 1 15 277 185 0 278 273 0 17 278 0 277 140 140 136 281 279 0 146 +16 279 186 0 ?
278 270 290 280 0 0 1 31 280 187 0 279 291 271 0 +0.004450121076368634 0.0048250
8203576882 0.0005221922106110938 -7.642741863967544e-015 4.37113882867379e-008 -
0.9999999999999991 0.2648632683356715 -0.9642859788913994 -4.215028086706072e-00
8 0.000635 17 281 0 532 272 292 130 278 279 0 0 -14 282 188 284 1e-008 303 273 2
86 45 283 +0 0 303 273 43 50 283 189 0 282 304 274 0 +1.219199984955464e-007 8.1
25770618640616e-008 0.0005221919997036453 7.642741863815873e-015 -4.371138828673
789e-008 0.9999999999999991 0.9999999999999848 1.748455531469491e-007 0 81 1 284
 190 39 282 0 0 305 275 285 83 3 285 0 0.5764706134796143 0 15 286 191 0 146 282
 0 17 287 0 286 293 146 288 292 290 0 298 +18 288 192 0 287 264 294 289 ?1 29 28
9 193 0 288 295 265 0.003815121076368644 0.004825081924741894 0.0005221922106110
938 16 290 194 0 ?287 279 296 291 0 0 1 31 291 195 0 290 297 280 0 +0.0044501210
76368634 0.00482508203576882 0.0005221922106110938 -7.642741860658818e-015 4.371
138828673788e-008 -0.999999999999999 -0.2648629311334265 -0.9642860715116693 -4.
21502808670607e-008 0.000635 17 292 0 532 281 539 136 287 290 0 135 -17 293 0 28
6 299 287 294 298 296 0 302 +18 294 196 0 293 288 318 295 ?1 29 295 197 0 294 31
9 289 0.0006401210763686969 0.004825081369607263 0.0005221922106110938 16 296 19
8 0 ?293 290 300 297 0 0 1 30 297 199 0 296 301 291 0 +0.003815121076368644 0.00
4825081924741894 0.0005221922106110938 -0.9999999999999848 -1.748455528672078e-0
07 1.222787772328003e-023 17 298 0 547 542 554 288 293 296 0 539 -17 299 0 286 1
46 293 142 302 300 0 311 +16 300 200 0 ?299 296 309 301 0 0 1 31 301 201 0 300 3
10 297 0 +5.121076368706756e-006 0.004825081258580336 0.0005221922106110938 -7.6
42741863815873e-015 4.37113882867379e-008 -0.9999999999999991 0.9999999999999848
 1.748455531469491e-007 0 0.000635 17 302 0 562 557 311 294 299 300 0 554 -14 30
3 202 305 1e-008 312 282 307 45 304 -0 0 312 282 43 50 304 203 0 303 313 283 0 +
1.219199984955464e-007 8.125770618640616e-008 0.0005221919997036453 7.6427418638
15873e-015 -4.371138828673789e-008 0.9999999999999991 0.9999999999999848 1.74845
5531469491e-007 0 81 1 305 204 39 303 0 0 314 284 306 83 3 306 1 1 1 15 307 205
 0 308 303 0 17 308 0 307 152 152 148 311 309 0 322 +16 309 206 0 ?308 300 320 3
10 0 0 1 31 310 207 0 309 321 301 0 +5.121076368706756e-006 0.004825081258580336
 0.0005221922106110938 -7.642741863967543e-015 4.371138828673789e-008 -0.9999999
999999991 0.2648632683356724 -0.9642859788913992 -4.215028086706072e-008 0.00063
5 17 311 0 562 302 322 142 308 309 0 141 -14 312 208 314 1e-008 333 303 316 45 3
13 +0 0 333 303 43 50 313 209 0 312 334 304 0 +1.219199984955464e-007 8.12577061
8640616e-008 0.0005221919997036453 7.642741863815873e-015 -4.371138828673789e-00
8 0.9999999999999991 0.9999999999999848 1.748455531469491e-007 0 81 1 314 210 39
 312 0 0 335 305 315 83 3 315 0 0.5764706134796143 0 15 316 211 0 158 312 0 17 3
17 0 316 323 158 318 322 320 0 328 +18 318 212 0 317 294 324 319 ?1 29 319 213 0
 318 325 295 -0.0006298789236312848 0.004825081147553411 0.0005221922106110938 1
6 320 214 0 ?317 309 326 321 0 0 1 31 321 215 0 320 327 310 0 +5.121076368706756
e-006 0.004825081258580336 0.0005221922106110938 -7.64274185900446e-015 4.371138
82867379e-008 -0.9999999999999991 -0.2648629311334346 -0.964286071511667 -4.2150
28086706061e-008 0.000635 17 322 0 562 311 569 148 317 320 0 0 -17 323 0 316 329
 317 324 328 326 0 332 +18 324 216 0 323 318 348 325 ?1 29 325 217 0 324 349 319
 -0.003804878923631241 0.004825080592418779 0.0005221922106110938 16 326 218 0 ?
323 320 330 327 0 0 1 30 327 219 0 326 331 321 0 +-0.0006298789236312848 0.00482
5081147553411 0.0005221922106110938 -0.9999999999999848 -1.748455528672078e-007
 1.222787772328003e-023 17 328 0 577 572 352 318 323 326 0 569 -17 329 0 316 158
 323 154 332 330 0 341 +16 330 220 0 ?329 326 339 331 0 0 1 31 331 221 0 330 340
 327 0 +-0.004439878923631231 0.004825080481391852 0.0005221922106110938 -7.6427
41863815873e-015 4.37113882867379e-008 -0.9999999999999991 0.9999999999999848 1.
748455531469491e-007 0 0.000635 17 332 0 346 347 341 324 329 330 0 352 -14 333 2
22 335 1e-008 342 312 337 45 334 -0 0 342 312 43 50 334 223 0 333 343 313 0 +1.2
19199984955464e-007 8.125770618640616e-008 0.0005221919997036453 7.6427418638158
73e-015 -4.371138828673789e-008 0.9999999999999991 0.9999999999999848 1.74845553
1469491e-007 0 81 1 335 224 39 333 0 0 344 314 336 83 3 336 1 1 1 15 337 225 0 3
38 333 0 17 338 0 337 164 164 160 341 339 0 0 +16 339 226 0 ?338 330 350 340 0 0
 1 31 340 227 0 339 351 331 0 +-0.004439878923631231 0.004825080481391852 0.0005
221922106110938 -7.642741863967543e-015 4.37113882867379e-008 -0.999999999999999
1 0.2648632683356675 -0.9642859788914006 -4.215028086706078e-008 0.000635 17 341
 0 346 332 184 154 338 339 0 0 -14 342 228 344 1e-008 363 333 346 45 343 -0 0 36
3 333 43 51 343 229 0 342 364 334 0 +-0.004439878923631235 0.004825080503684661
 1.219221061109419e-005 -7.642741863815873e-015 4.371138828673789e-008 -0.999999
9999999991 0.000635 0.9999999999999848 1.748455531469491e-007 0 81 1 344 230 39
 342 0 0 365 335 345 83 3 345 0 0.5764706134796143 0 15 346 231 0 341 342 0 17 3
47 0 346 353 332 348 352 350 0 358 -18 348 232 0 347 324 354 349 ?1 29 349 233 0
 348 355 325 -0.003804878923631245 0.004825080614711586 1.219221061109419e-005 1
6 350 234 0 ?352 339 356 351 0 0 1 30 351 235 0 350 357 340 0 +-0.00380487892363
1235 0.004825080614711586 1.219221061109419e-005 7.642741863815873e-015 -4.37113
8828673789e-008 0.9999999999999991 17 352 0 577 328 578 324 347 350 0 0 +17 353
 0 346 359 347 354 358 356 0 0 +18 354 236 0 362 348 369 355 ?1 29 355 237 0 354
 370 349 -0.005074878923631216 0.004825080392657734 1.219221061109419e-005 16 35
6 238 0 ?353 350 360 357 0 0 1 31 357 239 0 356 361 351 0 +-0.004439878923631235
 0.004825080503684661 1.219221061109419e-005 -7.642741863815873e-015 4.371138828
67379e-008 -0.9999999999999991 0.9999999999999848 1.748455531469491e-007 0 0.000
635 17 358 0 586 581 373 348 353 356 0 578 -17 359 0 346 184 353 180 362 360 0 0
 +16 360 240 0 ?359 356 371 361 0 0 1 30 361 241 0 360 372 357 0 +-0.00507487892
3631216 0.004825080392657734 1.219221061109419e-005 7.642741863815873e-015 -4.37
1138828673789e-008 0.9999999999999991 17 362 0 367 368 190 354 359 360 0 373 -14
 363 242 365 1e-008 378 342 367 45 364 +0 0 378 342 43 50 364 243 0 363 379 343
 0 +-0.005074878923631216 0.004825080392657734 1.219221061109419e-005 -1.7484555
24503384e-007 0.9999999999999838 4.371138828673856e-008 -0.9999999999999848 -1.7
48455524503385e-007 3.044981315405007e-023 81 1 365 244 39 363 0 0 380 344 366 8
3 3 366 0 0.5764706134796143 0 15 367 245 0 368 363 0 17 368 0 367 374 362 369 3
73 371 0 377 +18 369 246 0 368 354 384 370 ?1 29 370 247 0 369 385 355 -0.006349
878923631205 0.004825080169729654 1.219221061109419e-005 16 371 248 0 ?368 360 3
75 372 0 0 1 30 372 249 0 371 376 361 0 +-0.005074878923631216 0.004825080392657
734 1.219221061109419e-005 -0.9999999999999848 -1.748455524503385e-007 3.0449813
15405007e-023 17 373 0 586 358 388 354 368 371 0 353 -17 374 0 367 190 368 186 3
77 375 0 0 +16 375 250 0 ?374 371 386 376 0 0 1 30 376 251 0 375 387 372 0 +-0.0
06349878923631205 0.004825080169729654 1.219221061109419e-005 7.642741863815873e
-015 -4.371138828673789e-008 0.9999999999999991 17 377 0 382 383 196 369 374 375
 0 388 -14 378 252 380 1e-008 393 363 382 45 379 +0 0 393 363 43 50 379 253 0 37
8 394 364 0 +-0.006349878923631205 0.004825080169729655 1.219221061109419e-005 -
0.9999999999999848 -1.748455531469491e-007 0 1.748455531469489e-007 -0.999999999
9999838 -4.371138828673856e-008 81 1 380 254 39 378 0 0 395 365 381 83 3 381 0 0
.5764706134796143 0 15 382 255 0 383 378 0 17 383 0 382 389 377 384 388 386 0 40
3 +18 384 256 0 383 369 399 385 ?1 29 385 257 0 384 400 370 -0.00634987820414175
4 0.0007100801697297214 1.219203073873139e-005 16 386 258 0 ?383 375 390 387 0 0
 1 30 387 259 0 386 391 376 0 +-0.006349878923631205 0.004825080169729654 1.2192
21061109419e-005 1.748455531469489e-007 -0.9999999999999838 -4.371138828673856e-
008 17 388 0 586 373 403 369 383 386 0 0 -17 389 0 382 196 383 192 392 390 0 0 +
16 390 260 0 ?389 386 401 391 0 0 1 30 391 261 0 390 402 387 0 +-0.0063498782041
41754 0.0007100801697297223 1.219203073873139e-005 7.642741863815873e-015 -4.371
138828673789e-008 0.9999999999999991 17 392 0 397 398 202 384 389 390 0 0 -14 39
3 262 395 1e-008 408 378 397 45 394 -0 0 408 378 43 51 394 263 0 393 409 379 0 +
-0.006349878093114827 7.508016972973182e-005 1.219200298199983e-005 -7.642741863
815873e-015 4.371138828673789e-008 -0.9999999999999991 0.000635 -1.7484555314694
89e-007 0.9999999999999838 4.371138828673856e-008 81 1 395 264 39 393 0 0 410 38
0 396 83 3 396 0 0.5764706134796143 0 15 397 265 0 398 393 0 17 398 0 397 404 39
2 399 403 401 0 418 +18 399 266 0 407 384 414 400 ?1 29 400 267 0 399 415 385 -0
.006349877982087901 -0.000559919830270257 1.219197522526826e-005 16 401 268 0 ?3
98 390 405 402 0 0 1 31 402 269 0 401 406 391 0 +-0.006349878093114827 7.5080169
72973182e-005 1.219200298199983e-005 -7.642741863815873e-015 4.37113882867379e-0
08 -0.9999999999999991 -1.748455531469489e-007 0.9999999999999838 4.371138828673
856e-008 0.000635 17 403 0 586 388 418 384 398 401 0 392 -17 404 0 397 202 398 1
98 407 405 0 0 +16 405 270 0 ?404 401 416 406 0 0 1 30 406 271 0 405 417 402 0 +
-0.006349877982087901 -0.000559919830270257 1.219197522526826e-005 7.64274186381
5873e-015 -4.371138828673789e-008 0.9999999999999991 17 407 0 412 413 208 399 40
4 405 0 398 -14 408 272 410 1e-008 423 393 412 45 409 +0 0 423 393 43 50 409 273
 0 408 424 394 0 +-0.006349877982087901 -0.000559919830270257 1.219197522526826e
-005 -0.9999999999999848 -1.748455531469491e-007 0 1.748455531469489e-007 -0.999
9999999999838 -4.371138828673856e-008 81 1 410 274 39 408 0 0 425 395 411 83 3 4
11 0 0.5764706134796143 0 15 412 275 0 413 408 0 17 413 0 412 419 407 414 418 41
6 0 422 +18 414 276 0 413 399 429 415 ?1 29 415 277 0 414 430 400 -0.00634987723
6371618 -0.00482491983027019 1.219178879619722e-005 16 416 278 0 ?413 405 420 41
7 0 0 1 30 417 279 0 416 421 406 0 +-0.006349877982087901 -0.000559919830270257
 1.219197522526826e-005 1.748455531469489e-007 -0.9999999999999838 -4.3711388286
73856e-008 17 418 0 586 403 433 399 413 416 0 0 -17 419 0 412 208 413 204 422 42
0 0 0 +16 420 280 0 ?419 416 431 421 0 0 1 30 421 281 0 420 432 417 0 +-0.006349
877236371618 -0.00482491983027019 1.219178879619722e-005 7.642741863815873e-015
 -4.371138828673789e-008 0.9999999999999991 17 422 0 427 428 214 414 419 420 0 4
33 -14 423 282 425 1e-008 438 408 427 45 424 +0 0 438 408 43 50 424 283 0 423 43
9 409 0 +-0.006349877236371618 -0.00482491983027019 1.219178879619722e-005 1.748
455531469489e-007 -0.9999999999999838 -4.371138828673856e-008 0.9999999999999848
 1.748455531469491e-007 0 81 1 425 284 39 423 0 0 440 410 426 83 3 426 0 0.57647
06134796143 0 15 427 285 0 428 423 0 17 428 0 427 434 422 429 433 431 0 0 +18 42
9 286 0 437 414 444 430 ?1 29 430 287 0 429 445 415 -0.0006348772363717058 -0.00
4824918831027854 1.219178879619722e-005 16 431 288 0 ?428 420 435 432 0 0 1 30 4
32 289 0 431 436 421 0 +-0.006349877236371618 -0.00482491983027019 1.21917887961
9722e-005 0.9999999999999848 1.748455531469491e-007 0 17 433 0 586 418 448 414 4
28 431 0 0 -17 434 0 427 214 428 210 437 435 0 209 +16 435 290 0 ?434 431 446 43
6 0 0 1 30 436 291 0 435 447 432 0 +-0.0006348772363717028 -0.004824918831027854
 1.219178879619722e-005 7.642741863815873e-015 -4.371138828673789e-008 0.9999999
999999991 17 437 0 442 443 218 429 434 435 0 448 -14 438 292 440 1e-008 453 423
 442 45 439 -0 0 453 423 43 51 439 293 0 438 454 424 0 +1.227636282846944e-007 -
0.004824918720000928 1.219178879619722e-005 -7.642741863815873e-015 4.3711388286
73789e-008 -0.9999999999999991 0.000635 -0.9999999999999848 -1.748455531469491e-
007 0 81 1 440 294 39 438 0 0 455 425 441 83 3 441 0 0.5764706134796143 0 15 442
 295 0 227 438 0 17 443 0 442 449 437 444 448 446 0 463 +18 444 296 0 452 429 45
9 445 ?1 29 445 297 0 444 460 430 0.0006351227636282749 -0.004824918608974002 1.
219178879619722e-005 16 446 298 0 ?443 435 450 447 0 0 1 31 447 299 0 446 451 43
6 0 +1.227636282846944e-007 -0.004824918720000928 1.219178879619722e-005 -7.6427
41863815873e-015 4.37113882867379e-008 -0.9999999999999991 -0.9999999999999848 -
1.748455531469491e-007 0 0.000635 17 448 0 586 433 463 429 443 446 0 428 -17 449
 0 442 238 443 234 452 450 0 0 +16 450 300 0 ?449 446 461 451 0 0 1 30 451 301 0
 450 462 447 0 +0.0006351227636282749 -0.004824918608974002 1.219178879619722e-0
05 7.642741863815873e-015 -4.371138828673789e-008 0.9999999999999991 17 452 0 45
7 458 244 444 449 450 0 443 -14 453 302 455 1e-008 468 438 457 45 454 +0 0 468 4
38 43 50 454 303 0 453 469 439 0 +0.0006351227636282749 -0.004824918608974002 1.
219178879619722e-005 1.748455531469489e-007 -0.9999999999999838 -4.3711388286738
56e-008 0.9999999999999848 1.748455531469491e-007 0 81 1 455 304 39 453 0 0 470
 440 456 83 3 456 0 0.5764706134796143 0 15 457 305 0 458 453 0 17 458 0 457 464
 452 459 463 461 0 467 +18 459 306 0 478 444 474 460 ?1 29 460 307 0 459 475 445
 0.006350122763628188 -0.004824917609731665 1.219178879619722e-005 16 461 308 0
 ?458 450 465 462 0 0 1 30 462 309 0 461 466 451 0 +0.0006351227636282749 -0.004
824918608974002 1.219178879619722e-005 0.9999999999999848 1.748455531469491e-007
 0 17 463 0 586 448 478 444 458 461 0 0 -17 464 0 457 244 458 240 467 465 0 0 +1
6 465 310 0 ?464 461 476 466 0 0 1 30 466 311 0 465 477 462 0 +0.006350122763628
188 -0.004824917609731665 1.219178879619722e-005 7.642741863815873e-015 -4.37113
8828673789e-008 0.9999999999999991 17 467 0 472 473 250 459 464 465 0 0 -14 468
 312 470 1e-008 483 453 472 45 469 +0 0 483 453 43 50 469 313 0 468 484 454 0 +0
.006350122763628188 -0.004824917609731665 1.219178879619722e-005 0.9999999999999
848 1.748455531469491e-007 0 -1.748455531469489e-007 0.9999999999999838 4.371138
828673856e-008 81 1 470 314 39 468 0 0 485 455 471 83 3 471 0 0.5764706134796143
 0 15 472 315 0 473 468 0 17 473 0 472 479 467 474 478 476 0 482 +18 474 316 0 4
73 459 489 475 ?1 29 475 317 0 474 490 460 0.006350122017911904 -0.0005599176097
31734 1.219197522526826e-005 16 476 318 0 ?473 465 480 477 0 0 1 30 477 319 0 47
6 481 466 0 +0.006350122763628188 -0.004824917609731665 1.219178879619722e-005 -
1.748455531469489e-007 0.9999999999999838 4.371138828673856e-008 17 478 0 586 46
3 493 459 473 476 0 458 -17 479 0 472 250 473 246 482 480 0 0 +16 480 320 0 ?479
 476 491 481 0 0 1 30 481 321 0 480 492 477 0 +0.006350122017911904 -0.000559917
609731732 1.219197522526826e-005 7.642741863815873e-015 -4.371138828673789e-008
 0.9999999999999991 17 482 0 487 488 256 474 479 480 0 493 -14 483 322 485 1e-00
8 498 468 487 45 484 -0 0 498 468 43 51 484 323 0 483 499 469 0 +0.0063501219068
84979 7.50823902682559e-005 1.219200298199983e-005 -7.642741863815873e-015 4.371
138828673789e-008 -0.9999999999999991 0.000635 1.748455531469489e-007 -0.9999999
999999838 -4.371138828673856e-008 81 1 485 324 39 483 0 0 500 470 486 83 3 486 0
 0.5764706134796143 0 15 487 325 0 488 483 0 17 488 0 487 494 482 489 493 491 0
 508 +18 489 326 0 497 474 504 490 ?1 29 490 327 0 489 505 475 0.006350121795858
052 0.0007100823902682454 1.219203073873139e-005 16 491 328 0 ?488 480 495 492 0
 0 1 31 492 329 0 491 496 481 0 +0.006350121906884979 7.50823902682559e-005 1.21
9200298199983e-005 -7.642741863815873e-015 4.37113882867379e-008 -0.999999999999
9991 1.748455531469489e-007 -0.9999999999999838 -4.371138828673856e-008 0.000635
 17 493 0 586 478 508 474 488 491 0 0 -17 494 0 487 256 488 252 497 495 0 0 +16
 495 330 0 ?494 491 506 496 0 0 1 30 496 331 0 495 507 492 0 +0.0063501217958580
52 0.0007100823902682454 1.219203073873139e-005 7.642741863815873e-015 -4.371138
828673789e-008 0.9999999999999991 17 497 0 502 503 262 489 494 495 0 488 -14 498
 332 500 1e-008 513 483 502 45 499 +0 0 513 483 43 50 499 333 0 498 514 484 0 +0
.006350121795858052 0.0007100823902682454 1.219203073873139e-005 0.9999999999999
848 1.748455531469491e-007 0 -1.748455531469489e-007 0.9999999999999838 4.371138
828673856e-008 81 1 500 334 39 498 0 0 515 485 501 83 3 501 0 0.5764706134796143
 0 15 502 335 0 503 498 0 17 503 0 502 509 497 504 508 506 0 0 +18 504 336 0 512
 489 519 505 ?1 29 505 337 0 504 520 490 0.006350121076368601 0.0048250823902681
79 1.219221061109419e-005 16 506 338 0 ?503 495 510 507 0 0 1 30 507 339 0 506 5
11 496 0 +0.006350121795858052 0.0007100823902682454 1.219203073873139e-005 -1.7
48455531469489e-007 0.9999999999999838 4.371138828673856e-008 17 508 0 586 493 5
23 489 503 506 0 0 -17 509 0 502 262 503 258 512 510 0 268 +16 510 340 0 ?509 50
6 521 511 0 0 1 30 511 341 0 510 522 507 0 +0.006350121076368601 0.0048250823902
68179 1.219221061109419e-005 7.642741863815873e-015 -4.371138828673789e-008 0.99
99999999999991 17 512 0 517 518 268 504 509 510 0 523 -14 513 342 515 1e-008 528
 498 517 45 514 +0 0 528 498 43 50 514 343 0 513 529 499 0 +0.006350121076368601
 0.004825082390268179 1.219221061109419e-005 -1.748455531469489e-007 0.999999999
9999838 4.371138828673856e-008 -0.9999999999999848 -1.748455531469491e-007 0 81
 1 515 344 39 513 0 0 530 500 516 83 3 516 0 0.5764706134796143 0 15 517 345 0 5
18 513 0 17 518 0 517 524 512 519 523 521 0 527 +18 519 346 0 518 504 534 520 ?1
 29 520 347 0 519 535 505 0.00508512107636862 0.004825082169088554 1.21922106110
9419e-005 16 521 348 0 ?518 510 525 522 0 0 1 30 522 349 0 521 526 511 0 +0.0063
50121076368601 0.004825082390268179 1.219221061109419e-005 -0.9999999999999848 -
1.748455531469491e-007 0 17 523 0 586 508 538 504 518 521 0 503 -17 524 0 517 26
8 518 264 527 525 0 0 +16 525 350 0 ?524 521 536 526 0 0 1 30 526 351 0 525 537
 522 0 +0.00508512107636862 0.004825082169088554 1.219221061109419e-005 7.642741
863815873e-015 -4.371138828673789e-008 0.9999999999999991 17 527 0 532 533 272 5
19 524 525 0 538 -14 528 352 530 1e-008 543 513 532 45 529 -0 0 543 513 43 51 52
9 353 0 528 544 514 0 +0.004450121076368631 0.004825082058061628 1.2192210611094
19e-005 -7.642741863815873e-015 4.371138828673789e-008 -0.9999999999999991 0.000
635 0.9999999999999848 1.748455531469491e-007 0 81 1 530 354 39 528 0 0 545 515
 531 83 3 531 0 0.5764706134796143 0 15 532 355 0 281 528 0 17 533 0 532 539 527
 534 538 536 0 0 +18 534 356 0 553 519 549 535 ?1 29 535 357 0 534 550 520 0.003
81512107636864 0.004825081947034702 1.219221061109419e-005 16 536 358 0 ?533 525
 540 537 0 0 1 31 537 359 0 536 541 526 0 +0.004450121076368631 0.00482508205806
1628 1.219221061109419e-005 -7.642741863815873e-015 4.37113882867379e-008 -0.999
9999999999991 0.9999999999999848 1.748455531469491e-007 0 0.000635 17 538 0 586
 523 553 519 533 536 0 0 -17 539 0 532 292 533 288 542 540 0 0 +16 540 360 0 ?53
9 536 551 541 0 0 1 30 541 361 0 540 552 537 0 +0.00381512107636864 0.0048250819
47034702 1.219221061109419e-005 7.642741863815873e-015 -4.371138828673789e-008 0
.9999999999999991 17 542 0 547 548 298 534 539 540 0 533 -14 543 362 545 1e-008
 558 528 547 45 544 +0 0 558 528 43 50 544 363 0 543 559 529 0 +0.00381512107636
864 0.004825081947034702 1.219221061109419e-005 -1.748455528672077e-007 0.999999
9999999838 4.371138828673856e-008 -0.9999999999999848 -1.748455528672078e-007 1.
222787772328003e-023 81 1 545 364 39 543 0 0 560 530 546 83 3 546 0 0.5764706134
796143 0 15 547 365 0 548 543 0 17 548 0 547 554 542 549 553 551 0 557 +18 549 3
66 0 548 534 564 550 ?1 29 550 367 0 549 565 535 0.000640121076368693 0.00482508
1391900071 1.219221061109419e-005 16 551 368 0 ?548 540 555 552 0 0 1 30 552 369
 0 551 556 541 0 +0.00381512107636864 0.004825081947034702 1.219221061109419e-00
5 -0.9999999999999848 -1.748455528672078e-007 1.222787772328003e-023 17 553 0 58
6 538 568 534 548 551 0 542 -17 554 0 547 298 548 294 557 555 0 0 +16 555 370 0
 ?554 551 566 556 0 0 1 30 556 371 0 555 567 552 0 +0.000640121076368692 0.00482
5081391900071 1.219221061109419e-005 7.642741863815873e-015 -4.371138828673789e-
008 0.9999999999999991 17 557 0 562 563 302 549 554 555 0 568 -14 558 372 560 1e
-008 573 543 562 45 559 -0 0 573 543 43 51 559 373 0 558 574 544 0 +5.1210763687
02858e-006 0.004825081280873144 1.219221061109419e-005 -7.642741863815873e-015 4
.371138828673789e-008 -0.9999999999999991 0.000635 0.9999999999999848 1.74845553
1469491e-007 0 81 1 560 374 39 558 0 0 575 545 561 83 3 561 0 0.5764706134796143
 0 15 562 375 0 311 558 0 17 563 0 562 569 557 564 568 566 0 581 +18 564 376 0 5
72 549 0 565 ?1 29 565 377 0 564 0 550 -0.0006298789236312887 0.0048250811698462
18 1.219221061109419e-005 16 566 378 0 ?563 555 570 567 0 0 1 31 567 379 0 566 5
71 556 0 +5.121076368702858e-006 0.004825081280873144 1.219221061109419e-005 -7.
642741863815873e-015 4.37113882867379e-008 -0.9999999999999991 0.999999999999984
8 1.748455531469491e-007 0 0.000635 17 568 0 586 553 581 549 563 566 0 0 -17 569
 0 562 322 563 318 572 570 0 0 +16 570 380 0 ?569 566 579 571 0 0 1 30 571 381 0
 570 580 567 0 +-0.0006298789236312887 0.004825081169846218 1.219221061109419e-0
05 7.642741863815873e-015 -4.371138828673789e-008 0.9999999999999991 17 572 0 57
7 578 328 564 569 570 0 563 -14 573 382 575 1e-008 582 558 577 45 574 +0 0 582 5
58 43 50 574 383 0 573 583 559 0 +-0.0006298789236312887 0.004825081169846218 1.
219221061109419e-005 -1.748455528672077e-007 0.9999999999999838 4.37113882867385
6e-008 -0.9999999999999848 -1.748455528672078e-007 1.222787772328003e-023 81 1 5
75 384 39 573 0 0 584 560 576 83 3 576 0 0.5764706134796143 0 15 577 385 0 578 5
73 0 17 578 0 577 352 572 348 581 579 0 0 +16 579 386 0 ?578 570 0 580 0 0 1 30
 580 387 0 579 0 571 0 +-0.0006298789236312887 0.004825081169846218 1.2192210611
09419e-005 -0.9999999999999848 -1.748455528672078e-007 1.222787772328003e-023 17
 581 0 586 568 358 564 578 579 0 0 -14 582 388 584 1e-008 0 573 586 45 583 -0 0
 0 573 43 50 583 389 0 582 0 574 0 +1.219199984916486e-007 8.127999899443239e-00
8 1.219199970364571e-005 7.642741863815873e-015 -4.371138828673789e-008 0.999999
9999999991 0.9999999999999848 1.748455531469491e-007 0 81 1 584 390 39 582 0 0 0
 575 585 83 3 585 0 0.5764706134796143 0 15 586 391 0 581 582 0 1 0 
