**ABCDEFGHIJKLMNOPQRSTUVWXYZabcdefghijklmnopqrstuvwxyz**************************
**PARASOLID !"#$%&'()*+,-./:;<=>?@[\]^_`{|}~0123456789**************************
**PART1;
MC=x86;
MC_MODEL=Intel64 Family 6 Model 60 Stepping 3, GenuineIntel;
MC_ID=unknown;
OS=Windows_NT;
OS_RELEASE=unknown;
FRU=CAD Exchanger 3.4.0 (cadexchanger.com);
APPL=unknown;
SITE=unknown;
USER=unknown;
FORMAT=text;
GUISE=transmit;
KEY=FIL_3216x9.4_LFCN;
FILE=FIL_3216x9.4_LFCN.x_t;
DATE=Wed Dec 26 20:27:55 2018;
**PART2;
SCH=SCH_1200000_12006;
USFLD_SIZE=0;
**PART3;
**END_OF_HEADER*****************************************************************
T51 : TRANSMIT FILE created by modeller version 120000017 SCH_1200000_120060 74
 5 1 5 0 2 189 374 565 666 12 2 124 0 3 0 0 0 0 1000 1e-008 0 0 0 1 0 1 1 39 7 1
3 11 36 12 10 70 3 0 2 0 0 4 1 20 0 4 4 1 T74 20 4 1 0 5 0 0 0 0 0 0 0 0 0 0 0 0
 0 0 0 0 0 0 0 81 1 5 7 33 6 0 0 42 0 35 14 6 5 5 1e-008 40 0 8 39 7 +0 0 40 0 3
7 50 7 6 0 6 41 0 0 +0.0006000908915196597 0.0005790917392596768 1.5239898860454
52e-005 -8.742277657347553e-008 -0.9999999999999962 0 -0.9999999999999962 8.7422
77657347553e-008 0 15 8 8 0 9 6 0 17 9 0 8 17 29 10 14 12 0 22 +18 10 9 0 9 0 15
 11 ?2 29 11 10 0 10 16 0 0.0006000908915196597 0.0005790917392596768 1.52398988
6045452e-005 16 12 11 0 ?9 0 20 13 0 0 2 30 13 12 0 12 21 0 0 +0.000600090891519
6597 0.0005790917392596768 1.523989886045452e-005 0.9999999999999962 -8.74227765
7347553e-008 0 17 14 0 128 141 137 15 9 12 0 29 -18 15 13 0 14 10 18 16 ?2 29 16
 14 0 15 19 11 -0.0005999091084803359 0.0005790918441670088 1.523989886045452e-0
05 17 17 0 8 23 9 18 22 20 0 28 +18 18 15 0 17 15 24 19 ?2 29 19 16 0 18 25 16 0
.0006000908915196597 0.0005790917392596768 6.523989886045456e-005 16 20 17 0 ?17
 12 26 21 0 0 2 30 21 18 0 20 27 13 0 +0.0006000908915196597 0.00057909173925967
68 0.001265239898860454 0 0 1 17 22 0 179 140 50 10 17 20 0 137 -17 23 0 8 29 17
 24 28 26 0 32 -18 24 19 0 23 18 46 25 ?2 29 25 20 0 24 47 19 -0.000599909108480
3359 0.0005790918441670088 6.523989886045456e-005 16 26 21 0 ?28 20 30 27 0 0 2
 30 27 22 0 26 31 21 0 +0.0006000908915196597 0.0005790917392596768 6.5239898860
45456e-005 0.9999999999999962 -8.742277657347553e-008 0 17 28 0 44 45 57 18 23 2
6 0 50 +17 29 0 8 9 23 15 32 30 0 144 -16 30 23 0 ?32 26 48 31 0 0 2 30 31 24 0
 30 49 27 0 +-0.0005999091084803359 0.0005790918441670088 0.001265239898860454 0
 0 1 17 32 0 149 60 144 24 29 30 0 57 +80 1 33 0 34 8001 0 0 0 0 3 5 0 0 FFFFTFT
FFFFFFF2 79 15 34 SDL/TYSA_COLOUR83 3 35 0.7529411911964417 0.7529411911964417 0
.7529411911964417 19 36 1 0 2 38 0 37 V13 37 2 0 2 0 0 0 0 36 6 19 38 3 0 2 0 36
 39 S13 39 4 0 2 0 6 0 0 38 0 14 40 25 42 1e-008 61 6 44 39 41 +0 0 61 6 37 50 4
1 26 0 40 62 7 0 +0.0006000908915196597 0.0005790917392596768 6.523989886045456e
-005 0 0 1 0.9999999999999962 -8.742277657347553e-008 0 81 1 42 27 33 40 0 0 63
 5 43 83 3 43 0.7529411911964417 0.7529411911964417 0.7529411911964417 15 44 28
 0 28 40 0 17 45 0 44 51 28 46 50 48 0 56 +18 46 29 0 45 24 52 47 ?2 29 47 30 0
 46 53 25 0.0006000909090042151 0.0007790917392596761 6.523989886045456e-005 16
 48 31 0 ?45 30 54 49 0 0 2 30 49 32 0 48 55 31 0 +0.0006000908915196597 0.00057
90917392596768 6.523989886045456e-005 8.742277657347553e-008 0.9999999999999962
 0 17 50 0 179 22 71 18 45 48 0 0 -17 51 0 44 57 45 52 56 54 0 60 -18 52 33 0 51
 46 67 53 ?2 29 53 34 0 52 68 47 -0.0005999090909957805 0.000779091844167008 6.5
23989886045456e-005 16 54 35 0 ?56 48 58 55 0 0 2 30 55 36 0 54 59 49 0 +0.00060
00909090042151 0.0007790917392596761 6.523989886045456e-005 0.9999999999999962 -
8.742277657347553e-008 0 17 56 0 65 66 78 46 51 54 0 71 +17 57 0 44 28 51 24 60
 58 0 0 -16 58 37 0 ?60 54 69 59 0 0 2 30 59 38 0 58 70 55 0 +-0.000599909108480
3359 0.0005790918441670088 6.523989886045456e-005 8.742277657347553e-008 0.99999
99999999962 0 17 60 0 149 81 32 52 57 58 0 78 +14 61 39 63 1e-008 82 40 65 39 62
 +0 0 82 40 37 50 62 40 0 61 83 41 0 +0.0006000909090042151 0.000779091739259676
1 6.523989886045456e-005 -8.742277657347553e-008 -0.9999999999999962 0 -0.999999
9999999962 8.742277657347553e-008 0 81 1 63 41 33 61 0 0 84 42 64 83 3 64 0.7529
411911964417 0.7529411911964417 0.7529411911964417 15 65 42 0 56 61 0 17 66 0 65
 72 56 67 71 69 0 77 +18 67 43 0 66 52 73 68 ?2 29 68 44 0 67 74 53 0.0006000909
090042151 0.0007790917392596761 0.001215239898860455 16 69 45 0 ?66 58 75 70 0 0
 2 30 70 46 0 69 76 59 0 +0.0006000909090042151 0.0007790917392596761 0.00126523
9898860454 0 0 1 17 71 0 179 50 92 46 66 69 0 0 -17 72 0 65 78 66 73 77 75 0 81
 -18 73 47 0 99 67 88 74 ?2 29 74 48 0 73 89 68 -0.0005999090909957805 0.0007790
91844167008 0.001215239898860455 16 75 49 0 ?77 69 79 76 0 0 2 30 76 50 0 75 80
 70 0 +0.0006000909090042151 0.0007790917392596761 0.001215239898860455 0.999999
9999999962 -8.742277657347553e-008 -0 17 77 0 86 87 99 67 72 75 0 92 +17 78 0 65
 56 72 52 81 79 0 0 -16 79 51 0 ?81 75 90 80 0 0 2 30 80 52 0 79 91 76 0 +-0.000
5999090909957805 0.000779091844167008 0.001265239898860454 0 0 1 17 81 0 149 102
 60 73 78 79 0 0 +14 82 53 84 1e-008 103 61 86 39 83 +0 0 103 61 37 50 83 54 0 8
2 104 62 0 +0.0006000909090042151 0.0007790917392596761 0.001215239898860455 0 0
 -1 -0.9999999999999962 8.742277657347553e-008 0 81 1 84 55 33 82 0 0 105 63 85
 83 3 85 0.7529411911964417 0.7529411911964417 0.7529411911964417 15 86 56 0 77
 82 0 17 87 0 86 93 77 88 92 90 0 98 +18 88 57 0 113 73 94 89 ?2 29 89 58 0 88 9
5 74 0.0006000908915196597 0.0005790917392596768 0.001215239898860455 16 90 59 0
 ?87 79 96 91 0 0 2 30 91 60 0 90 97 80 0 +0.0006000908915196597 0.0005790917392
596768 0.001215239898860455 -8.742277657347553e-008 -0.9999999999999962 0 17 92
 0 179 71 113 67 87 90 0 0 -17 93 0 86 99 87 94 98 96 0 0 -18 94 61 0 102 88 109
 95 ?2 29 95 62 0 94 110 89 -0.0005999091084803359 0.0005790918441670088 0.00121
5239898860455 16 96 63 0 ?98 90 100 97 0 0 2 30 97 64 0 96 101 91 0 +0.000600090
8915196597 0.0005790917392596768 0.001215239898860455 0.9999999999999962 -8.7422
77657347553e-008 0 17 98 0 107 108 120 88 93 96 0 0 +17 99 0 86 77 93 73 102 100
 0 72 -16 100 65 0 ?102 96 111 101 0 0 2 30 101 66 0 100 112 97 0 +-0.0005999091
084803359 0.0005790918441670088 0.001215239898860455 -8.742277657347553e-008 -0.
9999999999999962 0 17 102 0 149 123 81 94 99 100 0 120 +14 103 67 105 1e-008 124
 82 107 39 104 +0 0 124 82 37 50 104 68 0 103 125 83 0 +0.0006000908915196597 0.
0005790917392596768 0.001215239898860455 -8.742277657347553e-008 -0.999999999999
9962 0 -0.9999999999999962 8.742277657347553e-008 0 81 1 105 69 33 103 0 0 126 8
4 106 83 3 106 0.7529411911964417 0.7529411911964417 0.7529411911964417 15 107 7
0 0 98 103 0 17 108 0 107 114 98 109 113 111 0 119 +18 109 71 0 108 94 115 110 ?
2 29 110 72 0 109 116 95 0.0006000908915196597 0.0005790917392596768 0.001265239
898860454 16 111 73 0 ?108 100 117 112 0 0 2 30 112 74 0 111 118 101 0 +0.000600
0908915196597 0.0005790917392596768 0.001265239898860454 0 0 1 17 113 0 179 92 1
70 88 108 111 0 87 -17 114 0 107 120 108 115 119 117 0 123 -18 115 75 0 114 109
 130 116 ?2 29 116 76 0 115 131 110 -0.0005999091084803359 0.0005790918441670088
 0.001265239898860454 16 117 77 0 ?119 111 121 118 0 0 2 30 118 78 0 117 122 112
 0 +0.0006000908915196597 0.0005790917392596768 0.001265239898860454 0.999999999
9999962 -8.742277657347553e-008 0 17 119 0 164 165 155 109 114 117 0 170 +17 120
 0 107 98 114 94 123 121 0 93 -16 121 79 0 ?123 117 132 122 0 0 2 30 122 80 0 12
1 133 118 0 +-0.0005999091084803359 0.0005790918441670088 0.001265239898860454 0
 0 1 17 123 0 149 150 102 115 120 121 0 155 +14 124 81 126 1e-008 145 103 128 39
 125 +0 0 145 103 37 50 125 82 0 124 146 104 0 +0.0006000909133753538 0.00082909
17392596759 1.523989886045452e-005 0 0 -1 -0.9999999999999962 8.742277657347553e
-008 0 81 1 126 83 33 124 0 0 147 105 127 83 3 127 0.7529411911964417 0.75294119
11964417 0.7529411911964417 15 128 84 0 129 124 0 17 129 0 128 137 141 130 134 1
32 0 140 -18 130 85 0 129 115 135 131 ?2 29 131 86 0 130 136 116 0.0006000909133
753538 0.0008290917392596759 1.523989886045452e-005 16 132 87 0 ?134 121 138 133
 0 0 2 30 133 88 0 132 139 122 0 +0.0006000909133753538 0.0008290917392596759 1.
523989886045452e-005 -0.9999999999999962 8.742277657347553e-008 0 17 134 0 188 1
59 183 135 129 132 0 141 +18 135 89 0 134 130 151 136 ?2 29 136 90 0 135 152 131
 -0.0005999090866246417 0.0008290918441670078 1.523989886045452e-005 17 137 0 12
8 14 129 10 140 138 0 0 +16 138 91 0 ?137 132 142 139 0 0 2 30 139 92 0 138 143
 133 0 +0.0006000908915196597 0.0005790917392596768 1.523989886045452e-005 -8.74
2277657347553e-008 -0.9999999999999962 0 17 140 0 179 180 22 130 137 138 0 183 -
17 141 0 128 129 14 135 144 142 0 156 -16 142 93 0 ?144 138 153 143 0 0 2 30 143
 94 0 142 154 139 0 +-0.0005999091084803359 0.0005790918441670088 1.523989886045
452e-005 -8.742277657347553e-008 -0.9999999999999962 0 17 144 0 149 32 156 15 14
1 142 0 0 +14 145 95 147 1e-008 160 124 149 39 146 +0 0 160 124 37 50 146 96 0 1
45 161 125 0 +-0.0005999091084803359 0.0005790918441670088 0.001265239898860455
 -0.9999999999999962 8.742277657347553e-008 0 8.742277657347553e-008 0.999999999
9999962 0 81 1 147 97 33 145 0 0 162 126 148 83 3 148 0.7529411911964417 0.75294
11911964417 0.7529411911964417 15 149 98 0 123 145 0 17 150 0 149 156 123 151 15
5 153 0 159 -18 151 99 0 150 135 166 152 ?2 29 152 100 0 151 167 136 -0.00059990
90866246417 0.0008290918441670078 0.001265239898860454 16 153 101 0 ?155 142 157
 154 0 0 2 30 154 102 0 153 158 143 0 +-0.0005999091084803359 0.0005790918441670
088 0.001265239898860454 -8.742277657347553e-008 -0.9999999999999962 0 17 155 0
 164 119 171 115 150 153 0 0 +17 156 0 149 144 150 135 159 157 0 0 -16 157 103 0
 ?159 153 168 158 0 0 2 30 158 104 0 157 169 154 0 +-0.0005999090866246417 0.000
8290918441670078 0.001265239898860454 0 0 1 17 159 0 188 174 134 151 156 157 0 1
71 +14 160 105 162 1e-008 175 145 164 39 161 +0 0 175 145 37 50 161 106 0 160 17
6 146 0 +0.0006000908915196597 0.0005790917392596768 0.001265239898860455 0 0 1
 0.9999999999999962 -8.742277657347553e-008 0 81 1 162 107 33 160 0 0 177 147 16
3 83 3 163 0.7529411911964417 0.7529411911964417 0.7529411911964417 15 164 108 0
 119 160 0 17 165 0 164 171 119 166 170 168 0 174 +18 166 109 0 165 151 0 167 ?2
 29 167 110 0 166 0 152 0.0006000909133753538 0.0008290917392596759 0.0012652398
98860454 16 168 111 0 ?165 157 172 169 0 0 2 30 169 112 0 168 173 158 0 +0.00060
00908915196597 0.0005790917392596768 0.001265239898860454 8.742277657347553e-008
 0.9999999999999962 0 17 170 0 179 113 180 109 165 168 0 0 -17 171 0 164 155 165
 151 174 172 0 0 -16 172 113 0 ?174 168 181 173 0 0 2 30 173 114 0 172 182 169 0
 +0.0006000909133753538 0.0008290917392596759 0.001265239898860454 0.99999999999
99962 -8.742277657347553e-008 0 17 174 0 188 183 159 166 171 172 0 180 +14 175 1
15 177 1e-008 184 160 179 39 176 -0 0 184 160 37 50 176 116 0 175 185 161 0 +0.0
006000908915196597 0.0005790917392596768 0.001265239898860455 -0.999999999999996
2 8.742277657347553e-008 0 8.742277657347553e-008 0.9999999999999962 0 81 1 177
 117 33 175 0 0 186 162 178 83 3 178 0.7529411911964417 0.7529411911964417 0.752
9411911964417 15 179 118 0 92 175 0 17 180 0 179 170 140 166 183 181 0 0 -16 181
 119 0 ?183 172 0 182 0 0 2 30 182 120 0 181 0 173 0 +0.0006000909133753538 0.00
08290917392596759 0.001265239898860454 -0 0 -1 17 183 0 188 134 174 130 180 181
 0 0 +14 184 121 186 1e-008 0 175 188 39 185 +0 0 0 175 37 50 185 122 0 184 0 17
6 0 +0.0006000909133753538 0.0008290917392596759 0.001265239898860455 8.74227765
7347553e-008 0.9999999999999962 0 0.9999999999999962 -8.742277657347553e-008 0 8
1 1 186 123 33 184 0 0 0 177 187 83 3 187 0.7529411911964417 0.7529411911964417
 0.7529411911964417 15 188 124 0 174 184 0 12 189 124 0 190 0 0 0 0 1000 1e-008
 0 0 0 1 0 1 1 224 194 200 198 221 199 197 70 190 0 189 0 0 4 1 20 0 191 191 1 T
74 20 191 1 0 192 0 0 0 0 0 0 0 0 0 0 0 0 0 0 0 0 0 0 0 81 1 192 7 33 193 0 0 22
7 0 220 14 193 5 192 1e-008 225 0 195 224 194 +0 0 225 0 222 50 194 6 0 193 226
 0 0 +-0.0005999092090165288 -0.000570908155832987 1.523989886045452e-005 8.7422
77657347553e-008 0.9999999999999962 0 0.9999999999999962 -8.742277657347553e-008
 0 15 195 8 0 196 193 0 17 196 0 195 204 216 197 201 199 0 209 +18 197 9 0 196 0
 202 198 ?189 29 198 10 0 197 203 0 -0.0005999092090165287 -0.000570908155832986
9 1.523989886045452e-005 16 199 11 0 ?196 0 207 200 0 0 189 30 200 12 0 199 208
 0 0 +-0.0005999092090165287 -0.0005709081558329869 1.523989886045452e-005 -0.99
99999999999962 8.742277657347553e-008 0 17 201 0 313 326 322 202 196 199 0 216 -
18 202 13 0 201 197 205 203 ?189 29 203 14 0 202 206 198 0.0006000907909834667 -
0.0005709082607403188 1.523989886045452e-005 17 204 0 195 210 196 205 209 207 0
 215 +18 205 15 0 204 202 211 206 ?189 29 206 16 0 205 212 203 -0.00059990920901
65287 -0.0005709081558329869 6.523989886045456e-005 16 207 17 0 ?204 199 213 208
 0 0 189 30 208 18 0 207 214 200 0 +-0.0005999092090165287 -0.000570908155832986
9 0.001265239898860454 0 0 1 17 209 0 364 325 235 197 204 207 0 322 -17 210 0 19
5 216 204 211 215 213 0 219 -18 211 19 0 210 205 231 212 ?189 29 212 20 0 211 23
2 206 0.0006000907909834667 -0.0005709082607403188 6.523989886045456e-005 16 213
 21 0 ?215 207 217 214 0 0 189 30 214 22 0 213 218 208 0 +-0.0005999092090165287
 -0.0005709081558329869 6.523989886045456e-005 -0.9999999999999962 8.74227765734
7553e-008 0 17 215 0 229 230 242 205 210 213 0 235 +17 216 0 195 196 210 202 219
 217 0 329 -16 217 23 0 ?219 213 233 218 0 0 189 30 218 24 0 217 234 214 0 +0.00
06000907909834667 -0.0005709082607403188 0.001265239898860454 0 0 1 17 219 0 334
 245 329 211 216 217 0 242 +83 3 220 0.7529411911964417 0.7529411911964417 0.752
9411911964417 19 221 1 0 189 223 0 222 V13 222 2 0 189 0 0 0 0 221 193 19 223 3
 0 189 0 221 224 S13 224 4 0 189 0 193 0 0 223 0 14 225 25 227 1e-008 246 193 22
9 224 226 +0 0 246 193 222 50 226 26 0 225 247 194 0 +-0.0005999092090165288 -0.
000570908155832987 6.523989886045456e-005 0 -0 1 -0.9999999999999962 8.742277657
347553e-008 0 81 1 227 27 33 225 0 0 248 192 228 83 3 228 0.7529411911964417 0.7
529411911964417 0.7529411911964417 15 229 28 0 215 225 0 17 230 0 229 236 215 23
1 235 233 0 241 +18 231 29 0 230 211 237 232 ?189 29 232 30 0 231 238 212 -0.000
5999092265010841 -0.0007709081558329862 6.523989886045456e-005 16 233 31 0 ?230
 217 239 234 0 0 189 30 234 32 0 233 240 218 0 +-0.0005999092090165287 -0.000570
9081558329869 6.523989886045456e-005 -8.742277657347553e-008 -0.9999999999999962
 0 17 235 0 364 209 256 205 230 233 0 0 -17 236 0 229 242 230 237 241 239 0 245
 -18 237 33 0 236 231 252 238 ?189 29 238 34 0 237 253 232 0.0006000907734989114
 -0.0007709082607403181 6.523989886045456e-005 16 239 35 0 ?241 233 243 240 0 0
 189 30 240 36 0 239 244 234 0 +-0.0005999092265010841 -0.0007709081558329862 6.
523989886045456e-005 -0.9999999999999962 8.742277657347553e-008 0 17 241 0 250 2
51 263 231 236 239 0 256 +17 242 0 229 215 236 211 245 243 0 0 -16 243 37 0 ?245
 239 254 244 0 0 189 30 244 38 0 243 255 240 0 +0.0006000907909834667 -0.0005709
082607403188 6.523989886045456e-005 -8.742277657347553e-008 -0.9999999999999962
 0 17 245 0 334 266 219 237 242 243 0 263 +14 246 39 248 1e-008 267 225 250 224
 247 +0 0 267 225 222 50 247 40 0 246 268 226 0 +-0.0005999092265010842 -0.00077
09081558329862 6.523989886045456e-005 8.742277657347553e-008 0.9999999999999962
 0 0.9999999999999962 -8.742277657347553e-008 0 81 1 248 41 33 246 0 0 269 227 2
49 83 3 249 0.7529411911964417 0.7529411911964417 0.7529411911964417 15 250 42 0
 241 246 0 17 251 0 250 257 241 252 256 254 0 262 +18 252 43 0 251 237 258 253 ?
189 29 253 44 0 252 259 238 -0.0005999092265010841 -0.0007709081558329862 0.0012
15239898860455 16 254 45 0 ?251 243 260 255 0 0 189 30 255 46 0 254 261 244 0 +-
0.0005999092265010841 -0.0007709081558329862 0.001265239898860454 0 0 1 17 256 0
 364 235 277 231 251 254 0 0 -17 257 0 250 263 251 258 262 260 0 0 -18 258 47 0
 284 252 273 259 ?189 29 259 48 0 258 274 253 0.0006000907734989114 -0.000770908
2607403181 0.001215239898860455 16 260 49 0 ?262 254 264 261 0 0 189 30 261 50 0
 260 265 255 0 +-0.0005999092265010841 -0.0007709081558329862 0.0012152398988604
55 -0.9999999999999962 8.742277657347553e-008 -0 17 262 0 271 272 284 252 257 26
0 0 277 +17 263 0 250 241 257 237 266 264 0 0 -16 264 51 0 ?266 260 275 265 0 0
 189 30 265 52 0 264 276 261 0 +0.0006000907734989114 -0.0007709082607403181 0.0
01265239898860454 0 0 1 17 266 0 334 287 245 258 263 264 0 257 +14 267 53 269 1e
-008 288 246 271 224 268 +0 0 288 246 222 50 268 54 0 267 289 247 0 +-0.00059990
92265010842 -0.0007709081558329862 0.001215239898860455 0 0 -1 0.999999999999996
2 -8.742277657347553e-008 0 81 1 269 55 33 267 0 0 290 248 270 83 3 270 0.752941
1911964417 0.7529411911964417 0.7529411911964417 15 271 56 0 262 267 0 17 272 0
 271 278 262 273 277 275 0 283 +18 273 57 0 298 258 279 274 ?189 29 274 58 0 273
 280 259 -0.0005999092090165287 -0.0005709081558329869 0.001215239898860455 16 2
75 59 0 ?272 264 281 276 0 0 189 30 276 60 0 275 282 265 0 +-0.00059990920901652
87 -0.0005709081558329869 0.001215239898860455 8.742277657347553e-008 0.99999999
99999962 0 17 277 0 364 256 298 252 272 275 0 0 -17 278 0 271 284 272 279 283 28
1 0 0 -18 279 61 0 287 273 294 280 ?189 29 280 62 0 279 295 274 0.00060009079098
34667 -0.0005709082607403188 0.001215239898860455 16 281 63 0 ?283 275 285 282 0
 0 189 30 282 64 0 281 286 276 0 +-0.0005999092090165287 -0.0005709081558329869
 0.001215239898860455 -0.9999999999999962 8.742277657347553e-008 0 17 283 0 292
 293 305 273 278 281 0 0 +17 284 0 271 262 278 258 287 285 0 266 -16 285 65 0 ?2
87 281 296 286 0 0 189 30 286 66 0 285 297 282 0 +0.0006000907909834667 -0.00057
09082607403188 0.001215239898860455 8.742277657347553e-008 0.9999999999999962 0
 17 287 0 334 308 266 279 284 285 0 305 +14 288 67 290 1e-008 309 267 292 224 28
9 +0 0 309 267 222 50 289 68 0 288 310 268 0 +-0.0005999092090165288 -0.00057090
8155832987 0.001215239898860455 8.742277657347553e-008 0.9999999999999962 0 0.99
99999999999962 -8.742277657347553e-008 0 81 1 290 69 33 288 0 0 311 269 291 83 3
 291 0.7529411911964417 0.7529411911964417 0.7529411911964417 15 292 70 0 283 28
8 0 17 293 0 292 299 283 294 298 296 0 304 +18 294 71 0 293 279 300 295 ?189 29
 295 72 0 294 301 280 -0.0005999092090165287 -0.0005709081558329869 0.0012652398
98860454 16 296 73 0 ?293 285 302 297 0 0 189 30 297 74 0 296 303 286 0 +-0.0005
999092090165287 -0.0005709081558329869 0.001265239898860454 0 0 1 17 298 0 364 2
77 355 273 293 296 0 272 -17 299 0 292 305 293 300 304 302 0 308 -18 300 75 0 29
9 294 315 301 ?189 29 301 76 0 300 316 295 0.0006000907909834667 -0.000570908260
7403188 0.001265239898860454 16 302 77 0 ?304 296 306 303 0 0 189 30 303 78 0 30
2 307 297 0 +-0.0005999092090165287 -0.0005709081558329869 0.001265239898860454
 -0.9999999999999962 8.742277657347553e-008 0 17 304 0 349 350 340 294 299 302 0
 355 +17 305 0 292 283 299 279 308 306 0 278 -16 306 79 0 ?308 302 317 307 0 0 1
89 30 307 80 0 306 318 303 0 +0.0006000907909834667 -0.0005709082607403188 0.001
265239898860454 0 0 1 17 308 0 334 335 287 300 305 306 0 340 +14 309 81 311 1e-0
08 330 288 313 224 310 +0 0 330 288 222 50 310 82 0 309 331 289 0 +-0.0005999092
30872223 -0.000820908155832986 1.523989886045452e-005 0 0 -1 0.9999999999999962
 -8.742277657347553e-008 0 81 1 311 83 33 309 0 0 332 290 312 83 3 312 0.7529411
911964417 0.7529411911964417 0.7529411911964417 15 313 84 0 314 309 0 17 314 0 3
13 322 326 315 319 317 0 368 -18 315 85 0 314 300 320 316 ?189 29 316 86 0 315 3
21 301 -0.000599909230872223 -0.000820908155832986 1.523989886045452e-005 16 317
 87 0 ?319 306 323 318 0 0 189 30 318 88 0 317 324 307 0 +-0.000599909230872223
 -0.000820908155832986 1.523989886045452e-005 0.9999999999999962 -8.742277657347
553e-008 0 17 319 0 373 344 368 320 314 317 0 326 +18 320 89 0 319 315 336 321 ?
189 29 321 90 0 320 337 316 0.0006000907691277726 -0.0008209082607403179 1.52398
9886045452e-005 17 322 0 313 201 314 197 325 323 0 0 +16 323 91 0 ?322 317 327 3
24 0 0 189 30 324 92 0 323 328 318 0 +-0.0005999092090165287 -0.0005709081558329
869 1.523989886045452e-005 8.742277657347553e-008 0.9999999999999962 0 17 325 0
 364 365 209 315 322 323 0 0 -17 326 0 313 314 201 320 329 327 0 341 -16 327 93
 0 ?329 323 338 328 0 0 189 30 328 94 0 327 339 324 0 +0.0006000907909834667 -0.
0005709082607403188 1.523989886045452e-005 8.742277657347553e-008 0.999999999999
9962 0 17 329 0 334 219 341 202 326 327 0 0 +14 330 95 332 1e-008 345 309 334 22
4 331 +0 0 345 309 222 50 331 96 0 330 346 310 0 +0.0006000907909834667 -0.00057
09082607403188 0.001265239898860455 0.9999999999999962 -8.742277657347553e-008 0
 -8.742277657347553e-008 -0.9999999999999962 0 81 1 332 97 33 330 0 0 347 311 33
3 83 3 333 0.7529411911964417 0.7529411911964417 0.7529411911964417 15 334 98 0
 308 330 0 17 335 0 334 341 308 336 340 338 0 344 -18 336 99 0 335 320 351 337 ?
189 29 337 100 0 336 352 321 0.0006000907691277726 -0.0008209082607403179 0.0012
65239898860454 16 338 101 0 ?340 327 342 339 0 0 189 30 339 102 0 338 343 328 0
 +0.0006000907909834667 -0.0005709082607403188 0.001265239898860454 8.7422776573
47553e-008 0.9999999999999962 0 17 340 0 349 304 356 300 335 338 0 0 +17 341 0 3
34 329 335 320 344 342 0 0 -16 342 103 0 ?344 338 353 343 0 0 189 30 343 104 0 3
42 354 339 0 +0.0006000907691277726 -0.0008209082607403179 0.001265239898860454
 0 0 1 17 344 0 373 359 319 336 341 342 0 356 +14 345 105 347 1e-008 360 330 349
 224 346 +0 0 360 330 222 50 346 106 0 345 361 331 0 +-0.0005999092090165288 -0.
000570908155832987 0.001265239898860455 0 -0 1 -0.9999999999999962 8.74227765734
7553e-008 0 81 1 347 107 33 345 0 0 362 332 348 83 3 348 0.7529411911964417 0.75
29411911964417 0.7529411911964417 15 349 108 0 304 345 0 17 350 0 349 356 304 35
1 355 353 0 359 +18 351 109 0 350 336 0 352 ?189 29 352 110 0 351 0 337 -0.00059
9909230872223 -0.000820908155832986 0.001265239898860454 16 353 111 0 ?350 342 3
57 354 0 0 189 30 354 112 0 353 358 343 0 +-0.0005999092090165287 -0.00057090815
58329869 0.001265239898860454 -8.742277657347553e-008 -0.9999999999999962 0 17 3
55 0 364 298 365 294 350 353 0 0 -17 356 0 349 340 350 336 359 357 0 0 -16 357 1
13 0 ?359 353 366 358 0 0 189 30 358 114 0 357 367 354 0 +-0.000599909230872223
 -0.000820908155832986 0.001265239898860454 -0.9999999999999962 8.74227765734755
3e-008 0 17 359 0 373 368 344 351 356 357 0 365 +14 360 115 362 1e-008 369 345 3
64 224 361 -0 0 369 345 222 50 361 116 0 360 370 346 0 +-0.0005999092090165288 -
0.000570908155832987 0.001265239898860455 0.9999999999999962 -8.742277657347553e
-008 0 -8.742277657347553e-008 -0.9999999999999962 0 81 1 362 117 33 360 0 0 371
 347 363 83 3 363 0.7529411911964417 0.7529411911964417 0.7529411911964417 15 36
4 118 0 277 360 0 17 365 0 364 355 325 351 368 366 0 0 -16 366 119 0 ?368 357 0
 367 0 0 189 30 367 120 0 366 0 358 0 +-0.000599909230872223 -0.0008209081558329
86 0.001265239898860454 0 0 -1 17 368 0 373 319 359 315 365 366 0 325 +14 369 12
1 371 1e-008 0 360 373 224 370 +0 0 0 360 222 50 370 122 0 369 0 361 0 +-0.00059
9909230872223 -0.000820908155832986 0.001265239898860455 -8.742277657347553e-008
 -0.9999999999999962 0 -0.9999999999999962 8.742277657347553e-008 0 81 1 371 123
 33 369 0 0 0 362 372 83 3 372 0.7529411911964417 0.7529411911964417 0.752941191
1964417 15 373 124 0 359 369 0 12 374 129 0 375 0 0 0 0 1000 1e-008 0 0 0 1 0 1
 1 409 379 385 383 406 384 382 70 375 0 374 0 0 4 1 20 0 376 376 1 T74 20 376 1
 0 377 0 0 0 0 0 0 0 0 0 0 0 0 0 0 0 0 0 0 0 81 1 377 7 33 378 0 0 412 0 405 14
 378 5 377 1e-008 410 0 380 409 379 +0 0 410 0 407 50 379 6 0 378 411 0 0 +0.001
550090769127769 -0.0008209083437919559 1.523989886045456e-005 -0.999999999999996
2 8.742277657347553e-008 0 -8.742277657347553e-008 -0.9999999999999962 0 15 380
 8 0 381 378 0 17 381 0 380 389 401 382 386 384 0 394 +18 382 9 0 381 0 387 383
 ?374 29 383 10 0 382 388 0 0.001550090909004211 0.0007790916562080383 6.5239898
86045454e-005 16 384 11 0 ?381 0 392 385 0 0 374 30 385 12 0 384 393 0 0 +0.0015
50090909004211 0.0007790916562080383 0.001215239898860455 0 0 -1 17 386 0 465 46
0 420 387 381 384 0 401 -18 387 13 0 386 382 390 388 ?374 29 388 14 0 387 391 38
3 0.001550090909004211 0.0007790916562080383 0.001215239898860455 17 389 0 380 3
95 381 390 394 392 0 400 +18 390 15 0 389 387 396 391 ?374 29 391 16 0 390 397 3
88 0.001550090773498908 -0.000770908343791956 6.523989886045456e-005 16 392 17 0
 ?389 384 398 393 0 0 374 30 393 18 0 392 399 385 0 +0.001550090909004211 0.0007
790916562080383 6.523989886045456e-005 -8.742277657347553e-008 -0.99999999999999
62 -0 17 394 0 414 415 427 382 389 392 0 420 -17 395 0 380 401 389 396 400 398 0
 404 +18 396 19 0 395 390 416 397 ?374 29 397 20 0 396 417 391 0.001550090773498
908 -0.000770908343791956 0.001215239898860455 16 398 21 0 ?395 392 402 399 0 0
 374 30 399 22 0 398 403 393 0 +0.001550090773498908 -0.000770908343791956 6.523
989886045456e-005 0 0 1 17 400 0 435 430 442 390 395 398 0 427 -17 401 0 380 381
 395 387 404 402 0 457 +16 402 23 0 ?401 398 418 403 0 0 374 30 403 24 0 402 419
 399 0 +0.001550090773498908 -0.000770908343791956 0.001215239898860455 8.742277
657347553e-008 0.9999999999999962 0 17 404 0 450 445 457 396 401 402 0 442 -83 3
 405 0.7529411911964417 0.7529411911964417 0.7529411911964417 19 406 1 0 374 408
 0 407 V13 407 2 0 374 0 0 0 0 406 378 19 408 3 0 374 0 406 409 S13 409 4 0 374
 0 378 0 0 408 0 14 410 25 412 1e-008 431 378 414 409 411 -0 0 431 378 407 50 41
1 26 0 410 432 379 0 +0.001200090909004213 0.0007790916868060101 6.5239898860454
56e-005 0 0 -1 -0.9999999999999962 8.742277657347553e-008 0 81 1 412 27 33 410 0
 0 433 377 413 83 3 413 0.7529411911964417 0.7529411911964417 0.7529411911964417
 15 414 28 0 394 410 0 17 415 0 414 421 394 416 420 418 0 426 +18 416 29 0 415 3
96 422 417 ?374 29 417 30 0 416 423 397 0.001200090909004213 0.00077909168680601
01 6.523989886045454e-005 16 418 31 0 ?415 402 424 419 0 0 374 30 419 32 0 418 4
25 403 0 +0.001200090909004213 0.0007790916868060101 6.523989886045448e-005 -0.9
999999999999962 8.742277657347553e-008 0 17 420 0 465 386 466 382 415 418 0 0 -1
7 421 0 414 427 415 422 426 424 0 430 +18 422 33 0 421 416 437 423 ?374 29 423 3
4 0 422 438 417 0.001200090773498909 -0.0007709083131939843 6.523989886045456e-0
05 16 424 35 0 ?421 418 428 425 0 0 374 30 425 36 0 424 429 419 0 +0.00120009076
912777 -0.0008209083131939841 6.523989886045456e-005 -8.742277657347553e-008 -0.
9999999999999962 0 17 426 0 474 469 441 416 421 424 0 466 -17 427 0 414 394 421
 390 430 428 0 0 +16 428 37 0 ?427 424 439 429 0 0 374 30 429 38 0 428 440 425 0
 +0.001200090773498909 -0.0007709083131939843 6.523989886045456e-005 0.999999999
9999962 -8.742277657347553e-008 0 17 430 0 435 436 400 422 427 428 0 441 -14 431
 39 433 1e-008 446 410 435 409 432 -0 0 446 410 407 50 432 40 0 431 447 411 0 +0
.001200090773498909 -0.0007709083131939843 6.523989886045456e-005 -8.74227765734
7553e-008 -0.9999999999999962 0 0.9999999999999962 -8.742277657347553e-008 0 81
 1 433 41 33 431 0 0 448 412 434 83 3 434 0.7529411911964417 0.7529411911964417
 0.7529411911964417 15 435 42 0 400 431 0 17 436 0 435 442 430 437 441 439 0 445
 +18 437 43 0 436 422 452 438 ?374 29 438 44 0 437 453 423 0.001200090773498909
 -0.0007709083131939843 0.001215239898860455 16 439 45 0 ?436 428 443 440 0 0 37
4 30 440 46 0 439 444 429 0 +0.001200090773498909 -0.0007709083131939843 1.52398
9886045456e-005 0 0 1 17 441 0 474 426 456 422 436 439 0 0 -17 442 0 435 400 436
 396 445 443 0 0 +16 443 47 0 ?442 439 454 444 0 0 374 30 444 48 0 443 455 440 0
 +0.001200090773498909 -0.0007709083131939843 0.001215239898860455 0.99999999999
99962 -8.742277657347553e-008 0 17 445 0 450 451 404 437 442 443 0 456 -14 446 4
9 448 1e-008 461 431 450 409 447 -0 0 461 431 407 50 447 50 0 446 462 432 0 +0.0
01200090773498909 -0.0007709083131939843 0.001215239898860455 0 0 1 0.9999999999
999962 -8.742277657347553e-008 0 81 1 448 51 33 446 0 0 463 433 449 83 3 449 0.7
529411911964417 0.7529411911964417 0.7529411911964417 15 450 52 0 404 446 0 17 4
51 0 450 457 445 452 456 454 0 460 +18 452 53 0 451 437 477 453 ?374 29 453 54 0
 452 478 438 0.001200090909004213 0.0007790916868060101 0.001215239898860455 16
 454 55 0 ?451 443 458 455 0 0 374 30 455 56 0 454 459 444 0 +0.0012000907691277
7 -0.0008209083131939841 0.001215239898860455 8.742277657347553e-008 0.999999999
9999962 0 17 456 0 474 441 469 437 451 454 0 0 -17 457 0 450 404 451 387 460 458
 0 0 +16 458 57 0 ?457 454 467 459 0 0 374 30 459 58 0 458 468 455 0 +0.00120009
0909004213 0.0007790916868060101 0.001215239898860455 0.9999999999999962 -8.7422
77657347553e-008 0 17 460 0 465 466 386 452 457 458 0 469 -14 461 59 463 1e-008
 470 446 465 409 462 -0 0 470 446 407 50 462 60 0 461 471 447 0 +0.0012000909090
04213 0.0007790916868060101 0.001215239898860455 8.742277657347553e-008 0.999999
9999999962 0 -0.9999999999999962 8.742277657347553e-008 0 81 1 463 61 33 461 0 0
 472 448 464 83 3 464 0.7529411911964417 0.7529411911964417 0.7529411911964417 1
5 465 62 0 386 461 0 17 466 0 465 420 460 416 469 467 0 0 +16 467 63 0 ?466 458
 479 468 0 0 374 30 468 64 0 467 480 459 0 +0.001200090909004213 0.0007790916868
060101 1.523989886045456e-005 0 0 -1 17 469 0 474 456 426 452 466 467 0 0 -14 47
0 65 472 1e-008 500 461 474 409 471 -0 0 500 461 407 50 471 66 0 470 501 462 0 +
0.00120009076912777 -0.0008209083131939841 1.523989886045456e-005 0.999999999999
9962 -8.742277657347553e-008 0 8.742277657347553e-008 0.9999999999999962 0 81 1
 472 67 33 470 0 0 502 463 473 83 3 473 0.7529411911964417 0.7529411911964417 0.
7529411911964417 15 474 68 0 456 470 475 15 475 69 0 476 470 0 17 476 0 475 484
 496 477 481 479 0 489 -18 477 70 0 476 452 482 478 ?374 29 478 71 0 477 483 453
 0.001200090913375352 0.0008290916868060096 0.001265239898860454 16 479 72 0 ?48
1 467 487 480 0 0 374 30 480 73 0 479 488 468 0 +0.001200090913375352 0.00082909
16868060096 0.001265239898860454 -8.742277657347553e-008 -0.9999999999999962 0 1
7 481 0 525 526 516 482 476 479 0 496 +18 482 74 0 481 477 485 483 ?374 29 483 7
5 0 482 486 478 0.00120009076912777 -0.0008209083131939841 0.001265239898860454
 17 484 0 475 490 476 485 489 487 0 495 -18 485 76 0 484 482 491 486 ?374 29 486
 77 0 485 492 483 0.001200090913375352 0.0008290916868060096 1.523989886045456e-
005 16 487 78 0 ?489 479 493 488 0 0 374 30 488 79 0 487 494 480 0 +0.0012000909
13375352 0.0008290916868060096 1.523989886045456e-005 0 0 1 17 489 0 504 511 505
 477 484 487 0 516 +17 490 0 475 496 484 491 495 493 0 499 -18 491 80 0 490 485
 509 492 ?374 29 492 81 0 491 510 486 0.00120009076912777 -0.0008209083131939841
 1.523989886045456e-005 16 493 82 0 ?495 487 497 494 0 0 374 30 494 83 0 493 498
 488 0 +0.00120009076912777 -0.0008209083131939841 1.523989886045456e-005 8.7422
77657347553e-008 0.9999999999999962 0 17 495 0 555 508 546 485 490 493 0 505 +17
 496 0 475 476 490 482 499 497 0 531 -16 497 84 0 ?499 493 506 498 0 0 374 30 49
8 85 0 497 507 494 0 +0.00120009076912777 -0.0008209083131939841 0.0012652398988
60454 0 -0 -1 17 499 0 540 541 531 491 496 497 0 546 +14 500 86 502 1e-008 521 4
70 504 409 501 +0 0 521 470 407 50 501 87 0 500 522 471 0 +0.001200090913375352
 0.0008290916868060096 1.523989886045456e-005 8.742277657347553e-008 0.999999999
9999962 0 -0.9999999999999962 8.742277657347553e-008 0 81 1 502 88 33 500 0 0 52
3 472 503 83 3 503 0.7529411911964417 0.7529411911964417 0.7529411911964417 15 5
04 89 0 505 500 0 17 505 0 504 489 517 485 508 506 0 0 -16 506 90 0 ?508 497 514
 507 0 0 374 30 507 91 0 506 515 498 0 +0.001200090913375352 0.00082909168680600
96 1.523989886045456e-005 0.9999999999999962 -8.742277657347553e-008 0 17 508 0
 555 556 495 509 505 506 0 517 +18 509 92 0 508 491 512 510 ?374 29 510 93 0 509
 513 492 0.00160009091337535 0.0008290916518368989 1.523989886045456e-005 17 511
 0 504 517 489 512 516 514 0 520 -18 512 94 0 511 509 527 513 ?374 29 513 95 0 5
12 528 510 0.00160009091337535 0.0008290916518368989 0.001265239898860454 16 514
 96 0 ?516 506 518 515 0 0 374 30 515 97 0 514 519 507 0 +0.001200090913375352 0
.0008290916868060096 0.001265239898860454 -0.9999999999999962 8.742277657347553e
-008 0 17 516 0 525 481 532 477 511 514 0 0 +17 517 0 504 505 511 509 520 518 0
 559 -16 518 98 0 ?520 514 529 519 0 0 374 30 519 99 0 518 530 515 0 +0.00160009
091337535 0.0008290916518368989 1.523989886045456e-005 0 0 1 17 520 0 564 535 55
9 512 517 518 0 532 +14 521 100 523 1e-008 536 500 525 409 522 +0 0 536 500 407
 50 522 101 0 521 537 501 0 +0.001200090913375352 0.0008290916868060096 0.001265
239898860455 0 0 1 0.9999999999999962 -8.742277657347553e-008 0 81 1 523 102 33
 521 0 0 538 502 524 83 3 524 0.7529411911964417 0.7529411911964417 0.7529411911
964417 15 525 103 0 516 521 0 17 526 0 525 532 481 527 531 529 0 535 -18 527 104
 0 526 512 542 528 ?374 29 528 105 0 527 543 513 0.001600090769127769 -0.0008209
083481630947 0.001265239898860454 16 529 106 0 ?531 518 533 530 0 0 374 30 530 1
07 0 529 534 519 0 +0.00120009076912777 -0.0008209083131939841 0.001265239898860
454 -0.9999999999999962 8.742277657347553e-008 -0 17 531 0 540 499 547 482 526 5
29 0 0 +17 532 0 525 516 526 512 535 533 0 0 -16 533 108 0 ?535 529 544 534 0 0
 374 30 534 109 0 533 545 530 0 +0.001600090769127769 -0.0008209083481630947 0.0
01265239898860454 -8.742277657347553e-008 -0.9999999999999962 0 17 535 0 564 550
 520 527 532 533 0 547 +14 536 110 538 1e-008 551 521 540 409 537 +0 0 551 521 4
07 50 537 111 0 536 552 522 0 +0.00120009076912777 -0.0008209083131939841 0.0012
65239898860455 -8.742277657347553e-008 -0.9999999999999962 0 0.9999999999999962
 -8.742277657347553e-008 0 81 1 538 112 33 536 0 0 553 523 539 83 3 539 0.752941
1911964417 0.7529411911964417 0.7529411911964417 15 540 113 0 531 536 0 17 541 0
 540 547 499 542 546 544 0 550 -18 542 114 0 541 527 0 543 ?374 29 543 115 0 542
 0 528 0.001600090769127769 -0.0008209083481630947 1.523989886045456e-005 16 544
 116 0 ?546 533 548 545 0 0 374 30 545 117 0 544 549 534 0 +0.00120009076912777
 -0.0008209083131939841 1.523989886045456e-005 -0.9999999999999962 8.74227765734
7553e-008 0 17 546 0 555 495 556 491 541 544 0 0 +17 547 0 540 531 541 527 550 5
48 0 0 -16 548 118 0 ?550 544 557 549 0 0 374 30 549 119 0 548 558 545 0 +0.0016
00090769127769 -0.0008209083481630947 1.523989886045456e-005 0 0 -1 17 550 0 564
 559 535 542 547 548 0 556 +14 551 120 553 1e-008 560 536 555 409 552 +0 0 560 5
36 407 50 552 121 0 551 561 537 0 +0.00120009076912777 -0.0008209083131939841 1.
523989886045456e-005 0 0 -1 -0.9999999999999962 8.742277657347553e-008 0 81 1 55
3 122 33 551 0 0 562 538 554 83 3 554 0.7529411911964417 0.7529411911964417 0.75
29411911964417 15 555 123 0 546 551 0 17 556 0 555 546 508 542 559 557 0 0 -16 5
57 124 0 ?559 548 0 558 0 0 374 30 558 125 0 557 0 549 0 +0.001600090769127769 -
0.0008209083481630947 1.523989886045456e-005 8.742277657347553e-008 0.9999999999
999962 0 17 559 0 564 520 550 509 556 557 0 0 +14 560 126 562 1e-008 0 551 564 4
09 561 +0 0 0 551 407 50 561 127 0 560 0 552 0 +0.001600090769127769 -0.00082090
83481630947 1.523989886045456e-005 0.9999999999999962 -8.742277657347553e-008 0
 8.742277657347553e-008 0.9999999999999962 0 81 1 562 128 33 560 0 0 0 553 563 8
3 3 563 0.7529411911964417 0.7529411911964417 0.7529411911964417 15 564 129 0 55
0 560 0 12 565 68 0 566 0 0 0 0 1000 1e-008 0 0 0 1 0 1 1 600 570 576 574 597 57
5 573 70 566 0 565 0 0 4 1 20 0 567 567 1 T74 20 567 1 0 568 0 0 0 0 0 0 0 0 0 0
 0 0 0 0 0 0 0 0 0 81 1 568 7 33 569 0 0 603 0 596 14 569 5 568 1e-008 601 0 571
 600 570 +0 0 601 0 598 50 570 6 0 569 602 0 0 +0.001550090909004211 0.000779091
6562080383 0.001215239898860455 0 0 1 -0.9999999999999962 8.742277657347553e-008
 0 15 571 8 0 572 569 0 17 572 0 571 580 592 573 577 575 0 585 +18 573 9 0 572 0
 578 574 ?565 29 574 10 0 573 579 0 0.001550090909004211 0.0007790916562080383 0
.001215239898860455 16 575 11 0 ?572 0 583 576 0 0 565 30 576 12 0 575 584 0 0 +
0.001550090909004211 0.0007790916562080383 0.001215239898860455 8.74227765734755
3e-008 0.9999999999999962 0 17 577 0 656 651 611 578 572 575 0 592 -18 578 13 0
 577 573 581 579 ?565 29 579 14 0 578 582 574 0.001550090773498908 -0.0007709083
437919564 0.001215239898860455 17 580 0 571 586 572 581 585 583 0 591 -18 581 15
 0 618 578 587 582 ?565 29 582 16 0 581 588 579 -0.001549909090995778 0.00077909
19272186457 0.001215239898860455 16 583 17 0 ?585 575 589 584 0 0 565 30 584 18
 0 583 590 576 0 +0.001550090909004211 0.0007790916562080383 0.00121523989886045
5 0.9999999999999962 -8.742277657347553e-008 -0 17 585 0 605 606 618 573 580 583
 0 611 +17 586 0 571 592 580 587 591 589 0 633 -18 587 19 0 586 581 607 588 ?565
 29 588 20 0 587 608 582 -0.001549909226501082 -0.0007709080727813491 0.00121523
9898860455 16 589 21 0 ?591 583 593 590 0 0 565 30 590 22 0 589 594 584 0 +-0.00
1549909090995778 0.0007790919272186457 0.001215239898860455 8.742277657347553e-0
08 0.9999999999999962 0 17 591 0 626 621 633 581 586 589 0 0 +17 592 0 571 572 5
86 578 595 593 0 648 -16 593 23 0 ?595 589 609 594 0 0 565 30 594 24 0 593 610 5
90 0 +-0.001549909226501082 -0.0007709080727813491 0.001215239898860455 -0.99999
99999999962 8.742277657347553e-008 0 17 595 0 641 636 648 587 592 593 0 0 +83 3
 596 0.501960813999176 0.501960813999176 0.501960813999176 19 597 1 0 565 599 0
 598 V13 598 2 0 565 0 0 0 0 597 569 19 599 3 0 565 0 597 600 S13 600 4 0 565 0
 569 0 0 599 0 14 601 25 603 1e-008 622 569 605 600 602 +0 0 622 569 598 50 602
 26 0 601 623 570 0 +0.001550090909004211 0.0007790916562080383 6.52398988604545
6e-005 8.742277657347553e-008 0.9999999999999962 0 0 0 -1 81 1 603 27 33 601 0 0
 624 568 604 83 3 604 0.501960813999176 0.501960813999176 0.501960813999176 15 6
05 28 0 606 601 0 17 606 0 605 612 585 607 611 609 0 657 -18 607 29 0 606 587 61
3 608 ?565 29 608 30 0 607 614 588 0.001550090909004211 0.0007790916562080383 6.
523989886045456e-005 16 609 31 0 ?611 593 615 610 0 0 565 30 610 32 0 609 616 59
4 0 +0.001550090909004211 0.0007790916562080383 6.523989886045456e-005 0 0 1 17
 611 0 656 577 657 573 606 609 0 0 +17 612 0 605 618 606 613 617 615 0 0 +18 613
 33 0 621 607 628 614 ?565 29 614 34 0 613 629 608 -0.001549909090995778 0.00077
90919272186457 6.523989886045456e-005 16 615 35 0 ?612 609 619 616 0 0 565 30 61
6 36 0 615 620 610 0 +0.001550090909004211 0.0007790916562080383 6.5239898860454
56e-005 -0.9999999999999962 8.742277657347553e-008 0 17 617 0 665 660 632 607 61
2 615 0 0 -17 618 0 605 585 612 581 621 619 0 580 -16 619 37 0 ?621 615 630 620
 0 0 565 30 620 38 0 619 631 616 0 +-0.001549909090995778 0.0007790919272186457
 6.523989886045456e-005 -0 0 -1 17 621 0 626 627 591 613 618 619 0 632 +14 622 3
9 624 1e-008 637 601 626 600 623 +0 0 637 601 598 50 623 40 0 622 638 602 0 +-0.
001549909090995778 0.0007790919272186457 6.523989886045456e-005 -0.9999999999999
962 8.742277657347553e-008 0 -0 0 -1 81 1 624 41 33 622 0 0 639 603 625 83 3 625
 0.501960813999176 0.501960813999176 0.501960813999176 15 626 42 0 621 622 0 17
 627 0 626 633 621 628 632 630 0 636 +18 628 43 0 627 613 643 629 ?565 29 629 44
 0 628 644 614 -0.001549909226501082 -0.0007709080727813491 6.523989886045456e-0
05 16 630 45 0 ?627 619 634 631 0 0 565 30 631 46 0 630 635 620 0 +-0.0015499090
90995778 0.0007790919272186457 6.523989886045456e-005 -8.742277657347553e-008 -0
.9999999999999962 0 17 632 0 665 617 647 613 627 630 0 612 -17 633 0 626 591 627
 587 636 634 0 595 -16 634 47 0 ?636 630 645 635 0 0 565 30 635 48 0 634 646 631
 0 +-0.001549909226501082 -0.0007709080727813491 6.523989886045456e-005 0 -0 -1
 17 636 0 641 642 595 628 633 634 0 647 +14 637 49 639 1e-008 652 622 641 600 63
8 +0 0 652 622 598 50 638 50 0 637 653 623 0 +-0.001549909226501082 -0.000770908
0727813491 6.523989886045456e-005 -8.742277657347553e-008 -0.9999999999999962 0
 0 0 1 81 1 639 51 33 637 0 0 654 624 640 83 3 640 0.501960813999176 0.501960813
999176 0.501960813999176 15 641 52 0 636 637 0 17 642 0 641 648 636 643 647 645
 0 651 +18 643 53 0 642 628 0 644 ?565 29 644 54 0 643 0 629 0.00155009077349890
8 -0.0007709083437919564 6.523989886045456e-005 16 645 55 0 ?642 634 649 646 0 0
 565 30 646 56 0 645 650 635 0 +0.001550090773498908 -0.0007709083437919564 6.52
3989886045456e-005 0.9999999999999962 -8.742277657347553e-008 0 17 647 0 665 632
 660 628 642 645 0 0 -17 648 0 641 595 642 578 651 649 0 0 -16 649 57 0 ?651 645
 658 650 0 0 565 30 650 58 0 649 659 646 0 +0.001550090773498908 -0.000770908343
7919564 6.523989886045456e-005 0 0 -1 17 651 0 656 657 577 643 648 649 0 660 +14
 652 59 654 1e-008 661 637 656 600 653 +0 0 661 637 598 50 653 60 0 652 662 638
 0 +0.001550090773498908 -0.0007709083437919564 6.523989886045456e-005 0.9999999
999999962 -8.742277657347553e-008 0 0 0 1 81 1 654 61 33 652 0 0 663 639 655 83
 3 655 0.501960813999176 0.501960813999176 0.501960813999176 15 656 62 0 651 652
 0 17 657 0 656 611 651 607 660 658 0 617 +16 658 63 0 ?657 649 0 659 0 0 565 30
 659 64 0 658 0 650 0 +0.001550090909004211 0.0007790916562080383 6.523989886045
456e-005 8.742277657347553e-008 0.9999999999999962 0 17 660 0 665 647 617 643 65
7 658 0 0 -14 661 65 663 1e-008 0 652 665 600 662 -0 0 0 652 598 50 662 66 0 661
 0 653 0 +0.001550090909004211 0.0007790916562080383 6.523989886045456e-005 0 0
 1 -0.9999999999999962 8.742277657347553e-008 0 81 1 663 67 33 661 0 0 0 654 664
 83 3 664 0.501960813999176 0.501960813999176 0.501960813999176 15 665 68 0 647
 661 0 12 666 129 0 667 0 0 0 0 1000 1e-008 0 0 0 1 0 1 1 701 671 677 675 698 67
6 674 70 667 0 666 0 0 4 1 20 0 668 668 1 T74 20 668 1 0 669 0 0 0 0 0 0 0 0 0 0
 0 0 0 0 0 0 0 0 0 81 1 669 7 33 670 0 0 704 0 697 14 670 5 669 1e-008 702 0 672
 701 671 +0 0 702 0 699 50 671 6 0 670 703 0 0 +-0.00154990923087222 -0.00082090
80727813484 0.001265239898860455 0.9999999999999962 -8.742277657347553e-008 0 -8
.742277657347553e-008 -0.9999999999999962 -0 15 672 8 0 673 670 0 17 673 0 672 6
81 693 674 678 676 0 686 +18 674 9 0 673 0 679 675 ?666 29 675 10 0 674 680 0 -0
.001549909090995777 0.0007790919272186456 0.001215239898860455 16 676 11 0 ?673
 0 684 677 0 0 666 30 677 12 0 676 685 0 0 +-0.001549909090995777 0.000779091927
2186456 6.523989886045456e-005 0 0 1 17 678 0 757 752 712 679 673 676 0 693 -18
 679 13 0 678 674 682 680 ?666 29 680 14 0 679 683 675 -0.001549909090995777 0.0
007790919272186456 6.523989886045456e-005 17 681 0 672 687 673 682 686 684 0 692
 +18 682 15 0 681 679 688 683 ?666 29 683 16 0 682 689 680 -0.001549909226501081
 -0.0007709080727813486 0.001215239898860455 16 684 17 0 ?681 676 690 685 0 0 66
6 30 685 18 0 684 691 677 0 +-0.001549909090995777 0.0007790919272186456 0.00121
5239898860455 -8.742277657347553e-008 -0.9999999999999962 0 17 686 0 706 707 719
 674 681 684 0 712 -17 687 0 672 693 681 688 692 690 0 696 +18 688 19 0 687 682
 708 689 ?666 29 689 20 0 688 709 683 -0.001549909226501081 -0.00077090807278134
85 6.523989886045456e-005 16 690 21 0 ?687 684 694 691 0 0 666 30 691 22 0 690 6
95 685 0 +-0.001549909226501081 -0.0007709080727813485 0.001215239898860455 0 0
 -1 17 692 0 727 722 734 682 687 690 0 719 -17 693 0 672 673 687 679 696 694 0 7
49 +16 694 23 0 ?693 690 710 695 0 0 666 30 695 24 0 694 711 691 0 +-0.001549909
226501081 -0.0007709080727813485 6.523989886045456e-005 8.742277657347553e-008 0
.9999999999999962 0 17 696 0 742 737 749 688 693 694 0 734 -83 3 697 0.752941191
1964417 0.7529411911964417 0.7529411911964417 19 698 1 0 666 700 0 699 V13 699 2
 0 666 0 0 0 0 698 670 19 700 3 0 666 0 698 701 S13 701 4 0 666 0 670 0 0 700 0
 14 702 25 704 1e-008 723 670 706 701 703 -0 0 723 670 699 50 703 26 0 702 724 6
71 0 +-0.001199909090995779 0.000779091896620674 0.001215239898860455 0 0 1 0.99
99999999999962 -8.742277657347553e-008 0 81 1 704 27 33 702 0 0 725 669 705 83 3
 705 0.7529411911964417 0.7529411911964417 0.7529411911964417 15 706 28 0 686 70
2 0 17 707 0 706 713 686 708 712 710 0 718 +18 708 29 0 707 688 714 709 ?666 29
 709 30 0 708 715 689 -0.001199909090995778 0.000779091896620674 0.0012152398988
60455 16 710 31 0 ?707 694 716 711 0 0 666 30 711 32 0 710 717 695 0 +-0.0011999
09090995778 0.000779091896620674 0.001215239898860455 0.9999999999999962 -8.7422
77657347553e-008 0 17 712 0 757 678 758 674 707 710 0 0 -17 713 0 706 719 707 71
4 718 716 0 722 +18 714 33 0 713 708 729 715 ?666 29 715 34 0 714 730 709 -0.001
199909226501082 -0.0007709081033793204 0.001215239898860455 16 716 35 0 ?713 710
 720 717 0 0 666 30 717 36 0 716 721 711 0 +-0.001199909230872221 -0.00082090810
33793202 0.001215239898860455 -8.742277657347553e-008 -0.9999999999999962 0 17 7
18 0 766 761 733 708 713 716 0 758 -17 719 0 706 686 713 682 722 720 0 0 +16 720
 37 0 ?719 716 731 721 0 0 666 30 721 38 0 720 732 717 0 +-0.001199909226501082
 -0.0007709081033793204 0.001215239898860455 -0.9999999999999962 8.7422776573475
53e-008 0 17 722 0 727 728 692 714 719 720 0 733 -14 723 39 725 1e-008 738 702 7
27 701 724 -0 0 738 702 699 50 724 40 0 723 739 703 0 +-0.001199909226501082 -0.
0007709081033793204 0.001215239898860455 -8.742277657347553e-008 -0.999999999999
9962 0 -0.9999999999999962 8.742277657347553e-008 0 81 1 725 41 33 723 0 0 740 7
04 726 83 3 726 0.7529411911964417 0.7529411911964417 0.7529411911964417 15 727
 42 0 692 723 0 17 728 0 727 734 722 729 733 731 0 737 +18 729 43 0 728 714 744
 730 ?666 29 730 44 0 729 745 715 -0.001199909226501082 -0.0007709081033793204 6
.523989886045456e-005 16 731 45 0 ?728 720 735 732 0 0 666 30 732 46 0 731 736 7
21 0 +-0.001199909226501082 -0.0007709081033793204 0.001265239898860454 -0 0 -1
 17 733 0 766 718 748 714 728 731 0 0 -17 734 0 727 692 728 688 737 735 0 0 +16
 735 47 0 ?734 731 746 736 0 0 666 30 736 48 0 735 747 732 0 +-0.001199909226501
082 -0.0007709081033793204 6.523989886045456e-005 -0.9999999999999962 8.74227765
7347553e-008 0 17 737 0 742 743 696 729 734 735 0 748 -14 738 49 740 1e-008 753
 723 742 701 739 -0 0 753 723 699 50 739 50 0 738 754 724 0 +-0.0011999092265010
82 -0.0007709081033793204 6.523989886045456e-005 -0 0 -1 -0.9999999999999962 8.7
42277657347553e-008 0 81 1 740 51 33 738 0 0 755 725 741 83 3 741 0.752941191196
4417 0.7529411911964417 0.7529411911964417 15 742 52 0 696 738 0 17 743 0 742 74
9 737 744 748 746 0 752 +18 744 53 0 743 729 769 745 ?666 29 745 54 0 744 770 73
0 -0.001199909090995778 0.000779091896620674 6.523989886045456e-005 16 746 55 0
 ?743 735 750 747 0 0 666 30 747 56 0 746 751 736 0 +-0.001199909230872221 -0.00
08209081033793202 6.523989886045456e-005 8.742277657347553e-008 0.99999999999999
62 0 17 748 0 766 733 761 729 743 746 0 0 -17 749 0 742 696 743 679 752 750 0 0
 +16 750 57 0 ?749 746 759 751 0 0 666 30 751 58 0 750 760 747 0 +-0.00119990909
0995778 0.000779091896620674 6.523989886045456e-005 -0.9999999999999962 8.742277
657347553e-008 0 17 752 0 757 758 678 744 749 750 0 761 -14 753 59 755 1e-008 76
2 738 757 701 754 -0 0 762 738 699 50 754 60 0 753 763 739 0 +-0.001199909090995
779 0.000779091896620674 6.523989886045456e-005 8.742277657347553e-008 0.9999999
999999962 0 0.9999999999999962 -8.742277657347553e-008 0 81 1 755 61 33 753 0 0
 764 740 756 83 3 756 0.7529411911964417 0.7529411911964417 0.7529411911964417 1
5 757 62 0 678 753 0 17 758 0 757 712 752 708 761 759 0 0 +16 759 63 0 ?758 750
 771 760 0 0 666 30 760 64 0 759 772 751 0 +-0.001199909090995778 0.000779091896
620674 0.001265239898860454 0 0 1 17 761 0 766 748 718 744 758 759 0 0 -14 762 6
5 764 1e-008 792 753 766 701 763 -0 0 792 753 699 50 763 66 0 762 793 754 0 +-0.
001199909230872221 -0.0008209081033793202 0.001265239898860455 -0.99999999999999
62 8.742277657347553e-008 0 8.742277657347553e-008 0.9999999999999962 0 81 1 764
 67 33 762 0 0 794 755 765 83 3 765 0.7529411911964417 0.7529411911964417 0.7529
411911964417 15 766 68 0 748 762 767 15 767 69 0 768 762 0 17 768 0 767 776 788
 769 773 771 0 781 -18 769 70 0 768 744 774 770 ?666 29 770 71 0 769 775 745 -0.
001199909086624639 0.0008290918966206736 1.523989886045452e-005 16 771 72 0 ?773
 759 779 772 0 0 666 30 772 73 0 771 780 760 0 +-0.001199909086624639 0.00082909
18966206736 1.523989886045452e-005 -8.742277657347553e-008 -0.9999999999999962 0
 17 773 0 817 818 808 774 768 771 0 788 +18 774 74 0 773 769 777 775 ?666 29 775
 75 0 774 778 770 -0.001199909230872221 -0.0008209081033793202 1.523989886045452
e-005 17 776 0 767 782 768 777 781 779 0 787 -18 777 76 0 776 774 783 778 ?666 2
9 778 77 0 777 784 775 -0.001199909086624639 0.0008290918966206736 0.00126523989
8860454 16 779 78 0 ?781 771 785 780 0 0 666 30 780 79 0 779 786 772 0 +-0.00119
9909086624639 0.0008290918966206736 0.001265239898860454 -0 0 -1 17 781 0 796 80
3 797 769 776 779 0 808 +17 782 0 767 788 776 783 787 785 0 791 -18 783 80 0 782
 777 801 784 ?666 29 784 81 0 783 802 778 -0.001199909230872221 -0.0008209081033
793202 0.001265239898860454 16 785 82 0 ?787 779 789 786 0 0 666 30 786 83 0 785
 790 780 0 +-0.001199909230872221 -0.0008209081033793202 0.001265239898860454 8.
742277657347553e-008 0.9999999999999962 0 17 787 0 847 800 838 777 782 785 0 797
 +17 788 0 767 768 782 774 791 789 0 823 -16 789 84 0 ?791 785 798 790 0 0 666 3
0 790 85 0 789 799 786 0 +-0.001199909230872221 -0.0008209081033793202 1.5239898
86045452e-005 0 0 1 17 791 0 832 833 823 783 788 789 0 838 +14 792 86 794 1e-008
 813 762 796 701 793 +0 0 813 762 699 50 793 87 0 792 814 763 0 +-0.001199909086
624639 0.0008290918966206736 0.001265239898860455 8.742277657347553e-008 0.99999
99999999962 0 0.9999999999999962 -8.742277657347553e-008 0 81 1 794 88 33 792 0
 0 815 764 795 83 3 795 0.7529411911964417 0.7529411911964417 0.7529411911964417
 15 796 89 0 797 792 0 17 797 0 796 781 809 777 800 798 0 0 -16 798 90 0 ?800 78
9 806 799 0 0 666 30 799 91 0 798 807 790 0 +-0.001199909086624639 0.00082909189
66206736 0.001265239898860454 -0.9999999999999962 8.742277657347553e-008 0 17 80
0 0 847 848 787 801 797 798 0 809 +18 801 92 0 800 783 804 802 ?666 29 802 93 0
 801 805 784 -0.001599909086624638 0.0008290919315897843 0.001265239898860454 17
 803 0 796 809 781 804 808 806 0 812 -18 804 94 0 803 801 819 805 ?666 29 805 95
 0 804 820 802 -0.001599909086624638 0.0008290919315897843 1.523989886045452e-00
5 16 806 96 0 ?808 798 810 807 0 0 666 30 807 97 0 806 811 799 0 +-0.00119990908
6624639 0.0008290918966206736 1.523989886045452e-005 0.9999999999999962 -8.74227
7657347553e-008 -0 17 808 0 817 773 824 769 803 806 0 0 +17 809 0 796 797 803 80
1 812 810 0 851 -16 810 98 0 ?812 806 821 811 0 0 666 30 811 99 0 810 822 807 0
 +-0.001599909086624638 0.0008290919315897843 0.001265239898860454 -0 0 -1 17 81
2 0 856 827 851 804 809 810 0 824 +14 813 100 815 1e-008 828 792 817 701 814 +0
 0 828 792 699 50 814 101 0 813 829 793 0 +-0.001199909086624639 0.0008290918966
206736 1.523989886045452e-005 0 0 -1 -0.9999999999999962 8.742277657347553e-008
 0 81 1 815 102 33 813 0 0 830 794 816 83 3 816 0.7529411911964417 0.75294119119
64417 0.7529411911964417 15 817 103 0 808 813 0 17 818 0 817 824 773 819 823 821
 0 827 -18 819 104 0 818 804 834 820 ?666 29 820 105 0 819 835 805 -0.0015999092
30872219 -0.0008209080684102095 1.523989886045452e-005 16 821 106 0 ?823 810 825
 822 0 0 666 30 822 107 0 821 826 811 0 +-0.001199909230872221 -0.00082090810337
93202 1.523989886045452e-005 0.9999999999999962 -8.742277657347553e-008 0 17 823
 0 832 791 839 774 818 821 0 0 +17 824 0 817 808 818 804 827 825 0 0 -16 825 108
 0 ?827 821 836 826 0 0 666 30 826 109 0 825 837 822 0 +-0.001599909230872219 -0
.0008209080684102095 1.523989886045452e-005 -8.742277657347553e-008 -0.999999999
9999962 0 17 827 0 856 842 812 819 824 825 0 839 +14 828 110 830 1e-008 843 813
 832 701 829 +0 0 843 813 699 50 829 111 0 828 844 814 0 +-0.001199909230872221
 -0.0008209081033793202 1.523989886045452e-005 -8.742277657347553e-008 -0.999999
9999999962 0 -0.9999999999999962 8.742277657347553e-008 0 81 1 830 112 33 828 0
 0 845 815 831 83 3 831 0.7529411911964417 0.7529411911964417 0.7529411911964417
 15 832 113 0 823 828 0 17 833 0 832 839 791 834 838 836 0 842 -18 834 114 0 833
 819 0 835 ?666 29 835 115 0 834 0 820 -0.001599909230872219 -0.0008209080684102
095 0.001265239898860454 16 836 116 0 ?838 825 840 837 0 0 666 30 837 117 0 836
 841 826 0 +-0.001199909230872221 -0.0008209081033793202 0.001265239898860454 0.
9999999999999962 -8.742277657347553e-008 0 17 838 0 847 787 848 783 833 836 0 0
 +17 839 0 832 823 833 819 842 840 0 0 -16 840 118 0 ?842 836 849 841 0 0 666 30
 841 119 0 840 850 837 0 +-0.001599909230872219 -0.0008209080684102095 0.0012652
39898860454 0 0 1 17 842 0 856 851 827 834 839 840 0 848 +14 843 120 845 1e-008
 852 828 847 701 844 +0 0 852 828 699 50 844 121 0 843 853 829 0 +-0.00119990923
0872221 -0.0008209081033793202 0.001265239898860455 0 0 1 0.9999999999999962 -8.
742277657347553e-008 0 81 1 845 122 33 843 0 0 854 830 846 83 3 846 0.7529411911
964417 0.7529411911964417 0.7529411911964417 15 847 123 0 838 843 0 17 848 0 847
 838 800 834 851 849 0 0 -16 849 124 0 ?851 840 0 850 0 0 666 30 850 125 0 849 0
 841 0 +-0.001599909230872219 -0.0008209080684102095 0.001265239898860454 8.7422
77657347553e-008 0.9999999999999962 0 17 851 0 856 812 842 801 848 849 0 0 +14 8
52 126 854 1e-008 0 843 856 701 853 +0 0 0 843 699 50 853 127 0 852 0 844 0 +-0.
001599909230872219 -0.0008209080684102097 0.001265239898860455 -0.99999999999999
62 8.742277657347553e-008 0 8.742277657347553e-008 0.9999999999999962 0 81 1 854
 128 33 852 0 0 0 845 855 83 3 855 0.7529411911964417 0.7529411911964417 0.75294
11911964417 15 856 129 0 842 852 0 1 0 
