**ABCDEFGHIJKLMNOPQRSTUVWXYZabcdefghijklmnopqrstuvwxyz**************************
**PARASOLID !"#$%&'()*+,-./:;<=>?@[\]^_`{|}~0123456789**************************
**PART1;
MC=x86;
MC_MODEL=Intel64 Family 6 Model 60 Stepping 3, GenuineIntel;
MC_ID=unknown;
OS=Windows_NT;
OS_RELEASE=unknown;
FRU=CAD Exchanger 3.4.0 (cadexchanger.com);
APPL=unknown;
SITE=unknown;
USER=unknown;
FORMAT=text;
GUISE=transmit;
KEY=SOT89-150P400X160-3N_GALI-S66+;
FILE=SOT89-150P400X160-3N_GALI-S66+.x_t;
DATE=Thu Dec 27 14:29:44 2018;
**PART2;
SCH=SCH_1200000_12006;
USFLD_SIZE=0;
**PART3;
**END_OF_HEADER*****************************************************************
T51 : TRANSMIT FILE created by modeller version 120000017 SCH_1200000_120060 74
 4 1 4 0 2 189 290 559 12 2 124 0 3 0 0 0 0 1000 1e-008 0 0 0 1 0 1 1 63 7 13 11
 60 12 10 70 3 0 2 0 0 4 1 20 0 4 4 1 T74 20 4 1 0 5 0 0 0 0 0 0 0 0 0 0 0 0 0 0
 0 0 0 0 0 81 1 5 7 57 6 0 0 66 0 59 14 6 5 5 1e-008 64 0 8 63 7 +0 0 64 0 61 50
 7 6 0 6 65 0 0 +-0.002125082599508631 -0.0007999561417138379 -4.999999999999999
e-005 0 0 -1 -1.192488063850306e-008 1 0 15 8 8 0 9 6 0 17 9 0 8 17 53 10 14 12
 0 22 -18 10 9 0 9 0 15 11 ?2 29 11 10 0 10 16 0 0.001874917381411561 0.00080004
39059856848 -4.999999999999999e-005 16 12 11 0 ?14 0 20 13 0 0 2 30 13 12 0 12 2
1 0 0 +-0.0001925826185884396 0.000800043881330994 -4.999999999999999e-005 -1 -1
.192488063850306e-008 0 17 14 0 179 174 74 15 9 12 0 53 +18 15 13 0 14 10 18 16
 ?2 29 16 14 0 15 19 11 -0.0001925826185884396 0.000800043881330994 -4.999999999
999999e-005 17 17 0 8 23 9 18 22 20 0 28 -18 18 15 0 17 15 24 19 ?2 29 19 16 0 1
8 25 16 0.001874917400491369 -0.0007999560940143153 -4.999999999999999e-005 16 2
0 17 0 ?22 12 26 21 0 0 2 30 21 18 0 20 27 13 0 +0.001874917381411561 0.00080004
39059856848 -4.999999999999999e-005 -1.192488063850306e-008 1 0 17 22 0 68 69 81
 10 17 20 0 74 +17 23 0 8 29 17 24 28 26 0 96 -18 24 19 0 23 18 30 25 ?2 29 25 2
0 0 24 31 19 -0.0001925825995086305 -0.000799956118669006 -5.000000000000004e-00
5 16 26 21 0 ?28 20 32 27 0 0 2 30 27 22 0 26 33 21 0 +0.001874917400491369 -0.0
007999560940143153 -4.999999999999999e-005 1 1.192488063850306e-008 0 17 28 0 89
 84 96 18 23 26 0 81 +17 29 0 8 35 23 30 34 32 0 40 -18 30 23 0 29 24 36 31 ?2 2
9 31 24 0 30 37 25 -0.0007600826062760003 -0.0002324561254363757 -4.999999999999
999e-005 16 32 25 0 ?34 26 38 33 0 0 2 30 33 26 0 32 39 27 0 +-0.000192582599508
6305 -0.000799956118669006 -5.000000000000004e-005 0.7071067896187114 -0.7071067
727543835 0 17 34 0 104 99 111 24 29 32 0 0 +17 35 0 8 41 29 36 40 38 0 46 -18 3
6 27 0 35 30 42 37 ?2 29 37 28 0 36 43 31 -0.002125082606276 -0.0002324561417138
379 -4.999999999999999e-005 16 38 29 0 ?40 32 44 39 0 0 2 30 39 30 0 38 45 33 0
 +-0.0007600826062760003 -0.0002324561254363758 -4.999999999999999e-005 1 1.1924
88063850306e-008 0 17 40 0 119 114 126 30 35 38 0 111 +17 41 0 8 47 35 42 46 44
 0 52 -18 42 31 0 41 36 48 43 ?2 29 43 32 0 42 49 37 -0.00212508261182107 0.0002
325438582861621 -4.999999999999999e-005 16 44 33 0 ?46 38 50 45 0 0 2 30 45 34 0
 44 51 39 0 +-0.002125082606276 -0.0002324561417138379 -4.999999999999999e-005 1
.192488063850306e-008 -1 0 17 46 0 134 129 141 36 41 44 0 126 +17 47 0 8 53 41 4
8 52 50 0 56 -18 48 35 0 47 42 70 49 ?2 29 49 36 0 48 71 43 -0.00076008261182107
 0.0002325438745636241 -5.000000000000004e-005 16 50 37 0 ?52 44 54 51 0 0 2 30
 51 38 0 50 55 45 0 +-0.00212508261182107 0.0002325438582861621 -4.9999999999999
99e-005 -1 -1.192488063850306e-008 0 17 52 0 149 144 156 42 47 50 0 141 +17 53 0
 8 9 47 15 56 54 0 171 -16 54 39 0 ?56 50 72 55 0 0 2 30 55 40 0 54 73 51 0 +-0.
0007600826118210698 0.0002325438745636241 -5.000000000000004e-005 -0.70710677275
43835 -0.7071067896187114 0 17 56 0 164 159 171 48 53 54 0 156 +80 1 57 0 58 800
1 0 0 0 0 3 5 0 0 FFFFTFTFFFFFFF2 79 15 58 SDL/TYSA_COLOUR83 3 59 0.752941191196
4417 0.7529411911964417 0.7529411911964417 19 60 1 0 2 62 0 61 V13 61 2 0 2 0 0
 0 0 60 6 19 62 3 0 2 0 60 63 S13 63 4 0 2 0 6 0 0 62 0 14 64 41 66 1e-008 85 6
 68 63 65 +0 0 85 6 61 50 65 42 0 64 86 7 0 +0.001874917381411561 0.000800043905
9856848 0.000405 1 1.192488063850306e-008 0 0 0 -1 81 1 66 43 57 64 0 0 87 5 67
 83 3 67 0.7529411911964417 0.7529411911964417 0.7529411911964417 15 68 44 0 69
 64 0 17 69 0 68 75 22 70 74 72 0 80 -18 70 45 0 69 48 76 71 ?2 29 71 46 0 70 77
 49 0.001874917381411561 0.0008000439059856848 0.000405 16 72 47 0 ?74 54 78 73
 0 0 2 30 73 48 0 72 79 55 0 +0.001874917381411561 0.0008000439059856848 0.00040
5 0 0 -1 17 74 0 179 14 180 10 69 72 0 0 +17 75 0 68 81 69 76 80 78 0 84 +18 76
 49 0 75 70 91 77 ?2 29 77 50 0 76 92 71 0.001874917400491369 -0.000799956094014
3153 0.000405 16 78 51 0 ?75 72 82 79 0 0 2 30 79 52 0 78 83 73 0 +0.00187491740
0491369 -0.0007999560940143153 0.000405 1.192488063850306e-008 -1 -0 17 80 0 188
 183 95 70 75 78 0 180 -17 81 0 68 22 75 18 84 82 0 0 -16 82 53 0 ?84 78 93 83 0
 0 2 30 83 54 0 82 94 79 0 +0.001874917400491369 -0.0007999560940143153 0.000405
 0 -0 1 17 84 0 89 90 28 76 81 82 0 95 +14 85 55 87 1e-008 100 64 89 63 86 +0 0
 100 64 61 50 86 56 0 85 101 65 0 +0.00187491740049137 -0.0007999560940143153 0.
000405 1.192488063850306e-008 -1 0 0 0 -1 81 1 87 57 57 85 0 0 102 66 88 83 3 88
 0.7529411911964417 0.7529411911964417 0.7529411911964417 15 89 58 0 84 85 0 17
 90 0 89 96 84 91 95 93 0 0 +18 91 59 0 99 76 106 92 ?2 29 92 60 0 91 107 77 -0.
0001925825995086305 -0.000799956118669006 0.000405 16 93 61 0 ?90 82 97 94 0 0 2
 30 94 62 0 93 98 83 0 +-0.002125082599508631 -0.0007999561417138379 0.000405 -1
 -1.192488063850306e-008 0 17 95 0 188 80 110 76 90 93 0 0 -17 96 0 89 28 90 24
 99 97 0 34 -16 97 63 0 ?99 93 108 98 0 0 2 30 98 64 0 97 109 94 0 +-0.000192582
5995086305 -0.000799956118669006 0.000405 0 -0 1 17 99 0 104 105 34 91 96 97 0 1
10 +14 100 65 102 1e-008 115 85 104 63 101 +0 0 115 85 61 50 101 66 0 100 116 86
 0 +-0.0001925825995086305 -0.000799956118669006 0.000405 -0.7071067727543836 -0
.7071067896187115 -0 -0.7071067896187115 0.7071067727543836 0 81 1 102 67 57 100
 0 0 117 87 103 83 3 103 0.7529411911964417 0.7529411911964417 0.752941191196441
7 15 104 68 0 99 100 0 17 105 0 104 111 99 106 110 108 0 114 +18 106 69 0 105 91
 121 107 ?2 29 107 70 0 106 122 92 -0.0007600826062760003 -0.0002324561254363757
 0.000405 16 108 71 0 ?105 97 112 109 0 0 2 30 109 72 0 108 113 98 0 +-0.0001925
825995086305 -0.000799956118669006 0.000405 -0.7071067896187114 0.70710677275438
35 0 17 110 0 188 95 125 91 105 108 0 90 -17 111 0 104 34 105 30 114 112 0 0 -16
 112 73 0 ?114 108 123 113 0 0 2 30 113 74 0 112 124 109 0 +-0.00076008260627600
03 -0.0002324561254363758 0.000405 0 -0 1 17 114 0 119 120 40 106 111 112 0 125
 +14 115 75 117 1e-008 130 100 119 63 116 +0 0 130 100 61 50 116 76 0 115 131 10
1 0 +-0.0007600826062760003 -0.0002324561254363758 0.000405 1.192488063850306e-0
08 -1 0 0 0 -1 81 1 117 77 57 115 0 0 132 102 118 83 3 118 0.7529411911964417 0.
7529411911964417 0.7529411911964417 15 119 78 0 114 115 0 17 120 0 119 126 114 1
21 125 123 0 129 +18 121 79 0 120 106 136 122 ?2 29 122 80 0 121 137 107 -0.0021
25082606276 -0.0002324561417138379 0.000405 16 123 81 0 ?120 112 127 124 0 0 2 3
0 124 82 0 123 128 113 0 +-0.002125082606276 -0.0002324561417138379 0.000405 -1
 -1.192488063850306e-008 0 17 125 0 188 110 140 106 120 123 0 0 -17 126 0 119 40
 120 36 129 127 0 0 -16 127 83 0 ?129 123 138 128 0 0 2 30 128 84 0 127 139 124
 0 +-0.002125082606276 -0.0002324561417138379 0.000405 -0 0 1 17 129 0 134 135 4
6 121 126 127 0 140 +14 130 85 132 1e-008 145 115 134 63 131 +0 0 145 115 61 50
 131 86 0 130 146 116 0 +-0.002125082606276001 -0.0002324561417138379 0.000405 -
1 -1.192488063850306e-008 0 -0 0 1 81 1 132 87 57 130 0 0 147 117 133 83 3 133 0
.7529411911964417 0.7529411911964417 0.7529411911964417 15 134 88 0 129 130 0 17
 135 0 134 141 129 136 140 138 0 144 +18 136 89 0 135 121 151 137 ?2 29 137 90 0
 136 152 122 -0.00212508261182107 0.0002325438582861621 0.000405 16 138 91 0 ?13
5 127 142 139 0 0 2 30 139 92 0 138 143 128 0 +-0.002125082599508631 -0.00079995
61417138379 0.000405 -1.192488063850306e-008 1 0 17 140 0 188 125 155 121 135 13
8 0 0 -17 141 0 134 46 135 42 144 142 0 0 -16 142 93 0 ?144 138 153 143 0 0 2 30
 143 94 0 142 154 139 0 +-0.00212508261182107 0.0002325438582861621 0.000405 0 0
 1 17 144 0 149 150 52 136 141 142 0 155 +14 145 95 147 1e-008 160 130 149 63 14
6 +0 0 160 130 61 50 146 96 0 145 161 131 0 +-0.00212508261182107 0.000232543858
2861621 0.000405 -1.192488063850306e-008 1 0 0 0 1 81 1 147 97 57 145 0 0 162 13
2 148 83 3 148 0.7529411911964417 0.7529411911964417 0.7529411911964417 15 149 9
8 0 144 145 0 17 150 0 149 156 144 151 155 153 0 170 +18 151 99 0 150 136 166 15
2 ?2 29 152 100 0 151 167 137 -0.00076008261182107 0.0002325438745636241 0.00040
5 16 153 101 0 ?150 142 157 154 0 0 2 30 154 102 0 153 158 143 0 +-0.00212508261
182107 0.0002325438582861621 0.000405 1 1.192488063850306e-008 0 17 155 0 188 14
0 170 136 150 153 0 0 -17 156 0 149 52 150 48 159 157 0 0 -16 157 103 0 ?159 153
 168 158 0 0 2 30 158 104 0 157 169 154 0 +-0.0007600826118210698 0.000232543874
5636241 0.000405 -0 0 1 17 159 0 164 165 56 151 156 157 0 0 +14 160 105 162 1e-0
08 175 145 164 63 161 +0 0 175 145 61 50 161 106 0 160 176 146 0 +-0.00076008261
18210698 0.0002325438745636241 0.000405 -0.7071067896187115 0.7071067727543836 0
 0.7071067727543836 0.7071067896187115 0 81 1 162 107 57 160 0 0 177 147 163 83
 3 163 0.7529411911964417 0.7529411911964417 0.7529411911964417 15 164 108 0 159
 160 0 17 165 0 164 171 159 166 170 168 0 174 +18 166 109 0 165 151 0 167 ?2 29
 167 110 0 166 0 152 -0.0001925826185884396 0.000800043881330994 0.000405 16 168
 111 0 ?165 157 172 169 0 0 2 30 169 112 0 168 173 158 0 +-0.0007600826118210698
 0.0002325438745636241 0.000405 0.7071067727543835 0.7071067896187114 0 17 170 0
 188 155 183 151 165 168 0 159 -17 171 0 164 56 165 15 174 172 0 0 -16 172 113 0
 ?174 168 181 173 0 0 2 30 173 114 0 172 182 169 0 +-0.0001925826185884396 0.000
800043881330994 0.000405 0 0 1 17 174 0 179 180 14 166 171 172 0 183 +14 175 115
 177 1e-008 184 160 179 63 176 +0 0 184 160 61 50 176 116 0 175 185 161 0 +-0.00
01925826185884396 0.000800043881330994 0.000405 -1.192488063850306e-008 1 0 0 0
 1 81 1 177 117 57 175 0 0 186 162 178 83 3 178 0.7529411911964417 0.75294119119
64417 0.7529411911964417 15 179 118 0 174 175 0 17 180 0 179 74 174 70 183 181 0
 0 +16 181 119 0 ?180 172 0 182 0 0 2 30 182 120 0 181 0 173 0 +-0.0021250826185
8844 0.0008000438582861622 0.000405 1 1.192488063850306e-008 0 17 183 0 188 170
 80 166 180 181 0 0 -14 184 121 186 1e-008 0 175 188 63 185 -0 0 0 175 61 50 185
 122 0 184 0 176 0 +-0.002125082599508631 -0.0007999561417138379 0.000405 0 0 -1
 -1.192488063850306e-008 1 0 81 1 186 123 57 184 0 0 0 177 187 83 3 187 0.752941
1911964417 0.7529411911964417 0.7529411911964417 15 188 124 0 170 184 0 12 189 6
8 0 190 0 0 0 0 1000 1e-008 0 0 0 1 0 1 1 224 194 200 198 221 199 197 70 190 0 1
89 0 0 4 1 20 0 191 191 1 T74 20 191 1 0 192 0 0 0 0 0 0 0 0 0 0 0 0 0 0 0 0 0 0
 0 81 1 192 7 57 193 0 0 227 0 220 14 193 5 192 1e-008 225 0 195 224 194 +0 0 22
5 0 222 50 194 6 0 193 226 0 0 +-0.001225082624461443 0.001292543869018555 0.000
405 1.192488063850306e-008 -1 0 0 -0 1 15 195 8 0 196 193 0 17 196 0 195 204 216
 197 201 199 0 209 -18 197 9 0 196 0 202 198 ?189 29 198 10 0 197 203 0 -0.00122
5082624461443 0.001292543869018555 0.000405 16 199 11 0 ?201 0 207 200 0 0 189 3
0 200 12 0 199 208 0 0 +-0.001225082624461443 0.001292543869018555 0.000405 0 0
 -1 17 201 0 229 242 238 202 196 199 0 245 +18 202 13 0 201 197 205 203 ?189 29
 203 14 0 202 206 198 -0.001225082624461443 0.001292543869018555 -4.999999999999
999e-005 17 204 0 195 210 196 205 209 207 0 215 +18 205 15 0 204 202 211 206 ?18
9 29 206 16 0 205 212 203 -0.002125082624461443 0.001292543858286162 0.000405 16
 207 17 0 ?204 199 213 208 0 0 189 30 208 18 0 207 214 200 0 +-0.001225082624461
443 0.001292543869018555 0.000405 -1 -1.192488063850306e-008 0 17 209 0 280 241
 271 197 204 207 0 238 -17 210 0 195 216 204 211 215 213 0 260 -18 211 19 0 210
 205 231 212 ?189 29 212 20 0 211 232 206 -0.002125082624461443 0.00129254385828
6162 -4.999999999999999e-005 16 213 21 0 ?215 207 217 214 0 0 189 30 214 22 0 21
3 218 208 0 +-0.002125082624461443 0.001292543858286162 0.000405 -0 0 1 17 215 0
 265 266 260 205 210 213 0 271 +17 216 0 195 196 210 202 219 217 0 0 -16 217 23
 0 ?219 213 233 218 0 0 189 30 218 24 0 217 234 214 0 +-0.001225082624461443 0.0
01292543869018555 -4.999999999999999e-005 -1 -1.192488063850306e-008 0 17 219 0
 250 257 245 211 216 217 0 0 +83 3 220 0.7529411911964417 0.7529411911964417 0.7
529411911964417 19 221 1 0 189 223 0 222 V13 222 2 0 189 0 0 0 0 221 193 19 223
 3 0 189 0 221 224 S13 224 4 0 189 0 193 0 0 223 0 14 225 25 227 1e-008 246 193
 229 224 226 +0 0 246 193 222 50 226 26 0 225 247 194 0 +-0.001225082629410269 0
.001707543869018555 0.000405 1 1.192488063850306e-008 0 0 0 1 81 1 227 27 57 225
 0 0 248 192 228 83 3 228 0.7529411911964417 0.7529411911964417 0.75294119119644
17 15 229 28 0 230 225 0 17 230 0 229 238 242 231 235 233 0 241 -18 231 29 0 230
 211 236 232 ?189 29 232 30 0 231 237 212 -0.001225082629410269 0.00170754386901
8555 0.000405 16 233 31 0 ?235 217 239 234 0 0 189 30 234 32 0 233 240 218 0 +-0
.001225082629410269 0.001707543869018555 0.000405 0 0 -1 17 235 0 289 254 284 23
6 230 233 0 0 +18 236 33 0 242 231 255 237 ?189 29 237 34 0 236 256 232 -0.00122
5082629410269 0.001707543869018555 -4.999999999999999e-005 17 238 0 229 201 230
 197 241 239 0 0 +16 239 35 0 ?238 233 243 240 0 0 189 30 240 36 0 239 244 234 0
 +-0.001225082629410269 0.001707543869018555 0.000405 1.192488063850306e-008 -1
 0 17 241 0 280 281 209 231 238 239 0 284 -17 242 0 229 230 201 236 245 243 0 25
1 -16 243 37 0 ?245 239 252 244 0 0 189 30 244 38 0 243 253 240 0 +-0.0012250826
29410269 0.001707543869018555 -4.999999999999999e-005 1.192488063850306e-008 -1
 0 17 245 0 250 219 251 202 242 243 0 216 +14 246 39 248 1e-008 261 225 250 224
 247 +0 0 261 225 222 50 247 40 0 246 262 226 0 +-0.001225082629410269 0.0017075
43869018555 -4.999999999999999e-005 0 0 -1 1.192488063850306e-008 -1 0 81 1 248
 41 57 246 0 0 263 227 249 83 3 249 0.7529411911964417 0.7529411911964417 0.7529
411911964417 15 250 42 0 251 246 0 17 251 0 250 245 257 236 254 252 0 235 -16 25
2 43 0 ?254 243 258 253 0 0 189 30 253 44 0 252 259 244 0 +-0.002125082629410269
 0.001707543858286162 -4.999999999999999e-005 -1 -1.192488063850306e-008 0 17 25
4 0 289 275 235 255 251 252 0 257 +18 255 45 0 254 236 267 256 ?189 29 256 46 0
 255 268 237 -0.002125082629410269 0.001707543858286162 -4.999999999999999e-005
 17 257 0 250 251 219 255 260 258 0 272 -16 258 47 0 ?260 252 269 259 0 0 189 30
 259 48 0 258 270 253 0 +-0.002125082624461443 0.001292543858286162 -4.999999999
999999e-005 1.192488063850306e-008 -1 0 17 260 0 265 215 272 211 257 258 0 219 +
14 261 49 263 1e-008 276 246 265 224 262 +0 0 276 246 222 50 262 50 0 261 277 24
7 0 +-0.002125082624461443 0.001292543858286162 0.000405 -1 -1.192488063850306e-
008 0 0 0 -1 81 1 263 51 57 261 0 0 278 248 264 83 3 264 0.7529411911964417 0.75
29411911964417 0.7529411911964417 15 265 52 0 215 261 0 17 266 0 265 272 215 267
 271 269 0 275 +18 267 53 0 266 255 0 268 ?189 29 268 54 0 267 0 256 -0.00212508
2629410269 0.001707543858286162 0.000405 16 269 55 0 ?266 258 273 270 0 0 189 30
 270 56 0 269 274 259 0 +-0.002125082629410269 0.001707543858286162 0.000405 -1.
192488063850306e-008 1 -0 17 271 0 280 209 281 205 266 269 0 0 -17 272 0 265 260
 266 255 275 273 0 0 -16 273 57 0 ?275 269 282 274 0 0 189 30 274 58 0 273 283 2
70 0 +-0.002125082629410269 0.001707543858286162 0.000405 0 0 1 17 275 0 289 284
 254 267 272 273 0 281 +14 276 59 278 1e-008 285 261 280 224 277 -0 0 285 261 22
2 50 277 60 0 276 286 262 0 +-0.001225082629410269 0.001707543869018555 0.000405
 0 0 -1 1.192488063850306e-008 -1 0 81 1 278 61 57 276 0 0 287 263 279 83 3 279
 0.7529411911964417 0.7529411911964417 0.7529411911964417 15 280 62 0 271 276 0
 17 281 0 280 271 241 267 284 282 0 0 -16 282 63 0 ?284 273 0 283 0 0 189 30 283
 64 0 282 0 274 0 +-0.002125082629410269 0.001707543858286162 0.000405 1 1.19248
8063850306e-008 -0 17 284 0 289 235 275 231 281 282 0 0 +14 285 65 287 1e-008 0
 276 289 224 286 +0 0 0 276 222 50 286 66 0 285 0 277 0 +-0.002125082629410269 0
.001707543858286162 0.000405 -1.192488063850306e-008 1 0 0 0 -1 81 1 287 67 57 2
85 0 0 0 278 288 83 3 288 0.7529411911964417 0.7529411911964417 0.75294119119644
17 15 289 68 0 275 285 0 12 290 180 0 291 0 0 0 0 1000 1e-008 0 0 0 1 0 1 1 325
 295 301 299 322 300 298 70 291 0 290 0 0 4 1 20 0 292 292 1 T74 20 292 1 0 293
 0 0 0 0 0 0 0 0 0 0 0 0 0 0 0 0 0 0 0 81 1 293 7 57 294 0 0 328 0 321 14 294 5
 293 1e-008 326 0 296 325 295 -0 0 326 0 323 50 295 6 0 294 327 0 0 +-0.00019258
25995086308 -0.000799956118669006 0 1.192488063850306e-008 -1 0 0 0 -1 15 296 8
 0 297 294 0 17 297 0 296 305 317 298 302 300 0 310 +18 298 9 0 297 0 303 299 ?2
90 29 299 10 0 298 304 0 0.001274917400491369 -0.0007999561011692436 0.000405 16
 300 11 0 ?297 0 308 301 0 0 290 30 301 12 0 300 309 0 0 +-0.001225082599508631
 -0.0007999561309814451 0.000405 1 1.192488063850306e-008 0 17 302 0 401 334 402
 303 297 300 0 331 -18 303 13 0 302 298 306 304 ?290 29 304 14 0 303 307 299 -0.
0001925825995086308 -0.000799956118669006 0.0004050000000000001 17 305 0 296 311
 297 306 310 308 0 316 -18 306 15 0 305 303 312 307 ?290 29 307 16 0 306 313 304
 0.001274917400491369 -0.0007999561011692436 0 16 308 17 0 ?310 300 314 309 0 0
 290 30 309 18 0 308 315 301 0 +0.001274917400491369 -0.0007999561011692436 0 0
 0 1 17 310 0 519 405 447 298 305 308 0 402 +17 311 0 296 317 305 312 316 314 0
 342 +18 312 19 0 311 306 335 313 ?290 29 313 20 0 312 336 307 -0.00019258259950
86308 -0.000799956118669006 0 16 314 21 0 ?311 308 318 315 0 0 290 30 315 22 0 3
14 319 309 0 +-0.001225082599508631 -0.0007999561309814451 0 -1 -1.1924880638503
06e-008 0 17 316 0 441 442 342 306 311 314 0 447 -17 317 0 296 297 311 303 320 3
18 0 0 +16 318 23 0 ?317 314 332 319 0 0 290 30 319 24 0 318 333 315 0 +-0.00019
25825995086308 -0.000799956118669006 0 0 0 1 17 320 0 330 337 331 312 317 318 0
 0 -83 3 321 0 0 0 19 322 1 0 290 324 0 323 V13 323 2 0 290 0 0 0 0 322 294 19 3
24 3 0 290 0 322 325 S13 325 4 0 290 0 294 0 0 324 0 14 326 25 328 1e-008 347 29
4 330 325 327 -0 0 347 294 323 50 327 26 0 326 348 295 0 +-0.0007600826062760005
 -0.000232456125436376 0 -0.7071067727543836 -0.7071067896187115 0 0.70710678961
87115 -0.7071067727543836 0 81 1 328 27 57 326 0 0 349 293 329 83 3 329 0 0 0 15
 330 28 0 331 326 0 17 331 0 330 320 343 303 334 332 0 317 +16 332 29 0 ?331 318
 340 333 0 0 290 30 333 30 0 332 341 319 0 +-0.0007600826062760005 -0.0002324561
254363759 0.000405 0.7071067896187114 -0.7071067727543835 0 17 334 0 401 406 302
 335 331 332 0 343 -18 335 31 0 334 312 338 336 ?290 29 336 32 0 335 339 313 -0.
0007600826062760005 -0.0002324561254363759 0.0004050000000000001 17 337 0 330 34
3 320 338 342 340 0 346 +18 338 33 0 432 335 353 339 ?290 29 339 34 0 338 354 33
6 -0.0007600826062760005 -0.0002324561254363759 0 16 340 35 0 ?337 332 344 341 0
 0 290 30 341 36 0 340 345 333 0 +-0.0001925825995086308 -0.000799956118669006 0
 -0.7071067896187114 0.7071067727543835 0 17 342 0 441 316 432 312 337 340 0 320
 -17 343 0 330 331 337 335 346 344 0 411 +16 344 37 0 ?343 340 355 345 0 0 290 3
0 345 38 0 344 356 341 0 +-0.0007600826062760005 -0.0002324561254363759 0 0 0 1
 17 346 0 426 427 411 338 343 344 0 0 -14 347 39 349 1e-008 376 326 351 325 348
 -0 0 376 326 323 50 348 40 0 347 377 327 0 +0.001274917381411561 0.000800043898
8307563 0 -1.192488063850306e-008 1 0 0 0 1 81 1 349 41 57 347 0 0 378 328 350 8
3 3 350 0 0 0 15 351 42 0 352 347 0 17 352 0 351 360 372 353 357 355 0 365 +18 3
53 43 0 386 338 358 354 ?290 29 354 44 0 353 359 339 -0.0001925826185884396 0.00
0800043881330994 0.0004050000000000001 16 355 45 0 ?352 344 363 356 0 0 290 30 3
56 46 0 355 364 345 0 +-0.00122508261858844 0.0008000438690185548 0.000405 -1 -1
.192488063850306e-008 0 17 357 0 401 402 386 358 352 355 0 405 -18 358 47 0 372
 353 361 359 ?290 29 359 48 0 358 362 354 0.001274917381411561 0.000800043898830
7563 0.000405 17 360 0 351 366 352 361 365 363 0 0 +18 361 49 0 371 358 367 362
 ?290 29 362 50 0 361 368 359 -0.0001925826185884396 0.000800043881330994 0 16 3
63 51 0 ?360 355 369 364 0 0 290 30 364 52 0 363 370 356 0 +-0.00019258261858843
96 0.000800043881330994 0 -0 0 -1 17 365 0 380 381 393 353 360 363 0 0 -17 366 0
 351 372 360 367 371 369 0 375 +18 367 53 0 366 361 382 368 ?290 29 368 54 0 367
 383 362 0.001274917381411561 0.0008000438988307563 0 16 369 55 0 ?366 363 373 3
70 0 0 290 30 370 56 0 369 374 364 0 +-0.00122508261858844 0.0008000438690185548
 0 1 1.192488063850306e-008 0 17 371 0 462 396 481 361 366 369 0 393 -17 372 0 3
51 352 366 358 375 373 0 357 -16 373 57 0 ?375 369 384 374 0 0 290 30 374 58 0 3
73 385 370 0 +0.001274917381411561 0.0008000438988307563 0 -0 0 -1 17 375 0 519
 484 405 367 372 373 0 481 +14 376 59 378 1e-008 397 347 380 325 377 -0 0 397 34
7 323 50 377 60 0 376 398 348 0 +-0.0001925826185884396 0.000800043881330994 0 -
0.7071067896187115 0.7071067727543836 0 -0.7071067727543836 -0.7071067896187115
 0 81 1 378 61 57 376 0 0 399 349 379 83 3 379 0 0 0 15 380 62 0 381 376 0 17 38
1 0 380 387 365 382 386 384 0 392 +18 382 63 0 381 367 388 383 ?290 29 383 64 0
 382 389 368 -0.00076008261182107 0.0002325438745636239 0.0004050000000000001 16
 384 65 0 ?381 373 390 385 0 0 290 30 385 66 0 384 391 374 0 +-0.000192582618588
4396 0.000800043881330994 0.000405 -0.7071067727543834 -0.7071067896187117 0 17
 386 0 401 357 418 353 381 384 0 352 -17 387 0 380 393 381 388 392 390 0 396 +18
 388 67 0 387 382 407 389 ?290 29 389 68 0 388 408 383 -0.00076008261182107 0.00
02325438745636239 0 16 390 69 0 ?387 384 394 391 0 0 290 30 391 70 0 390 395 385
 0 +-0.00076008261182107 0.0002325438745636239 0 -0 0 -1 17 392 0 489 421 468 38
2 387 390 0 418 -17 393 0 380 365 387 361 396 394 0 360 +16 394 71 0 ?393 390 40
3 395 0 0 290 30 395 72 0 394 404 391 0 +-0.00076008261182107 0.0002325438745636
239 0 0.7071067727543834 0.7071067896187117 0 17 396 0 462 463 371 388 393 394 0
 468 -14 397 73 399 1e-008 422 376 401 325 398 -0 0 422 376 323 50 398 74 0 397
 423 377 0 +-0.001225082635879517 0.002250043869018555 0.000405 0 0 1 1.19248806
3850306e-008 -1 0 81 1 399 75 57 397 0 0 424 378 400 83 3 400 0 0 0 15 401 76 0
 386 397 0 17 402 0 401 302 357 298 405 403 0 0 -16 403 77 0 ?405 394 409 404 0
 0 290 30 404 78 0 403 410 395 0 +0.001274917417782446 -0.002249956101169244 0.0
00405 -1.192488063850306e-008 1 0 17 405 0 519 375 310 358 402 403 0 0 +17 406 0
 401 412 334 407 411 409 0 417 +18 407 79 0 433 388 413 408 ?290 29 408 80 0 407
 414 389 -0.001225082606276001 -0.0002324561309814453 0.000405 16 409 81 0 ?406
 403 415 410 0 0 290 30 410 82 0 409 416 404 0 +-0.001225082606276001 -0.0002324
561309814453 0.000405 -1 -1.192488063850306e-008 0 17 411 0 426 346 433 335 406
 409 0 0 -17 412 0 401 418 406 413 417 415 0 421 -18 413 83 0 493 407 428 414 ?2
90 29 414 84 0 413 429 408 -0.00122508261182107 0.0002325438690185546 0.000405 1
6 415 85 0 ?417 409 419 416 0 0 290 30 416 86 0 415 420 410 0 +-0.00122508263587
9517 0.002250043869018555 0.000405 1.192488063850306e-008 -1 0 17 417 0 549 436
 493 407 412 415 0 0 +17 418 0 401 386 412 382 421 419 0 0 +16 419 87 0 ?418 415
 430 420 0 0 290 30 420 88 0 419 431 416 0 +-0.00076008261182107 0.0002325438745
636239 0.000405 1 1.192488063850306e-008 0 17 421 0 489 490 392 413 418 419 0 0
 -14 422 89 424 1e-008 437 397 426 325 423 -0 0 437 397 323 50 423 90 0 422 438
 398 0 +-0.001225082606276001 -0.0002324561309814453 0 1.192488063850306e-008 -1
 0 0 0 -1 81 1 424 91 57 422 0 0 439 399 425 83 3 425 0 0 0 15 426 92 0 411 422
 0 17 427 0 426 433 346 428 432 430 0 436 +18 428 93 0 427 413 443 429 ?290 29 4
29 94 0 428 444 414 -0.001225082606276001 -0.0002324561309814453 0 16 430 95 0 ?
427 419 434 431 0 0 290 30 431 96 0 430 435 420 0 +-0.001225082606276001 -0.0002
324561309814453 0 -1 -1.192488063850306e-008 0 17 432 0 441 342 454 338 427 430
 0 337 -17 433 0 426 411 427 407 436 434 0 406 -16 434 97 0 ?436 430 445 435 0 0
 290 30 435 98 0 434 446 431 0 +-0.001225082606276001 -0.0002324561309814453 0 0
 -0 -1 17 436 0 549 457 417 428 433 434 0 454 +14 437 99 439 1e-008 458 422 441
 325 438 -0 0 458 422 323 50 438 100 0 437 459 423 0 +-0.001225082635879517 0.00
2250043869018555 0 0 0 1 1.192488063850306e-008 -1 0 81 1 439 101 57 437 0 0 460
 424 440 83 3 440 0 0 0 15 441 102 0 316 437 0 17 442 0 441 448 316 443 447 445
 0 453 -18 443 103 0 442 428 449 444 ?290 29 444 104 0 443 450 429 0.00127491741
7782446 -0.002249956101169244 0 16 445 105 0 ?447 434 451 446 0 0 290 30 446 106
 0 445 452 435 0 +0.001274917417782446 -0.002249956101169244 0 -1.19248806385030
6e-008 1 0 17 447 0 519 310 510 306 442 445 0 0 +17 448 0 441 454 442 449 453 45
1 0 457 -18 449 107 0 448 443 464 450 ?290 29 450 108 0 449 465 444 -0.001225082
582217554 -0.002249956130981446 0 16 451 109 0 ?453 445 455 452 0 0 290 30 452 1
10 0 451 456 446 0 +-0.001225082582217554 -0.002249956130981446 0 1 1.1924880638
50306e-008 0 17 453 0 498 505 499 443 448 451 0 510 +17 454 0 441 432 448 428 45
7 455 0 0 -16 455 111 0 ?457 451 466 456 0 0 290 30 456 112 0 455 467 452 0 +-0.
001225082635879517 0.002250043869018555 0 1.192488063850306e-008 -1 0 17 457 0 5
49 502 436 449 454 455 0 499 +14 458 113 460 1e-008 485 437 462 325 459 -0 0 485
 437 323 50 459 114 0 458 486 438 0 +-0.001225082635879517 0.002250043869018555
 0 0 0 1 1.192488063850306e-008 -1 0 81 1 460 115 57 458 0 0 487 439 461 83 3 46
1 0 0 0 15 462 116 0 463 458 0 17 463 0 462 469 396 464 468 466 0 474 +18 464 11
7 0 490 449 470 465 ?290 29 465 118 0 464 471 450 -0.00122508261182107 0.0002325
438690185546 0 16 466 119 0 ?463 455 472 467 0 0 290 30 467 120 0 466 473 456 0
 +-0.00076008261182107 0.0002325438745636239 0 -1 -1.192488063850306e-008 0 17 4
68 0 489 392 490 388 463 466 0 0 -17 469 0 462 475 463 470 474 472 0 480 -18 470
 121 0 469 464 476 471 ?290 29 471 122 0 470 477 465 -0.001225082635879517 0.002
250043869018555 0 16 472 123 0 ?474 466 478 473 0 0 290 30 473 124 0 472 479 467
 0 +-0.001225082635879517 0.002250043869018555 0 1.192488063850306e-008 -1 0 17
 474 0 549 493 540 464 469 472 0 0 +17 475 0 462 481 469 476 480 478 0 484 -18 4
76 125 0 525 470 503 477 ?290 29 477 126 0 476 504 471 0.001274917364120483 0.00
2250043898830756 0 16 478 127 0 ?480 472 482 479 0 0 290 30 479 128 0 478 483 47
3 0 +0.001274917364120483 0.002250043898830756 0 -1 -1.192488063850306e-008 0 17
 480 0 534 535 525 470 475 478 0 540 +17 481 0 462 371 475 367 484 482 0 0 -16 4
82 129 0 ?484 478 491 483 0 0 290 30 483 130 0 482 492 479 0 +0.0012749174177824
46 -0.002249956101169244 0 -1.192488063850306e-008 1 0 17 484 0 519 520 375 476
 481 482 0 0 +14 485 131 487 1e-008 494 458 489 325 486 -0 0 494 458 323 50 486
 132 0 485 495 459 0 +-0.00076008261182107 0.0002325438745636239 0 -1.1924880638
50306e-008 1 0 0 0 1 81 1 487 133 57 485 0 0 496 460 488 83 3 488 0 0 0 15 489 1
34 0 421 485 0 17 490 0 489 468 421 464 493 491 0 463 -16 491 135 0 ?493 482 500
 492 0 0 290 30 492 136 0 491 501 483 0 +-0.00122508261182107 0.0002325438690185
546 0 0 0 1 17 493 0 549 417 474 413 490 491 0 412 +14 494 137 496 1e-008 515 48
5 498 325 495 +0 0 515 485 323 50 495 138 0 494 516 486 0 +-0.001225082582217554
 -0.002249956130981446 0 1.192488063850306e-008 -1 0 0 0 -1 81 1 496 139 57 494
 0 0 517 487 497 83 3 497 0 0 0 15 498 140 0 499 494 0 17 499 0 498 453 511 449
 502 500 0 0 -16 500 141 0 ?502 491 508 501 0 0 290 30 501 142 0 500 509 492 0 +
-0.001225082582217554 -0.002249956130981446 0 0 0 1 17 502 0 549 550 457 503 499
 500 0 511 +18 503 143 0 502 476 506 504 ?290 29 504 144 0 503 507 477 -0.001225
082582217554 -0.002249956130981446 0.0015 17 505 0 498 511 453 506 510 508 0 514
 -18 506 145 0 505 503 521 507 ?290 29 507 146 0 506 522 504 0.00127491741778244
6 -0.002249956101169244 0.0015 16 508 147 0 ?510 500 512 509 0 0 290 30 509 148
 0 508 513 501 0 +0.001274917417782446 -0.002249956101169244 0 0 0 -1 17 510 0 5
19 447 526 443 505 508 0 0 +17 511 0 498 499 505 503 514 512 0 553 -16 512 149 0
 ?514 508 523 513 0 0 290 30 513 150 0 512 524 509 0 +-0.001225082582217554 -0.0
02249956130981446 0.0015 1 1.192488063850306e-008 0 17 514 0 558 529 553 506 511
 512 0 526 +14 515 151 517 1e-008 530 494 519 325 516 +0 0 530 494 323 50 516 15
2 0 515 531 495 0 +0.001274917417782446 -0.002249956101169245 0 1 1.192488063850
306e-008 0 0 0 1 81 1 517 153 57 515 0 0 532 496 518 83 3 518 0 0 0 15 519 154 0
 310 515 0 17 520 0 519 526 484 521 525 523 0 529 -18 521 155 0 520 506 536 522
 ?290 29 522 156 0 521 537 507 0.001274917364120483 0.002250043898830756 0.0015
 16 523 157 0 ?525 512 527 524 0 0 290 30 524 158 0 523 528 513 0 +0.00127491736
4120483 0.002250043898830756 0 -0 0 -1 17 525 0 534 480 541 476 520 523 0 475 +1
7 526 0 519 510 520 506 529 527 0 0 -16 527 159 0 ?529 523 538 528 0 0 290 30 52
8 160 0 527 539 524 0 +0.001274917364120483 0.002250043898830756 0.0015 -1.19248
8063850306e-008 1 0 17 529 0 558 544 514 521 526 527 0 541 +14 530 161 532 1e-00
8 545 515 534 325 531 +0 0 545 515 323 50 531 162 0 530 546 516 0 +0.00127491736
4120484 0.002250043898830757 0 -1.192488063850306e-008 1 0 0 0 1 81 1 532 163 57
 530 0 0 547 517 533 83 3 533 0 0 0 15 534 164 0 525 530 0 17 535 0 534 541 480
 536 540 538 0 544 -18 536 165 0 535 521 0 537 ?290 29 537 166 0 536 0 522 -0.00
1225082635879517 0.002250043869018555 0.0015 16 538 167 0 ?540 527 542 539 0 0 2
90 30 539 168 0 538 543 528 0 +-0.001225082635879517 0.002250043869018555 0 0 -0
 -1 17 540 0 549 474 550 470 535 538 0 0 +17 541 0 534 525 535 521 544 542 0 0 -
16 542 169 0 ?544 538 551 543 0 0 290 30 543 170 0 542 552 539 0 +-0.00122508263
5879517 0.002250043869018555 0.0015 -1 -1.192488063850306e-008 0 17 544 0 558 55
3 529 536 541 542 0 550 +14 545 171 547 1e-008 554 530 549 325 546 +0 0 554 530
 323 50 546 172 0 545 555 531 0 +-0.001225082635879517 0.002250043869018555 0 -1
 -1.192488063850306e-008 0 0 -0 -1 81 1 547 173 57 545 0 0 556 532 548 83 3 548
 0 0 0 15 549 174 0 493 545 0 17 550 0 549 540 502 536 553 551 0 0 -16 551 175 0
 ?553 542 0 552 0 0 290 30 552 176 0 551 0 543 0 +-0.001225082635879517 0.002250
043869018555 0.0015 1.192488063850306e-008 -1 0 17 553 0 558 514 544 503 550 551
 0 0 +14 554 177 556 1e-008 0 545 558 325 555 +0 0 0 545 323 50 555 178 0 554 0
 546 0 +-0.001225082635879517 0.002250043869018555 0.0015 0 0 1 1.19248806385030
6e-008 -1 0 81 1 556 179 57 554 0 0 0 547 557 83 3 557 0 0 0 15 558 180 0 544 55
4 0 12 559 68 0 560 0 0 0 0 1000 1e-008 0 0 0 1 0 1 1 594 564 570 568 591 569 56
7 70 560 0 559 0 0 4 1 20 0 561 561 1 T74 20 561 1 0 562 0 0 0 0 0 0 0 0 0 0 0 0
 0 0 0 0 0 0 0 81 1 562 7 57 563 0 0 597 0 590 14 563 5 562 1e-008 595 0 565 594
 564 +0 0 595 0 592 50 564 6 0 563 596 0 0 +-0.001225082588686801 -0.00170745613
0981445 0.000405 1.192488063850306e-008 -1 0 0 -0 1 15 565 8 0 566 563 0 17 566
 0 565 574 586 567 571 569 0 579 -18 567 9 0 566 0 572 568 ?559 29 568 10 0 567
 573 0 -0.001225082588686801 -0.001707456130981445 0.000405 16 569 11 0 ?571 0 5
77 570 0 0 559 30 570 12 0 569 578 0 0 +-0.001225082588686801 -0.001707456130981
445 0.000405 0 0 -1 17 571 0 599 612 608 572 566 569 0 586 +18 572 13 0 571 567
 575 573 ?559 29 573 14 0 572 576 568 -0.001225082588686801 -0.00170745613098144
5 -4.999999999999999e-005 17 574 0 565 580 566 575 579 577 0 585 +18 575 15 0 57
4 572 581 576 ?559 29 576 16 0 575 582 573 -0.002125082588686802 -0.001707456141
713838 0.000405 16 577 17 0 ?574 569 583 578 0 0 559 30 578 18 0 577 584 570 0 +
-0.001225082588686801 -0.001707456130981445 0.000405 -1 -1.192488063850306e-008
 0 17 579 0 650 611 641 567 574 577 0 608 -17 580 0 565 586 574 581 585 583 0 58
9 -18 581 19 0 580 575 601 582 ?559 29 582 20 0 581 602 576 -0.00212508258868680
2 -0.001707456141713838 -4.999999999999999e-005 16 583 21 0 ?585 577 587 584 0 0
 559 30 584 22 0 583 588 578 0 +-0.002125082588686802 -0.001707456141713838 0.00
0405 -0 0 1 17 585 0 635 636 630 575 580 583 0 641 +17 586 0 565 566 580 572 589
 587 0 615 -16 587 23 0 ?589 583 603 588 0 0 559 30 588 24 0 587 604 584 0 +-0.0
01225082588686801 -0.001707456130981445 -4.999999999999999e-005 -1 -1.1924880638
50306e-008 0 17 589 0 620 627 615 581 586 587 0 630 +83 3 590 0.7529411911964417
 0.7529411911964417 0.7529411911964417 19 591 1 0 559 593 0 592 V13 592 2 0 559
 0 0 0 0 591 563 19 593 3 0 559 0 591 594 S13 594 4 0 559 0 563 0 0 593 0 14 595
 25 597 1e-008 616 563 599 594 596 +0 0 616 563 592 50 596 26 0 595 617 564 0 +-
0.001225082593635627 -0.001292456130981445 0.000405 1 1.192488063850306e-008 0 0
 0 1 81 1 597 27 57 595 0 0 618 562 598 83 3 598 0.7529411911964417 0.7529411911
964417 0.7529411911964417 15 599 28 0 600 595 0 17 600 0 599 608 612 601 605 603
 0 611 -18 601 29 0 600 581 606 602 ?559 29 602 30 0 601 607 582 -0.001225082593
635627 -0.001292456130981445 0.000405 16 603 31 0 ?605 587 609 604 0 0 559 30 60
4 32 0 603 610 588 0 +-0.001225082593635627 -0.001292456130981445 0.000405 0 0 -
1 17 605 0 659 624 654 606 600 603 0 612 +18 606 33 0 605 601 625 607 ?559 29 60
7 34 0 606 626 602 -0.001225082593635627 -0.001292456130981445 -4.99999999999999
9e-005 17 608 0 599 571 600 567 611 609 0 0 +16 609 35 0 ?608 603 613 610 0 0 55
9 30 610 36 0 609 614 604 0 +-0.001225082593635627 -0.001292456130981445 0.00040
5 1.192488063850306e-008 -1 0 17 611 0 650 651 579 601 608 609 0 654 -17 612 0 5
99 600 571 606 615 613 0 621 -16 613 37 0 ?615 609 622 614 0 0 559 30 614 38 0 6
13 623 610 0 +-0.001225082593635627 -0.001292456130981445 -4.999999999999999e-00
5 1.192488063850306e-008 -1 0 17 615 0 620 589 621 572 612 613 0 0 +14 616 39 61
8 1e-008 631 595 620 594 617 +0 0 631 595 592 50 617 40 0 616 632 596 0 +-0.0012
25082593635627 -0.001292456130981445 -4.999999999999999e-005 0 0 -1 1.1924880638
50306e-008 -1 0 81 1 618 41 57 616 0 0 633 597 619 83 3 619 0.7529411911964417 0
.7529411911964417 0.7529411911964417 15 620 42 0 621 616 0 17 621 0 620 615 627
 606 624 622 0 0 -16 622 43 0 ?624 613 628 623 0 0 559 30 623 44 0 622 629 614 0
 +-0.002125082593635627 -0.001292456141713838 -4.999999999999999e-005 -1 -1.1924
88063850306e-008 0 17 624 0 659 645 605 625 621 622 0 627 +18 625 45 0 624 606 6
37 626 ?559 29 626 46 0 625 638 607 -0.002125082593635627 -0.001292456141713838
 -4.999999999999999e-005 17 627 0 620 621 589 625 630 628 0 642 -16 628 47 0 ?63
0 622 639 629 0 0 559 30 629 48 0 628 640 623 0 +-0.002125082588686802 -0.001707
456141713838 -4.999999999999999e-005 1.192488063850306e-008 -1 0 17 630 0 635 58
5 642 581 627 628 0 0 +14 631 49 633 1e-008 646 616 635 594 632 +0 0 646 616 592
 50 632 50 0 631 647 617 0 +-0.002125082588686802 -0.001707456141713838 0.000405
 -1 -1.192488063850306e-008 0 0 0 -1 81 1 633 51 57 631 0 0 648 618 634 83 3 634
 0.7529411911964417 0.7529411911964417 0.7529411911964417 15 635 52 0 585 631 0
 17 636 0 635 642 585 637 641 639 0 645 +18 637 53 0 636 625 0 638 ?559 29 638 5
4 0 637 0 626 -0.002125082593635627 -0.001292456141713838 0.000405 16 639 55 0 ?
636 628 643 640 0 0 559 30 640 56 0 639 644 629 0 +-0.002125082593635627 -0.0012
92456141713838 0.000405 -1.192488063850306e-008 1 -0 17 641 0 650 579 651 575 63
6 639 0 0 -17 642 0 635 630 636 625 645 643 0 0 -16 643 57 0 ?645 639 652 644 0
 0 559 30 644 58 0 643 653 640 0 +-0.002125082593635627 -0.001292456141713838 0.
000405 0 0 1 17 645 0 659 654 624 637 642 643 0 651 +14 646 59 648 1e-008 655 63
1 650 594 647 -0 0 655 631 592 50 647 60 0 646 656 632 0 +-0.001225082593635627
 -0.001292456130981445 0.000405 0 0 -1 1.192488063850306e-008 -1 0 81 1 648 61 5
7 646 0 0 657 633 649 83 3 649 0.7529411911964417 0.7529411911964417 0.752941191
1964417 15 650 62 0 641 646 0 17 651 0 650 641 611 637 654 652 0 0 -16 652 63 0
 ?654 643 0 653 0 0 559 30 653 64 0 652 0 644 0 +-0.002125082593635627 -0.001292
456141713838 0.000405 1 1.192488063850306e-008 -0 17 654 0 659 605 645 601 651 6
52 0 0 +14 655 65 657 1e-008 0 646 659 594 656 +0 0 0 646 592 50 656 66 0 655 0
 647 0 +-0.002125082593635627 -0.001292456141713838 0.000405 -1.192488063850306e
-008 1 0 0 0 -1 81 1 657 67 57 655 0 0 0 648 658 83 3 658 0.7529411911964417 0.7
529411911964417 0.7529411911964417 15 659 68 0 645 655 0 1 0 
